<mxfile modified="2024-03-26T03:23:41.600Z" host="Electron" agent="Mozilla/5.0 (Windows NT 10.0; Win64; x64) AppleWebKit/537.36 (KHTML, like Gecko) draw.io/24.1.0 Chrome/120.0.6099.109 Electron/28.1.0 Safari/537.36" etag="Jw8XqMlD3aPkHHnq84-y" version="24.1.0" type="device">
  <diagram id="Ht1M8jgEwFfnCIfOTk4-" name="Page-1">
    <mxGraphModel dx="1434" dy="844" grid="1" gridSize="10" guides="1" tooltips="1" connect="1" arrows="1" fold="1" page="1" pageScale="1" pageWidth="1169" pageHeight="827" math="0" shadow="0">
      <root>
        <mxCell id="0" />
        <mxCell id="1" parent="0" />
        <mxCell id="AgKKOFiebJRXSR-hWWNA-21" style="rounded=0;orthogonalLoop=1;jettySize=auto;html=1;strokeWidth=2;" edge="1" parent="1" source="UEzPUAAOIrF-is8g5C7q-109" target="AgKKOFiebJRXSR-hWWNA-2">
          <mxGeometry relative="1" as="geometry" />
        </mxCell>
        <mxCell id="UEzPUAAOIrF-is8g5C7q-109" value="Prefeitura, ONGs" style="outlineConnect=0;gradientColor=none;fontColor=#545B64;strokeColor=none;fillColor=#879196;dashed=0;verticalLabelPosition=top;verticalAlign=bottom;align=center;html=1;fontSize=12;fontStyle=0;aspect=fixed;shape=mxgraph.aws4.illustration_desktop;pointerEvents=1;labelBackgroundColor=#ffffff;labelPosition=center;" parent="1" vertex="1">
          <mxGeometry x="198.5" y="146" width="100" height="91" as="geometry" />
        </mxCell>
        <mxCell id="AgKKOFiebJRXSR-hWWNA-6" style="edgeStyle=orthogonalEdgeStyle;rounded=0;orthogonalLoop=1;jettySize=auto;html=1;strokeWidth=2;" edge="1" parent="1" source="AgKKOFiebJRXSR-hWWNA-1" target="AgKKOFiebJRXSR-hWWNA-3">
          <mxGeometry relative="1" as="geometry" />
        </mxCell>
        <mxCell id="AgKKOFiebJRXSR-hWWNA-1" value="AWS IoT Core&lt;div&gt;&lt;br&gt;&lt;/div&gt;" style="sketch=0;points=[[0,0,0],[0.25,0,0],[0.5,0,0],[0.75,0,0],[1,0,0],[0,1,0],[0.25,1,0],[0.5,1,0],[0.75,1,0],[1,1,0],[0,0.25,0],[0,0.5,0],[0,0.75,0],[1,0.25,0],[1,0.5,0],[1,0.75,0]];outlineConnect=0;fontColor=#232F3E;fillColor=#7AA116;strokeColor=#ffffff;dashed=0;verticalLabelPosition=bottom;verticalAlign=top;align=center;html=1;fontSize=12;fontStyle=0;aspect=fixed;shape=mxgraph.aws4.resourceIcon;resIcon=mxgraph.aws4.iot_core;" vertex="1" parent="1">
          <mxGeometry x="598" y="366.5" width="78" height="78" as="geometry" />
        </mxCell>
        <mxCell id="AgKKOFiebJRXSR-hWWNA-9" style="edgeStyle=orthogonalEdgeStyle;rounded=0;orthogonalLoop=1;jettySize=auto;html=1;entryX=0;entryY=0.5;entryDx=0;entryDy=0;entryPerimeter=0;strokeWidth=2;" edge="1" parent="1" source="AgKKOFiebJRXSR-hWWNA-2" target="AgKKOFiebJRXSR-hWWNA-1">
          <mxGeometry relative="1" as="geometry">
            <mxPoint x="590" y="406" as="targetPoint" />
          </mxGeometry>
        </mxCell>
        <mxCell id="AgKKOFiebJRXSR-hWWNA-2" value="IrrigationServer&lt;div&gt;&lt;br&gt;&lt;/div&gt;" style="outlineConnect=0;dashed=0;verticalLabelPosition=bottom;verticalAlign=top;align=center;html=1;shape=mxgraph.aws3.ec2;fillColor=#F58534;gradientColor=none;" vertex="1" parent="1">
          <mxGeometry x="348.5" y="359" width="76.5" height="93" as="geometry" />
        </mxCell>
        <mxCell id="AgKKOFiebJRXSR-hWWNA-4" style="edgeStyle=orthogonalEdgeStyle;rounded=0;orthogonalLoop=1;jettySize=auto;html=1;strokeWidth=2;" edge="1" parent="1" target="AgKKOFiebJRXSR-hWWNA-1">
          <mxGeometry relative="1" as="geometry">
            <mxPoint x="840" y="405" as="sourcePoint" />
          </mxGeometry>
        </mxCell>
        <mxCell id="AgKKOFiebJRXSR-hWWNA-8" style="edgeStyle=orthogonalEdgeStyle;rounded=0;orthogonalLoop=1;jettySize=auto;html=1;entryX=1;entryY=0.5;entryDx=0;entryDy=0;entryPerimeter=0;strokeWidth=2;exitX=0;exitY=0.5;exitDx=0;exitDy=0;exitPerimeter=0;" edge="1" parent="1" source="AgKKOFiebJRXSR-hWWNA-1" target="AgKKOFiebJRXSR-hWWNA-2">
          <mxGeometry relative="1" as="geometry">
            <mxPoint x="550" y="406" as="sourcePoint" />
          </mxGeometry>
        </mxCell>
        <mxCell id="AgKKOFiebJRXSR-hWWNA-3" value="" style="dashed=0;outlineConnect=0;html=1;align=center;labelPosition=center;verticalLabelPosition=bottom;verticalAlign=top;shape=mxgraph.weblogos.arduino;fillColor=#36868D;strokeColor=none" vertex="1" parent="1">
          <mxGeometry x="848.3" y="389.5" width="67.4" height="32" as="geometry" />
        </mxCell>
        <mxCell id="AgKKOFiebJRXSR-hWWNA-15" style="rounded=0;orthogonalLoop=1;jettySize=auto;html=1;strokeWidth=2;" edge="1" parent="1" source="AgKKOFiebJRXSR-hWWNA-11">
          <mxGeometry relative="1" as="geometry">
            <mxPoint x="365.5" y="479" as="targetPoint" />
          </mxGeometry>
        </mxCell>
        <mxCell id="AgKKOFiebJRXSR-hWWNA-11" value="MariaDB" style="outlineConnect=0;dashed=0;verticalLabelPosition=bottom;verticalAlign=top;align=center;html=1;shape=mxgraph.aws3.mysql_db_instance;fillColor=#2E73B8;gradientColor=none;" vertex="1" parent="1">
          <mxGeometry x="299.5" y="609" width="60" height="64.5" as="geometry" />
        </mxCell>
        <mxCell id="AgKKOFiebJRXSR-hWWNA-23" style="rounded=0;orthogonalLoop=1;jettySize=auto;html=1;strokeWidth=2;" edge="1" parent="1" source="AgKKOFiebJRXSR-hWWNA-12" target="AgKKOFiebJRXSR-hWWNA-2">
          <mxGeometry relative="1" as="geometry" />
        </mxCell>
        <mxCell id="AgKKOFiebJRXSR-hWWNA-12" value="XAMPP" style="outlineConnect=0;dashed=0;verticalLabelPosition=bottom;verticalAlign=top;align=center;html=1;shape=mxgraph.aws3.android;fillColor=#5A69A4;gradientColor=none;" vertex="1" parent="1">
          <mxGeometry x="192" y="502.40999999999997" width="73.5" height="84" as="geometry" />
        </mxCell>
        <mxCell id="AgKKOFiebJRXSR-hWWNA-20" style="rounded=0;orthogonalLoop=1;jettySize=auto;html=1;exitX=0.132;exitY=0.094;exitDx=0;exitDy=0;exitPerimeter=0;strokeWidth=2;" edge="1" parent="1" source="AgKKOFiebJRXSR-hWWNA-14" target="AgKKOFiebJRXSR-hWWNA-2">
          <mxGeometry relative="1" as="geometry">
            <mxPoint x="518.5" y="526" as="sourcePoint" />
          </mxGeometry>
        </mxCell>
        <mxCell id="AgKKOFiebJRXSR-hWWNA-14" value="Node-RED" style="shape=image;aspect=fixed;image=data:image/png,iVBORw0KGgoAAAANSUhEUgAABA8AAASwCAYAAACU3GN7AAAAAXNSR0IArs4c6QAAIABJREFUeF7s3Ql4FEXaB/B/dU8OwhECyCFyg6IicoOKunKqgHiA1yrrzSGEJICcgSTcVxIiiIiKsLoqCoKCoqICCnKJiCByyI2AXAFCyDHd9aWA/fbQFTI9Sapn/v08++w+z069/b6/aqY7NV1VAjwoQAEKUIACFKAAgBlAxDngEQkkCmBkOvBWApBBHApQgAIUoAAFKCBIQAEKUIACFKBAcAskAEYpoJEAZgK4/t80dgJ4+hSwJgGwg1uJ1VOAAhSgAAWCW4CDB8Hd/6yeAhSgAAWCXEACRhqwzAZa/AnFhlNAywTAG+RcLJ8CFKAABSgQtAIcPAjarmfhFKAABSgQzAKzgPCTQJIAngFQ4lIWEsgE8FZxYED3C/+bBwUoQAEKUIACQSTAwYMg6myWSgEKUIACFFACKcBTAPoDqO2DyF4DmNwXeNmHtmxCAQpQgAIUoIBLBTh44NKOY9oUoAAFKECB/AiodQ0igeYAxgK4OT9t/8dn10pg6Gnga66H4AdNhqAABShAAQpoLsDBA807iOlRgAIUoAAFnAqkAJUAjMCFNw78fcyVwMA44KC/AzMeBShAAQpQgAL6CHDwQJ++YCYUoAAFKEABvwskAwPUtosADL8H/1dAWwDjYy4MUPCgAAUoQAEKUCAABTh4EICdypIoQAEKUIACyUAnA5gggZoACut+vwfAoFjgg7w3HSR7gQIUoAAFKECBwBEorIeJwBFjJRSgAAUoQAGNBVKARnlvGSQBaFdUaUrgCwMYHgOsK6oceF4KUIACFKAABfwrwMED/3oyGgUoQAEKUKBIBKYBFbOB/gLoBcBTJEn820klYBkXdmRIiQH2FXU+PD8FKEABClCAAs4EOHjgzI+tKUABClCAAkUqkAwUs4D7PMCMvJ0Uwoo0mT8+ebYEni0OfNgdyNQwP6ZEAQpQgAIUoMBlCHDw4DKQ+BEKUIACFKCAjgLJQBMBLAYQpWN+/56TBE56gM7RwGrdc2V+FKAABShAAQr8XoCDB7wqKEABClCAAi4TuDhFYZYAbgMQ4pb0BZArgZXhwJM9ubWjW7qNeVKAAhSgAAXOC3DwgBcCBShAAQpQwCUCM4DIs8BQATwHIMIlaf9RmlkSeDVvbYZRccAJF9fB1ClAAQpQgAJBI8DBg6DpahZKAQpQgAJuFUgDwrzAAwIYC6CSW+v477wFcATAUAN4NxrIDpS6WAcFKEABClAgEAU4eBCIvcqaKEABClAgIAQkIKYC13iBdwBcFxBF/XER2yygawawPQGwA7hOlkYBClCAAhRwrQAHD1zbdUycAhSgAAUCWSANKGUD8yXQEoARyLVerM0WwIps4IGBwJkgqJclUoACFKAABVwlwMEDV3UXk6UABShAgUAXmAuYB4FECTwtgLKBXu8f1JcugNfSgfgEwBuE9bNkClCAAhSggJYCHDzQsluYFAUoQAEKBJtAAmCUAh5WawAIoE6w1f/f9UrgFxMYcxJ4i1MZgv1qYP0UoAAFKKCDAAcPdOgF5kABClCAAkEtkAI0UjsPAGgT1BB/ULwElqsBlThgHQBJHwpQgAIUoAAFikaAgwdF486zUoACFKAABZAMlBHAGABPkeOSAq+GAPG9geOX/CQ/QAEKUIACFKCA3wU4eOB3UgakAAUoQAEK/LmA2kVhCtBHAiMBFKPXZQucE8CovsAkwbcQLhuNH6QABShAAQr4Q4CDB/5QZAwKUIACFKDAZQqkAu0lMAnA1QB4H75Mt3/7mBTATgm8EAsszn9ztqAABShAAQpQwBcBPrT4osY2FKAABShAgXwKTATqeYBEAB05aJBPvD/+uFr/4GMTSIgGfvBLRAahAAUoQAEKUOB/CnDwgBcHBShAAQpQoAAFpgJlc4BoAfQDEFqApwrK0BLIATDZA0yNBo4GJQKLpgAFKEABChSCAAcPCgGZp6AABShAgeATSAPCbKCjDbwpgLwfyHkUsIAXwGOlgY+fBLIK+FwMTwEKUIACFAg6AQ4eBF2Xs2AKUIACFChogYtTFOZJoLrgugYFzf3/8SUgDWC3DTwQB2wptBPzRBSgAAUoQIEgEODgQRB0MkukAAUoQIHCEUgDrrCB123gjrwtGDlFoXDY/+gsuQL4Mgx4uifwW9GlwTNTgAIUoAAFAkeAgweB05eshAIUoAAFikhgHBAZBsTgwn+KF1EaPO1/CeTtyJApgDQAybFAOoEoQAEKUIACFPBdgIMHvtuxJQUoQAEKBLlAAmBEAvfkDRhMBFAtyDm0LV8CBwQQdwr4MAGwtU2UiVGAAhSgAAU0FuDggcadw9QoQAEKUEBPgYuDBtUBfAKghp5ZMqs/ENgpgXtOA7s4iMDrgwIUoAAFKJA/AQ4e5M+Ln6YABShAgSAXSAaKAXhdXHjjICTIOdxYfq4EPowCnuSuDG7sPuZMAQpQgAJFJcDBg6KS53kpQAEKUMB1AqnAcAl0B3CF65Jnwv8tcCyvH6fFAqNJQwEKUIACFKDApQU4eHBpI36CAhSgAAWCWEBNUSgNdLSBJAFcF8QUgVr6dgOI/wb48D3ACtQiWRcFKEABClDAqQAHD5wKsj0FKEABCgSsQDJwfd6Wi2MA3BWwRbKwfwp8bADD+gKbSUIBClCAAhSgwO8FOHjAq4ICFKAABSjwXwLjgZKhwEgAvYgTXAISeMkDDI8GTgdX5ayWAhSgAAUo8OcCHDzgFUIBClCAAhT4N4FUoJsEUgCUJEzQCmQIYEAM8FrQCrBwClCAAhSgwH8JcPCAlwQFKEABClAA50cLWklgkgDqEYQCFwU2CWBwDPA5RShAAQpQgALBLsDBg2C/Alg/BShAgSAXSAFqAhglgfsEYAY5B8v/vYAXwAIJDI8DdhKIAhSgAAUoEKwCHDwI1p5n3RSgAAWCXGAqUNYLPCMvrG3AgwKXFBDAUC8wqz+gtnnkQQEKUIACFAgqAQ4eBFV3s1gKUIACFEgAPJFAewB/B1CCIhTIj4AEzpjA41uAz18BcvPTlp+lAAUoQAEKuFmAgwdu7j3mTgEKUIAC+RKYDlQ+B3wmgFoAjHw15ocp8C8BWwK/nAPaDAUOEYYCFKAABSgQDAIcPAiGXmaNFKAABYJcYDpQPhuYIoHOeesbeIKcg+X7SUAClgHMl0D/WA4i+EmVYShAAQpQQFcBDh7o2jPMiwIUoAAFHAvMAsLTgei8V837CSDKcUAGoMAfCEjguAEkRwIvPglkEYkCFKAABSgQiAIcPAjEXmVNFKAABYJcYAYQkgXcZgOvA6gU5Bwsv/AEDtrAMyWAFd25HkLhqfNMFKAABShQKAIcPCgUZp6EAhSgAAUKSUCkAlUAvCuBxoV0Tp6GAv8tsN4GHuoHHAAgyUMBClCAAhQIBAEOHgRCL7IGClCAAhRAAmBEArMA3AcgnCQUKGKBbADzTwFPJgB2EefC01OAAhSgAAUcC3DwwDEhA1CAAhSgQFEKqCkKZ4HeAugP4IqizIXnpsAfCBwB8GIEkMKpDLw+KEABClDAzQIcPHBz7zF3ClCAAkEukALclUeQAKBhkFP4pfyS1aqJqDp1EFqyJHLOnMHJHTtwZt8+Cck3750CC2BD3hSGETHAp05jsT0FKEABClCgKAQ4eFAU6jwnBShAAQo4ERBTgNo2MA5AJyeB2BbwhIej2t13G82HDTPK1av3u+eC41u2yDWjR9t7Fi2yvVncSMDpNSOA+TYwLA7Y6TQW21OAAhSgAAUKU4CDB4WpzXNRgAIUoIAjgWSgmAQGGsAgAIajYEHeWBgGyt1wg+iybJknpHjxS2qogYN5rVt7f9uwQUrLuuTn+YE/FVBrIIyVwIQ44BytKEABClCAAm4Q4OCBG3qJOVKAAhSgAFKBxyQwCUAZcjgTKF65srjrrbfMSs2bC2Galx1MDRoc+e47+cmjj1rnpzPwcCQggOM2EBsHvOMoEBtTgAIUoAAFCkGAgweFgMxTUIACFKCA7wKTgJYGMF4ATQDwvuU7JYzQUPwlNdWs8+CDRlipUj5Hys3IwI7337e/6tPHsrLVpgI8fBWQgBTAWgCDYoGVvsZhOwpQgAIUoEBBC/AhrKCFGZ8CFKAABXwSmARUM4ARAB4RwOX/PO7T2QK7kVrXoO7jjxu3jBplhEVF+e3en33ypFw1YoS9dfZs23uOb987uYokYAlgjprOEAvscRKLbSlAAQpQgAIFIeC3B4iCSI4xKUABClAg+ARmAJGZwJMAxgDwBJ+AHysWApVatBB3TJ1qqvUN/Bj5P0Kd+Okn+WXv3tavK1dyZwbnyDkCGBIK/L0XcNJ5OEagAAUoQAEK+EegwB4k/JMeo1CAAhSgQLAIJABGJNA8b9vFhQBKB0vdBVKnEAgtUQKdFizwVL711kK71x9avVou7NjRm3P6dIGUFWRBT0ig4+m8LR4TALXAIg8KUIACFKBAkQoU2gNFkVbJk1OAAhSggNYCKUB1ASyUwDXcRcFZVxkhIbgpKcmo36OHeTm7KDg72+9b52ZmYuucOfaKfv0sOzfX3+GDLZ4tgZ9s4L7+wN5gK571UoACFKCAXgIcPNCrP5gNBShAgaASmAqUzQHGCuBhAOFBVXwBFHvdk08azQYNMkrVqFHk9/fTe/fK9RMm2JtnzuSv5s77Wi0o8fbFRRXTnYdjBApQgAIUoED+BYr84SL/KbMFBShAAQq4XSANCPMCzwpgGLdedNabQghc2bKluCkx0VT/7Sya/1sfWb9erho61DqwbJmUkrs7OhGWwPG8HUcSTwOvJwA5TmKxLQUoQAEKUCC/Ato9ZOS3AH6eAhSgAAXcIzADCMkA1F+4rwngKvdkrmemJapWFc2HDjWuf/JJQ88M/5XVz2+9ZaudGTL27eMIgvPO2i2AZ9OBVQmA13k4RqAABShAAQpcWoCDB5c24icoQAEKUMAPAmOBqGLAPAm09EO4oA6h1jVo2LevcfPo0aZ688Ath3rzYHViovXdxIk210PwS699bQL3RQNcodIvnAxCAQpQgAJ/JuCeJw72IwUoQAEKuFIgAQiNBKYD6AKgmCuL0CjpGnffLVpNm2YWv/JKARcNHPw/oZQ4e/iw/KpvX3vXggVcD8H5tZUpgLeKATHdAa5Q6dyTEShAAQpQ4H8IcPCAlwYFKEABChSIwFzAPAQ8awEvcIqCc+LyjRuLluPHm1fddlvA3LsPfv21XDl4sHV47VpOZXB4iUjggAGMTwdmcmtHh5hsTgEKUIACfygQMA8g7F8KUIACFNBHYDLQOm8SfgKA5vpk5c5MSlSujKaDB5tqXQM1XSHQDjV9YcusWfa68eOtjP37A628oqjnWwAjYoFlRXFynpMCFKAABQJXgIMHgdu3rIwCFKBAoQukANUBJAF4KG9VeN5jHPRASIkSqNO1q3HHiy+aZmiog0juaGrl5ODLXr2snfPn27kZGe5IWtMsJaDe5HjXAIbFAPs0TZNpUYACFKCAywT4YOeyDmO6FKAABXQUSAA8pS5MT1BvG/BwICAMAxWaNBH3fvyxGVqqVNDdp7PT0+VH995rHfr2W27t6OA6+remg04BadyVwT+YjEIBClAgmAWC7qEkmDubtVOAAhQoCIFU4CEJTABQqSDiB1PMYldcITrOm2eqwQPD4wmm0v+jVtvrxZHvvpOLu3SxMo8c4XoIDq8EtR6CCfTrC3zgMBSbU4ACFKBAEAtw8CCIO5+lU4ACFHAiMBloaACTANySN1Uhb4kDHr4KhJcpg5Zjx5rXPPqoYYaF+Rom4Np5s7Kw7a237JXDhllZx48HXH2FXJDa2WKlF+g7ANhcyOfm6ShAAQpQIAAEOHgQAJ3IEihAAQoUpkAqUNUGBgige2GeNxDP5SlWDNc98YTRbOhQM6J8eS1KVAsYHlixQqpdHXRZoPHs4cNYnZRk/Txnjq3WRuDhSEBKYLoBJHM9BEeObEwBClAg6AQ4eBB0Xc6CKUABCvgmMBEo7rkwRSFZABG+RWErJfDPdQ3az55tRtaqpce9WEoc/+knuTwmxjqwfLms0LSpaD19uln2hhuEEHqkmL5jh/y0Wzfrt++/l9JWP6TzcCBwBkA/CbwbB5xzEIdNKUABClAgSAT0eBoIEmyWSQEKUMClAuJFoJ4XWA0g8PYKLOROKVa2LDovWuQp37ixNvdgaVn49Mknre3vvPO7v8hrdu5sdHjnHVOYZiFL/e/THVq9Wn7UubM36+RJbXJycSLZAJrFAj/nbfHI9SVc3JFMnQIUoEBBC2jz4FLQhTI+BShAAQrkX0BtvSiBNwTQgusa5N/v31uoP75vT0kx6z76qBFaqpSzYH5qrQYNNqSk2N9NmmRlnTjxP6OGRUWhfo8eZvP4eEOXhRxzzpzBz2++aS+PjbX4FoKzC0IClloPwQM8EQ0ccBaNrSlAAQpQIFAFOHgQqD3LuihAAQo4EJgBRGRe2EHhUQAlHIQK+qaGaaLec88Zjfv3N0pWqaLNffeXjz6Sa0eOtI5u3HjZvzaXve460Xz4cKP2/fdrs0Bmxv79ct3EifbmmTNtNRjCw5FABoDZp4CBCQAXl3BEycYUoAAFAk9Am4eYwKNlRRSgAAXcJ3Bx0EANGIwHUNJ9FWiUsRC46vbbxc2jRpkVmzXT5n57fMsW+W1ior1rwQKfFw2ofued4qakJPOKBg20qevw2rVy1dCh59dr0OgqcGsq6QLonw7MTQCy3FoE86YABShAAf8KaHPT929ZjEYBClCAAvkRSACM0kBTCbwM4Pr8tOVnfy9Q4qqrxK0TJhh1unTR5hf6c8eO4Ydp06x148b55Rd6tejjjb17G01eeEGbnSJUT2z7xz/U1o52xoEDHERw+I9TAJsl8EwM8L3geggONdmcAhSggPsFOHjg/j5kBRSgAAUcCcwFzIPAV7iwrgEPBwJqXYMmL7xgtBgxwlR/XGtxSIkd779vf/LYYxbUJn0FcLSZOdO8rls3A5rsyqDWQFidmGitHz/e5noIfunw5aeA9gmAz2+r+CULBqEABShAgSIV4OBBkfLz5BSgAAWKTmAWEJ4OjATwDIDiRZdJYJy5Tteuxm0TJxrFr7xSm3vroTVr5Jfdu1vHt26VBTVwcL73hEDU1VeL21NTzaqtW2tT/9lff5VfRUfbuz78kH/0Ov9ndka9mZT3RZHQHch1Ho4RKEABClDAbQLa3ODdBsd8KUABCrhZIBV42gb6C6CWm+vQIffKLVuKFklJpvpvHfJROZzavVt+PWCAvefjj23b6y20tNSbF9XuvNO4bcIEo3SdOnp4SIkDK1bIb+PjLbXFY6FhBO6JdhrAqL7APwK3RFZGAQpQgAJ/JKDHjZ19QwEKUIACBS6g1jWIBG4CMBrAzQV+wgA/QcmqVUWTgQON6598UpvtC7OOH5ebpk+X68aNs6ycolssX23nqHaXuPH5542IChW0eNawc3OhdmRYN2GCrd5ICPDLszDK+1oAQ/oCa7keQmFw8xwUoAAFil5Aixt60TMwAwpQgAKBLfAicKUXGAHgycCutOCrCy1ZEnUff9y4PSXFFJrM8Vd/GO9futT+7OmnLbUwoi5HeFQU1HoI6m0EMzRUi7Rsy8JXzz9v7XjvPTvnzBktcnJzEgKYAWBUDHDEzXUwdwpQgAIUuLQABw8ubcRPUIACFHC1QCoQLYFJri5Ck+SvvOUW0WnBAk9YZKQmGQFqV4G3mzXz6jRo8N84YaVL4+Fvv/VE1qqlzXPHuaNHsbBDB+9vGzfyLQTnV7NaU2JALPCi81CMQAEKUIACugpocxPXFYh5UYACFHCrQBrQzrrwMF9dLWnn1jp0yLtUjRroMHeup1y9ekLN69fhyDpxQn7Rs+f5dQ2s7GwdUvrTHNSbB1XbtBHqTYRiV1yhxfWo3kI4umGD/Pjhh71n9u/X3lDnBCUgBfALgF6xwDKdc2VuFKAABSjgm4AWN2/fUmcrClCAAhT4I4EUoAGAMQDaUMiZQESFCrgpMdG89vHHDSMkxFkwP7VWUxTWjBpl/Thjhp114oSfohZeGPUWwg3PPWc0j483zbCwwjvxn5zJm5WFn954w16TlKTVtA8tcHxL4mMLGNIf+Mm35mxFAQpQgAI6CnDwQMdeYU4UoAAFfBBIASoBiAHQJ28OsseHEGxyUUD9Sn79U08ZLRISjPAyZbS4V6pBg92LFtnL4uLsswcPuv5V+2IVKojbJ00yat13nzbrIZw7dkyuGjbM3jp7tq3eSuDhu4AEcgSQZgHJ/QF9FuLwvSS2pAAFKBD0Alo8EAV9LxCAAhSggAOBZKCYAXS0gdcEEO4gVNA3VW8XVGjSRNyzYIEZFhWlzT3y5Pbtcumzz1qHvv3W9YMG/32RlW/YULR74w2zzLXXauOd+dtv8qP77rPUlAYOIjj+WjhnAo+VBD5/EshyHI0BKEABClCgyAS0uVEXmQBPTAEKUMDFApOBGw3gUwBlXFyGFqmrwYJ7Fi40KzVvLqDRLgpqPv7uRYuklAE3bvCvfhcC1dq2FZ0++MCjy/QQSIlDq1fLhR07erkrg/N/ohL4zQO0i+ZUBueYjEABClCgiAQ4eFBE8DwtBShAAScC04CK2cAsAdwGQI/J+E4KKsq2hoG2r7xi1r7/fiOkRImizOT/zy1tGxtSUuwNkycH1Rx8tR5Cgz59jKZDhpiGJgtT5pw+jW1vv21/FR1tqQEFHo4EcgB8CaBbLJDuKBIbU4ACFKBAoQtw8KDQyXlCClCAAr4LzAAizwLxAngGQITvkdhSrWtwQ/fuRuMXXjCLV6igDciuhQvt1UlJ9rEffwzav1TL1K0rWowYYdR+4AFDl445c+AA1o4ZY2194w3b9np1ScuteZwFMC0HGD8QOOPWIpg3BShAgWAT4OBBsPU466UABVwpkAaEWUCXi7soqIUReTgQqNKqlbhl9GizfOPGetwHpcTxn36S3w4fbu1atEjyF+4LnVuldWtxy5gxZvkGDbSZSnJozRq5cuBA69dVq4J2cMfBP73/broPwKBTwIIEgCMyfoRlKApQgAIFIaDHQ1NBVMaYFKAABQJAQAIiFagrgbcFcF0AlFR0JQiB4pUqiTYzZ5pqfn3RJfKfZ1bbLX43ebL93cSJXN7/f3RKg+hoo+mgQWaxcuV06TbsnD/fXhYTY2ceOcLBHue9shHAwzHAbgFwUMa5JyNQgAIUKBABbR6eCqQ6BqUABSjgYoHxQMlQYIEEWgqA39cO+lIYBm4ePdpsFBNjCE3m0qtyfnrjDfurPn0sKzvbQXXB0VRNM7ll7FhTrYmgS8XSsvBtYqK1ftw4W5ecXJyHMvxUAg/HAedcXAdTpwAFKBCwAnwYDdiuZWEUoIBbBeYC5kFgJICnuIuC8168/qmnjObx8UaJypW1uecd/OYbuax3b+vE1q2BvYuC8+77jwhCCJSuU0fcnpZmVm3VSpv+PLNvn1w5ZIi1fe5c/mruvM+PSWBqLDCWbyE4x2QEClCAAv4U0ObG68+iGIsCFKCAGwUSACMSeEQCQwRQx401aJOzEKjcsqVQbxvotPXiyW3b5OoRI6wd8+fzj0yHF0utTp1E84QEs9wNN2jxLKN2yDi4fLn9zZAh9m/ffcf+ddi/6sUcAEkxwAccRHCOyQgUoAAF/CGgxQ3XH4UwBgUoQAE3C0wBGktglARau7kOHXIvVauWaD54sHFtt27avN6edfIkNk2fbq0fP972nuMb2f66TsywMDTs29doGBOj1XoIG1980f5+yhTrzD61HiAPBwJqEOZTAQyLATY5iMOmFKAABSjgBwEOHvgBkSEoQAEK+CowFSibC4wA0MPXGGx3QSC0ZEmoKQotx40zdVnXQK1lsP+rr+zFXbtyXYMCvFCNkBDc/fbbZtV27QxPeHgBnunyQ3uzsvDNwIHW1tmz7dzMzMtvyE/+L4FkCUyIA06QiAIUoAAFikaAgwdF486zUoACQS6gdlGYAjynHoYBFAtyDsflV771VtFx/nxPWGSk41j+CnBy+3a54O67rTP793M1fn+hXiJOxJVXis4LF5pX3HijHs83UiIrPR0ftGvnPfrDD5zK4Pw6OAsgNhZ4w3koRqAABShAgfwK6HFzzW/W/DwFKEABFwukAu0lMBkX1jXg97CDvizfsKFoNX26Wb5RI20cc86cwWdPPOHd9/nnUv36zKNwBdRUhip33CHaz5ljhpUurcV1IaXEoW+/lV/27Hl+kczCFQm4sym/bR6gZx9gZcBVx4IoQAEKaCygxU1VYx+mRgEKUMBvAsnADbgwRaETt150xlq8YkXclJRkXvPII4b6Y1GHQw0abEhOPj/XPTcjQ4eUgjoHT0QEGvTpYzbu188IK11aCwt1Xfw0Z46tFs3MPnVKi5zcmoQELAF8YAAj+gI73FoH86YABSjgJgEOHript5grBSjgSoFJQDkP0EsCAwDo8ZeuKyWB0BIlUPdvfzNajhljeorpMdvD9nqx+6OP7K8HDrRO79njUtnATbtklSq4ZexYs/Z99xlqbQQdDjVwsKJfP2vHe+9xAU3nHXLOBsbkAi8PAjgi49yTEShAAQr8TwEOHvDioAAFKFBAAmlAmAV0APAmAE8BnSYowhoeD6685RZx9zvvmOFly2px71Jb82UcOCAXdeliHd24ka+ia34llrn2WnHPwoVmyapVhTD02Ijj9J49csljj1lH1q+X6nri4UhAzRF6yAS+jAayHUViYwpQgAIU+EMBLR7A2DcUoAAFAk1gClDPBj4AUJXrGjjrXbUI4gNffukpe/312vzRp1bPX9q9u7Xz/fdtaVnOCmTrQhNQgwbV27cXd771liekRIlCO++fnUhdP4fXrZPz27TxWjk5WuTk1iQkIAWwLQLo2B3gPplu7UjmTQEKaCvAwQNtu4aJUYACbhSYAZTLBOYAuE3tHujGGnTJWQ0a3PHii2bNzp0NXaZhhu8MAAAgAElEQVQoqIXv1o8bZ2+cOtU6d/SoLlTMI58C4WXK4Ibu3Y0WCQmmEHo8Cqk1M7a++aa9cvBgy8utHfPZo7/7eLYEPvUAT0UDp50GY3sKUIACFLggoMcdk71BAQpQwOUC44DIMCAWQF8AxV1eTpGmb4aGon7Pnkbj/v2NiAoVtLhPqVfK1boG344YYR//6SdOUSjSK8R/J4+65hrRfOhQo07XroYwTf8FdhBJTWVYO26cvfWNN2xOZXAAeaFpugSSiwNp3YFMx9EYgAIUoECQC2jxUBbkfcDyKUABFwskAEYkcC+ACRenKLi4mqJNXb1SrrbYuy052VTz04s2m3+d/diPP8rVSUn2roULOSldl07xcx7V2rUTavcOnbb8VOsgrIiLsw6vWSPVGy88HAnssoDY/sCSvB1viOmIko0pQIFgFtDm4SyYO4G1U4AC7hNQgwZRQC0b+AhATfdVoFHGQqDEVVeJNi+/bFRt21aPlewAZKenY+3o0db3U6Zw0ECjy6UgU1FvvLQYMcJU0xp0OXbOm2cvi4mxMo8c0SUlN+exAcDDMcBewUEEN/cjc6cABYpIgIMHRQTP01KAAu4VSAaKCeANAJ24i4LDfhQCf0lNNa9/+mlDTVfQ4VC/8m55/XX76wEDrNyMDB1SYg6FKBASEYFmw4cbjWJjtVkPwcrOxvrx4601o0ZxIMv5tZArgLfTgR4JgNd5OEagAAUoEDwCHDwInr5mpRSggB8EUoARAJ4DcIUfwgVtCDVF4cbnnz+/rkHxSpW0uRft/+ILe0X//vbxLVv4anPQXp0XClfrIdw2caJR7c47tXkbRq2HsDox0f75H/+wwakMTq/QQwBSYoFUp4HYngIUoECwCGjzwBYs4KyTAhRwn8DFdQ3uyVtkNhHAte6rQK+Mq7RqJW5KTDQrNmsmoMlK9ye3b5erR4ywdn7wgeQidXpdL0WZjdqJoUaHDqJFYqJZ7oYb9HhmkhL7vvpKrh4+3Dq8di0HuZxfIN8LYHgM8BnXQ3COyQgUoEBgC+hxIwxsY1ZHAQq4WGAKUM++MGigpijwcCAQWbu2uDkx8fzK9g7C+LVp1okT+OGll+z148ZZVk6OX2MzWOAIGCEhaNy/v9mwTx8RXq6cHs9OUmLT9On2hpQU6/TevYGDXUSVSOA9CST2A7YXUQo8LQUoQAHtBfS4AWrPxAQpQIFgE0gDSllAPIBobmvrrPdDihdHg+hoo3l8vGl4PM6C+am1GijY88kn9pJHH7Ws3Fw/RWWYQBdQ12+7WbPMmp07G57wcC3K9WZlYXlcnPXzm2/aVlaWFjm5OAlbAhPDgPHPA1zwxMUdydQpQIGCEeDgQcG4MioFKOBigWTgb+LCPNjiLi5Di9Rr3nuv0e6118zQkiW1yEclkb59u1x4773W6V9+4RZ42vSKixIRAqWqVxed5s83y15/vTbPUeotmsVdungPfvMNpzI4v5wyBPBEDPCh81CMQAEKUCBwBLS56QUOKSuhAAXcKjAZaG0AEwDc4NYadMm7YvPm4vaUFLNC48barGuQefQolj79tHffF19Im28b6HKpuDYP9RZClTvuEK1nzvSUuPJKLeqQloUDK1bIZdHR1slt2ziI4LxX1ptAXDSw2nkoRqAABSjgfgEOHri/D1kBBSjgUGACUCvkwroG93PrRWeYJa66StyclGRc/dBDhponrsORfeoUNk6ZYm1ITbW59aIOPRJYOXgiItCwb1+jUVycGRYZqUVx3nPn8OMrr9jrxoyxsk6e1CInFyehtnZ8NwcY8gJw2MV1MHUKUIACjgU4eOCYkAEoQAG3CiQDZdS2iwJIcmsNuuQdVro0ru3WzWg5bpw26xrYlqXWNZDLY2K8Z/bt04WKeQSoQPGKFXH7lClmzU6dDF3W9sg5fVouj4uzd77/vp2bmRmg8oVTlgAsCfTPBt4cBJwqnLPyLBSgAAX0EuDggV79wWwoQIFCEJgBhJwD2ktgNgB9JuMXQu3+PoUwTVzZsqW46623PBHly/s7vE/x1FaLp3fvlgvuucc6tWMHX932SZGNfBUoWa2auHfRIrN0nTpCGHpsLHJ6zx656IEHrGObN0tI/pPwtW8vtjsG4NHKwNcPApbDWGxOAQpQwFUCHDxwVXcxWQpQwKlAMlAZwBcCqA5Ajyd7p0UVUXs1z/v+L74IiaxRA7r8keTNzMTnTz/t/eXDD7muQRFdFzwtoN48qNa2rbjzrbc8ISVKaEGi3sQ5tmmTnN+unTfnFH84d9IpF99C2BYB3N6dbyE4oWRbClDAZQIcPHBZhzFdClDAN4FUoIIE0iRwjwBM36KwlRIoVq4cbps82ax9//2GGRamBYpaKG51UpK1eeZM+9wx9cMgDwoUvUB4mTK4/sknjZtHjTLVWzo6HGoNkJ///nd75dChllobgYcjgWy1HkIoMKAXwMUlHFGyMQUo4AYBDh64oZeYIwUo4LPALCD8JBADIFYAUT4HYkOoP34axsQYjWJjTW2mKFgWdn34ob165Ej7uHolmwcFNBQoXbs2Wgwfbtbu2tUwNBlEUFMZ1o4da/80a5atIZmrUpLAYQFMrAy8xKkMruo6JksBCuRTgIMH+QTjxylAAXcIXFzX4C8SeBVAJXdkrWeWateEq/7yF9HutdfMiIoVtblvHN+yRa4cMsRSiyLqKcesKPCfAmprx1snTjTL1a+vzb+joxs3ymV9+1qH16yRar0QHo4EdgF4ujKwmoMIjhzZmAIU0FRAm5uXpj5MiwIUcJmABEQqUE0CbwugscvS1y7dElddhfZz5ngqt2ypzf0i58wZrIqPtzZNn25z8TftLhkmdBkCdR97zLg9JUWbrR1VyjvnzbO/6NnTyk5Pv4wK+JFLCCwH0C0WOEQpClCAAoEkoM3DYCChshYKUKBoBBIAIxJ4A8B9APSYjF80FH45a/vZs81a991neMLD/RLPH0HU3vXqbYOc06f9EY4xKFBkAmohxebx8Waj2FhtFm5V2zn+MHWqtWrYML6C4PzKUAtKzI4Fop2HYgQKUIACeghw8ECPfmAWFKCAAwE1ReEsEC0urG1QwUGooG+qVom/8fnnjSYDBhjFypfX5h6x97PP5DcDB1pqqkLQdxIBAkqgzLXXipuSkoxanTtrM4ig1kNYNWKEvf2dd/h2j/OrbZ8NTFwNvPoet3Z0rskIFKBAkQpo82BYpAo8OQUo4FqBKcCdNjAcQBPXFqFJ4jU6dBDNhg41KzRpos294eT27XJVfLy9a+FCm/OxNblQmIbfBdRWp9Xatxc3jxyp1XoI+5YulWuSkqxDq1dz0M5hrwvgGxsYEQd87TAUm1OAAhQoMgFtHhCLTIAnpgAFXCmQDNQWwHgAnVxZgC5JC4HIOnXELUlJhtp6UZe0Mo8exY8vv2ytGTmSr0/r0inMo1AEmgwaZNzYq5dZvGLFQjnfpU6itkFV04XWTZhgnz14kIMIlwK79P//dwAjY4E9l/4oP0EBClBALwEOHujVH8yGAhS4hMAMIOIsMFAAAwFo88euGzvOExGBxv36mc3j47VxtHNzseeTT+xPu3Wz1PxrHhQIRgG1zkjrl18263TpYhihodoQfPbUU9aO996zrexsbXJyYyISsAxgiAG8FA0Q042dyJwpEKQCHDwI0o5n2RRwo0Aq8JgNTBZAlBvz1ynn6554wmg5frwZHqUPZfrOnfKDO++0Mg4c4JZxOl0szKVIBIQQKF65sui8aJFZ9rrrtHleO3PgAL549lnvvi++4FsIzq+MoxLoEQd85DwUI1CAAhQoeAFtbkYFXyrPQAEKuFUgFWgugckSaCoAfm856MiKzZqJ21NTzfKNGgk1z1qH48yBA3JFXJy968MPua6BDh3CHLQSUIMI1Tt0ELdNmmRG1qypxfef7fXiwLJlUm3teGbvXg4iOLhi1FsIAFZaQMwAYLODUGxKAQpQoMAFtLgJFXiVPAEFKOBKgalAtVwgQQIPC8B0ZRGaJB1Zu7ZoMXy4cc3DD+sxYgAg9+xZbEhJsTamptrZ3HpRkyuFaegqEFqyJG7s3dto3L+/qf63DodtWdiYlmZvSE62Mo8c0SElN+fglcDMMGDs88BhNxfC3ClAgcAV4OBB4PYtK6OAawVSgNICeFICowF4XFuIBomHlS6Nes8+a7QYMcI0NZk7reZL7/38c7n06ae9WSdPaqDEFCjgHoHQUqXQZuZMT/W77hJqbQQdjnPHjuHrAQOsHe+/z/UQHHaIBDIF8IIXeGsAcNZhODanAAUo4FcBDh74lZPBKEABJwJzAfMg0ALAfHBdAyeUMEwTFVu0UPOlPSHFizuK5bfGUkKta7Do/vutE9u28VVnv8EyUDAKlKpVS9wzf74ZVbeuUFMbdDjOHjqE9++4I/f0nj3g1qrOeiRvLYTDHuDOE8DPCQB3nXHGydYUoICfBPS42/ipGIahAAXcK5ACVJfAIgHU5i4KzvqxzHXXibvffdcsc/XVApr8UaHmSC/u0uX8Imtcqd1Z/7I1Bf4poN4mqnzbbeKeBQs8uuzKoLZ2PLhypVzy6KPezN9+Y2c5ELi4K8NGCdwfCxxyEIpNKUABCvhFgIMHfmFkEApQwFeBZKAMgAkCeBCAHu/g+lpMEbcLL1dO/CU52ah5772GLq8ze7OysH7CBGvTtGk2pygU8QXC0wesQFhkJG7o3t1oOmSIGRIRoUWd2adOYevs2fY3gwdbagtWHo4ETkngreLAkO4A97B1RMnGFKCAEwEOHjjRY1sKUMBngTQgzAKey1s3byguDCDw8FEgpEQJ1O/Rw2g6eLA2C6lBSvyyYIG9OinJPr5lC6co+Ni3bEaB/AhE1qkjbhoxwqjTtauhzVSGw4flyiFD7O3vvmtzECE/vfmHnz0IIPEU8GYC4HUcjQEoQAEK5FOAgwf5BOPHKUABZwIzgJBM4FYAMwFUcRYtuFsbISGo2rq1uGPaNLNklSpafJ9Lta7B9u3yy169rINff81Bg+C+RFl9EQlUatFCtJo+3VRTmHQZRPjt++/lst69rSPr10v1PcHDdwFxYUvHnunAOq6H4LsjW1KAAvkX0OJhM/9pswUFKOBGgalAWS/wngRaujF/nXKOuOIK3LN4sad8gwbafI/nZmTg64EDrc0zZ3JxL50uFuYStAJXP/yw0WrqVFPt0KDLsevDD+1Pu3WzcjP59r0f+uSTUOCvzwMZfojFEBSgAAUuKaDNQ+clM+UHKEAB1wokAKGRwHQAXQAUc20hGiSupii0ff11T4277hJmWJgGGV1I4fvUVHvt2LFWNrde1KZPmAgFlIBaD6HxgAFmkxdeMHQRyTlzBj9Mm2avSUqy1GKqPBwJqIGDWZWBFx4ELEeR2JgCFKDAJQQ4eMBLhAIUKDCBBMCIBJ4B8AKAqgV2oiAILEwTjWJjjYbR0UZExYp6fHdLid1Llshv4+OtY5s28T3kILgOWaJ7BcrUrStajBhh1Lr/fm3WQ1Bbt36bkGDvmDuXbys5vLQk8IsJjOwL/MNhKDanAAUo8D8F9HgAZQdRgAIBJzAFuMMGRgJoFnDFFWJBwjBQ7a67jJajRxtq/nIhnvpPT3Vs82a5bswYa8e8eVItjsiDAhRwgYAQqNmhg2g+fLh5hUZTntQWrqsTEqzDa9fy+8T5ZfSZDYzqB6x2HooRKEABCvyngDYPouwYClAgMARSgOoSGHlx60V+x/jarUIg6uqrRcsJE0w1RcHXMP5ul3n0KDa99JK1dswYm4MG/tZlPAoUkoAQ599kahQTo82bTNK2z09l+G7iROvs4cOFBBGYp5EXpi+8EgaMfR4gZmB2M6uiQJEIaPNAWiTV86QUoIDfBC7uotBfbSPlt6BBGsgMDUXL8ePNG59/Xps5ytKysPezz+THDz/s9Z47F6Q9w7IpEFgCat2UNjNnmlerrR1NU4vi1E4MareWrbNn21wPwXmXmECPE8Acbu3o3JIRKEABgIMHvAooQAHHAmnA/V4gVQAVHQcL4gBqS7V63bsbLYYPN4uVK6eNxJHvvpOf/PWv1ulduzg/QZteYSIU8J9AyapVxZ1z5hiVbr5ZjwFLKXF6zx75effu9sFly7gegrOuVt/beyXQOw74zFkotqYABYJdgIMHwX4FsH4KOBCYDDQ0gGQANwHQ46HTQT1F2bRau3bipqQks3zDhgJCj69m9fD+zeDBttpazc7NLUoenpsCFChgAcPjOb++yq3jxxula9fW4ktITWVQ6yGs6NfPOvnzzxy8dHYNeCXwhQeIiQZ+cRaKrSlAgWAV0OLmEKz4rJsCbhWYBFQzgQEAnnNrDbrkrRZBbDZokKH2Y9clp+xTp7Bp+nRr/fjxdu7Zs7qkxTwoQIFCEPAUK4ZG/foZDfr0McOjogrhjJc+hZWdrb6T7O8mT7Yyjxy5dAN+4s8E1EjwFAFMiQGIyWuFAhTIlwAHD/LFxQ9TILgFJgLFPcAjACbm/ad4cGs4qz6sdGnUe/ZZU22dptY40OFQD+h7lyyxP3/mGUsNIPCgAAWCVyAsMhKtp083q3foYKgBBR0O9b2k1kNQb0Op7ysejgROSCC6OPBBd4CvljmiZGMKBI8ABw+Cp69ZKQV8FkgAjEigPoBvAOjxl67P1RRtw/NbL7ZrJzotWOBR/1uXI+PgQTmvXTvr1I4dfDVYl05hHhTQQKBk1aro8sUXnpLVqmnzzJiVno55rVp5j2/Zwq0dnV8jp0ygRR9glwD4/e/ckxEoENAC2twIAlqZxVHAxQJq60XkrdQMoBnXNXDWkVfUry/azZ5tqqkKanFEHY6cM2ew+KGHrF9XrLCtnBwdUmIOFKCAZgJGSAgq3XST0eG99/SZypCTg0MrV9qLH33Uzj5+nH/0Ortm1JsHX0QAT3UHjjkLxdYUoEAgC+jx9BrIwqyNAi4VmAFEnAUmigvTFEq4tAwt0o4oXx5/SUsza3TsqNUUBTV/eGNamp114oQWTkyCAhTQW0BNt7qhRw+j2eDBpk5TGbbOmWOtHDrUtrKy9AbUPzs1leG100B8AsBdLvTvL2ZIgUIX4OBBoZPzhBTQWyAZKCaAvwIYB6CU3tnqnd35B+3u3Y3mw4aZaj91LQ4psXPhQrly6FBOUdCiQ5gEBdwnUKp6ddwyZoxZ54EHDF12h8n49Vesio+3drz7Lt+icnhJCeCADQwpDszjeggOMdmcAgEmwMGDAOtQlkMBXwXUugalgaYSeBnA9b7GYTtAbXlWpU0bo82MGUbxSpW0+J5VW56d3LZNftG9u3Vo9Wq+4ssLlQIUcCxQvlEj0eaVV8yy9eoJXdZwObpxo1SLvh7btInfc457GKsMoHdfYLPzUIxAAQoEgoAWD7WBAMkaKOBmgRlASCbwOYCb3VxHkecuBNQUhYfXrPGUuPJKbb5f7dxcfNWnj7Xl9df5GmqRXyRMgAKBJ3D1Qw8ZbV97zdRl5xglvOezz+QnDz7ozc3MDDzwwq9o4am8KYwJgLfwT80zUoACOglo83CrEwpzoUCwCMwFQg8CSQC6c+tFZ72upii0eukls2anToZOUxS+T0uz140ZY2WdPOmsQLamAAUo8CcC6juwYXS00XToUFOXBWHV1o4/TJtmr0lKstTbVzwcCaQDmHIKGMv1EBw5sjEFXC3AwQNXdx+Tp4DvAinAEwAG5e2kUNP3KGypHpKbDh1q3Nijh1GsfHltvlN3L1pkr05MtI+qV3cl397llUoBChSOQJlrrxXNhw0zanfpYugyiHBy+3a5ZtQoe/s773AEwfllsCVvk+GEvsBC56EYgQIUcJuANg+6boNjvhRwo4Ba1yASaI68Xw44RcFZD6p1DWp06CBajh9vRtasqc13qZrnu3rUKHvXggV8SHbWxWxNAQo4EKjeoYPRYtgwo3zjxnp8P0qJ/cuWyVXDhllH1q3jiKqDvpWAFMASGxjeD/jBQSg2pQAFXCagxxe6y9CYLgXcKJAMVBbAUADPuDF/nXIuU7euuHXyZLNa27bafIeq7RY3pKTYGyZPtmwvp6XqdL0wFwoEq4AwTdTv2dNoOmiQqdaD0eX4YepUe/2ECdbZw4d1Scm1eQhglBd4qT9wzLVFMHEKUOCyBbR58L3sjPlBClAgXwISEKlAXwAT8tWQH/6dgFpNvN2sWeY1jzyS99amJoeU2PHee/Ynjz1maZIR06AABSjwO4F2r79u1v3rX7XZ2lENsn79wguWWhOBU7scX7C5BvBsNPC2APhWh2NOBqCAvgIcPNC3b5gZBRwLpALtAbwogWoA+O/dR1E1aFC/Vy+j2ZAhZrFy5XyM4v9mv65aJb/s2dM6sXUrH9b8z8uIFKCAnwUi69QRraZMMdRWtn4O7VM4KSUy9u2TS597ztr/1Vf8HvVJ8f8bqaly223gb/2A752FYmsKUEBXAf4xoWvPMC8KOBCYDDQ0Lqxr0MpBGDYFoObt3pSQYFxx443afF9mHDggVwwYYO/68ENbbcPIgwIUoIBbBIyQEFRv317clpxslqpeXY/vVSmxZ8kS+9vhw+2jP/zAQQTnF9N8CQyLA3Y6D8UIFKCATgJ6fGnrJMJcKOBigfHAlaFALIBeAEJcXEqRp65WDFeDBrXuvVeb12zVugabXn7ZWjtypG1bnKVQ5BcJE6AABXwWUG90NRk0yLixVy9t1kPwnjuHH156yf5uwgRub+tzz15oKIAMCUyOAKZ2B045DMfmFKCAJgIcPNCkI5gGBZwIJAARpYCOApgJoJiTWMHeNrxMGdzYu7fRfNgwUxcLKycHez75RH7Ro4c36/hxXdJiHhSgAAUcC4SVLo1WL71k1uzUyTDDwhzH80cAtR7CZ926eXctXizVgAIPRwJq4OCRU8CKBCDHUSQ2pgAFilyAgwdF3gVMgALOBFKABnnbLn4GoLSzSGx99UMPGWpBRLUNoy7HuaNH8VbDhrmZv/2mS0rMgwIUoIDfBcKjovDoxo0hJSpV8ntsXwNm/vab/ODOO63jmzdzKoOviBfbCWCfBNrEAnschmJzClCgCAU4eFCE+Dw1BZwIzAQqZABzALTkFAUnkkCFJk1E21dfNaPq1hXqVVodjnPHjuHLHj28uz/+WHLrRR16hDlQgAIFLaAGbqu2bStaz5jhKV6xYkGf7rLiqze/fl25Ui564AFvbkbGZbXhh/5YQAJZAvhUAt3iAL7SwQuFAi4U4OCBCzuNKQe3QBpQygaGS+CZvO0XI4Jbw1n1kbVr45ZRozy1779fm+9CtQDi2rFjrU3Tp9ucouCsf9maAhRwp0BYZCRu6NHDaB4fb5qhoVoUkZuZCfW9vG7sWCvn9GktcnJxEicEkGYDKRxEcHEvMvWgFNDmgTko9Vk0BfIhkAaE5QJdDWA0AH3e68xHDbp8NCwqCvV79jSbvPCCERKhx/jL+XUNPv7YXh4XZ6vdFHSxYh4UoAAFikogomJFcXtysqHTeghn9u+Xq4YNs7fPnWtLLlzr9NJQ+wwPOw0sTgDUVo88KEABzQU4eKB5BzE9CkhATAauNYA3BVCPIr4LqF+wKt92m7jrH//wqEW6tDikxMnt2+VXvXtbB5Yv56CBFp3CJChAAZ0EKjRtKtq88opZ5rrrhBB6PLqe+PlnubhrVyt9xw4pbf7d6/B6WR4CPNMb2AeA90GHmGxOgYIU0OMbuCArZGwKuFhgIlA8BHhfAq0u7HzEw1eBUjVqoMuXX3pKVK6sleMnjz1m7XzvPVtKPi/52rdsRwEKBIGAEKjRsaPRad48bXbCgZTY++mn9uKHH7a8mZlB0AkFWqIagfn7KeB57spQoM4MTgFHAlo9RDuqhI0pEEACCYARCSQA6A4gKoBKK/RSQkuUgNpBodqdd2q1DdjGtDRr/cSJXNeg0K8InpACFHCzgNqVoX6vXkbTIUNMMyREi1KyTpzA5ldftVcNG2ZpkZC7kzhiABP6Ai+6uwxmT4HAFODgQWD2K6tyqcDFQYOHAMQDqO3SMrRI21OsGJoMHGjc+Pzzplp8S5fjlwUL7LWjRtlHN23iqwa6dArzoAAFXCdQ5tprRfNhw4w6XdVSQHocagrD2jFj7G3vvMP1EBx2iQC+k8CoWOBjTmVwiMnmFPCjAAcP/IjJUBRwIpAMNMn7B6neNmjnJE6wt1VbfdXo1MloOW6cEVmjhh7fcVLi+E8/yVXx8fbuRYs4OTbYL1LWTwEK+E2gauvW4uYxY8zyDRoIaLIewr6lS+W3w4dbR9av5yCxs55W98v3bSCpH7DdWSi2pgAF/CGgx4O1PyphDAq4VCANuMILDBcXpijw8FVACETWqiXav/GGWbFZM22+29TrrBsmT7a+mzSJ6xr42rdsRwEKUOBPBNQiiv/c2rFYuXLaWP34yiv2mqQkK/O337TJyY2JyAuLKI4UwNRYIN2NNTBnCgSKgDYP2IECyjoocLkCaheFNKC7DUwEEHa57fi53wuoKQpqXYNa995rCEObN1ixdc4c+4uePS07N5fdRgEKUIACBSyg3jy7LTnZqN+jhzaLKlrZ2fj6hResTS+/bKsFFnk4EjjtAR7vA3ziKAobU4ACPgtw8MBnOjakgO8Ck4D2HiBZXljXgP8OfaUUAk0HDjQa9OljFLviCm0cD69dK7/s0cM6vmWL5C4KvnYu21GAAhTwQUAIlLnmGnH7lClmlTvu0Oa+kL5zp1wRF2ftWbKEIwg+dOs/m6i3EASwCcCzscBGB6HYlAIU8EFAmy9VH3JnEwq4TiAVqJ83gU+ta9BBcNDA9/4TAuotgxbx8UbZevW0+R47tWuX/HrQIHv3woWcouB777IlBShAAccCaipDtQ4djJZjxhhl6tbV4j4hbRt7P/nEXjVihH2Mi+Y67WP1St876pmqH7DfaTC2pwAFLk9Aiy/Ty0uVn6KAewUmAeUMoI8A4jhFwVk/XnHjjbSMeokAACAASURBVKJ5fLyhFkVUD4c6HFnHj+OH6dPt9ePGWVZOjg4pMQcKUIACFABghISgUVzc+TfUIsqX1+KmoaayrZ8wwd40fTrXQ3B+lZ4RQHwuMHsAcNZ5OEagAAX+TECLL1F2EQUCVWAWEJ4OdAQwG4AeG1K7FDu8TBk0HTzYbNi3rzaLGqiBgoPLl9ufPPqolX3qlEtlmTYFKECBwBcILVkS7efMMau2aWOYYXosM+TNzMTSHj2sXQsW2N6srMDvhAKsUAInBPBwBLCyO8CFhgrQmqGDW4CDB8Hd/6y+AAUmAvU8wEIAV3FdA2fQ13brZvwlLc0MiYhwFsiPrdV+3vPatvWe/fVXP0ZlKApQgAIUKEiBiPLlce+SJZ5yukx5kxJnDh7E/HbtvKd27uR6CA46/+J6CD+awF3RwFEHodiUAhT4HwIcPOClQQE/C0wFyuYAcwRwO4BQP4cPqnCVb71VtHrpJTPq6qu12b8769gxubRXL1vNW1WraPOgAAUoQAF3CZihoajaurVo/corZkSFClo8C9teLw4sXy4/f/ppDko7v5wyASyKAJ7rDqj/zYMCFPCTgBZfmH6qhWEoUKQC44DIUCBOANEAihdpMi4/uVrc6qbERKOm2npRk3UNcjMz8d3EidYPU6fanKLg8guM6VOAAhRQo/slS6J+z55Gk0GDzNASJbQwUfeXH195xVo3dqydm5GhRU4uTuIwgOTKwEsPAlyQyMUdydT1EeDggT59wUxcKpAAGFFAZwsYJ4AaLi1Di7TDo6JwY+/eRuP+/U1PsWJa5KQWttq9eLG9vF8/O2P/fr5SqkWvMAkKUIAC/hMofuWV4rYJE84PWKu3EnQ4Mg4exNf9+3t/WbhQqrcSePguIIEfBDAgFljmexS2pAAFlAAHD3gdUMBHATVoUBKoLYD3BVDXxzBsBkAtXlX9rrvEXW+95VErY+tyqK0XP+3WzTq8di0HDXTpFOZBAQpQoIAE1G4+d/3jH2bpOnW0eT4+uW2bVIvyHt+yRaqtHnn4LiCBzyXQox9wAADv675TsmUQC2jz5RjEfcDSXSiQDBQzgFdt4H4BmC4sQZuUy15/vei0YIFZqmpVbdY18J47h48fesi79/PPpbQsbayYCAUoQAEKFKyAME2o9XY6LVjg0WWRXnUf2rNkif3xgw9aVi43EnB4BeRKYFosMFBwAMEhJZsHowAHD4Kx11mzI4EUIEEAz+bdfK5wFCjIG6spCu3//nfPVbffLnTZNkv9qqP23v5h6lTuvR3k1yfLpwAFglsgvGxZ3PDcc0bz+HjT8Hi0wMg6eRI/zphhr0lKsjiVwXGX7AcwNhZ41XEkBqBAEAlw8CCIOpul+i7wz3UNJBAvgXq+R2LL0MhINIqNNRtGRxshmixQpXrllw8+sNeMGmUf+/FHvsrIy5QCFKAABc4LlLn2WtF82DCjTteuhi4k6Tt3ytVJSfaOuXNtTmXwvVcubu24Ku+mnxAHLPc9EltSIHgEOHgQPH3NSn0UeBG4wQISJdDRxxBsphZYMU3U7txZ3DJ+vFmqWjU9vnukxLHNm+WqoUOtPZ9+KiE5bsCLlQIUoAAFfi+gpjLcOnGiWb5hQ22m2O1futReOWyY/duGDbx5ObxoBTBTApNjgV0OQ7E5BQJaQI8H+IAmZnFuFbi49WK8APpwcVHfe1EYBkrVrCk6f/ihWbq2Wl9SjyM7PR1rRo2yNqalcQUqPbqEWVCAAhTQXqB+jx5Gi4QEM7xMGS1ylVJiy6uv2quGD7eyjh/XIie3JiGBHAOITwdmJACZbq2DeVOgIAW0eZAvyCIZmwL5FUgG/iaANAB67BeY3wI0+bxabKrt66+bNTt3NgxTn3Ult8yaZa+Ii7Nyz57VRIppUIACFKCAWwTUVsI3jxxpNoiO1mYqgzcrS23taP34yiscEHd2Iam3OM6awH3RnMrgTJKtA1KAgwcB2a0syleByUBrA5gE4HpfY7DdBYEWiYnGDc8+axYrV04bkoMrVshl0dHWia1bpfq1hgcFKEABClDAJwEhEFWnjrh9yhSzauvW2jxPn/z5Z/nNkCH27kWLOIjgU8deaHRxPYRvDKBvX2Czg1BsSoGAEtDmyy6gVFmM6wQmALVCgJEA7gWgx7LKrlO8sK5BrXvvNW5OSjJ02if7xM8/yzWJidaOefM4YuDC64opU4ACFNBZoFanTqL5iBFmufr1tXiuVls77vr4Y/ltfLx14qefeN9zdvFkSmB23raOI2KBdGeh2JoC7hfQ4kvO/YyswK0CU4GyucBzeWsaJLq1Bl3yVotI3TxypFG1XTttXuPMOnECP86caa0dPdq2srJ0oWIeFKAABSgQYAJmaCga9etnNOjTR5s37tQbduvHjbM2TZ9unz18OMDEC72cbAB9QoH3nwcyCv3sPCEFNBHg4IEmHcE0CldgBhCSCbQBMAdAZOGePbDOFhYZiVvGjjXrPfOMNoMGVk4O9n/5pfzovvu86hcYHhSgAAUoQIFCERACHefONau1b2+Y4eGFcspLnSTn9Gl80bOn9cuCBbadm3upj/P//3OB3RbwaAbwfQLAqSG8WoJOgIMHQdflLHgGUOks8KUAagDQ5g9eN/ZM/V69jFtGjzZDihfXJv3jmzfLj7p0sU7v3s2tF7XpFSZCAQpQIIgEhECJKlXE3W+/bVZs2lSLZ231FkLmkSOY37Zt7slt24KoM/xfqgTUrxIbPECraEC9kcCDAkEjoMUXWtBos9AiFUgFKkjgRQAdua6Bs66ofvfdRstx44wydetq8x2SdfIklj71lHfv0qXSyua93FkPszUFKEABCjgVUFMZrrrjDtFu1iw1lUGL+6Xt9WL/55/bX0VHW6f37nVaYlC3l0CmAfw9BBjMqQxBfSkEVfFafJEFlTiLLXSBBCC8FBADoK8AyhZ6AgF0wqhrrhG3jB5t1OjQwVCLI+pwZKenY+OLL9rfTZ5seTO5LbMOfcIcKEABClDgXwKe8HA06NvXbBQXZ4RHRWlBo6Yy/DB9ur1u9GhLbfPIw3cBCeyVwIQ44NW8hRW5QKXvlGzpAgEOHrigk5iibwJqXYMzQCsTeAlAFd+isJUSiKhQAQ2ef95sPHCgIYQeXxtqLQO1FdXy/v3tM3vVfZsHBShAAQpQQF+B4ldeidsmTTLVrkSGR4+NnbJPncLS7t2tPYsX23xrz/G1swFA7ClgDddDcGzJAJoK6PFXgKY4TMu1AiIFqCGBNwTQwrVVaJC4GRaGmp07G21ffdVUv5zocEjbxtmDB+UHd9/t5bxNHXqEOVCAAhSgQH4ESlWvjvs//9xTskoVIQw9ll5SWxov7trVOrl9O9cLyk9n/sFnBfCuF4jtDxxzGIrNKaCdAAcPtOsSJuREQAIiFZgN4D4AYU5iBXvbyNq1xf1Llphq0Sdd3jbIzcjA5889Z+1auJArRgf7Bcr6KUABCrhYQL15ULVNG9H+zTc9YaVKaVGJ2onhwFdf2Qs6dbIg+UKfw045B2BSLDDSYRw2p4BWAhw80Ko7mIyvAhe3Xuyr1jUAUMHXOGwHlKhaVbSaNs2s1ratNr+IqH5ZO3q0vWn6dCvzt9/YTRSgAAUoQIGAEChWtizqPfus2SIxUZtpgWotoU0vv2yp+y6nMji7zATwS16EhL7AXK6H4MySrfUQ4OCBHv3ALBwIpAB3CWC4BBo7CBP0TcMiI9FowADjxp49zdCSJbXwUKtC7/7oI3vV8OH2yW3b+DOIFr3CJChAAQpQwN8CpWrVEjcNH27U6dpVm/UQ1BSG1YmJ9o733rP9XW8QxvtMAIkxwLogrJ0lB5AABw8CqDODrZTJwNUCGCcubL3Iw0cBtZVUjY4dxR1Tp3qKlSvnYxT/Nzv244/y2/h4a/fHH3PQwP+8jEgBClCAAhoKVLnjDnHLuHFm+YYNtXlG379smfxmwADr2KZNUnI6g5OrxraB6QCS+wH7nQRiWwoUlYA2X0xFBcDzuk9gGlAiB3gBF/6jx0pD7mOEWqSpzHXXiU7z55ulqlfX5rsg58wZrBw61Prx5Zf5S4cLryumTAEKUIACzgWuf+opo+X48aZ6K1CX48cZM+xVw4ZZaocGHo4Ecmzg6RBgQTSQ7SgSG1OgkAW0+YOhkOvm6VwqkAL8FUAqAH3upi609ISF4e558zxV77hDGCEhWlSgfs3Y8tpr9jeDBllq/2keFKAABShAgWAWCC1RAs2GDjUbxsYauuzKkJORgdUjRlgbX3yRA/zOL85DeWsiPB4DrHAeihEoUDgCHDwoHGeexaFAGtDCBibbQJO8OWO8bn30VNsttkhMNK9/4gkjLCrKxyj+b7b3s8/kykGDrGObN3OKgv95GZECFKAABVwsoN4SvHnkSKNmp056vG0pJY5v3Xr+vr1nyRLet51dW14AX3qBPgOA3c5CsTUFCl6Af4QVvDHP4EAgBaied1dKAPCQAEwHoYK6qTBNXP3gg0azIUOMqGuu0ebf/cmff5ZrRo60dsybJ6WaCciDAhSgAAUoQIHfCagtk2t26iSaDRtmXtGggTb38V8WLLDXJCXZHPx3fNFmSyAtFEjuDRx3HI0BKFBAAtp8+RRQfQzrUoFxQGQY8KQERgkg1KVlaJG2WnTp9pQUo9LNN+vxiwWAc8eO4ceZM+21SUmWbVlaODEJClCAAhSggO4C6seApoMGmTf27CmKlS+vxXO82hnp+9RU+/vUVG6n7PACEsBxCcSVBj54EshyGI7NKeB3AS2+dPxeFQO6VmAuYB4AbhbA+wD0ea/ehaLhUVG4deJE89pu3bQZNLBzc7Fr8WL56eOPe7l3tAsvKqZMAQpQgAJaCBihoWg7c6ZZ+4EHDLVrkg6HNysLS/76V6+ayqDu9zwcCezKAu4cBOwVAKeGOKJkY38KcPDAn5qM5UhATVEQwGIJ1OIuCo4o0bh/f6Pp4MFmaMmSzgL5sfWJn3+WHz3wgHX6l184RcGPrgxFAQpQgALBKaCmMpSsWVN0fPdds1z9+to805/etw+fPPKI98i6dfyj19mlqdZD+FpN3Y0F0p2FYmsK+EdAmy8a/5TDKG4UeBUocwaYCKALgGJurEGLnIVArc6dDbWokk7rGmQcPIivevc+/0uE5BQFLS4VJkEBClCAAoEjoHZiqNaunfjLiy+apapV0+LZ3srJwZ5PP5Vf9e5tZR46xEEEZ5fbSQG8mg4kJgA5zkKxNQWcCWjxBeOsBLZ2q0ACEBoF9LSBgQDKubUOHfIu36iRaDZ0qFGjQwd9tnM6fRrfp6VZG5KT7dyMDB2YmAMFKEABClAgYAVCIiLQIDraaBQXZ4aVLq1Fnd7MTGxITbW+T0mxs0+d0iInFyexC0BiZWDugwAXjHJxR7o5dQ4euLn3XJp7AuCJBG4DMBNAFZeWoUXaxStWhHpIaBgTo9W6BvuWLpVLn3vOm3nkiBZOTIICFKAABSgQLALhZcqcXw+havv22qyHcO7YMbmsd29r16JFUr2VwMORwEoA/WKA77kegiNHNvZBgIMHPqCxie8CM4By54C5EmjpexS2NEJCcPXDDxutp00zzfBwLUCklDi9a5f8oGPH8+saaJEUk6AABShAAQoEqUCJKlXEfZ98YpauXVuoqQ06HOk7dsj57dt71ZRGSD4qOOkTAbyZC/QZAJx1EodtKZAfAQ4e5EeLn/VZYAYQcu7/2LsPMCmKtA/g/+qeDeyyu6RdgoQlCAqKEiQjKgiCiAETgpJURD2iKJklK1kUFFBQ7/Q+TCSVLCiICIrkE3CJBpAlLWHTdPdnIXrKgTsz3TNTM/Pv5+G5+77rqn7799bMzrzTVQXMMIF7BaDGt12f7ya4DUvWrStavfeeK754cUCo8RKWKywv69TJve/jjy3uohDc8cGrU4ACFKAABX4XkD82yPUQbnv7bZec1qDCIXdiOLRqlbX4oYfcuZmZKoQUyjGcMoEXTgOT0gAzlG+EsYeGgBrfPELDilH6IJAGaInA4wLoxykKPgD+qUlSxYq4afJkveytt2pyn2cVDvno4caxY42tr75qZh87pkJIjIECFKAABShAgYsE5BoI1z7+uFZ3yBBdj4lRwicrIwNbX33V2DhmjGm65cYCPGwI/EcDnusJLLHRB5tSIF8BFg/yJeIJvgpMBm6xgJG/br94g699sB0QU7gwavfrp1d/8klNlV8N5K4J6fPnm+tHjjSP79zJ5w45UClAAQpQgAIhIJBUoQIajBihV2zbVtMU+SHi5PffW18MHmzunT/ftEz+eG5zGC3SgRE9gC02+2FzClxSgMUDDgzHBV4CyucBo8RvWy9yjPko7IqLQ/nWrbVms2bpUQXU2cHy2M6d1pq+fY2DK1eyaOBjbtmMAhSgAAUoEEyBUg0bnt/asdg11yjzOe3HtWutz3r1MjK2bbO4HoKt0ZEngAlu4KVngAxbPbExBS4SUOYNg5kJfYGpQIwb6PvroEoL/bsJ4h0IgSJVqog75s93yV8IVDlyz5zBmmeeMXbMns2fBVRJCuOgAAUoQAEK2BCoeM892q0zZ+rRiYk2enG26c433jBX9+xpuLOynO04wnqzAPkjz4M1gEU3A5wXEmH599ftsnjgL9kI63cK0NYCpgAoHmG37ujtRsXHo83Cha6S9eoJuciRKsfmqVPNDaNHG9knTqgSEuOgAAUoQAEKUMABgZikJNTs21e/oX9/NbZkACA/b2yaONH4ZsIETmWwkWNZQBDAbgF06QVstNEVm1LgvACLBxwItgQmAjV0YKIFNACgzB8dWzcVhMZRBQuizuDB2rWPPaZHJyQEIYJLX3L/xx+b64YNMzO2buUUBWWywkAoQAEKUIACzgsUrVZN1Bk0SLvy3nvV+DxnWZBTJb8cPNjY+/HH/BxiL+W5AlhqAj36AD/a64qtI1mAxYNIzr6Ne58IlHEBz5nAYyxC2YAUAld16KDVGzJES0xNVeb1KP9YfzVypJk+bx4r/jbSy6YUoAAFKECBUBIQmoZyt92mNRgxQitWvboyn0v2LlhgfjVmjHn0229ZRLAxoCwgWwDjLWBaH+C4ja7YNEIFlHlTiFD/kLvtGUDcOaCDBYwTgBobBoecIiD/OCdfd524dfZsXVb6VbkFuW3SlmnTjA2jR3NdA1WSwjgoQAEKUIACQRCo1bevVqNXLz2uuBozUo28PHw7aZL57ZQpRha3h7Y1IizgcBTQrTiw7H7AsNUZG0eUgDJfWiJKPQRvNg3QEoDrBLBGANEheAvKhCynJTSbOVOv1LatGo8FApBbL+5duNBc2qkTFyhSZqQwEApQgAIUoEBwBfSYGNwybZp+Vfv2mlBka0fLsrC4XTtDPo1gGvzea2eEWMAPUUCjp4GfxW8LLPKgwN8KsHjAAZKvwGQgFcA/BVDbAvR8G/CEywo0GDlSv/aJJzS5OJEqh9wSaeE99xhnDx2yuL+yKllhHBSgAAUoQAE1BIQQiC9dWtz+7rt68Vq1lPjuIAsIJ/fssVY89pjx85df8kuvvaGSYwEfZf46FTkNOGOvK7YOdwEl3gDCHTlU709uvWgAk+U2LwAKhup9BDtu+UdXboVUf/hwrXDlysq85jL377fWPPecKZ84kE8e8KAABShAAQpQgAKXE5BTLsu3aiUajh2rF65SRYnPM0ZuLg4sWXJ+a8czP3IdQJuj96gApvUCxtjsh83DWECJF34Y+4bkrU0CCuhAexMYC0Cdn8hDULNE3bqi3uDBWtkWLZSZopB75gw2T51qbJo40cw9fToEVRkyBShAAQpQgALBEpDbSl/fs6dWq08fPToxMVhh/OW6RnY2vh43ztgyfbqZfZzrANpMym4LGFQa+IjrIdiUDMPmLB6EYVJ9vSW5rkESUBfAdADVfO2H7YD4UqVQu18/vfqTT2ryyQMVDnd2Ng6uXGktad/e7T53ToWQGAMFKEABClCAAiEq4IqNRYu33tLLtWihuQoUUOIuzh4+jE+feso48MknXA/BfkaWRQF9ngZ22++KPYSLgBrfasJFM4Tv48IUhaUAGoTwbQQ9dLmYkFxUSC6IKB/vU+KwLGQePGgtvOMO4/h333FeoBJJYRAUoAAFKECB8BBIrFRJ3L1okZ5UoYKAIj+YnPnpJ8xt0CDv7M8/AxY/+tgcaa+dAnqlAbk2+2HzMBBg8SAMkmjnFt4Fon8ARgF4nFsv2pEEyjZrJprOmKEnlCmjzOtKzgX85IEH3AdXrLCMnBx7N8jWFKAABShAAQpQ4BICenQ0rmjSRLT+4AOXfCJBhUN+7jmwdKm5rGtXI/fUKRVCCuUY5FyQ4b2BV+UmXaF8I4zdnoAyX3Ls3QZb+yIwGehiAc8JoLwv7dnmN4HCV10lGo8bp8vigeZyKcEipyVsmjz5/F7IOfyDqUROGAQFKEABClAg3AXkdtRyyuYNzz2nRxVUY63tc0ePYvtrrxlfpaWZcpcGHrYENmnAoJ7ASlu9sHHICrB4ELKp8y1wCxBTgfoGMEZwioJviBdaxaWkoGbfvnqNnj01laYopC9YYK4fPtw8tmMH/0LayjAbU4ACFKAABSjgi0DSlVeKBsOGaZXuu0+ZtZ/kLlNrBwww9y5YYJputy+3xTa/CZgCeC8KGP4U8D1RIkuAxYMIyvdEoIwODLSArhF0247fqlwUqNK992o3v/iiMlV1yzTP73e8vGtX4/CGDSwaOJ51dkgBClCAAhSggLcCJerUOT+ls8jVVwtVfmj5YfVq67PevQ3+yOJtNi95fv8YYM6TwAlHemMnyguweKB8iuwH+C6g/wD0APC8AJhzX0mFQELZsuKBdetcccnJvvbieDu5i8Lqp59273zrLRYNHNdlhxSgAAUoQAEK2BWodM894tbZs11RcXF2u3Ks/X/++U9zZbduBp9CsEdqAecs4KHTwJI0wLTXG1urLsAvkqpnyGZ8E4GbNWAmgLK/LnTCfPvoGV+8OFrNnauXqFtXkzsqqHJ8PW6cuWnSJIN7GquSEcZBAQpQgAIUoMClBGIKFUKNnj31OoMGKbIdFZB94gS+HjfO+HbyZFM+xcnDNwEBGBawUwB39wIO+tYLW4WCAL9MhkKWfIhxEnAtgAkCuNmH5mxyQUAu9lMvLU2v1qmTFp2YqISLXOznwNKl1rohQ4yMLVv4tIESWWEQFKAABShAAQp4IlDkqqtEvbQ0reLddyuzHkLG1q2WXC9q76JFrCB4ksTLn2NawP/lAYOfA36w1xVbqyjA4oGKWbER0zighAt4RgDdAUTZ6Cqim8oth6584AGt4ejRenyJEspYyPl5X40YYXw/bx6LBspkhYFQgAIUoAAFKOCtQPmWLUX9kSP1YtWrK/F9RP44IxdT/GrUKFMWE7y9H57/F4ETFvB8PDCjG3CONuEjoMSLNXw4g3cnM4C4LOAO67cpCgWCF0loX1ku5pNSs+b5xX2KXXutMq+PrGPHILddlNMUwG2GQnuQMXoKUIACFKAABX4TEALXPf30+a0d5S5WShyWBflDzZZXXzWzjx1TIqQQDuKICTxQENjYDcgL4ftg6BcElPlyxIz4LiCnKIjf9lst5HsvbKlHReH2Dz90pbZooc7rwrKQvmCBtbh9e7eZx/dcjlIKUIACFKAABcJPQHO50HzOHL3y/fdrsqCgwiE/dy3r0sXY/e67/OHGfkI2u4HW/YBf7HfFHoIpoMarM5gCIXztl4GiecA7ABpxioLviZRTFOqPGqVd07WrHp2Q4HtHDrf8ad06a+Xjjxsndu/mo3MO27I7ClCAAhSgAAXUE0isWFHcOmOGfsWNNyrxHUUuonhi1y5rycMPG5zKYHu8nAXw4Trg8fcAw3Zv7CAoAkq8MINy5yF80alA4q+ruaRZQBcA6ux5E2qmQuCq9u21G/r31wpXrqzMayFz3z5r7cCB5t6FC00+bRBqg4rxUoACFKAABShgR0A+hVCuZUut8fPPa4WuvFKZz2fpH35orh00yDiVnm7n9tgWOGIBE+KB6ZzKEHrDQZkXZOjRBT7iqUCMAdwPYBSAkoGPIHyuWLJePdFwzBi9VKNGyrwG5HaL22bONDaMGmUaubnhg807oQAFKEABClCAAl4KaFFRuOG557Rru3fX45KTvWztn9Nzz5zBpgkTzC3Tphk5p0755yKR0+tmAAN7/zb1mk/ZhkjelfniFCJeQQnTAsRUoJoJvInftmDk4aNAfKlSqDdsmF61UydltgcycnLk1ovm8sceM3NOyMVpeVCAAhSgAAUoQAEKSAG5VXbT6dP18m3aaK7YWCVQ5A8+cj2qn9assfiDj72UWMBCDejTCzhorye2DoQAiweBULZxjfFAfBTwvgU0tdENmwKo0auX1njcOF0ljHO//GLNbdjQOH3gAIsGKiWGsVCAAhSgAAUooJRAXMmSot369Xp8yZLKfH85c+iQ9X7Tpu7M/fuVsgq1YCzA0oGJJ4DBacCvs7N5qCqgzItPVaBgxZUGaInAcAF04y4K9rJQvlUr0WTyZD2xfHllxrvc+mdp587GoZUrua6BvfSyNQUoQAEKUIACESIg10O4okkTrcWbb2pxKSlKfK5zZ2dj/9Kl1vKOHd15585FSCb8dps/a8CAnr8tCM9DQQElXnQKugQtJFk0SALaARgEoFLQAgmDC6fUqCEajh6tlb7lFk1omhJ3ZGRn4+sJE4yt06aZWdw7WImcMAgKUIACFKAABUJLILZwYVzz+ONanQEDdFecGmuH55w8ic0vvWR8M368KQsKPGwJfCmAIb2Az231wsaOC7B44Dip7x1OAupowDALaAaAufGRsmDp0qJmr17adf/4hzLrGliGgfRFi6y1AwYYmenpnKLgY27ZjAIUoAAFKEABCvwuULBMGXHjuHFahTvv1ORTCSocp/butdb272/uXbTIlJ//ePgm8GvxwLCAOQJ4nushFJZXkAAAIABJREFU+Gboj1b8guoPVS/7HA+k6MCQC1MUvGzN038XcBUogEpt22o3TZ2qRxcsqATM7/sDr3jsMePwhg0sGiiRFQZBAQpQgAIUoEA4CSRff7249fXX9aLVqglVnjb9ad06a1nXrvzRyOZAswBZgemXBLzZFThtszs2tynA4oFNQJvNxWSgM4CXAETZ7CuimydXry7uW7vWpcoqvDIZlmVheefO7u/+/W8LFusGET1AefMUoAAFKEABCvhXQAhUbNNGtJo716VKAUF+Ftwzd665/NFHDe7KYC/9FnACwO19gK/t9cTWdgRYPLCjZ6Pti8DNJvAKgPKcouA7ZGKFCqLZjBl6qYYNhSqPq8lH1L6ZNMncNHGiIbfy4UEBClCAAhSgAAUoEBiBmEKFUL17d63ukCG6Kp8Ns44exTcTJxqbJk3iTgL2hoFpAd+6gQ7PAun2umJrXwRYPPBFzUabqUBVNzBKVs4E1zXwWTIqPh4Nx4zRr374YS1KkSkK8mb2ffSR+WVampmxdSsfNfA5u2xIAQpQgAIUoAAF7AkUufpqUXfIEO3Ktm01CDW+8hzdvNnaMGqUIdfB4lOptvKbLYA3f93bIm0gcMxWT2zslYAarySvQg7NkycAxXSgB4BeAGJD8y6CH7VcUbfy/fdrTSZO1KISEpQZvxnbt1vrhw0z9so/BjwoQAEKUIACFKAABZQQSL3tNlEvLU1PqVlTic+NcirD3vnzzfUjRpjHduzg50Z7o0ROZRigA2/3AHLsdcXWnggo8SLyJNBQPWcSUEAHbjOBf3FdA9+zKOeuya0Xm7/xhl64ShVlxq2clvDt1Knm1y+8YHBFXd/zy5YUoAAFKEABClDAXwLyc2T1J5/UbhgwQI9LTvbXZbzud8PYscbmF180Oc3Va7qLG/xoAu1O/7oeQhrgtt0bO7isgDJfwsIxRxOByjrwiQWUDcf7C9Q96dHRuHfVKldK7dpCKPLYmbz33XPnmss6dzZMN9+jAjUWeB0KUIACFKAABSjgq4DQdci1sq5+5BHN1z6cbpd35gxWdu9uyM+VTvcdSf1ZgHyK48t4oFU34NcZDTz8IcDigR9UJwFFNOBtC2gMINoPl4iILvWYGNQfMUK/5tFHteiEBGXu+acvvrBW9+hhZGzbxkfNlMkKA6EABShAAQpQgAKeCcj1EBqPH6+Xa95cie9CcirDiV27rBWPPsqtvT1L4d+ddUYA/z4J9E4Dcu13xx7+LKDECyZcUvI8kBQNPKMBT1lAwXC5r2DcxzWPPabVeuYZLal8eWXG6Km9e60vBg409y5caPJpg2CMCl6TAhSgAAUoQAEKOCMgd2Io16KFaDRunF74yiuV+LxpGgb2zptnfjFsmHlqzx7+SGUv1QcAjL0CePN+wLDXFVv/LqDECyXU05EGaEnAPb8+ZTAGQGqo30+w4pfz0UrWry8avfCCXqJOHWXGZlZGBra9+qqxYcwYFg2CNTh4XQpQgAIUoAAFKOAHATmVoXa/flr1p57S44sX98MVvO8y7+xZbHz+eWPr9Olm7unT3nfAFn8W+EoH+vUA1pPFvoAyX9Ds30rge5BFg0LAlRbwLoCrAx9B+FwxvkSJ81svXtWhgzJz0My8POxbvFg+QubOOXkyfLB5JxSgAAUoQAEKUIACfxGITkxE0xkzXBXbtBFaVJQSOnlZWVj84IPuQ59+ahk53EzAZlI+BNC7N/CzzX4iujmLBz6mX+6ioAGzLeBuAMp84fXxdoLarM6QIVqdAQN0+fiYKsfpQ4esf9eu7c6WRQOLT42pkhfGQQEKUIACFKAABfwmIARiEhPxwPr1rkIVK6rxPUmuh7BnjzWvZUvjzKFD/FBqL/luAQzvBbxgr5vIba3GiyLE/CcBwwXwGIBiIRa6UuFWbNtWazRmjJaUmiqgyC4K544cwaqnn3bvX7zYMnK5xopSA4bBUIACFKAABShAgQAIyCcP5GKKN0+b5ipYqlQArpj/JdzZ2Ti4fLm1tGNHt9yhgYctgX0mMLgv8J6tXiKwMYsHHiZdTlFIBO7Ab4WDqh4242mXEJDrGTQYPVov3aSJMuNPLlCzcfRoY8v06dxrl6OWAhSgAAUoQAEKUAAxSUmo/sQTWt2hQ3VVpjLknDqFTZMnG99OmWK6z3FHQhvDVG6N+ZkJPNsX2GKjn4hqqsyXN5XVpwDVTWCoANqoHKfqscVfcYWo07+/JrdelIvTqHDIpwsOLFliruje3cw+epSPgqmQFMZAAQpQgAIUoAAFFBKIKVxYNJ0+XSvfurUmtxJX4TiVnm59/swzxr5PPrE4xdZ2Rl4ygSl9gUO2ewrzDlg8+JsETwYKWcBzAPr8Oj+GVj6+GKLi4nDlAw9ot0ybps66BpaFk+np1vKuXY2fv/ySRQMfc8tmFKAABShAAQpQIFIEkq+/XrR46y29SJUqyky5PfLNN9bi9u2N0/v2WRbX6bIzFM9pQG8BvNMD4OqUl5HkF+LLwEwCHgQwUwCxdkZhpLct1bChaP3BB67YIkXUobAsfHTffca+jz82LYPbvqqTGEZCAQpQgAIUoAAF1BaQT8+WadZMu3PhQl0osmaX6XZj1zvvmCu7dzfkbmE8fBaQPyieFsAtvYCtPvcSxg1ZPLgouZOBmwBMAdc1sDXsEytUELe+9ppesl49ocouCvLNVM4R2zRpEtc1sJVdNqYABShAAQpQgAKRLRBTqBCqd++u1Rk0SNejo5XAOPfLL9g0adL5z7pKBBSiQViAoQGrdeDJfwD7QvQ2/BI2iwcXWCcDFQQw8sLWi+rsGeiXtPuv07iUFNQdMkSv1rWrpkrRQN7t9x9+aG4cO9Y8umULpyj4L/3smQIUoAAFKEABCkSUQJGqVUWdgQO1yvffr8zW7Rnbtlnrhw49vx4CpzLYGo5yW4tZp4BhaUC2rZ7CpHHEFw9eBoq6gUctYGSY5DQot+GKi0OVdu20hqNH68pMUbAsHNuxw1o3bJi5b9EiVmCDMjJ4UQpQgAIUoAAFKBD+AmWbNhUNxozR5boIqkxnkD+efTVihHls507+eGZvCJ4G8HQhYF7nCC8iRGzxIA2ILgLcagBvAEiyN54it7XQNBS75hrRet48V0KZMspAZJ88iW/Gjze+GT+eRQNlssJAKEABClCAAhSgQHgLyKkM9YYNU+bHNMs0Ibd13Dh2rCG3eeRhS2CXBrTrAewQQEQWZCKyeDAZKAlgtQWkchcF319AcopCm0WLXMnXXSdkEUGVY8fs2eZnffoY3PtWlYwwDgpQgAIUoAAFKBA5Aq4CBdBg1Cj9+n/8Q5kPyHlnz+LTJ55w75o7NyK/9Do1+uR6CADWZgIt0oCI+5EyoooHU4DiAKZZQCsAXNfAx1eRXBSm8fjxepWHHtJiktR5aOPndevM1T17mhlbt3J+l4+5ZTMKUIACFKAABShAAQcEhECRq68WN44bp5Vt3lyZIoL8nPz5M88YP6yWv6PysCGQKXfm04HhkbS1Y0QUD6YCMW6gL4B/CKCojUES0U21qChU7dJFqztwoBZfsqQyY+fErl3WuiFDzPT58yOu+hfRA5I3TwEKUIACFKAABUJAoOJdd2l1hw7V5FRfFcKVO5Clz5tnrhk40Dxz8CCLCPaS8r0GjOgJ/J+9bkKjtRID2F9UM4Coc0AzAC8DUGdCvr9u2E/9yikJpRo2FI0nTNBTatRQZsxkHTuGLdOmmd+88IJhcE9bP2Wf3VKAAhSgAAUoQAEK2BWQu5DV6NVLq9GzpxZXvLgSn6flegjrBg82d7z+upF94oTdW4zo9gL43AD69QE2h/N6CEoMXD+MNDEJqAhgtgDq+aH/iOmyQHIymk6frle4805lHrcycnPx4+rV5kf33We4s7IiJhe8UQpQgAIUoAAFKECB0BZwxcai5Tvv6GVvvVXTY2KUuJnczExraadO5oGlS035VAIPWwKzY4ABTwJhWY0Ju+KBBYgXgX9ZwJ0Aom2lPoIba7qOumlpes1evZR5Y5PpkFMUFrRu7c48cCCCs8NbpwAFKEABClCAAhQIZYGCpUvjjg8/dMmtHVW4D/kUQua+fda7jRu7szIyVAgplGOQv24O7w1MCuWbuFTsSgxWJ1BXAa7NwNMAngGQ4kSfkdrH1R07anUHDdISU+VmFGocOSdOWCu6dTP3L15sGjk5agTFKChAAQpQgAIUoAAFKOCjgFyEvOytt4pbZ83SY4sVU+Jzt3zyYO/CheaqHj2MrKNHfbwzNrMASwDfCeDZXsDScBFRYpDaxZwMtLSAwQK4wW5fkdz+isaNRd1hw/TSN96ozLjIPX36/N60myZNMuQWMzwoQAEKUIACFKAABSgQTgJya8cavXtrNXv31lXZyUw+ffDtiy8a306ebMopwzx8F7CAhb/u75jWD9juey9qtFTmS6IvHBOAq+T2GADu9qU92/wmkFCunLjh2We1al26aELXlWCRb1LyKYPP+/QxTh86pERMDIICFKAABShAAQpQgAL+EogvUQI3TpqkV7jjDmWmDWcePIhPn3jCLbd2NN1uf9162Pf76w/dbg2YDGBqL+BIqN5wSBYPXgASYoCeAAZZgBrfdkNwBMgqZ7WuXbUmkyapY2hZkG9SH7Vt65b70IYgK0OmAAUoQAEKUIACFKCAzwJFqlYVbebPdyWUKwch1Pi6duTrr61P2rc3Tu/fb8HiR3SfkwtkaUC7ksCK+4GQe6RDjdHohf6LwIMmME3+YO5FM556kYCcX9V8zhw9LiVFmTEgpygsbd/efWDFClY2OWIpQAEKUIACFKAABSJWQG7teMWNN4pWc+e6VJnKIJ8MTp83z1z6yCOGxQKC3bEpH61u2xvYbLejQLZX5otjfjc9GagvgAkmUFsAIRN3fvcV6P+9yFVXiWavvaYXr1VLqDJFwTQMfD12rLn11VeNc7/8EmgSXo8CFKAABShAAQpQgAJKCsQWLYprHn1UqzdsmC4LCioc544cwZbp041vxo83OZXBVkZyLGBpPPBENyAktrhQ/kv4ZCAVwBAA7QCo8YqxNUaC0zi+VClRZ+BATU5TkNswqnDILWHS5883vxoxwjy2cyeff1IhKYyBAhSgAAUoQAEKUEA5gaTKlUWDoUO1SvfeqwlNUyK+XzZvtjaMHGnsXbSIn+PtZUSuCj8pEZjSFThtryv/tla2eDAZKCSAziYwUgDR/mUI397lugZXdeigNRwzRpnVW6X2sR07rHWDBhn7PvmEbzbhO/x4ZxSgAAUoQAEKUIACDgqUbtJENB4/Xk++7joBRdZD+H7ePOur4cMN/hhoL9EW8JMJ9EoAPu4G5NnrzT+tlSsevAvo+4FGLuBdART2z22Hf6/y6YLk668X96xY4YqKj1fmhuW6Bl8MGGBsmznTVCYoBkIBClCAAhSgAAUoQIEQEqjaubN24/jxenRiohJRW4ZxfmvHDaNGmblnzigRUwgHIR/Jvr0P8BMApX5oVap4cGGKwhILKM91DXwf7gWKFxet33tPL1GnjlDlsSa5qMq2GTPML4cMMXJOnfL95tiSAhSgAAUoQAEKUIACFEB0QgJq9++v1+rbV5mpDLmZmfisTx/jP2+9xR8K7Y3RPAtYXAzo+AggpzUocShRPJgEFAEwQQBtARRQQiYEg9BjYnDLtGl6xXvu0aILFlTmDg6uWGGt7d/fyNi2jVu7KJMVBkIBClCAAhSgAAUoEPICQkAuiN7o+ef11JYtlfhuJ380PPrtt5Z82vjQqlVK/XIegvn+xQKm9wbGCgWeQgjqAEsDohOBpwTQD0CxEEymEiG7YmNRtUsXre7gwXqBYuowynUNNowebez54AMWDZQYKQyCAhSgAAUoQAEKUCBcBSq0aSPqDBqkp9SoEdTveL/7yp0Y9syda345cqSZuXcviwj2Bt7OX5unnQIWpgFBe6ojKAMrDXAlATcBeBVAWXuOEdxaCJRu3Fg0njRJT65ePSi5vJR+VkYGtr/22vk5T3I/WB4UoAAFKEABClCAAhSggP8FtKgo1OzdW7u+Rw89LiXF/xf04ApmXh7Wp6UZ219/3cw+ftyDFjzlcgIWsNwE+j0DyGJCwI+Af+F8BUjJBv4J4OaA3224XFAIxBYujNYffOAq1bBhwHN4OUZZKDiwbJn18b33uuU2jDwoQAEKUIACFKAABShAgcALyHXPbvvXv/QKbdpoerQaG9dlnzyJxQ8+6P7hs88sucAiD1sCL7qBtH4BXg8hYF88ZwBR54CZFtBWALG2qCK4sawmNnz+ee3arl11V1ycMhLHtm+3PmnXzji5e7cl5znxoAAFKEABClCAAhSgAAWCKCAEkipWFC3eeOP8QupBjOSPS8sfGE8fOGDNb9XKfTI9XYWQQjmG4xowtCcwK1C7Mvh9EKUBWhLQDUBfTlGwNzavefxx7YbnntMSypTxe948jfTs4cNY9eSTbvnEAacoeKrG8yhAAQpQgAIUoAAFKBAYAfnjY9mmTcXN06e7EkqXDsxF87mKOzsb6fPmmZ8/84yRdfSoEjGFYhAWYAlgqw706QGs8fc9+PVL6ItAUwMYJoB6/r6RcO1fCIErbrxR1B85Ui9Zr55f8+WNYfaJE9g6bZr59YQJhvvcOW+a8lwKUIACFKAABShAAQpQIMACemysXA9Br9Gjh4gtWlSJ7xXZx47hm4kTjc0vvWQaOTkBFgmfy10oIswVwOhewC5/3ZlfBs14oLwLGGYB7QTgl2v4C0SlfhMrVBB1+vfXqnbqpKkSl5yfdGDJEvPTHj3MM4cOcX6CKolhHBSgAAUoQAEKUIACFPBAIL5ECdw0dapevnVrTXO5PGjh/1POHT5srXj8cePgypWWXGCRh88C2QBG5ACz+gOnfO7lMg0d/WKfBsQmAn1+7TTN6UAjqT9ZFbz+6ae1BqNH6/LJAxUOOT/pzI8/Wu/ffLNx+uBBFg1USApjoAAFKEABClCAAhSggI8CBUuXRtuVK12J5coJucCiCsfhjRutj9u2dcup0Tx8FxBAngncnQl8mgb8uraiM4dj30ynAG0t4EUAauwJ4oxPwHup2KaNuOWVV/QCxYoJKFI4yDtzxlrapYt54JNPuPViwEcEL0gBClCAAhSgAAUoQAH/CJxfD6F5c+22N9/UohMTHftuaCdaOX0hff58c1mXLgafQrAjCbn93Q4NeLAnsMdWTxca2x4gk4HrLWDKhXUN1ChZOSET4D7kCqiNx4/XS9avbzsnToa+fvhwc9vMmVzIxElU9kUBClCAAhSgAAUoQAGFBGKLFEG1rl31BqNGaao8+Zx19Kj1zcSJ1uapUw3T7diP5wqpByyUHAEszAKeHgCcsHNVn7+oTgHKWkB/AF3BdQ18zkFCmTK4YcAA/epHHlFmD1bTMLDvo4/MNc89Z2bu3cspCj5nlw0pQAEKUIACFKAABSgQOgIFy5YVjUaP1iq1bavMeghHN2+21qelGfs++YTfS2wMJQs4JYCx0cDMp4AzvnTldfFgBhB3FnhEXhhAvC8XZRsgOiEBVR56SLtx4kRdj45WhuTYzp3W2n79jAPLl/PFqUxWGAgFKEABClCAAhSgAAUCJ1CqUSNx05QperHq1b3+vuivKPd//LG5ZsAA88SuXRYsflWx4bwXwJO9gFUC8ArS48FwH6A3Aa7LA1YDiLURbEQ3FbqOUg0aiDvmzdNVmVckE+LOysLqXr2MnXPmyLkxPChAAQpQgAIUoAAFKECBCBe4ql07cfMrr7ii4uKUkfh6/Hjzq5EjDSNbbizAw4bATgG06AX8Ag+LCB4VDyYDqQJ42wJq/br1A9c18DFDBZKTRZuFC/Xk664TqmyLIqt222fNMr8YPNjIOXnSxztjMwpQgAIUoAAFKEABClAgHAWiExNRZ8AAvUafPuqsh5CRgXVDhhg7Xn+dP3zaG3RZAN7XgSd7ADn5dfW3xYOpQIwJTLGABwAUzK8z/u+XFpALkMjFECs/8IAy6xrISOXUhC/69zcytm3z6nEV5pkCFKAABShAAQpQgAIUiCyBolWrivojRmgV2rRR4sdkuZX8L5s2WWuefdb4ae1afp+xNxx/lJsg9Plt98TLHpcsHkwCCmjAIxYwCkCSvTgit7UrNhbVHn1UkwsixiUnKwNx/D//sb4aMcL4ft48S77oeFCAAhSgAAUoQAEKUIACFMhXQAiUb9VKFhH0Ytde69FT7Pn26cAJ//nnP82vX3jBPLF7N4sINjwtYIsGDOwJrLjUegh/SbgFiKlAffO3isN1Nq4b0U3lugYl69YVzV5/XS9UsaIyL6qso0exdcYMUxYOIjpBvHkKUIACFKAABShAAQpQwJaA/IH0+qeeEgVSUpT4viPXcJNrIWybOdPMzcy0dW9sjHkAnusN7P+zxR+JTgPikoCPATQklo8CQkC+eFq/955esl49JV5E8k7k1ovp8+ZZyzp3dhs5+U5l8fHm2YwCFKAABShAAQpQgAIUiCQBuWvcLdOm6VXat1dma0cjNxfzb7vN/dOXX1qWwd9MbYxH+RTH5FPA0DQgV/Yj0oDoRGCMALpy60XfaeXTBk2nT9evvP9+LSpenR0sj+3YYX3ywAPGye+/5xQF39PLlhSgAAUoQAEKUIACFKDAJQSEpiGhfHnR6p139JQaNZT4AdWyLBzfudNa8vDDxrHt2zmVwfeRK+0yTKBXX+A9MRnYDSDV9/4iu6XcNaH6U09ptXr31uJLlVLixSIzknnggLWmXz8zfcECk/ugRvYY5d1TgAIUoAAFKEABClDA7wIX1kNoPG6cXujKK5X4XiSnMqTPn2+u+sc/DE5lsDcCBLBWFg/OP4LAw3uBMk2bivppaXqJunWVeHHIO5Avis0vv2xumjjRyD192vubYgsKUIACFKAABShAAQpQgAI+CsinsK/v0UOr2bu3HlOokI+9ONss79w5rB8+3Njx2msmvyP5bsvigQ92CeXKiRvHj9cq3nWXEtuUyFuQc3sOrVplLevY0Z19/LgPd8UmFKAABShAAQpQgAIUoAAFnBGISUpC8zlz9LK33qrpMTHOdGqzl1P792PVU0+5f1i1yjLdbpu9RV5zFg+8yLkc9DcMGKDd0L+/Luf2KHFYFk6mp1vzbr/dOL1vH+fzKJEUBkEBClCAAhSgAAUoQAEKSIGCpUuLuxcv1gtXriwg1HhgW66D8F6TJu7cM2fAKd6ej1MWDzy0qtyunXbj+PF6XEqKhy38f5o7OxtLO3Rw71+61OIuCv735hUoQAEKUIACFKAABShAAe8F5I+wZW6+WbT8v/9zRcXFed+BH1rI70/ff/CB+emTTxpyWgOP/AVYPMjH6IpGjUSDMWOU2npRLvzx9bhxxpZp08yckyfzzzLPoAAFKEABClCAAhSgAAUoEGSB6MREVH/iCe2GgQN1VYoIZ37+Gd9OmWJ8O2UKF5rPZ3yweHAZoMTy5cUNzz6rXd2xozJ7lsp9SvcuXGiuGzbMPPHdd5yiEOQ3P16eAhSgAAUoQAEKUIACFPBeIDE1FQ1HjdIrtm2rabrufQd+aJGxbZu1btAg48CyZdzi/jK+LB5cBCMX9rjq4Ye1GydMUGpdgxO7d1ufPvWU8ePnn7No4Ic3C3ZJAQpQgAIUoAAFKEABCgRWoGTduqLpzJl6kauuUmY9BLnV/dqBA81Te/bwe9dFw4HFg99BhECpBg3EHfPmuVTZUkSGJqcofNanj7Hj9dfNwL6UeTUKUIACFKAABShAAQpQgAL+F6h0773arbNm6XKbR1WObyZMML8cOtTgrgz/zQiLBwAKVaqE1h9+6Cp85ZVCKPLYjEzRty++aG58/nkj+9gxVV5DjIMCFKAABShAAQpQgAIUoIDjAvIH3Jp9+ug39O+vyLZ2wNnDh7F+2DBjxxtvcD0EABFdPIgvVQoNRo7UKz/wgKZHRzv+AvCpQ8vC/sWLzXVDh5oZW7fyURmfENmIAhSgAAUoQAEKUIACFAhFgaLVqom6gwZpcj0EocjWjoc3bDi/HsIPn30W0d/PIrJ4oEVH47ru3bXa/fvrBYoWVeY1lbF9u/XVyJHm3vnzTcuK6HGpTE4YCAUoQAEKUIACFKAABSgQWAFZNEht3VqrN3SolnzddSKwV7/01SzTxO65c80No0ebcj06FWIKdAwRVTzQoqLOr2tw+7vv6jGFCysxCGXCszIy5BQF4+sXXuC6BoF+BfB6FKAABShAAQpQgAIUoICyAtf36KHVfvZZPS4lRYkYjdxcrBs82Ngxe7aZm5mpREyBCiJiigexxYqJOxcu1IvXrq1M0UA+XZD+wQfm0s6dDSMnJ1A553UoQAEKUIACFKAABShAAQqEjICcYn7Tiy/qVbt0UWYqg5mXh0X33OOWWzsiQp4aD/vigVwAsfmcOXqFNm20qLg4ZV4ghzdutJZ07GhkpqdHzGBTBp+BUIACFKAABShAAQpQgAKhJSAEEsuXF81fe00r1aiREosqWoaBo1u2WEs7djRO7NoV9lMZwrZ4oMfEoPoTT2i1+vVT5hEX+erM3L/fWjtggJku1zUwjNB6wTJaClCAAhSgAAUoQAEKUIACQRSQPw6Xv/12reHo0VrhKlWUeKpcTmX4/v33zTX9+hnnjh4Noo5/Lx2WxYPUFi1EveHD9ZSaNZUYTDKFcj7M5pdfNr4ZN87MO3fOv1ll7xSgAAUoQAEKUIACFKAABcJYwFWgAGr07q3V7NVLiylUSInvfbmnT+OrkSON7a+9ZuadORN2+uFTPBACCamp4uYXX9RTb7tNicEjR4tcy+DAihXW0vbt3SwahN3rhzdEAQpQgAIUoAAFKEABCgRRQI+NxW1vvKGXa9lSkwUFFY6zP/1kLenQwfhp3TpL7tIQLkdYFA/koyuNx43Tr//HP5SY+/L74Djz44/Wh82auU+mp4fLeOF9UIACFKAABSjq5P9NAAAgAElEQVRAAQpQgAIUUE4gMTUV9yxb5kpMTVXmh+RTe/dacxs2dGcfO6acly8BhXzx4Npu3bS6gwdrccWLKzNI5BSFxe3bu39YvdriLgq+DEu2oQAFKEABClCAAhSgAAUo4J2A3JXhisaNRcv/+z9XTFKSd439dLZ8+nzP+++bq59+2nBnZ/vpKoHpNmSLB3JQNBwzRi9Rp46AUKNukHf2LDZNmmRunjrVyDl1KjAZ5FUoQAEKUIACFKAABShAAQpQ4A+B6IQEVO/eXav93HO6/O8qHGd//hnfTJpkbHnpJTNUpzKEXPEgsWJFUX/IEK3KQw+pM0XBspC+YIG5bvBg88Tu3WG/RYcKLz7GQAEKUIACFKAABShAAQpQ4O8EEsqXF43HjtUq3X23psoPzsd37rRW9+pl/PDZZxas0PrqGFLFg9TmzUXLd991RcXFKfEqkRUjuZ/n0kceMeT+nkoExSAoQAEKUIACFKAABShAAQpQ4A+B5OuvFy3efFOXWzsKTY3foDe+8ILx1ciRppmbGzKZCpniQcl69cS9q1e7VEm2mZeHFd26Gd+9/bYZahWjkBmdDJQCFKAABShAAQpQgAIUoIATAkKg0l13iRZvveXSY2Kc6NF2H3IthMUPPWTY7ihAHYRE8UDOU+m8d2+UKotebBgzxtj80ktmuKyaGaCxxstQgAIUoAAFKEABClCAAhQIqkBs0aKQi+7XT0vTgxoIAPkk+/rhw42NY8eGxH6O6hcPhMAdH36ol7/99qA+X2JZFvZ/9JG5buhQ89iOHZyiEOxXGq9PAQpQgAIUoAAFKEABClDAR4Gi1aqJOgMHapXattWC+XS7XHR/dmpqXigsuK988UAuctF51y6Xj2PCkWbHtm+3vhw61Nj70UcsGjgiyk4oQAEKUIACFKAABShAAQoEX6DCHXeIukOH6snXXRe0Lfzkjn1r+/dXfvqC8sWDCrffLlrPmxeU4kH28ePYOHassXnqVFM+ecCDAhSgAAUoQAEKUIACFKAABcJLQAiB63v21Gr366cXSE4O+M3J6QuvFCqU587ODvi1vbmg8sWDBqNG6bWffTbgUxbkQogrHnvMMN1ubzx5LgUoQAEKUIACFKAABShAAQqEoIDmcuHW117Tqzz0UMC/f75x9dXuzPR0pX+xVr540GzmTL1qp04BS96hVausz3r2NI5/953SiQvB1yJDpgAFKEABClCAAhSgAAUooLyA3NLxpqlT9TI33xywqQzv1Kzpzti+XenvoMoXD5rPmaNf1b6934sHpw8dstY8+6y5d8ECk08bKP96ZoAUoAAFKEABClCAAhSgAAX8JqDpOsq1aqU1mTBBSyxf3u9FhH/Xru0+unUriwd2Murv4kFWRga2vfaasX7YMBNc18BOqtiWAhSgAAUoQAEKUIACFKBA2AnUGTRIq/7EE3pc8eJ+uzcWDxyg9VfxwMjJwaEVK8ylnToZobAthgOU7IICFKAABShAAQpQgAIUoAAFfBCITkhAsxkz9NTWrTVXbKwPPfx9ExYPHCD1R/Eg6+hR/Lt+ffeZQ4csPm3gQJLYBQUoQAEKUIACFKAABShAgXAXEAJxJUqIh776Spf/6eTtsnjggKaTxYNzR45YK7p1Mw8sXWpahvLbaDqgxy4oQAEKUIACFKAABShAAQpQwEkBIddDaNFCa/rKK1p8yZKOFBFYPHAgQ04WDz596ilj+6xZpgNhsQsKUIACFKAABShAAQpQgAIUiGCBax9/XLv55Zd1JwhYPHBA0cniwcru3Y0dr7/O4oEDeWEXFKAABShAAQpQgAIUoAAFIlngmsce026ZNo3FA1UGAYsHqmSCcVCAAhSgAAUoQAEKUIACFKDA7wIsHig2Flg8UCwhDIcCFKAABShAAQpQgAIUoAAFwOKBYoOAxQPFEsJwKEABClCAAhSgAAUoQAEKUIDFA9XGAIsHqmWE8VCAAhSgAAUoQAEKUIACFKAAnzxQbAyweKBYQhgOBShAAQpQgAIUoAAFKEABCvDJA9XGAIsHqmWE8VCAAhSgAAWCIyCEgHC5IDTtfAByn20eFKBAiAiYJizLgiX/U/4zjBAJnGFS4PICfPJAsdHB4oFiCWE4FKAABShAgQAIFCxTBsVvuEErWaeOKFqtGhIrVBDxxYsLyAKCEL9F8Pt/BiAeXoICFHBAQBYPLOt8RzknT1qZBw7gVHq6deTrr61fNm60jm7bZpl5eQ5ciF1QIDACLB4Extnjq7B44DEVT6QABShAAQqEnIArNhalGjUSqS1baiXr1xdxycmILVZMRMXHh9y9MGAKUMCegOl2I/vYMfnPOvPzz/hpzRpz76JFVsa2bb9VHHhQQDEBFg8USwiLB4olhOFQgAIUoAAFbAhouo4S9eqJcs2ba6UaNxbFa9USrgIFbPTIphSgQLgLnP3pJ+vnL7+0flizxtq/ZImVuXcviwnhnvQQuT8WDxRLFIsHiiWE4VCAAhSgAAW8FRACydddJ1Jvu01U7dRJS6pQ4cK8A2874vkUoAAFgMMbNljfvf22eWDFCuvUnj0sJHBQBE2AxYOg0V/6wiweKJYQhkMBClCAAhTwUEBOPShRt664Zfp0nQUDD9F4GgUo4JXAL5s3W5/37m0c/fZbK+/cOa/a8mQK2BVg8cCuoMPtWTxwGJTdUYACFKAABQIgUKtvX+2GQYP06IIFA3A1XoICFIhoActC7tmz2Dp9uvnl0KGG3M2BBwUCIcDiQSCUvbgGiwdeYPFUClCAAhSgQBAF9JgY1Bs6VL+6Y0ctLiUliJHw0hSgQKQKZB07hv2ffGJ+3revkXPyZKQy8L4DJMDiQYCgPb0MiweeSvE8ClCAAhSgQHAE9OhoVO3SRbuhf3+9YKlSwQmCV6UABSjwJ4G8M2ewbdYsc9Pkyea5w4e5LgJHh18EWDzwC6vvnbJ44LsdW1KAAhSgAAX8LVCqYUPRZMoUXS6I6O9rsX8KUIAC3gpknzyJ9UOHGjvmzDGNnBxvm/N8CvytAIsHig0QFg8USwjDoQAFKEABCgCIKlgQDUeN0qt3765BsG7AQUEBCqgtkHX8OD5o2tR94j//sbgmgtq5CqXoWDxQLFssHiiWEIZDAQpQgAIRL1CsenXRduVKV0xSUsRbEIACFAgdAdMwsHfBAnNJhw6G6XaHTuCMVFkBFg8USw2LB4olhOFQgAIUoEBECzQYPVq/7qmntKi4uIh24M1TgAKhK5C5f7+1qkcP88CSJdyWIXTTqETkLB4okYb/BsHigWIJYTgUoAAFKBCRAlHx8Wjx1luuCnfcwTkKETkCeNMUCC8BIzcXm196yVyflmZwLYTwym0g74bFg0Bqe3AtFg88QOIpFKAABShAAT8KFK1aVU5T0GOLFmXhwI/O7JoCFAi8wE9r11pLO3Vynz54MPAX5xVDXoDFA8VSyOKBYglhOBSgAAUoEFECJevXF/euXu0SXBQxovLOm6VAJAnknj5tfdC0qXF082Zu6RhJiXfgXlk8cADRyS5YPHBSk31RgAIUoAAFPBeo0q6d1mzmTF2PifG8Ec+kAAUoEIICcurCp08+afznn//kOgghmL9ghcziQbDkL3NdFg8USwjDoQAFKECBiBCo1qWLduPEibpc64AHBShAgUgQkOsgbJo40Vw/fLjB7RwjIeP275HFA/uGjvbA4oGjnOyMAhSgAAUokK9AlQcfFM1mzXLxiYN8qXgCBSgQhgKbpkwx1g0aZJp5eWF4d7wlJwVYPHBS04G+WDxwAJFdUIACFKAABTwUKNeihbhz0SKXh6fzNApQgAJhKfDtlCnGFywghGVunbwpFg+c1HSgLxYPHEBkFxSgAAUoQAEPBK5o1Ei0/fRTFg48sOIpFKBA+AtsmzHDXN2jh2FZXEcx/LPt2x2yeOCbm99asXjgN1p2TAEKUIACFPhDIL50adF+0yZXbKFCVKEABShAAQBy3YOtr75qftarl0EQClxKgMUDxcYFiweKJYThUIACFKBA2Ano0dF4cMMGV9GqVUXY3RxviAIUoIANAdPtxheDBhnfTp7MXRhsOIZrUxYPFMssiweKJYThUIACFKBAeAkIgTs++EAv37q1Fl43xruhAAUo4JzAwjZt3PuXLOH8BedIw6InFg8USyOLB4olhOFQgAIUoED4CAiBap07a7e88oouBB86CJ/E8k4oQAGnBeTOC3MbNHAf3bKFBQSncUO4PxYPFEseiweKJYThUIACFKBA2AgUufpq0WHLFi6QGDYZ5Y1QgAL+FMjct8/61/XXu91ZWf68DPsOIQEWDxRLFosHiiWE4VCAAhSgQFgI6DExeHjbNldiaiofOQiLjPImKECBQAh8v2CB9cl997kDcS1eQ30BFg8UyxGLB4olhOFQgAIUoEBYCNQZNEirN2yYHhY3w5ugAAUoECABuQPDsmefNXZNncoFFANkrvJlWDxQLDssHiiWEIZDAQpQgAIhL1Ds2mvFfWvWuKLi4kL+XngDFKAABQItkHXqFF655hq368gRrn8QaHzFrsfigWIJYfFAsYQwHApQgAIUCHmBe5Yvd5Vu0oTTFUI+k7wBClAgGAKyYnDs+++t2TVqGLE5OSwgBCMJilyTxQNFEvF7GCweKJYQhkMBClCAAiEtUO6227Q7Fy7kdIWQziKDpwAFgiXw50rBO+3bGz++954ZG6xgeN2gC7B4EPQU/DUAFg8USwjDoQAFKECBkBUQuo5Ou3a5EsqW5VMHIZtFBk4BCgRT4M/FA3d2NiZUq+aOPnTIigpmULx20ARYPAga/aUvzOKBYglhOBSgAAUoELICle+7T7T4179cQrB2ELJJZOAUoEBQBS6eo/DVrFnmgqeeMosDlhbUyHjxYAiweBAM9b+5JosHiiWE4VCAAhSgQEgKRCckoOvBg66o+HhWDkIygwyaAhQItsClFjcw3W683KiR8cumTVYKYPENNthZCuz1WTwIrHe+V2PxIF8inkABClCAAhTIV6DSXXeJVu++68r3RJ5AAQpQgAKXFLjcyoi7li2zZrdubcQAKMYCQkSNHhYPFEs3iweKJYThUIACFKBAyAkITUPH775zJaam8kexkMseA6YABVQRuOy2CpaF8VWrGhnp6VYiIP/xiBABFg8USzSLB4olhOFQgAIUoEDICaTedptos3AhnzoIucwxYApQQCWBv9uT8dDGjZacvgDLQmHAilcpcMbiNwEWD/xG61vHLB745sZWFKAABShAgd8FWr79tn7lffdxLS8OCQpQgAI2BP6ueODOycGosmXdWSdOQD7iVQSwCti4FpuGhgCLB4rlicUDxRLCcChAAQpQIKQE4lJS0GnPnihXAX6MDanEMVgKUEApgb8rHPwe6Na5c823H37YlP+3rNYmA9zCUaksOh8MiwfOm9rqkcUDW3xsTAEKUIACES5QZ9Agrd6wYXqEM/D2KUABCtgS8KR4IC8wqkwZ9+kjR85fSxYQSnALR1vuqjdm8UCxDLF4oFhCGA4FKEABCoSUwP1r1rhK1K3LhRJDKmsMlgIUUE3A0+LBP++/39g+f/4fp8vKrSwg8E1YtYw6Ew+LB844OtYLiweOUbIjClCAAhSIMAE5VaHbL79E6TFyAzEeFKAABSjgq4CnxYOft261ptSubfz5OrEXtnD09dpsp64AiweK5YbFA8USwnAoQAEKUCBkBGr17as1HDs2pKcsHP/uO2vfxx9bRzZutM788IN1LiMDeadOWUZuLizL04/zIZMyBkqBsBbQo6Phio9HgaJFRXzJkih27bWi3G23aVc0aqT8D/PevNtMqVXL+Hnbtr804RaO4Tm0WTxQLK8sHiiWEIZDAQpQgAKhISAEHvrmG1exa65R/kP5xaCZ+/dbez780PzurbesY//5jyW3PuNBAQqEr0BcyZKiaseO4qp27bQiV1+t5HuWN+9Ci555xlw7der5hRP/fMgdGOLCN40ReWcsHiiWdhYPFEsIw6EABShAgZAQkL/wdT14MCq2SJGQiFcGefbnn7Hl5ZeNTZMnm6bbHTJxM1AKUMA5gWpdumh1hw7VC5Yq5VynNnvypnAgL/X9qlXWrBYt/jJ1Qf7/ZVVE7sAQbTMeNldHgMUDdXJxPhIWDxRLCMOhAAUoQIGQEIhLTsajP/wQBaHkj3h/NbQs7F+61PronnvcLBqExPBikBTwq4ArNhat581zlW3aVIk3MG+LB5ZpYmjRou7cs2f/x0neUEnuwODX8RPIzlk8CKS2B9di8cADJJ5CAQpQgAIUuEigRs+eWuPx45Vf78DMy8Oyrl2N3XPnmpyewGFMAQr8LiA0Ddc+8YTWZNIkXf73YB7eFg9krG8/9JCx9f33L9mUWzgGM5vOXpvFA2c9bffG4oFtQnZAAQpQgAIRKND+229dRatVU+JXu8vxu8+dw0f33ec+uHy5L5/NIzCrvGUKRJ7Atd26aTe9+GJQCwi+vEF9PWeO+V63bv+z7sHvGZR74BTjFo4hP6BZPFAshSweKJYQhkMBClCAAsoLRMXHo/uJE1EqByp3SljQqpX74MqVvnwuV/nWGBsFKOCwQP0RI/Qb+vcPyuMHvr5BHdywwZrWqNH/rHvwZxq5eKJcRNFhLnYXQAEWDwKI7cmlWDzwRInnUIACFKAABf4rkFCunOi8Z49LVRM5H3jlk08aO2fPvuyvcqrGzrgoQIHAC8hpC/csX+66onHjgD9N5es3+9NHjmBUmTL5rvyaACCJBYTADyqHrsjigUOQTnXD4oFTkuyHAhSgAAUiRaB4rVrigS+/VLZ4cGznTuudmjXdsojAgwIUoIAnAoWrVBEPb9sW8Pc1X4sH8p5GlCrlPpuRke/tyekLsfmexRNUFGDxQLGssHigWEIYDgUoQAEKKC9QsU0bcfv77wf8Q7YnMHnnzuGNihXzso4d8+R0nkMBClDgNwEhcPPUqbpcAyGQJHaKB/9q187c9sEH+VZJ5eMUxQFLyTftQGKH4LVYPFAsaSweKJYQhkMBClCAAsoL1H72Wa3BqFFK7rSw+913zSUdOvztPGDlgRkgBSgQFIECRYui8969Ua4CBQJ2fTvFg88mTTI/6d8/3+LB+doICwgBy6mTF2LxwElNB/pi8cABRHZBAQpQgAIRJeDk304n4eQ0hXcbNnQf+eYbO5/HnQyJfVGAAiEkINc+aL9pk6tI1aoBW/vAzpvVvs8/t15t1szjYqlc5TYZsAL6aEUI5V/FUFk8UCwrTn4AWtm9u7Hj9dc9qv4pxsBwKEABClCAAh4L3LtqlatUw4YB+3DtaWBHN2+2/l2nTr4LiHnaH8+jAAUiT6Bq585asxkzAvJklZ3CgczMsb17rfFXX23I3WU8PeTaB0W5haOnXEE/j8WDoKfgrwGweKBYQhgOBShAAQooL9Bx1y5XUvnyyhUPNk2aZK7t39/jX+GUh2aAFKBAwAX0qCh0z8yM0nT/1w88/8p/aYYTBw9iXJUqbtPw7m1PTsqQBYSA4/KCXguweOA1mX8bsHjgX1/2TgEKUIAC4SfQ/eTJqKg4uYO4WsfShx9275o7lx+I1UoLo6FAyAl0Tk93JZQp4/cCqd03q9OHD2NsxYpuIy/Pa2Nu4eg1WVAasHgQFPbLX5TFA8USwnAoQAEKUEBpAflr3NNZWXLqrHKHXO/g8MaNdj+PK3dfDIgCFAiswIPr17tSatb0a/HAiTcquU3j6NRUt5Gb6zWQvDn59AG3cPSaLqANWDwIKHf+F2PxIH8jnkEBClCAAhT4XcAVG4snMzOVLB68ceWVeZkHDjBZFKAABWwJ3LN8uat0kybKFw/OHT+OUWXL+lQ8+B1IbuGo5Bu6rQyGT2MWDxTLJYsHiiWE4VCAAhSggNIC0QkJeOLYMSU/a84qVSovKyNDaT8GRwEKqC9w50cfuco1b6588SDr5EmMKlPG7c7J8RlV7rwgCwj+X+HB5xAjuiGLB4qln8UDxRLCcChAAQpQQGmBmKQkdDt6VMniwYzk5LycU6eU9mNwFKCA+gJtFizQU1u29OuOhk5MW8g+dQojS5e2VTyQ2ZBv6LKAoH5mIi9CFg8UyzmLB4olhOFQgAIUoIDSAiweKJ0eBkcBCjggEGnFA0km1z4oxgKCA6PH2S5YPHDW03ZvLB7YJmQHFKAABSgQQQIsHkRQsnmrFIhQAX8XD5z6id+pJw9+T3M8gMIsICg16lk8UCodAIsHiiWE4VCAAhSggNICLB4onR4GRwEKOCAQqcUDSSeLB7KIwEMNARYP1MjDH1GweKBYQhgOBShAAQooLcDigdLpYXAUoIADApFcPJB8cvoCt3B0YCA50AWLBw4gOtkFiwdOarIvClCAAhQIdwEWD8I9w7w/ClAg0osHcgRwC0c1XgcsHqiRBz55oFgeGA4FKEABCoSGAIsHoZEnRkkBCvguwOIBILdulAUEv2454XuKIqYliweKpZpPHiiWEIZDAQpQgAJKC7B4oHR6GBwFKOCAgD+LB04tlihv0+kFEy+mk1s4pgCWcMCUXfgmwOKBb25+a8Xigd9o2TEFKEABCoShAIsHYZhU3hIFKPAXARYP/stRAEARFhCC9gph8SBo9Je+MIsHiiWE4VCAAhSggNICLB4onR4GRwEKOCDA4sFfEZMAK8EBV3bhvQCLB96b+bUFiwd+5WXnFKAABSgQDgJCoOAVV4iCpUqhUMWKaP7mmy4Vb2tGcnJezqlTKobGmChAgRASYPHgf5Mlnz6IC6EchkuoLB4olkkWDxRLCMOhAAUoQAG/CmhRUUgoV04kVaggZCGgUIUKIrFSJRGfkgJXgQLQY2PlP+GKjYX8p0VHQ4+O9mtMTnXO4oFTkuyHApEtwOLB/+ZfrntQlFs4BvyFweJBwMn//oIsHiiWEIZDAQpQgAK2BGILF0bhKlVEocqVzxcI4osXR3yJEogvVUrEyX/JyRBaeK6fzeKBraHDxhSgwAUBfxUPnFwsUYbq7wUTLx4QcgeGYoAlF1LkERgBFg8C4+zxVVg88JiKJ1KAAhSggCICmsuFAikpIrFcufNPERSvWVMUq15dFKlaVchCQaQeLB5EauZ53xRwVoDFg8t7yjlrcgtH7sDg7Ji7XG8sHgTG2eOrsHjgMRVPpAAFKECBIAjIaQQxiYkokJwsSt98s6jYpo0o2aCBFipTCQJJxuJBILV5LQqErwCLB3+fWxYQAjf2WTwInLVHV2LxwCMmnkQBClCAAgEUkGsPlG/ZUlR/+mm9eK1aQj5pIOQ/wd96/i4NLB4EcJDyUhQIYwEWD/JPbuyFKQz5n8kz7AiweGBHzw9tWTzwAyq7pAAFKEABrwQKXnEFrurQQSvXooWWWKYM4kqWFHyywCvC8yezeOC9GVtQgAL/K8DigWejgls4euZk5ywWD+zo+aEtiwd+QGWXFKAABSjwtwLRSUmiwh13iDI33SSK16kjilSpIsCnCmyPGhYPbBOyAwpQAIA/igdOL5YoExXoBRMvNTi4haN/XzIsHvjX1+veWTzwmowNKEABClDAWwEhUPjKK0VK7dqi0l13iQp33qlxCoK3iPmfz+JB/kY8gwIUyF+AxYP8jX4/Q06mSwas0NjQ1/P7UuVMFg9UycSFOFg8UCwhDIcCFKBAmAjI7RBjChdGibp1tYZjxmhFq1blggV+zi2LB34GZvcUiBABFg+8S7Tc/LcEYIXnJsDeWTh9NosHTova7I/FA5uAbE4BClCAAv8jULZZM9Fo/Hi9cKVKQo+JoVCABFg8CBA0L0OBMBdwunjgjykLMgUqTFv4fSjIwkFJbuHo+CuDxQPHSe11yOKBPT+2pgAFKECB3wTiS5VC/WHD9DLNmomE0qW5hkEQBgaLB0FA5yUpEIYCLB74llQ5dUFOYeBjdr75XaoViwfOWTrSE4sHjjCyEwpQgAIRK1C+VStxbffuetmmTc9vqcgjeAIsHgTPnlemQDgJsHjgezbjARQG/PWwhe+BhWhLFg8USxyLB4olhOFQgAIUCAGBmKQklLv1VlF32DC9sNwpgYdfBOSnT29wWTzwSxrYKQUiToDFA3spTwKQwAKCPcQLrVk8cITRuU5YPHDOkj1RgAIUCHeBqPh4yCcNms6a5YqKiwv32w34/V3qpyoWDwKeBl6QAhEvwOKB/SFQDLBi7XcT8T2weKDYEGDxQLGEMBwKUIACKgoIgSoPPqg1mTxZiy1cmOsZOJAjT59pZfHAAWx2QQEKeCXgZPHA0/c6rwK8cLJKCyZeHL9875Y7MOi+3Bjb/CHA4oFig4HFA8USwnAoQAEKKCZQ/vbbReNx4/RClSqxaGAzN758iGbxwCY6m1OAAl4LsHjgNdklG3ALR/uOLB7YN3S0BxYPHOVkZxSgAAXCRqB4rVqiztChevmWLb35/ho29+/EjfhSLLjUr1eexsI1DzyV4nkUoMDfCbB44Nz4iLqwA4MsJPDwXoDFA+/N/NqCxQO/8rJzClCAAiEn4CpQADV69dLqDBqk69Fy4yke3gg4UTD48/W8qdyweOBNpnguBShwOQEWD5wdGwUAFOEWjj6hsnjgE5v/GrF44D9b9kwBClAglASEpqFotWqi7cqVekyhQt58Zw2l23Q8VqeLBRcH6E0iWDxwPL3skAIRKcDigfNp5xaOvpmyeOCbm99asXjgN1p2TAEKUCCkBJpMnqxf262bprlcIRV3oIP1d7GAxYNAZ5TXowAFLhZwqnjg7/dLlRdMvNSoSgSQyC0cvXrBsXjgFZf/T2bxwP/GvAIFKEABlQUSy5cXrf79bz2lZk1vfuRW+ZYcjc3fH349CdbTxPDJA080eQ4FKJCfAIsH+Qn59r/L93K5hWOMb80jshWLB4qlncUDxRLCcChAAQoESEA+YVCtSxet0bhxelRcXICuqv5lVCgWXKzE4oH644YRUiCcBFg88F825ft5Cr41EHYAACAASURBVGDJhRR55C/A4kH+RgE9g8WDgHLzYhSgAAWUEIgpVAiNnn9el8UDJQIKchAqFgz+TMLiQZAHCC9PgQgTYPHAvwmXf3iLA5bu38uERe8sHiiWRhYPFEsIw6EABSjgZ4G45GTcvXy5q2jVqp5+J/VzRIHvXvViwcUiniaK0xYCP5Z4RQqEowCLB/7PqnzyQD6B4On7u/8jUvMKLB4olhcWDxRLCMOhAAUo4EeB4rVqibsWL3bJJw8i6Qi1YgGLB5E0OnmvFFBPgMWDwOQk9sIaCIG5WmhehcUDxfLG4oFiCWE4FKAABfwkcM3jj2s3TZ6sa1HhP9My1IsFLB746UXAbilAAY8EnCgeBOJ9ONR2W7gUPrdw/PshyeKBRy/ZwJ3E4kHgrHklClCAAsEQkMWC+sOH67WeeSas1zcIxAfVYORPXtPTx1o5bSFYGeJ1KRBeAiweBDafhQFLFhF4/K8AiweKjQoWDxRLCMOhAAUo4KBAdEICbpk2Ta/84INhWTgI54LBn4cBiwcOvijYFQUokK8Aiwf5Ejl+QjK3cLykKYsHjg81ex2yeGDPj60pQAEKqCqgx8bivtWrXSk1a3r63VPVW/kjrkgpFlycCE8TyCcPlB/CDJACISHA4kFw0lQCsFzBubSyV2XxQLHUsHigWEIYDgUoQAEHBFxxceiwebMrMTXV0++dDlzV+S4itVjA4oHzY4k9UoACnguweOC5lZNnyq0b5RaOYfmooI9QLB74COevZiwe+EuW/VKAAhQIjkDBK67A3UuWuApXqRJShQMWCi4/XjxNJJ88CM5rjlelQLgJ2C0eBOr9PBwWTLx47ERf2MIx3MaUr/fD4oGvcn5qx+KBn2DZLQUoQIEgCCRWqCDunD9fL3zVVZ5+3wxClH+9ZKA+ZAb9Rm0E4GkyWTywgcymFKDAHwIsHgR3MBQAUBTgn0cALB4Edyz+z9VZPFAsIQyHAhSggI8CccWL4+6lS11Fq1b19Lumj1ey14yfhrz38zShLB54b8sWFKDA/wqweBD8UVEIsAoGP4ygR8DiQdBT8NcAWDxQLCEMhwIUoIAPAnpMDDps2eJKqlDB0++ZPlzFtyYsFvjm9udWniaVxQP71uyBAhQA7BQPAvmeH47TFv48/ooBVmyED0gWDxQbACweKJYQhkMBClDAS4Go+Hh02LrVlVCmjKffMb28gnenB/KDo3eRhe7ZniaWxYPQzTEjp4BKAiweqJEN+d4vCwgxaoQTlChYPAgK++UvyuKBYglhOBSgAAW8EIgqWBB3LV7sKlm3rqffL73o3bNTWSzwzMnOWZ4ml8UDO8psSwEK/C7A4oE6Y0HuwJAcwVs4snigzlg8HwmLB4olhOFQgAIU8FBAi4rCra+9pldp1y4ouzqxaOBhohw4jcUDBxDZBQUo4LEAiwceUwXkxKgLBYSg/LEPyB1e/iIsHgQ5ARdfnsUDxRLCcChAAQp4IiAEbpoyRa/evXvQPkuweOBJopw7x5MCAp88cM6bPVEgkgVYPFAv+5G6hSOLB4qNRRYPFEsIw6EABSjggUDtZ5/VGowaJZ9mDMrBwkHg2Vk8CLw5r0iBSBXwtXgQ6L8N4b5g4sXjLxK3cGTxQLF3IRYPFEsIw6EABSiQj0Cphg3F3cuWufQo+SBj4I9AfzgM/B3+9Yqm241TP/xgnTh4EKcOHrQyf/kFTfr0CfgTHyweBHsk8PoUiBwBFg/UzXWkbeHI4oFiY5HFA8USwnAoQAEK/I1AoUqV8NA330S5CsjfHwJ/hEvhQBYEThw4YP2yaxeO7tplHd+/H5k//mhlnTwJ+UtWdmYmcs+etXLPnEFuVhZg/ffOY5OSMPzoUVeg9Vk8CLQ4r0eByBVg8UDt3BcFrOB8Cgi8C4sHgTf/2yuyeKBYQhgOBShAgcsIxJcogfvXrYtKKF06KEahVjgwDQPH9+61Mr7/HsfT062j6ek49v33VsaePTh56JBl5OX55MjigU9sbEQBCoSQAIsHaidLFpPlDgxyHYRwP1g8UCzDLB4olhCGQwEKUOASAnp0NFr861+uSnfd5ckP0H4xVLl4IJ8UOH34sHXqhx+wb+1a6/tPP7UObdhgGW634xYsHjhOyg4pQAHFBFg8UCwhl/pcACAFsIK2+FGAiFg8CBC0p5dh8cBTKZ5HAQpQIHgC9YYP1+oMGBC0zwhKFQ4sC+7cXOScPo3vPv7Y/Gr2bOvA+vXWn6cW+DNTLB74U5d9U4ACKgj4UjwIxt+JSFsw8eKxIT8UlACsoP2qEIDByuJBAJC9uQSLB95o8VwKUIACgRcof/vt4vZ333VpEb5Aony64Os5c8wNb7xhnTl8+Pz6BHJqQqAPFg8CLc7rUYACgRZg8SDQ4r5fT05dkFMYwrWAwOKB72PDLy1ZPPALKzulAAUo4IiAXBix4+7dUfHFizvSn7edBOOXpD9itCz8uHmztXHOHOvghg3Wke3bLfnEQbAPFg+CnQFenwIU8LcAiwf+Fna2/3gAhYGg/sl29o7+2xuLB/6S9bFfFg98hGMzClCAAn4W0GNjcd+qVa6UWrWC8oNCsD6FHNmxw9o2f7619f33zSM7dvhZ2fvug1U8kJHmNxBmJCfn5Zw65f1NsQUFKECBPwmweBB6wyFct3Bk8UCxscjigWIJYTgUoAAFzn9LFKjRo4fWePz4oKxzEOjCQc6ZMzi0caO1fMQIc/8XXwT68l6NuZiEBIw4dizgWzV6UjyYVapUXlZGhlf3w5MpQAEKXCxw10cf6WWbN9e8kQnGG7ecvjaqTBm3OyfHm1DD9txigBUbZnfH4oFiCWXxQLGEMBwKUIACAEo2aCDuW706KF9QA/kB0MjNxYbXXzcX9uljBmP9Al8Gmys2FqMzM4OSm/yePHijcuW8zP37fbkttqEABSjwh8A9y5e7Sjdpkt9bzh/nB/Lvxp/TdO74cYwuW9atwpQ2FYaPTFhJwPKq6qNC4H8TA4sHiiWIxQPFEsJwKECBiBeQ0xUe3rrVlZia6vEHN6fQAvkB8JOBA82Ns2eb8sNfKB2armNsVpaSxYO5DRu6j2zcGMg0hlLqGCsFKOChwIPr17tSatb0+G9QsN50zmZkYHRqqlsWonn8JiALB7KA4HHyFIdj8UCxBLF4oFhCGA4FKBDxAje//LJ+7eOPB/yHg0B8+DPy8vD1G2+YK8eMMU/9+GPI5nrkyZOu6Li4gMef34fBxe3bG3vee88MeGC8IAUoEFYCndPTXQllyuT3lvPHPQfi78elgE8fPoyxFSu65d8WHv8ViLqwA0PAP0j4IQksHvgB1U6XLB7Y0WNbClCAAs4KpLZoIVp/+GHAt2UMxAc/uWPCR888Yx5Yvz4Ql3M2MRf19tx33+lFKlTw+IO1U8Hkd8Gvx40z1w0eHPj9K526QfZDAQoEXSAqPh6PHzkSpUfLTQA9O4L1pn7y0CG8ULmyO1SmvXmm6cxZsrwtd2DI7++GM1fzXy8sHvjP1qeeWTzwiY2NKEABCjguoEVFodPu3a6CV/w/e3cCb9W8/3/8+117n6FOp3meZ5VoVghJUhIiUSIks+vn4vqbr3C7iOsiPxm6opSUEjJEShGpUBo0z9NpPHVOp85ea/0f33PxM1R7WsN37/Xaj0cPQ2t91/f7/HzP2Xu991rfVcvT93q3P/Spy0k/f+IJ67PHHkuZdQ2iFffGmTND9U85xdM6qT5FO+C2efPsCZ07R6L1n79HAAEEjibQYtAgo9vLL8e1WK/b7yNH6+uu1avtJ1u0MG3brx7oPY9yhRDlUvwRjoQHms0xwgPNCkJ3EEAgmAJSil7jx4ca9enj+VWGbn7kUvej/qtt24i6tDSdXpe99prRZsAAz2sVLTxQxqNbtIjsW7XKzbKmUykZCwII/EZASimu+PHHcPkmTWL5dfPrnn79wlk7Z479YteuXG11jFlcTgiRm8IBAuGBZr+iCA80KwjdQQCBQAqohakumzs3rB7R6OXLzQ98S959154weLBZlJ/v5ZA8OVaXu+82ej7yiJbhwZJRo6zPbriBD9OezAQOgkB6CWSVKycGr1+fEY5jTRc330ei6X7xr39ZH9x9N+u8HANKfapQj3DMioap6d8THmhWGMIDzQpCdxBAIHAC6sPa5d99Fy5Tu7anyYGbH/g+fOABa/bTT1vpuojV8eefL6+cODGuy3qdmNixTJCi3bvFqIYNiyOFhU4ckjYQQCBAAp0ffzzU9vbb4wpG3XwviUY/dsAAc9HEiX52IVoXtfh79d5RXQjb8zctB0ZPeOAAopNNEB44qUlbCCCAQPwCJ91/v9HpwQc9fU9365OWWt9g3JVXmovfecetQ8QP7MIetdu3l7d+9ZWnNVPDiCU8UNutnDjR+mjgQNO2+ELOhfLTJAJpKVC2YUM5aNmysLp1IdaXn7/o1ToHj9WtG9m/fXus3Q30dioRqpaCAQLhgWbTlvBAs4LQHQQQCJRApRYtZP/588NGOOzZuN36sFeQlyde6tHD3LZ4sVuH8Mwo2oEqNmgg7v7pJ++K9nOHYv1Ib0UiYmKXLhG1gGK0sfD3CCCAgHoP6vHGG6HGF1+cMlcdqLV0Hq1blwVi45i+6tYFdQtDrO8lcTTt2qaEB67RJtYw4UFibuyFAAIIOCFw0fTp4dpnnOHZ+7hbZ5JqYcSnTjghUrBrlxMs2reRlZsrhu7apW148Avgfxo3juzfsMGtsmtfJzqIAAKxCbS+5Rbj9KefjvtqKj9/uWycN89+vnNn1neJrcS/blVaCLtinPv4uTnhgZ/6Rzg24YFmBaE7CCAQGIHmV15pdHvppZA04vqiJ2Eftz7k5W/ZYr9w+unmng0bEu5bKu545+LFoSrHHedZ8KOM4j3Y/o0b7bdPPz1yYPPmVCSmzwgg4IFAg969jZ5jx4bC2dlxH82t95VYOjJ/9Gj77SFDCA9iwfrDNmWEEOVT5AkMhAcJFNjNXQgP3NSlbQQQQODoAlevXZuRW6uWJ0RufcDbv22b/UKXLubuNWs8GYdOB+nyt78ZPR991Jvk5+eBxxseqN32LF9uf3DZZebupUvdmgY6lYW+IIBAHAL1zjlH9hgzJqwW7k3k5ecvlbGXX24tevttFnZJoHDqvURVvEwKBAiEBwkU2M1dCA/c1KVtBBBA4AgCUorTnnwy1OYvf/HkxNOtD3cHduwQz518cmTvxo2BLHOFunXl3StWeHbliEJOJDxQ+6knMHx63XXm2vfft1hEMZDTlUEj8DuBUFaWaHnttYZ6L0pmzR233l+ilUstzvtI7dqRg3v3RtuUvz+KgHo/qSKEnam5EOGBZgUiPNCsIHQHAQTSXqBc48Zy0NKlntwv79YHu6CtcXCkSRnOyhL3b9wYLlW+vGdzNtHwoKSDti2WjxljffXww9YB1kHwrGYcCAHdBHLr1ZNnjRhh1O3ePakA2633l1i8Vs+aZb909tncshALVpRt1CMcPflAkmBfCQ8ShHNrN8IDt2RpFwEEEDiyQN8ZM0I1O3dO6kNbrLZufLgzi4vFsx07mtt+/NGN5mMdmu/bqceZ3bV0aahSo0ZJndPHOxAnDrZ45EjrizvuMNW3d7wQQCAYAkYoJM5+9dXQcQMGOPL+4+cbwNQ77rC+fO45bllwYOqqyVBD4ycwEB44UGQnmyA8cFKTthBAAIFjCzTq3Vv2mjTJk5DfrQ92YwcMMBdNnOhW8yk1hc5+8EGj2/33O/JBPNaBOxEeqGMVFxaKfatX28tef91e+vrr5qE9e2LtAtshgECKCKi1DJoNHGgcP3iwUb5RIxkuVcqxnvv5JvDvDh3MLT/84GcXHHPUoSH1CEd1C4MOffljHwgPNKsK4YFmBaE7CCCQtgJqJesBCxeGyzdu7NT531Gt3PoE8OF991kzn3ySb3t+ls+pVEnct359OJTp3V2jbkwetQ6CeqRj/vr14uD27XbRvn2ieP9+YZmmW1MpbX/OGRgCfgkYoZDMyMkRmeXKidLVqsmydesKdYtCMmsaHGssfv1y2LZ4sf1Mhw4m67c4O9N0fYQj4YGzdU66NcKDpAlpAAEEEIhJoMM99xgnP/xw3M/Rjqnx32zk1ge6RRMmWOOuvtqyiovj7VJab/+Xb74J1WrTxo1z+iO6eXagtK4ag0MAgWQF3HqvidavcVdcYX7/1lt+HT5a91L679XjG9VjHHV6ER7oVA0hBOGBZgWhOwggkJYCGaVLi0ErVoRLV63q6rmfW5+m9m3caA8/8UTzcEFBWtYnmUH1HDbM6HLHHZ7duuDqBEoGgn0RQCAwAm6910QFtG3xWP36kfytW6NuygaJCVQWws5ObFdX9iI8cIU18UYJDxK3Y08EEEAgVoFzx40LNb74YldPMN36MHfowAHxSK1akeKDB2MdbqC2K1ujhrxv/XrXryj5BZXwIFDTi8EioKWAW+830Qb745Qp9hv9+vGUhWhQSf59NSHsjCTbcGp3wgOnJB1qh/DAIUiaQQABBI4ioO5BvXbz5gx19YFbLzc/yI278krz+/Hj3TyEWyyetXv11KmhZj16eHJe78lBPJPjQAggkIoCfrwhRA4fFo/Vqxcp3LUrFclSqs/qm46qmjzCkfBAs6lDeKBZQegOAgiklYAMhUTfmTPDNTp2dO2cz80Pcd+OGmVNvOEGFkiMMitP7NtXXv7mm55cfeDaREqrnzwGgwACbgq4+b5ztH5vWrDAfv6UU0zb9uPobmrq2ba68kAFCH6/5xAeaDY/CA80KwjdQQCBtBKocfLJ8pJZs1x7NKObH6F2LF9ujzjtNFOtvM/r2ALqqpK7f/opnFutmutUfn+Qc32AHAABBLQWcPN952gDtyIRMeL0081N8+f7cXit6+Fm53R4hCPhgZsVTqBtwoME0NgFAQQQiEFAPb6v//z54YrNmrlyvufmJyjbNIUKDjbyQS2GSv93k5Ouvda4+IUXXF3XQh3HlckU8yjZEAEEgi7g5nvP0WxXff65/fI557DWgQ+TL0cIUUEIP8peMlrCAx+KfqxDEh5oVhC6gwACaSPQ9LLLjB6vv+7apexuvpN/8Le/mV8884ybh0ibOv8ykJxKlcSDW7e6dpXJL8chPEi7qcOAEEgpAT/eGEZ07mxumDfPj0OnVG3c6mxFIWz3Vm06dq8JD9yqaoLtEh4kCMduCCCAwDEEjMxMMWjZsnBunTqunOu5+Qlq36ZN4onmzSORQ4eocZwCp99xh9Fr2DDXrz74bbdcmWBxjpvNEUAgOAJuvv8cSXHBmDH2hGuu4aoDn6eYX49wJDzwufB/PDzhgWYFoTsIIJAWAh0ffDDU8f77XTmJdPOD2+HCQvFsx46RvJ9+Sos6eD2IUEaGuG/dunBOlSpeHzrq8QgZohKxAQIIxCDg5nvQHw9vHj4snm7d2ty5apWXh41BIXibqPeQKkLYmR4PnfDAY/BohyM8iCbE3yOAAALxCWSWLSuuXLIko7QLi+e5/elp7siR9pRbb+UbnvhK/rutT731VuP8p55yJThKoltH3ZVQwQ1V2kQgfQXcfh/6rdy7//M/1lcvvMATfzSZTuq+PBUguHY/5hHGSXigSfF/6QbhgWYFoTsIIJDyAmqdA7XegdMDcfsD2+41a+wnjz/etEyyg2Rrd/vChaHqLVum1Xl5Wg0m2QKzPwIBFXD7fei3rAV5eeKfTZpE1BVxvPQR8PoRjoQH+tS+pCeEB5oVhO4ggEBKC4Sys8X1O3ZkhLOzHR2HFx/YXrvwQnPZtGleHMpRGx0ba9q9uxz8/vtefjmjDQMhgzaloCMIOC7g1RuEWnPnkdq1Izwq2PESOtKgChCqefQEBsIDR0rmXCOEB85Z0hICCARbQBqG6DdnTrha+/aOnj958WHt21GjrEk33mjZthdHC8Y86TtyZKjD1Vc7OhfSTQ6cdKso40l3Aa/eIaY/+qj16dCh3K6g8YTy6hGOhAeaTQLCA80KQncQQCBlBap37Cj7zZ7t6KP6vPigZhYXiyeaNYvs3bgxZe117Hi5WrXEbfPnh9UjHHklJ0DIkJwfeyPghIAX70eqn6tmzLBf6dnTJMx2omrutuHFIxwJD9ytYdytEx7ETcYOCCCAwJ8EQpmZJVcdVGnd2tHzHLc/rKkPZ+/cfLM175VX+IbHhXnd9Oyz5eAPPgjk7QsucLrSpKM/sK70kEYR0EPA7fcjNUr1qOARp50W2bd5sx6DphdRBdx+hCPhQdQSeLuBk+FB0Z49IlJY6MXvFm+ROBoCUQQiBw8K9af4wAFxMC/PPrBpk9i/caO9e/lye++qVaK4sFBECgps9ffqsUO80k/guP79jXNGj3b0JNGLX6bqA5q66kDdX8rLBQEpxZVvvx06vndvKSSnqS4I0+TPAswupoLbAm6/J6mr4F7t1ctcPXOm24dymypQ7avVoasKYTt62eVvBAkPNJtOToYHmg2N7iCgh4BtC9uyhFrB3jZNkb9unb1q8mR76ejRVv7atbxB6lGlpHohpRRXrVwZzq1b17HP715MDDUv1fOzdyxf7sXhkjJO5Z1lKCTuXrYsVKF+fcfmRyp70HcEfivAD0XqzAe33yjG9O9vLZ40iavgUmdK/NpT9c1JDZcWUCQ80GxCEB5oVhC6EygBdbXOgU2b7C1z5thLRo2y8n74we335kD5ejXYjg8+aHS8/37HrjrwahIsnzbN/s+FF/JcRg8mSvk6dcRt334bLl2xogdH4xAIIOC2QBBDDzffmz5/4gnrk4cesnhUsNsz17321ZUH6gkMTv9sEB64V7OEWiY8SIiNnRBwXsC2Rf769fammTPtVe+8Y2347DPbKi52/ji06KhAZm6uuHLZsozSVas60q6bH85+28GDe/eKZ9q2jezdtMmRftNIdAF168Ll48eHQhnqIVe8EEAAAe8Ekj2hc/O96ftx46xxgwZxxYF308G1I5USQqhFFJOdb7/tIOGBa+VKrGHCg8Tc2AsBtwUKtm0Ti1980Vw9daq9e+lSW11izkszASnFuWPHhhr37atu+Uv65eaHsz927rNhw0q+5Um60zQQl8Cpt9xinP/0047Ml7gOzMYIIICAhgJL33/ffv3ii3mygoa1SbRLZYUQZR28hYHwINFKuLQf4YFLsDSLgIMC27791v7i9tvNnYsW2ZGiIgdbpqlkBHKqV1drHWSEsrKSaaZkXy+Dg4N79ohhjRtHDu3fn3S/aSB+gZ6PPWZ0uesuAoT46dgDAQTSSGDlp5/ao3r3NrlVIY2K+vNQKgghchz6aEN4oNn8IDzQrCB0B4GjCKgrD9STHD698UZr3fvv842xzzNFLYI36KefwmUdWiTRy/Bg7OWXm4veftvLQ/pcLb0OLw1D9B892mh16aUECHqVht4ggIBHAmtmzbJfOfdcUz1hgVd6CqgnMGQ6MDTCAwcQnWyC8MBJTdpCwH0BFSLsXbHCnvvgg+aqKVM4AXSf/IhHqNejh3HB1KmOLJLoZRHzN2+2n2jRwiw+eNAnOQ6rBNQTOi577bVQ6/79nbw1FFwEEEBAe4Hvxo61Jt14o1XMlZTa1yqZDqp0vLoQdrIpOeFBMlVwYV/CAxdQaRIBjwTU4orfDB1qbp4zx8vzT49Gp+9hssqXFwN/+CGcU6NG0id+XhbOikTEiNNOMzctWODlYfUtpM89UwFCnxdeCHUcPDjpeeTzUDg8AgggEFVAffkx6+mnrQ/vvZerJ6NqpccG6hsW9QSGZAIEwgPN5gLhgWYFoTsIxCmgTgiXvPKK9fXDD5sHd+2Kc282T0Sg4wMPGB0feCDpqw68PoPfOG+e/cIZZ3B/aSJFd3Gfc4YONbrefbchJBmCi8w0jQACPgocPnBAfPjAA9ZXI0YQHPhYBz8OrVaFqpzEExgID/yo2jGOSXigWUHoDgIJCqgFh97t1SuyadYs2zbNBFtht2gCuQ0ayEE//hg2knzcntfBgbpNYVjDhpECAqZoJfbl70+65hrZ5/nnQ0ZYPSmbFwIIIJA+AmqR3tcuushc9+WXXr/1pQ9iio9ELZ6oFlFM5EV4kIiai/sQHriIS9MIeCygLglcPXmy9eGAATz2yCX7Ph9/HK5z5plJfUXsx6en7996yx53xRWkSi7Ni6SblVJUbdZM3Dp3bjizdOmkm6MBBBBAQAeBnStX2s+feqp5cO9eHbpDH3wUyBVClEvgCQyEBz4W7UiHJjzQrCB0BwEHBPauWmW/37evuXvpUj/OUx0YgZ5NNOnXz+gxenRIPWkh0ZcfBVHf+jzZogVXHSRaNA/3q9SwobhiwoRQjRNPTCqg8rDLHAoBBBD4k4AZiYhP/v5364unn7bU7ZW8EFBvauUTeIQj4YFmc4fwQLOC0B0EHBKIFBWJ2Xfeaf74yiuWuiKBV3ICoawscfXq1Rmlq1ZNuCE/ggPV2Y8fesiaMWwYkyDhynm7Y1Zuruj+4ING59tuS2aNKW87zdEQQACBnwW2LlpkT771Vmv93Ll+ve1RC00FVICgHuGYEUf/CA/iwPJiU8IDL5Q5BgL+Ccx/8klr3mOPmZHCQv86keJHloYhTn/66VCrm25K+GTOr09Q+7dtE8NbtowU5eeneBWC1/0W550nz3/mmVCFunWDN3hGjAACKSdwuLBQzH3xRWv6ww9bPA445crnWYdVgKAe4RjrNZyEB56VJrYDER7E5sRWCKSywNoPPrA/vPzyCAFCYlWs3rGj7Dd7dsIr2fkVHKjRvtGvn/njlCl+diExdPb6VWDguHFG8/POM8JZas1qXggggIBeAuq2hG2LF9svdutmHtq/X6/O0RstBeJ5hCPhgWYlJDzQrCB0BwGXBHYuWmS/2b49Nx7G6RsuVUpctWJFuHS1agnfg+7XmfuBvDzxjwYNIubhw3GOms11EpBSikqNG8urp0wxKjdpkvA81GlM9AUBBNJDIH/zqS6PtgAAIABJREFUZvv1fv2szQsX2uqpT7wQiFVAxeFVYlhAkfAgVlGPtiM88AiawyCggcDuZcvsCZ07Rw7zzUDM1TjtySdDbZK499yv4EB9E/Rsp06muvc05sGyodYCGdnZomn37vKiESNCZapV07qvdA4BBNJbIH/LFnvKbbdZKz75xOYWhfSutZuji+URjoQHblYggbYJDxJAYxcEUlhg19Kl9pQePSIF27al8Ci86Xqdrl3l+e+9Fw5lxLO0z//1zc+zdrVQ1Ytdu5p8E+TNXPHyKEY4LDoMHmx0vvlmWbVZM65E8BKfYyEQcAH13vL1yJHWd+PH2yzGHPDJ4NDw1eMb1WMcj/YiPHAI2qlmCA+ckqQdBFJHYOvcufZ7ffpEinbvTp1Oe9zTUGamGLBgQbjCcccldHLmZ3BwuKBALZJo7tu82c9ueFyxAB5OSnFCnz7yjDvvNGq1aSONJB4hGkA9howAAjEKFO3bJzZ88409c/hwa/XMmbyvxOjGZrEJqA9ZlYWwj7aqD+FBbI6ebUV44Bk1B0JAK4ENn35qT73ggohVXKxVv7TojJSixxtvhJr265fQ0xX8/mT13bhx9vhBg7j5VIvJ5E0ncipVEhf/7/8aDc84w8guV06oJ4TwQgABBBIVUGvlHNixQ8x+9llr9jPP8KjfRCHZL2YB9QSGI61MTXgQM6E3GxIeeOPMURDQUWDlxIn2hwMGsIjiH4pT4+STZd8ZM8IygW9y/Q4ODh04IP5Rvz6PZtTxB86DPmWUKiUqNWokz3nwQdn8/PMNQgQP0DkEAmkkkL9li/j0scfMHydPttUVByZfMKRRdfUeytEe4Uh4oFndCA80KwjdQcBDAds0xbx//MP65pFH+Jb6Z/fcevXkwO+/D2fk5MRdCb+DA9XhaffcY8166im+JYq7eum3Q2ZOjqjStKmsd+qp8vhevWTDLl24tSH9ysyIEEhYwLZtsX3pUnv5Rx/Za2bOtPNWrrR3r10rhK3Du1nCw2LHFBZQK0xVFcL+7f2ihAeaFZTwQLOC0B0EPBZQty1MOuusyNavvw78pwUVGFzwwQfhmqecEvc6Bzrg7Vq92v53hw6muvqAFwJ/FAhnZYkarVqpRRaFWmhRXaFQoW5dUb5OHZFTubLkKgXmDALpJ6ACgoN79oh9mzbZezduFHvWrbO3//ST2Ll8ub1tyRJbPdKXFwI6CWT/vAbCL30iPNCpOkIIwgPNCkJ3EPBBoLigQLx+/PGRgi1bdDgH9kHgv4c8ffjwUOu//CXum8V1QXu5Rw9z1YwZunTHtzpy4PgF1C06uVWqiNwaNWRW2bJCPRYys3RpIVg7IX5M9kDARwH1fh45fFgc2r9f5G/dKg5s325z64GPBeHQCQmUEUKUF6Lk8wzhQUKE7u1EeOCeLS0jkEoCa9591/rgsstMdStDEF/NBw0yzn755VC8Y9flTH3b4sX2Mx06mDw6K94Ksj0CCCCAAAII6CZQSQi7FOGBbmXhygP9KkKPEPBPYNbtt5s/jBgRuPvlyzVuLC9fsCAcLqXepmJ/6RIcFB88KIY1bBgp2LUr9s6zJQIIIIAAAgggoLGAWv+g7ZAhRtcRI+L+cudIwxrXvn0kb9EiXT6+HVFe/kuIwxrXhNsWdC4OfUPAY4GDu3aJsW3aRAq3bdP6F6uTLNkVK4orFi8Ol6pSJSXXOVAWX48caU3+y18sFrlycmbQFgIIIIAAAgj4KaA+mHUdMkSeQ3jgZxl+f2xuW9CnFvQEAR0E1nz4of3+BRcE4vGNpSpXFpd88UW4fOPGKRscqMWvnmzZ0lTP5OaFAAIIIIAAAgikk8DJQ4bIPoQH+pSU8ECfWtATBHQQME1TjOncObJvwYK0vvogMzdXnDt+fKju2Wen7AKJan2D8ddcY33/5puBu9VEh58V+oAAAggggAAC7gp0HDLEuGjECCPub3mO0C1uW3CgVoQHDiDSBAJpJKASA/VYp1fr1i22Dx1Ko5H931CMcFj0ePPNcOMLL4z7vUinRGXJ1Kn26337BnOFy7ScmQwKAQQQQAABBH4r8Et4oP5f3B/a/kBJeODA3CI8cACRJhBII4GSk2PbFmMvucTcNXWqlewvah1per/zTqjBeeel7BUHJaa2LZ5o0cLctXq1TnmGjuWmTwgggAACCCCQogK/DQ+SDRAIDxyYBIQHDiDSBAJpJPDLmahauf/F446LZObnp83JqZGRIXpNmBBqcO65hpDxxSK6IUy9/XbzyxEjdOtWGv0kMBQEEEAAAQQQ8FuA8MDvCvzh+IQHmhWE7iDgo8Afz0QnXHONuWHMGCvLxz45dejMsmXF2aNGhRudf358qYH6kt+pTjjUzt6NG8XTrVpFDh044FCLNIMAAggggAACCOgn8MfwQPUw7g9yPw+LKw8cqC/hgQOINIFAmgj88SR5x/Ll4vl27SKVi4vtRH9R60CTU7266Dl2bKjmaael9q0KQojI4cPimTZtzLyVK3XLNHQoNX1AAAEEEEAAgTQSOFJ4kGiAQHjgwMQgPHAAkSYQSAOBo52JvnHppeaqyZPtyvp9AR+TugoOLpkzJ6Ns3boxbf/bjXQ8O184Zoz11jXX8HSFuKvJDggggAACCCCQagJHCw8SCRAIDxyoPuGBA4g0gUAaCBztRHnZtGn2axdeaFYRwk612xfqnH220Wv8+JB6LGO8Lx2Dg+1Ll9rPtG9vWpFIvMNhewQQQAABBBBAIOUEjhUexBsgEB44UH4nw4Mfnn/eWvvBB3wj5kBdaCK1BEJZWSKUnS3L1q8vqrZuLWufdZZRukqVlBrE0U6Wi4uKxLBGjSKFeXmihhB23Nf9+6AQys4Wpz3xRKjlkCGGEQol1APdwgMVGIzs1s1c99VXunUtIV92QgABBBBAAAEEogkQHkQT8vjvnQwPPr/1VnPxyJGEBx7XkMNpKCClqNa2rWzct6/R+KKLZLkGDbRfMuBYZ6Sznn7amvb//p+VLYSoJITW6x9UbtVKdvn3v0M1TzklYXMdz84/f/xx66MHHuD3q4Y/7nQJAQQQQAABBNwRIDxwxzXhVgkPEqZjRwRiEjDCYdHyuuuM9nfdFSpTq1ZM+3i9UbST5R3LltlPtWplqn5VEMLO8bqDMRwvlJkpjr/2WqPz44+HwlmJ32ARzSKGrji+yc5Vq8S/O3SIHC4ocLxtGkQAAQQQQAABBHQVIDzQrDKEB5oVhO6ktcA5r78ebtqvn5SGXhf/RzthNouLxYMVKkTUSv/qpW5fSOxmAOfLK6UUZerUkZfOnRtO9laRaA7O9z56i7Zti2fatjW3LVmiY/eiD4AtEEAAAQQQQACBBAUIDxKEc2s3wgO3ZGkXgT8LqNBA3crQc8wYXc69SzoZy1mpumReXTqvtlff66sFFP2ucXbFiuLsl18O1evRwzAyMpLqju+DOUrv37vzTuvL556zVIjACwEEEEAAAQQQCJIA4YFm1SY80KwgdCcQArXPOEP2+fjjsA5XIMR6Spq/ebP9j0aNTNv67233uULY5XyqVmaZMuLUYcNCTfr1M7IrVEi6F7EaJH2gOBvYOH++PaJz51/N49ydzRFAAAEEEEAAgZQWIDzQrHyEB5oVhO4ERqDGKafICz/4IJyR4+8KArGeOEcOHRKP1asXKdy9u6RGajXCakLYYQ8rVrZBA3nCkCHGiTfdZGSULu3IkWMdvyMHi6OR/K1bS9Y5OLBjRxx7sSkCCCCAAAIIIJA+AoQHmtWS8ECzgtCdQAmceOONxulPPx1K9HGCTmDFevKsLpt/ulWryI7ly389rAoQarr89AV1dUal448vCQ3UwpNOX60R6/idsI61DfVYxreuvtr8/q23dOxerMNgOwQQQAABBBBAICkBwoOk+JzfmfDAeVNaRCAegZ5jx4aaXHKJbysoxnN2+t4dd5hznnvud7u4dftCKCtL1O7SRZ796qvh0lWrxkMa07bxjDumBh3caMbjj1sf81hGB0VpCgEEEEAAAQRSUYDwQLOqER5oVhC6EziBrPLlxdWrVoUzy5ZVX+R7+or3BHr93Ln2C2ecUfLIxt++KgthZzvU81qdO8sO994bqtqunXRiPYMjdSvecTs0tJia2Thvnv3iWWeZ6jYRXggggAACCCCAQJAFjhUexPvBeVz79pG8RYt0/hgo5L+E+O+zzTR9ER5oWhi6FSiBE667zjjz+ec9fwJDvL891SMbH6hQIWL+/MjGX4qkOl41wcc3qrUL6vfqZTTp00dW79hRlqldWwoZ79tBfNMl3nHH13riW0eKisQTzZtH9m3enHgj7IkAAggggAACCKSJAOGBZoUkPNCsIHQnkALq6oOrVq7MyCrn7fMLEjmJfrxpU3P3unV/2rWUEKJSDI9vDGVmikonnCBrdOwo6559tqFuTfBy0chExuzFpDxcWCj+t0sXc8v33+vaRS8YOAYCCCCAAAIIIPCrAOGBZpOB8ECzgtCdwAq0+Z//MU574gnPrj5I9AxV3bagbl84UqEqCmH/9hkIMhQS2RUryjI1a4oqrVvLhr17yzrdujn2pIR4J0uiY473OPFurxZInHbvvdbsZ57573MweSGAAAIIIIAAAggIwgPNJgHhgWYFoTuBFShTt668esWKsNNPEzgaaKIn0qMvvthc+t57v99dSmEYhgiFQqJWOGzX69HDaNq3r1G/Z09Pryo41uRJdLxeTMj5o0fbbw8Z8qe1JLw4NsdAAAEEEEAAAQR0FSA80KwyhAeaFYTuBFbACIfF9Tt3Zqg1ANx+JXMiPfnWW80Fr79u12zdWtZp317W7dBBVD/xRJldtqzMys0V6o8KEnR6JTNet8exbNo0e8yll7JAotvQtI8AAggggAACKSdAeKBZyQgPNCsI3Qm0wNmvvBJqfuWVrp95J3MyXVxUJMKZmSLaFRLuLnkY3zRJZrzxHSm+rfN++sl+sWtX80BeXnw7sjUCCCCAAAIIIBAAAcIDzYpMeKBZQehOoAVqdu5s9J0xw/V1D7w4mdYlPPBirIlM2qL8fPFM27aRPRs2JLI7+yCAAAIIIIAAAmkvQHigWYkJDzQrCN0JtIAMh8UtBw5kRPtWP1kkr06o/Q4QvBpnvPX4OTgw92zYoGsX4x0S2yOAAAIIIIAAAo4LEB44Tppcg4QHyfmxNwJOC1yfl+fqIxu9Plv1K0DwepyxzgP1ZAX1SMYN8+bp2sVYh8J2CCCAAAIIIICAqwKEB67yxt844UH8ZuyBgJsCQ7ZsyShVubJrh/D6jNWP8MDrMcZTrPFXXml+N368zl2MZzhsiwACCCCAAAIIuCZAeOAabWINEx4k5sZeCLglMHjDhoyc6tXdal74cdbqZYDgx/hiLdakm2+25r38shXr9myHAAIIIIAAAggEWYDwQLPqEx5oVhC6E3iBwevXZ+TUqOGag18n114ECH6NLZZiTb3jDuvL554jOIgFi20QQAABBBBAAAEhBOGBZtOA8ECzgtCdwAu4GR74eXLtdnjg59iiTdofJ0+23rvzTuvgnj3iUEGBELbOvY02Gv4eAQQQQAABBBDwRoDwwBvnmI9CeBAzFRsi4IlAuoYHCs+tACGVTsUP7t0rVn3+ub182jRr6fvv2ypQUGGCTaDgyc8XB0EAAQQQQACB1BEgPNCsVoQHmhWE7gReIJ3DAzcChFQKDv44uVVgcPjAAXFw3z5xcM8ee+v339vLPvzQXj1zpl2wc2fgfxYAQAABBBBAAIFgCxAeaFZ/wgPNCkJ3Ai/gVnigy0m2k1cf6DImpyetChUK8vLsnatWid2rV9sb5s8XG77+2t66eLGtHvXICwEEEEAAAQQQCIIA4YFmVSY80KwgdCfwAukeHjh59UG6hgdH+yE4XFgo1NUJ6+fNszd++62dt2KF2LVypa3+Py8EEEAAAQQQQCDdBAgPNKso4YFmBaE7gRdwIzzQ8SQ72SsQdByTH5NXXYmw4Ztv7B8mTbLXzZ5t79++veSWB65Q8KMaHBMBBBBAAAEEnBQgPHBS04G2CA8cQKQJBBwUCEp4kMwVCAQHx55w6kqERW+/bX/90kvWxvnz1WqMDs5QmkIAAQQQQAABBLwRIDzwxjnmoxAexEzFhgh4IkB4cGxmToPjm4YqSCjYscPesXy5WDhunL1k8mSruKgovkbYGgEEEEAAAQQQ8EGA8MAH9GMdkvBAs4LQncALBCk8UMWO5/YFgoPkfzzU7Qzbly2zty5aJNbMnm2v+Phje9/mzdAmT0sLCCCAAAIIIOCwAOGBw6DJNkd4kKwg+yPgrIDT4UEqnBXGEiCkwjicnQnetKae7LDlu+/sH6dOtdXaCVt/+IHHRHpDz1EQQAABBBBAIIoA4YFmU4TwQLOC0J3ACxAe/HkKEBx492Nhm6ZYPXu2/dWIEdaW77+392/bJiKHDnnXAY6EAAIIIIAAAgj8LEB4oNlUIDzQrCB0J/ACQQwPVNGPdvUBwYF/PxLqqoTiggKx8M037elDh5oHduzwrzMcGQEEEEAAAQQCJ0B4oFnJCQ80KwjdCbxAUMODIwUIBAf6/DioIGH/1q1ix08/2fNefdVaNHGibVuWPh2kJwgggAACCCCQdgKEB5qVlPBAs4LQncALOBkepOLJ92+vQEjF/gdlAh/cu1es/+ore8Vnn9mLJ0608rduDcrQGScCCCCAAAIIeCRAeOARdKyHITyIVYrtEPBGgPDgv84EB97MNyeOYql1Ej7/3P5+/Hhr7Zdf2rvXrBHqSgVeCCCAAAIIIIBAMgKEB8noubAv4YELqDSJQBICQQ8PkqBjV00ENi1YYM/45z+tjfPm2fu3bxfc3qBJYegGAggggAACKSZAeKBZwQgPNCsI3Qm8gFPhAd/7Bn4q+Q6grkjYvXat/c5NN1mrZ85kSvpeETqAAAIIIIBAagkQHmhWL8IDzQpCdwIvQHgQ+CmQlgAH8vLE5oUL7ZlPPmmt+eILgoS0rDKDQgABBBBAwFkBwgNnPZNujfAgaUIaQMBRAcIDRzlpTEOBPevW2Uvfe89eMHasrQIFDbtIlxBAAAEEEEBAAwHCAw2K8NsuEB5oVhC6E3gBwoPAT4FAAaz78kv765deKrmtgSc2BKr0DBYBBBBAAIGoAoQHUYm83YDwwFtvjoZANAEnwgO+yo2mzN/rJmBFImLh2LHWzOHDbbVOgnn4sG5dpD8IIIAAAggg4LEA4YHH4NEOR3gQTYi/R8BbAcIDb705ml4C6skMBTt3ig/uvttcOHYsOZhe5aE3CCCAAAIIeCpAeOApd/SDER5EN2ILBLwUSDY84GzLy2pxLNcEbFuoxzyumTXL+vD++60969e7digaRgABBBBAAAE9BY4WHsgEujuufftI3qJFWn9Ulv8SQutrLwkPEph57IKAiwKEBy7i0nRKCqhbGn765BN7wejR1uLJk7V+009JYDqNAAIIIICApgKEB5oVhvBAs4LQncALEB4EfgoAcAyB3WvW2J8++qi1/MMP7YJdu7BCAAEEEEAAgTQWIDzQrLiEB5oVhO4EXoDwIPBTAIAYBNTVCNMfecT6dtQoS93ewAsBBBBAAAEE0k+A8ECzmhIeaFYQuhN4gWTCA67nDvz0CRyAWVwsVn72mT2mXz+zuKgocONnwAgggAACCKSzAOGBZtUlPNCsIHQn8AKEB4GfAgAkIKCCg3VffmlPu+cea8v335OjJWDILggggAACCOgmQHigWUUIDzQrCN0JvADhQeCnAABJCFimKVZOn25/+fzz1orp023bJkdIgpNdEUAAAQQQ8FWA8MBX/j8fnPBAs4LQncALEB4EfgoA4ISAbYtVM2fanz/+uLXmiy9stUYCLwQQQAABBBBILQHCA83qRXigWUHoTuAFEg0P+H418FMHgKMIbF640H57yBBz+9KlQl2ZwAsBBBBAAAEEUkOA8ECzOhEeaFYQuhN4AcKDwE8BAFwQsC1L7FqzRozs1i2Sv2WLC0egSQQQQAABBBBwWoDwwGnRJNsjPEgSkN0RcFiA8MBhUJpD4DcC6sqDdXPm2O/+9a/WtsWLuWCH2YEAAggggIDGAoQHmhWH8ECzgtCdwAskEh5wBhT4aQNAnAKRw4fF4kmT7Bn//Ke5Y9myOPdmcwQQQAABBBDwQoDwwAvlOI5BeBAHFpsi4IFAKoQHWxcvtheOHWtnli4tZCgkMrKzRUapUiIUDotw6dIyIytLyHBYhDIyhDQMYfz87+HMTBH65U9GhghnZQkjI0Oq7dTfqf9Wf2+o/aT0QJtDBF1ALaT4+RNPWF+PHGnnb91KDhf0CcH4EUAAAQS0EiA80KocQhAeaFYQuhN4gVQID9Q3tmP693dt5TkVHJSuXFmUrV5dlqlSReRUqyZzq1UTudWrizJVqsgy6t+rVhWlK1ZU4YUsCSfC4ZLQ4dd/D4dLggteCMQioG5neO+vfzXnjx5tHy4sjGUXtkEAAQQQQAABlwUID1wGjrd5woN4xdgeAXcFCA/i8JXyv1c2GEbJFRC//lP9eygkcqpUERXq15cV6taVFRs2FJXq1xdVmzeXlRo1kuoKB14I/E7AtsX+HTvE+EGDzFUzZnAVAtMDAQQQQAABnwUID3wuwB8PT3igWUHoTuAF4g0P/DjDcfvKAy8mQTg7W2Tl5oqsMmVkVtmyQt2Coa5kKK+ChgYNRJUmTWSVpk1Lwgd1WwWv4AjYti02z59vT7rpJnPLDz8EZ+CMFAEEEEAAAc0ECA80KwjhgWYFoTuBFyA80GsKqNsg1K0TZWvVkuVq1BBla9YUuTVryvK1av03aKhfX5SrXbvk1gle6SVgFheLBaNHW9OHDrXyt21Lr8ExGgQQQAABBFJAgPBAsyIRHmhWELoTeIF4wgM/rjpQBVo0aZI91sU1D1JtEqhbJNQVCrXbtSu5LaJaixYlazTkVK6s/kh1RQOv1BUoys8X791+u/n9hAl25NCh1B0IPUcAAQQQQCDFBI4UHiS6pPa49u0jeYsW+fXxOSZ5+S8hDse0pU8bER74BM9hETiKAOFB+k2N7LJlReOzzjKanHmmaHDaabJ05cpSPZ1CPaWCtRdSp977Nm2yR11wgbV9yRLbtqzU6Tg9RQABBBBAIEUFCA80KxzhgWYFoTuBFyA8SP8poG5xUI+lVH/U4o1NzzlHHt+7t6zVpk2iYXr6o2kyQvVox0UTJ9pqUUW1NgIvBBBAAAEEEHBPgPDAPduEWiY8SIiNnRBwTSDW8MDP0xZuW3Cn/CpMKFujhlSPpKzarJlo0LmzUadDB1GlWTOpHl/JSx+B/C1bxCcPP2zOf+01mxBBn7rQEwQQQACB9BIgPNCsnoQHmhWE7gRegPAg8FPgTwBqwcaabdrIGq1ayZonnqiuUBCVGzWS6vGUvHwUsG2xbNo0+4O//c3KW7nSzzzPRwQOjQACCCCAgHsChAfu2SbUMuFBQmzshIBrAoQHrtGmVcPqMZNNunWTTc86S9Zo3Vo99UGqkEFwhYLndY4UFYkP7rnHmvfKKxYLKnrOzwERQAABBNJYgPBAs+ISHmhWELoTeIGUCA8mTrTHDhhgBr5YmgFUathQth04ULbp398oU7WqyMzJEdIwNOtl+nZn1+rVYsTpp0cKdu4UgvUQ0rfQjAwBBBBAwDMBwgPPqGM7EOFBbE5shYBXArGEB35fH82aB17NhsSOowKDzNKlRVaZMuL4Pn2Mk6+/3qjWokVijbFXXALqyoNPH3vM+vzxxy0ChLjo2BgBBBBAAIE/CRAeaDYpCA80KwjdCbxASoQHXHmQcvNUXYlQpWlT2ejMM2XbAQOkespDyg0ihTq8eeFCe+KNN1pbvvvO76wvhdToKgIIIIAAAr8XIDzQbEYQHmhWELoTeIGUCA8mTbLH9u/PbQspPFvVLQ4NzjhDNv3vugmiVMWKhAkO1/PQ/v3is2HDrFnDh1sON01zCCCAAAIIBEKA8ECzMhMeaFYQuhN4gZQID7jyIO3maZOzzpLtBg6Utdu3l5UaN5YGT3JwrMYbvv7aHjdokLl77VrH2qQhBBBAAAEEgiBAeKBZlQkPNCsI3Qm8QLTwQIdroFnzIL2naany5UWXu+822g0YYJSuVEmEMjPTe8AejM62bfHahReaP338sW1bXIjgATmHQAABBBBIAwHCA82KSHigWUHoTuAFUiI84MqDQMzTUEaGKFWhgmjZp49x7j/+YajHQ/JKXMAyTbHs/fftN/r1M1WYwAsBBBBAAAEEji1AeKDZDCE80KwgdCfwAoQHgZ8CWgKo2xiqt2wpm3bvLk8aPNio1LChlv1MhU7tWrNGPerUUosqpkJ/6SMCCCCAAAJ+CRAe+CV/lOMSHmhWELoTeIFjhQe6nGks4sqDQM9TFSTUO/lk2bpfP9myTx9Zplo1FluMd0bYtpj+6KMliykWHzwY795sjwACCCCAQCAECA80KzPhgWYFoTuBFyA8CPwUSCkAKaVQj37scM01Ro1WrWR22bIp1X+/O7tm1iz77SFDrN3r1umSDfpNwvERQAABBBD4VYDwQLPJQHigWUHoTuAFjhYe6HRmwZUHgZ+mRwQIZ2eLrvfea5xy/fVGdrlyQhoGUDEIHDpwQLzSo4e5Yd48nX7MY+g5myCAAAIIIOCuAOGBu75xt054EDcZOyDgqsDgDRsycqpX/9MxdDqr+GHiRPvNAQNMVyFoPGUFMkqVEjVOOEGeN3y4Ua9TJ25piKGSViQivh450p56xx0mT2OIAYxNEEAAAQQCIUB4oFmZCQ80KwjdCbzAkK1bM0pVqqR1ePDdm2/a46+6ivAg8LP12ADqyoMqTZvKEy6+WJ7x17/ytIYY5svaOXPsNwcONPO3bIlhazZBAAEEEEAgvQUIDzSrL+GBZgWhO4EXuGHXrozMIzwST6crD+a/9pr19nXX8bD6wM/W2AGyypQR7a++2mh/xRUI9DaXAAAgAElEQVSyZuvWXI1wDLq9Gzfak2++2Vr+0Uc6/djHXmy2RAABBBBAwCEBwgOHIJ1qhvDAKUnaQSB5gXCpUuLGvXsz1CJ0v33pdgbxzUsvWe/ccgvhQfIlD1wLam636N1bdr3nHqPGiSfKUEZG4AxiGbC6jWHaffdZc5591rJNLvKJxYxtEEAAAQTST4DwQLOaEh5oVhC6E2iBBr16yd6TJ4f/iKBbeDDj8cetjx94gPAg0LM1+cGXrVFDXjFhglGrbVtChKNwblqwwB7ZrZt5uKAgeXBaQAABBBBAIMUECA80KxjhgWYFoTuBFrhw2rRw3W7d/nRJt27hwXt33WXN+fe/CQ8CPVudGbxaF6FCvXqi+9//HmrTvz+3MxyBdd+WLeLls88281au1O1XgTOTgFYQQAABBBA4igDhgWZTg/BAs4LQncAKZOTkiOu2bcsIZWX9zkDHs4XxgwaZ340bp2PXAjt/Un3g6naGai1ayFNuvFG2v+oqI5SZmepDcrT/BTt3ivfuuIOfO0dVaQwBBBBAQHcBwgPNKkR4oFlB6E5gBaq0bi37f/NNWGi+3oEq0AtnnGGunzuX8CCws9XdgVc97riSNRFaXXqpNEIhdw+WQq2bxcXi8yeesD595BGLxzmmUOHoKgIIIIBAwgKEBwnTubMj4YE7rrSKQDwC6tLt8yZPDjfo2VP7WxbUuB6pUydyYPv2eIbItgjELVChbl1xyauvhup16iTDf7giJ+7G0miHFZ98Yo+78kqzcPfuNBoVQ0EAAQQQQODPAoQHms0KwgPNCkJ3AilQrUMHeemXX/5poUSFodvX+0X79omHqlSJBLJQDNoXgQp168qr333XqNq8uVRBGy8hCnftEs926mTuWb9et18RlAcBBBBAAAHHBAgPHKN0piHCA2ccaQWBZAT6zpwZrnnKKSlx1cGK6dPtV3v14tlxyRScfeMWUI90rNuxo7zirbeMnCpVWFhRCFGUny/eHjLE/HHyZAKEuGcUOyCAAAIIpIIA4YFmVSI80KwgdCdwAifdd1+o00MPHfHrVB3PCD597DFr+sMP86SFwM1UPQacWbq0UE9l6PnYY6FSFSvq0Skfe1FcWCg+e/xxa+Y//2nZto6/MXzE4dAIIIAAAikvQHigWQkJDzQrCN0JlECDXr1kz3HjwuHs7COOW8dTgdf79jWXTJ2qY9cCNXeCPticSpXEWffdZ5w0eLCRUapUoDnU4olfjxxpTbv3XutwQUGgLRg8AggggEB6CRAeaFZPwgPNCkJ3giGgHkvXvr286JNPwuoRjUd76XiGPrxlSzNvxQoduxaMucMofydQpUkT2X/MGKNm69ZSPe4xyK/VM2faYy+/3CzIywsyA2NHAAEEEEgjAcIDzYpJeKBZQehO2guoE5z6vXoZvd9555jPoNPx7DxSVCQeqFAhYpkseZD2EzXFBti0Wzc58K23Qlm5uSnWc2e7e2D7dvvfJ51k5m/d6mzDtIYAAggggIAPAoQHPqAf65CEB5oVhO6ktUC4dGnRc+zYUP2ePY1oq8brGB7Me+UVa9JNN7HeQVrP0tQdXKkKFUSPhx82Ot1wQ6AfyXBw717xnwsvNNd/9ZWOv0ZSd4LRcwQQQAABzwUIDzwnP/YBCQ80KwjdSUuBUGam6HDvvcbxV11l5NSsGfXaah0/8avF2J7r1Mnc/N13OnYvLecNg0pMoEHnzvLiF180qjRtGvVnLbEj6L+XefiwmHr77ebXr7xiCxZS1L9g9BABBBBA4IgChAeaTQzCA80KQnfSRiAzN1dU79RJ1j/nHOP4a681MkqXjnlsOp6dq1sWHq1XL3Jwz56Yx8GGCPgloAK77n//u3HKjTcamcdYV8Sv/nl13E8ffdSaMWyYZRYXe3VIjoMAAggggIBjAoQHjlE605CT4cG3jz9urnz7bR3Pe5zBohUEjiJgZGQIIxwWubVqiUonnGDU7tpVVu/QQar/l8hLxx8idcXBs506mXyLmUhF2ccvgarHHScHjB1r1DjxxMBehbDw9detybfdxpMY/JqEHBcBBwRCGRkiq0wZoZ7OFC5VSoQzM6UMhYQROubySQ4cmSYQ8FfghIsukmfde++vtyMm82Y+rn37SN6iRTp+zP4VWf5LiMP+kh/76E6GBzqPk74hkEoCOv5We/7UU82N336rY9dSqbT01SeBrvfcY3R/6KGoa4341D3XD6vCv+dPOcVksVPXqTkAAkkJqPWQVCCgrlZs1qOHbNazp1GvUydZsWHDpNplZwTSRYDwwOdKEh74XAAOj8AfBHQ8O9+3ebP4R4MGEYqFQKoKqKecVG7SRA75+ONQuVq1UnUYSfV7z/r14tlOnSKFu3Yl1Q47I4CAswLqNqsTLr7YaH3ppbL68ceLUuXLS/XkmGgLKzvbC1pDIDUECA98rhPhgc8F4PAIpEB4MP+11+y3r7uO5zMyW1NeQF3ye9Z99xld7rzTCOLlvgU7d4rRffvyJIaUn8kMINUFVEjQduBAQy3wWv2EE2RmHOsipfrY6T8CyQgQHiSj58C+hAcOINIEAg4K6HblQeTQIfFUy5aR3evXOzhKmkLAX4HjevSQFzz9tFGpceNkPof4O4gEj1588KB4e8gQ84cJE3T7dZPgiNgNgdQQUFc9ndCnj1ShQc02baS6IooXAgjEJ5DMTw1rHsRnfcStCQ8cQKQJBBwS0PGT/LJp0+zXLryQqw4cqjHN6CNQqlw5ccWECaGGZ5whA3d5sG2L9+66y5rz3HMWi6DqMyfpSfoJqCucqrZoIbvdd5+hggNBYJB+RWZEngoQHnjK/eeDER74XAAOj8BvBHQMD17t1ctcMX26jl1j7iDgiEDr/v2NS1991Uj06SiOdMKnRr4bN85+6+qrTduyfOoBh0UgTQWkFHXatxeDp00Lq6CSFwIIOCNAeOCMY8KtEB4kTMeOCDguoNsZ+povvrBf6t6dEwvHK02DuglUatRIXDV5cqhqs2bJfC7RbVhR+2Pbtlj35Zf2qPPOMw8XFkbdng0QQCC6wHHnnCN7Dx9uVG7alFsTonOxBQJxCSTzJs1tC3FRH3ljwgMHEGkCAYcEdAsPXu7Rw1w1Y4Zu3XJIm2YQ+L1A6YoVxTlDh4Y6XXddMp9NUpJ147x59pjLLjP3btqUkv2n0wjoIFC7XbuS0KDeyScH71YoHQpAHwIhkMwbNOGBA1OE8MABRJpAwAEB3c7Q18+da7/YtSvPhXegtjSROgJq7YOO114rez3+eCgzJyd1Ou5AT3euXGmP6d/f2rpokW6/jhwYHU0g4J5A+Tp1xFn33x866eqrkzmvca+DtIxAGgkk80NGeODARCA8cACRJhBwQECnT+tWJCKeaN48op4LzwuBIApUatBAXvvRR0bFBg2S+ZyScnRF+/aJV84919w4f77NQoopVz467LGAWidFLYJ48ciRoawyZTw+OodDIJgCybwpEx44MGcIDxxApAkEHBDQKTz48d137TcuuYQnLDhQV5pIXQH1GLWrp04NqfuXU3cU8fdcrYPw5oAB5qJJk3T6tRT/QNgDARcFVHBwy1dfhWu1bu3iUWgaAQT+KJDMGzLhgQPzifDAAUSaQMABAV0+pe/bskU8cdxxkcihQw6MiiYQSG2BUGamOPn662Xvp54KpfZI4uu9ChC+fPZZSz3OMb492RqB9Bdodu65st/LL4dyqlRJ/8EyQgQ0EyA88LkghAc+F4DDIyCE0CU4UJcpT7j2WnPBG29o0yUmCAK+C0gpjuveXQ4YMyaUHbBHrv04ZYo9/qqrzGKexOD7NKQD/gsYoZDo+Y9/GKfddpuh1kfhhQAC3gsQHnhv/rsjEh74XAAOj4BG4cGP77xjvXHZZXzTyKxE4AgClRs3lldOnGhUa9Eimc8uKWe7+bvv7P9ccIG5f9u2lOs7HUbAKYGcSpVE/zfeCDXp1i1QP/9O+dEOAk4JJPMDyG0LDlSB8MABRJpAIAkBXb7iL9y9W/yrdetIPicISVSTXdNdICM7W1w1ZUqocdeuyXx+STmmQwcOiBGnnmpuX7ZMl19ZKWdIh1NXoHzt2uLWuXPDZapVS91B0HME0kQgmTdfwgMHJgHhgQOINIFAEgK6fBIfefbZ5ppZs3TpThKi7IqAywJSih5Dhxpn3n13oK5bVusgvNqrl7ny00/5PeHyFKN5fQRqtGolb/vmmxC3KehTE3oSbAHCA5/r70V4wKcMn4vM4RGIIvDh/fdbs4YPt2yLOxaYLAjEIiBDIdGsRw85cPz4UDgrK5Zd0mIbs7hYzBw+3PrkoYf4ZZEWFWUQxxJo3quX7P/666Gs3FygEEBAEwHCA58LQXjgcwE4PAI+C6yeOdN+9bzzTPPwYZ97wuERSD2Bep06yctGjw5VbNAg9TqfaI9tW6jHub55+eWmChN4IZCOAq0vvVRe9MILBAfpWFzGlNIChAc+l8/t8ICrDnwuMIdH4BgCO5Yts//Vrp1pRSI4IYBAggLlatcWl7/5ZkgFCQk2kZK75f30kz2qd29r97p1vNWnZAXp9NEEjjvnHHn5uHGhrDJlQEIAAc0EknmjZc0DB4pJeOAAIk0gkIICauX05zp1Mvdt2cIH/xSsH13WSyCcnS2ueOutULOePZP5XKPXoGLojbpi6eWePc21s2fzeyQGLzbRX6BWu3by5lmzQqHMTP07Sw8RCKBAMm+yhAcOTBg3wwM+SThQIJpAwAUBtbbBMx06mNsWL+bH1AVfmgymgFQLKT76qNHlrruCtZCiZYl377jDmjtiBOsgBHPqp82oqzZrJv/6/fcsjpg2FWUg6ShAeOBzVQkPfC4Ah0fAawHbFi+edZa5ds4cggOv7Tle+gtIKdr27y/7vvxyKJSRkf7j/XmE6tanH95+2x4/aJAZmEEz0LQSqFCvnrh59uxwbvXqaTUuBoNAugkQHvhcUcIDnwvA4RHwUCBy6JAY1bu3qRZJ9PCwHAqBwAk07d5dXvbaa6GcypUDNfbN331nv37JJebeDRsCNW4Gm9oC6okp10+fHqobsHVLUrtq9D6oAoQHPlee8MDnAnB4BDwSKNy1S4wZMMBc/fnnBAcemXOYYAvUbNVKPcrRqNSoUTKfdVIO8VB+vnhz4EBz+Ucf8bsm5aoXzA6rJ6a06d8/UD+nwaw0o04HgWR+UFnzwIEZ4FZ4wCcGB4pDEwg4JHAgL0+83KMHaxw45EkzCMQqUKpCBXHznDnhKo0bCyGT+cgT6xH12e6Tv//dmjl8uMVjYPWpCT35s0DbgQPlpaNGhdywCdZPvBuCtImAswKEBw54Eh44gEgTCGgscGD7dvuZDh2s/du2kelpXCe6lr4CRigkrp02LdTozDODdS5h22Lr4sX2M+3bsw5C+k7vlB5ZTpUq4t7Vq8PqaSluvIL1A++GIG0i4KwA4YEDnoQHDiDSBAKaCqz67DN77IABZuGePZr2kG4hEAwBIxwW5wwdanS5885APYlBVffAjh1iTP/+PM4xGFM9ZUaZmZMjbv/++3DFevVc6zPhgWu0NIxAQgKEBwmx/X4nN8IDvt50oDA0gUASAmZxsVCXC3/6yCOWWgWdFwIIaCAgpTjlppuMC55+2gjaLQy2aYqZTz1lfTp0qBU5fFiDYtCFoAucec89Ro+HH3Y1zCM8CPosY/y6CRAeOFARwgMHEGkCAY0E9m3eLN674w5z8TvvkONpVBe6gsAvAi3OO09e/uabIbculdZZesM339gTBg+28las4PeTzoVK877VattW3jJnTkhdEeTmi/DATV3aRiB+AcKD+M3+tAfhgQOINIGAJgLrv/rKHn3xxWbBrl2a9IhuIIDAkQTK1aol/zJvXqhMlSqBA4oUFYkxl11m/vTxx7ZlshxC4CaAzwOWhiGGfPRRqFGXLq6f27t+AJ8tOTwCqSZAeOBAxZwOD/gqwYGi0AQCcQqo2xTGXHqpuWzaNNu2rDj3ZnMEEPBDIKtsWfE/8+eHK9av78fhfT/miunT7df79jWLDx70vS90IDgCJ11zjbz4f/835MWtQ4QHwZlXjDQ1BAgPHKgT4YEDiDSBgI8C340da0277z4rf8sWH3vBoRFAIBGBnMqVxWWvvRZq2r17IM8zSm6zuvNOc/GkSXz3kMgEYp+4Bf7fypXhCi4ukvjbDgXyhzruirADAt4JEB44YE144AAiTSDgg4C6d/jjhx6yVs2YwYduH/w5JAJOCWTl5orew4eHOlx9dSDPNcxIRPwwbpz1zq23WsWFhU6x0g4CfxI48//9P6PH0KGuLpJIeMDEQ0BfAcIDB2pDeOAAIk0g4JGAbdti+5Il9uxnnrEWjh3L/cIeuXMYBNwWUAu39frnP42Tb7zRCGVkuH04Lds/uHu3Pf6aa6wVrIWgZX1SvVPZ5cqJ+9atC6tHNHr1CmQa6BUux0EgAQHCgwTQ/riLk+EBX386UBCaQOAIAmodg31btohPHnrIXPDGG/yoMUsQSFOBjtdeK3s/9VQoo1SpNB1h9GH9OGWKPemGG8zC3bujb8wWCMQo0PkvfzF6Dx/u2VUHqluEBzEWh80Q8EiA8MABaMIDBxBpAgEXBfasW2e/fskl1valS221MCIvBBBIb4F6J58sr//001BQr0BQ1T1cUCAm33qrtXDMGFaATe/p7snoSpUvLx7cujVshEKeHO+XgxAeeMrNwRCIKkB4EJUo+gZOhQd8FRrdmi0QiFXgwI4dYvazz1pLpkyxd65caavbFXghgEBwBKodf7y87uOPjTJVqwb2/ENdcbV54UJ73JVXmjtXrQpO8Rmp4wJtLr/cuOw///H0qgM1iMD+8DpeQRpEwBkBwgMHHAkPHECkCQQcENi9bp29dOpUe/lHH9lr58yx1bPQeSGAQHAFcqtVE1dNmRKq3a5doM9BIocOia9eeMGaMWyYdXDv3uBOCEaekIA0DHH7ggUhFcgl1EASO3l+wCT6yq4IBEGA8MCBKhMeOIBIEwjEKVCyhsHmzWL32rUlQcGiSZOsbYsXx9kKmyOAQLoLSCnFFRMmhI4//3zpxXPpdfZUvzOn3n67ueS992zbNHXuKn3TSKBx165yyEcfeXu/ws/jJzzQaCLQFQSEEIQHDkwDwgMHEGkCgaMImIcPC/WtmbqKoPjgQbHh22/tldOnW0vefdcu2LULNwQQQCAmgd5PPGGccssthnoqQ9BfKnR97cILrR0//WSrIJYXAscSuOSVV0Ltr7zSl/N4Xw7KdEAAgaMKEB44MDmcCg9UV1bPmmVv+/FHbs52oC40kVoCRfv3i8OFhUI9o3z/tm327nXrxN716+3ioiJhRSIlf9Rih3zQTa260lsEdBFQVyC0vOgiOXDcOF++QdXF4Zd+qN+pq2bMsMf0728e2r9ft+7RH40EHtq6NVS6UiVfzuPdPOiBTZvsnT/8YB/ctUsc5mdAoxlHV5wWqNi8uazTtasjP06EBw5Ux8nw4NNbbzU/HTnS5nsABwpDEwgggAACCPxBoE779vK66dNDXj6rXuciFO3bJxa/84495bbbTNaJ0blS/vStVb9+csCYMb4Fbo6c7QghrOJisXryZGvJ6NHWvrVrRcHmzXbk4EF/UDkqAh4LtLjqKqPbSy858nNMeOBA8ZwMDz6/9Vbzu5Ejre1CSC4/cKA4NIEAAggggMAfBMrWqCEGvfNO4BdS/C2LChHmPPec9eXzz1uFu3czZxAoERj8/vuhpt27O3UOH7dqsgcu2LrV/u7f/7aWjx1rFW7fHvfx2QGBdBAgPNCsik6HB4tHjrQiQggCBM0KTXcQQAABBNJGIJSRIS4bPTp0Yt++yZ6fpI2JGkjBzp3ik6FDrcUTJ1rq33kFW+CeNWvC5WvX9g0h0R9OdRvCktdeM+f87W8Wi4P6Vj4OrIkA4YEmhfilG26EB6rtw0KIPK5A0KzadAcBBBBAIJ0Eutx1l3HO0KGGEXLkis60oVFrzHx4773mt6NG2WpNGl7BEyhXq5a4d+1aX1cYTSQ8UGsZTDnvPHP30qVcxBu8acuIjyBAeKDZtHArPCj5BkAIuUez8dIdBBBAAAEE0kVALaTY8PTT5bUffRQiQPhzVQ8dOCC+euEF6+MHHrBsm3OxdJn3sYyj52OPGSpci2Vbt7aJNzzYPn++PfmccyIsgOhWRWg3FQUIDzSrmpvhgRrqASHkXs3GTHcQQAABBBBIJ4FqzZvLqyZPNio2bBjv+Uo6MRx1LOoWhpWffWZ/cPfdZv6WLYEYc5AHKQ1D3LN6dahcrVq+/jzEc/Bt8+aVBAfFBQVBLh1jR+BPAoQHmk0Kt8MDNdx8IWS+ZuOmOwgggAACCKSTQE7lyuKSl18ONe/VK55zlnQiiDoWyzTF4kmT7K9fftlaM2sWlyJEFUvNDbLLlhX3b9gQzihd2tcBxPqDuHvZMvvNdu0i6hGkvBBA4PcChAeazQgvwgM15N1CyELNxk53EEAAAQQQSCcBdRvD2X//u9H17rsN9e0rr6MLbF282P700Uet1TNn2gf3cJNlOs2VsjVrintWrQobYV+XPBCxhAcHd+0S4zp0iKi1DtKpBowFAacECA+cknSoHa/CA9XdnULIIof6TTMIIIAAAgggcGQBtQ7CVVOmhLLKlIEoBoGZw4dbs595puQJDbZlxbAHm+gs0KBzZ3nDjBm+ryIaS3gw+29/M7975hkmnc4Tir75KkB44Cv/nw/uZXigjq6ewHBIMwO6gwACCCCAQLoJlC5fXtzy1VehSo0bx3IOk27Dj3s8kUOHxO61a+0P77nHWjZtms0Ci3ETarODDoslKoxoP3jbFyywJ3TuHOFxjNpMHTqioQDhgWZF8To8UNGqugJBPcqRFwIIIIAAAgi4J5CVmyvOfewxo9MNN3APQxzM+7dts9fNnm3Pfv55e/3cuVxOHoedDpteP316qOEZZ0Q7d3e9q9E68MGll5qrJ0/mqgPXK8EBUlmA8ECz6nkdHqjhmz8HCMWaWdAdBBBAAAEE0k1ArYPQftAgef6//hXKzMlJt+G5Ox7bFlsWLbKXvPuuvfyjj+zNCxfa3NbgLnnSrUsphublhbPKlk26qWQbOFZ4ULRnj/hPgwbFxYWsCJasM/untwDhgWb19SM8UAQqZt0mhCRu1WxC0B0EEEAAgbQUqFCvnrj63XdD1Vq0iPaFaFqO34lBbV28WHz90kvWmpkz7bwVK7i1wQlUh9tQT1p4eOdOf1dK/HlMx/pBm/vQQ+a3w4bxMdjh+tNc+gkQHmhWU7/CA8WgrgPcSoCg2YygOwgggAAC6SzQf8yY0IkXXyyNkO/ryaU0c0Fenvhs2DDzhwkT7KJ9+4RaM4GX/wLlatcW965Z43t4EC2hG9OqVUQ9otF/MXqAgN4ChAea1cfP8EBRqCfabhdC8ttTs4lBdxBAAAEE0lJAPcKxea9e8ooJE0IECMmX2CwuFio8WPHxx9anjz5q71y9mo80ybMm3ELVZs3kHYsW+Z6MHSs8ULe+vFyzZnHR7t0Jj5MdEQiKAOGBZpX2OzxQHCqrV09h0IyG7iCAAAIIIJC2ApUaNRL9XnklVP/UU3n/dbDKezdutHcsWyaWffSR/eOkSXb+1q2ECQ76Rmuqdvv28tavvtI6PLAiEfFC2bLF6p+8EEDg2AKEB5rNEB3CA0VyUAixiwBBs9lBdxBAAAEE0lnACIfFmXffbZx5111GRunS6TxUX8amvmHesXy5vfrzz+3Vs2bZG775RoUJvvQlKAetd/LJ8qZZs7QOD3YuXmy/2a4dyUFQJiXjTEqA8CApPud31iU8UCMrEELsIUBwvsi0iAACCCCAwDEE6nbsKC/9z3+Myo0bcxWCyzNlz9q19ncTJtirZ8ywd61ZY+/bvFnwDbRz6A1PO01e/9lnWocHaz/4wH6vTx/CA+fKTktpLEB4oFlxdQoPFE2+EDJfMyO6gwACCCCAQLoLqKsQLnnpJaNN//6GZDFFz8pdlJ8vlkyZYi0cO9be/P33dqSoqGTxRR4JmVgJGp15przu44+1Dg+Wvf66Nf3aa9WTy3khgEAUAcIDzaaIbuGB4tkthOSpt5pNFLqDAAIIIJD2AmoxxRonnihvnDEjlFmmTNqPV7cBqsUXDx04IAp37RIrPvnE+uHtt+0NX39tWybnmbHWqvGZZ8ohmocHS0aNsj674QaKGmtR2S7QAoQHmpVfx/CAAEGzSUJ3EEAAAQQCJZBTubLo+cgjRofBg41ADVzDwUYOHxb7t26187dsEXk//STWf/21tWnBArF18WKbqxP+XDDCAw0nMV1CIAkBwoMk8NzYVdfwQC1NrBZQLHJj0LSJAAIIIIAAAlEFWvbpI3sNG2ZUbNiQtRCianm7wcG9e0XeihX2zhUr7B0rVoi969erNRTErtWr7YKdO73tjEZHIzzQqBh0BQEHBAgPHEB0sgldwwM1RuvnRzgWOzlg2kIAAQQQQACBmAWycnPFJSNHGi0uuMAIZWTEvB8b+ieQv3mzvfHnqxO2//ijvX/HDlG4e7co3LnTVqGDWlMhXV+EB+laWcYVVAHCA80qr3N4oKjUFQhbhZAqSOCFAAIIIIAAAv4IVG/ZUg7+4INQ2Ro1/OkAR3VMYNfq1WLTggUlCzRu/eEHe9vixfbhwsKSpz6o9RV++adjB/SwIcIDD7E5FAIeCBAeeIAczyF0Dw/UWFRwsF0Iycoy8VSWbRFAAAEEEHBWIDMnR3S56y7jrHvvZS0EZ2n9bc22hVqsUV2R8OufoiJ778aNYtfKlXbe6tVi9+rVdt6qVWL3mjV28cGD/vb3GEcnPNC2NHQMgYQECA8SYnNvp1QID9To1cNw8wgQ3JsItIwAAggggECMAjVbtZK9n3rKaHj66ayFEKNZ2mxm20JdpaAeMVlcWGgfLigQJX8KC0v+WbRvnziQl2cfyMv7720Se/aUbP/xgw0AACAASURBVKv+/8//XvL/bFtdW+r8i/DAeVNaRMBPAcIDP/WPcOxUCQ9U1w8LIXZyC4NmM4juIIAAAggEUUA91vGkwYPlWffeGypXq1YQCRhzEgI/hw72of37hbqSQf2JFBWJ4kOHhKmugCgqUldB2CX/TwUTRUVCPV1C/b1QV0ocOlTy3+o2C3XVhHqZhw7ZVY87Tna+7Tbfr4w5VqrGoxqTmDjsGjgBwgPNSp5K4YGiU0v8qADBnbxas+LQHQQQQAABBDQXyCpTRlz43HOhEy66SGaUKqV5b+keAt4IEB5448xR0l+A8ECzGqdaePBLgKBuYdCMku4ggAACCCAQWIEyVauKW+bMCZevV09IyVt0YCcCAy8RIDxgIiDgjADhgTOOjrWSiuGBGrxaqmcXAYJj84CGEEAAAQQQSFbACIVE/VNPlQPGjg3lVquWbHPsj0DKChAepGzp6LhmAoQHmhUkVcMDxbhfCLGPAEGzGUV3EEAAAQSCLlCqQgXRccgQo9v99xsZ2dlB52D8ARQgPAhg0RmyKwKEB66wJt5oKocHatR7hZAHEh8+eyKAAAIIIICASwK51auL7g88YLQZONBgPQSXkGlWO4FoN+2wYKJ2JaNDGgsQHmhWnFQPDxSnun1B3ycOa1ZwuoMAAggggIDHAhXq1ZMXvfBCyaMdw1lZHh+dwyHgrQDhgbfeHC29BQgPNKtvOoQHinSHEFI9ypEXAggggAACCOgpULVZMzn4/feNcnXqSBZV1LNG9Cp5AcKD5A1pAYFfBAgPNJsL6RIeqEc3bhdCRjTzpTsIIIAAAggg8H8CRjgsqjRpIi8fPz5UrXlzaBBIOwHCg7QrKQPyUYDwwEf8Ix06XcIDNTYVIKgrEIo1M6Y7CCCAAAIIIPB7AfVkhibdusluDzxg1D3ppGjnW/AhkDIC0SYzax6kTCnpqAYChAcaFOG3XUin8ECNyxRC5HEFgmazjO4ggAACCCBwZAF1JUKrvn3lyTfeaNTt2FFKw4AKgZQWIDxI6fLRec0ECA80K0i6hQeKV926oK5AsDSzpjsIIIAAAgggcHSBpmefLc95+GGjRqtWMpSRARUCKSlAeJCSZaPTmgoQHmhWmHQMDxSxunVBrYGgGTfdQQABBBBAAIEoAlWaNhVXTZ4cqtS4MQsrMltSTiDah09uW0i5ktJhHwUID3zEP9Kh0zU8UGNVT19QtzCotRB4IYAAAggggEDqCKg1ESrUry+7P/SQ0frSS6WQ0U7JUmds9DS9BaLNVMKD9K4/o3NWgPDAWc+kW0vn8EDhFAkhdhEgJD1PaAABBBBAAAG/BCo3bizbXH65PO3WW42ssmX96gbHRSAmAcKDmJjYCIGYBAgPYmLybqN0Dw+UZIEQYg+3MHg3qTgSAggggAACLghk5uSIU26+2Wh3+eWyavPm0c7RXOgBTSIQXSDaxOTKg+iGbIHALwKEB5rNhSCEB4p8vxBiHwGCZrOP7iCAAAIIIJCYQKMuXUoWV6zesqXMys1NrBH2QsAFAcIDF1BpMrAChAealT4o4YFiz//vn2i/0zWrEN1BAAEEEEAAgaMJhLOyRK9//tPoOGSIEcrMBAoB3wWifdDkygPfS0QHUkiA8ECzYgUpPFALJ+4RQhQSIGg2C+kOAggggAACyQlklysn6p9ySskCi7Xato12/pbcwdgbgWMIRJt8hAdMHwRiFyA8iN3Kky2DFB4oUBUgqAUU1UKKvBBAAAEEEEAgvQSkYYgqzZqJ43v3LrkaoULduuk1QEajvQDhgfYlooMpJEB4oFmxghYe/BIgqEc4qkc58kIAAQQQQACB9BSQUoqm3bvLDtdcYzTp2lWqqxN4IeC2AOGB28K0HyQBwgPNqh3E8OCXAGGHELJYs3rQHQQQQAABBBBwXsAIh0WbAQOMU268UVZu2lRms8ii88i0WCJAeMBEQMA5AcID5ywdaSmo4YHCs4QQ24SQ6p+8EEAAAQQQQCAYAurWhlaXXCL7vPBCiBAhGDX3cpSEB15qc6x0FyA80KzCQQ4PVCkiPwcImpWF7iCAAAIIIICAywJGKCTK160rG552mjjjjjuMqs2bRzvvc7lHNJ8OAtEmEQsmpkOVGYNXAoQHXknHeJyghweKSd26oG5hUIsp8kIAAQQQQACB4AmULLTYpImsd+qp8sSLLpKNzjxThjIyggfBiJMWIDxImpAGEPhVgPBAs8lAePDfghz6+SkM3MKg2QSlOwgggAACCPggULZGDXHCxRfLxmeeadRu316q/+aFQCwChAexKLENArEJEB7E5uTZVoQH/0ddKITc8/PjHD0rAAdCAAEEEEAAAb0FpBR1O3SQp9xyi1H3pJNKgoSMUqX07jO9802A8MA3eg6chgKEB5oVlfDg9wUpFELsjr5QrmZVpDsIIIAAAggg4ImAlCKcmSnaDRwou957b6h8nTqeHJaDpI4A4UHq1Iqe6i9AeKBZjQgP/lyQA0KIvQQIms1UuoMAAggggIB+AqXKlxflateWDU4/XXa48kpZq00bKWS000f9xkGPnBOIVn0WTHTOmpbSX4DwQLMaEx4cuSD5Qoh8AgTNZivdQQABBBBAQG+B3OrVRa22bWX9U0+Vjbt0kbXbtZNqMUZewREgPAhOrRmp+wKEB+4bx3UEwoOjc+0SQh6MS5ONEUAAAQQQQACB/xPIyM4W6gkOjbt2lbVatZLVjj9elqtVC6I0FiA8SOPiMjTPBQgPPCc/9gEJD47ts1MIWaRZzegOAggggAACCKSuQIV69WSryy6TLXr2lGVr1ZLq1ofscuVSd0D0/HcChAdMCAScEyA8cM7SkZYID6Iz7hBCHo6+GVsggAACCCCAAAJxCahbGqSUIrt8eXHixRcbHYcMMWq2ahVXG2yslwDhgV71oDepLUB4oFn9CA+iF8QSQqgAIRJ9U7ZAAAEEEEAAAQSSEsjMyRE5lSuLnCpVZPXjjxdNzjxT1jv1VKNCvXpJtcvO3ggQHnjjzFGCIUB4oFmdCQ9iK4gphNguhFRBAi8EEEAAAQQQQMBTASlLAoWKDRrIyo0aieonnCBrnHCCrHLccbKiChV4woOn5TjWwQgPtCkFHUkDAcIDzYpIeBB7QQgQYrdiSwQQQAABBBDwRiCjdGlRpWlTWePEE2W1Fi1K/l0tyli2Rg2ZU6WKMEIhbzrCUUoECA+YCAg4J0B44JylIy0RHsTHSIAQnxdbI4AAAggggIB/AkY4XHK1gnp8ZO127UTdDh2kepxkuFQpmVm6tFB/QpmZ/nUwDY9MeJCGRWVIvgkQHvhGf+QDEx7EXxC1eKJaAyH+PdkDAQQQQAABBBDwV0At0FiyUKP6EwqJCnXrypqtW4uarVvLmq1ayeotW8qyNWr428kUPnq0D4hLRo2yPrvhBvV9FC8EEIgiQHig2RQhPEisIAeFELsIEBLDYy8EEEAAAQQQ0FpAXY2QlZMjMsuUEVllykj1T/WnfN26slzNmipwEBXq1BG5NWvKivXrl/w9r9g+GBIeMFMQiF2A8CB2K0+2JDxInLlACLkn8d3ZEwEEEEAAAQQQSH0BKVXAIEpVqCBKV6ggs8uWFZm5uSX/L0v9MzdXlipfXpQuX77kkZTZ5ctL9e9Z5cqV3DZR8qdMGZlRqlTJ1RCp/Ip21YEaG+FBKleYvnstQHjgtXiU4xEeJFeQfCFkfnJNsDcCCCCAAAIIIICAEEI9plKFDeqfKoTIUkFE6dIiIzu7ZG0G9e9qHYdQVpYMZ2eXLAapFowMZ2WJsFrfoXFj2fzcc2M5h3fFO5YDEx64Qk+jaSpAeKBZYQkPki/IbiFkYfLN0AICCCCAAAIIIIBAEgKNunSR133yiW+PlyA8SKJ47IrAEQQIDzSbFoQHzhSEAMEZR1pBAAEEEEAAAQQSFSA8+P/s3Xe8FNX5x/Hvmbn3ci9KBxEEFbvGRrF3BBUbURQlxhBjiygdFVA6omAEYo0FY9eI0ZjEaJoiIAho7Iqxi/TOpXNn5ucBzM+CsLM7szu7+5l/9PViTns/Z+/dee6Zc9KVoxwCyRQgeZCwuJA8iCYggSSbQLAbKXIhgAACCCCAAAIIZF+A5EH2zWkRgTgFSB7EqZtG3SQP0kD7kSL+5hMY1kVXJTUhgAACCCCAAAIIpChA8iBFKG5DIE8ESB4kLFAkD6INiE0gLJBMVbTVUhsCCCCAAAIIIIDANgRIHjBFECgsAZIHCYsnyYN4AjJXMl48VVMrAggggAACCCCAwBYESB4wLRAoLAGSBwmLJ8mDeAJiVyDMk4z9LxcCCCCAAAIIIIBA/AIkD+I3pgUEsilA8iCb2im0RfIgBaQ0b9mw+RUGu5kiFwIIIIAAAggggEC8AiQP4vWldgSyLUDyINvi22iP5EG8AbGbJy6UUjn2N96OUDsCCCCAAAIIIFDgAvmQPHj/gQf8f112GW+3FvhcZHjRCJA8iMYxslpIHkRG+aMVrZW0iARC/NC0gAACCCCAAAJFLZAPyYNP//xn/6/nnEPyoKhnKoNPVYDkQapSWbqP5EF2oNdsPsYxO63RCgIIIIAAAgggUHwCzY45xvz63/92czXyVJaazpsxI3jyqKM4mCtXQaLdvBIgeZCwcJE8yF5AVkhmRfaaoyUEEEAAAQQQQKCoBHY54gjT5eWXE5088Nav1501a24IfLbVLqrJyWDTEiB5kBZbfIVIHsRnu6Wal0lmZXabpDUEEEAAAQQQQKAoBJq2amWumjIl0ckDmzS4Z8cdN6xbtqwoYsIgEchEgORBJnoxlCV5EAPqNqpcKplV2W+WFhFAAAEEEEAAgYIWaLjvvqbXW28lOnmgINDDBxxQtfS//+VAroKejQwuCgGSB1EoRlgHyYMIMVOsyv6mWCwZu5EiFwIIIIAAAggggEA0ArWbNlW/Tz4piaa28LWksueBrXVC9+7e23fdxXsL4YkpUWQCJA8SFnCSB7kJiE0gzJcMu+Xkxp9WEUAAAQQQQKDwBCpq19bgBQsSnzxYu3hxcF/TplV+Fd8EC28WMqIoBUgeRKkZQV0kDyJATLMKEghpwlEMAQQQQAABBBDYkoAxGr50aUlp9eo58Ul15YHt3J/PPLPq8xde4NWFnESKRvNFgORBwiJF8iC3AbHr1RawAiG3QaB1BBBAAAEEECgYgSsmTHB3PfLIMM/xkY09TKNzp04Nxh93HEsPItOnokIUIHmQsKiSPMh9QOxvjYWS8XLfFXqAAAIIIIAAAgjktcBpo0Y5x/bo4eRiEGGSB7Z/L3Xt6r1z993sfZCLYNFmXgiQPEhYmEgeJCMgGzYnEPjtkYx40AsEEEAAAQQQyE+Bvdq2NRc/91xOTlwImzxYs3Bh8MSRR1ZVfvFFfmLTawRiFiB5EDNw2OpJHoQVi+9+m0CwmyjG1wI1I4AAAggggAAChS1Qa6ed1Pfjj0scN/v5g3S+xK34/PPAHt3orVtX2IFhdAikIUDyIA20OIuQPIhTN3zd6zfvgRC+JCUQQAABBBBAAAEE7IkL133xRUlpRUXWMdJJHthOLv/8cz168MEbqlavznqfaRCBJAuQPEhYdEgeJCwgkuyvjSWsQEheYOgRAggggAACCCRewDiOrvv885IaO+6Y9b6mmzywHV309tvBXzp08Cq/+IITGLIeORpMqgDJg4RFhuRBwgKyuTsrJS0jgZDM4NArBBBAAAEEEEi0wJm33OIc1bVr1jdNzCR5YEFXfvVVMOmaa7yPnnqKBEKiZxidy5YAyYNsSafYDsmDFKFycNsKSStIIORAniYRQAABBBBAIJ8FGuy1l+n99tuuXYWQzSvT5MHGvgaBPnr6aX/a0KH+0pkzgyAgj5DNGNJWsgRIHiQrHiJ5kLCAfK879vUF3n5LdozoHQIIIIAAAggkT+C6zz93azZuHMnzfKqji7qxr156KXipW7eNrzJUrV2baje4D4GCESB5kLBQkjxIWEC+1x2ba14oGbuRIhcCCCCAAAIIIIBAagKX/f3v7u4nnBD18/xWG4+jMd/ztH75ci147TX//UceCT77y1/8DatWpYbAXQjkuQDJg4QFkORBwgKyhe6QQEh+jOghAggggAACCCRLoHmnTub8Bx/M+nmNcSQQviMbBFq3fLnWr1gReOvXy99gD/vmQqAwBarVrq3tGjWK5GP1eKtWVQvffjvR7wGZMVKi/2hM8iA/Pmi+3YWXFQj5ESx6iQACCCCAAAI5F3BKStT/s89KajRsmPO+2A5E8vSTiJHQCQTyU4DkQQRxI3kQAWKWqvA2v8JQlaX2aAYBBBBAAAEEEMhngY733OO0/OUvs7trYgRgJBoiQKQKBL4nQPIggilB8iACxCxWYRMI8yST6PU2WfSgKQQQQAABBBBA4McEdj/+eHPZP/6R9VcXshURkgzZkqadQhAgeRBBFEkeRICY5SrsyoP5JBCyrE5zCCCAAAIIIJBvAvaoxm7TprmNDzqo6J+zix4g3yYv/Y1cgORBBKQkDyJAzEEVdiMNewoDKxBygE+TCCCAAAIIIJA3Agd37Gg6PfJIwa4+iDoQJBmiFqW+pAiQPIggEiQPIkDMURVrJC0hgZAjfZpFAAEEEEAAgXwQKK9VS/0+/rjE/pcrfQGSCunbUTIZAiQPIogDyYMIEHNYhT3ldykb+OYwAjSNAAIIIIAAAkkXaNm5s2M3T5ThETjuWCEctzD1pytA8iBduW+VI3kQAWKOqyCBkOMA0DwCCCCAAAIIJFqgbLvtNh7bWFG7dqL7WUydI8lQTNFOxlhJHkQQB5IHESAmoIqVkpaxAiEBkaALCCCAAAIIIJBEgYPPP990eugh9j5IYnC20ScSDXkYtAR2meRBBEEheRABYkKqWCJpNQmEhESDbiCAAAIIIIBA0gR6vfGG2/AnP+FZNGmBiag/BDYiyAKthuRBBIEleRABYoKqWCwZu5EiFwIIIIAAAggggMB3BfZo3dpc/Je/uE5pKTRFJEBSoYiCvZWhkjyIYB6QPIgAMUFV2KMbF0lmXYL6RFcQQAABBBBAAIGkCHS8/3635c9/zvNkUgKSsH4wMRIWkAi7Q/IgAkySBxEgJqwKm0CYL5mqhPWL7iCAAAIIIIAAArkWqF63rvp98kmJ3USRC4F0BUgypCuXu3IkDyKwJ3kQAWICq/AlzZOM/S8XAggggAACCCCAwP8L7HvaaeaXzzzD5olMiqwIkGjICvM2GyF5sE2ibd9A8mDbRvl6h7d5BQIJhHyNIP1GAAEEEEAAgTgEnJISnX377c4hv/qVE0f91IlAOgIkGdJRS70MyYPUrX70TpIHESAmuAr76sICViAkOEJ0DQEEEEAAAQRyIVBaUaFeb77p1m3WjGe2XASANlMWYIKmTLXVG0keROBI8iACxIRXYTdPtJso2r0QuBBAAAEEEEAAAQQ2CdRs1Mj0fvttt7xWLUgQyHsBkgxbDyHJgwimOMmDCBDzoIq1mxMIedBVuogAAggggAACCGRN4ODzzjPnP/igaxzeYMgaOg3lXKAYEw0kDyKYdiQPIkDMkyrWSFosFePPijyJEN1EAAEEEEAAgVwItO7Xzzl5yBCyB7nAp81ECxTSgwPJgwimGsmDCBDzqIpVkpaSQMijiNFVBBBAAAEEEIhbwC0t1WkjRzpHXXUVCYS4sam/YAWSnmggeRDB1CN5EAFinlWxXFIlCYQ8ixrdRQABBBBAAIE4BUrLy/WzRx919zvjjKQ/A8XJQN0IRC6QlA8UyYMIQkvyIALEPKzCrj6wqxC4EEAAAQQQQAABBDYJ2BUIFz/3nLv7cccZmaQ88hAdBIpDIO5PHMmDCOYRyYMIEPO0isWS1rACIU+jR7cRQAABBBBAIC6By/7+d3f3E06I+1kmru5TLwIFLZDuB5PkQQTTguRBBIh5WoU9utEe4WiPcuRCAAEEEEAAAQQQ2CRgX2E464473JYXXpjucwqUCCCQRYFUPqgkDyIICMmDCBDzuApf0kLJbMjjMdB1BBBAAAEEEEAgaoGSatV00uDBznG9e7OJYtS41IdAxAIkDyIG/bHqSB5kCTrBzdgEwgLJVCW4j3QNAQQQQAABBBDItoBxHNkTGNqNGOGUlJVlu3naQwCBFAVIHqQIleltJA8yFSyM8vYVhnmS8QpjOIwCAQQQQAABBBCITGDXo482F/7hD+72DRpEVicVIYBAdAIkD6Kz3GpNJA+yBJ0HzdjEgU0g2EQCFwIIIIAAAggggMD/C5RWVOjKiRPdRgcdlMpzCnQIIJBFgVQ+lOx5EEFASB5EgFhAVazf/ApDAQ2JoSCAAAIIIIAAApEI2ATCMT17OicPHsw+CJGIUgkC0QiQPIjGcZu1kDzYJlHR3bB28ykMRTdwBowAAggggAACCGxLwBjtcvjh5rxx45x6e+yRyjPLtmrk3xFAIEOBVD6IrDzIENkWJ3kQAWIBVrFKMssk8QpDAQaXISGAAAIIIIBAxgJuWZnaDhrkHHHZZU55rVoZ10cFCCCQvgDJg/TtQpUkeRCKq6huXiGZFUU1YgaLAAIIIIAAAgiEE6i3++46/4EH3KaHHGLs6QxcCCCQfQGSB1kyJ3mQJeg8bWaZZFbmad/pNgIIIIAAAgggkC2BOrvsom5Tp5ZUr18/W03SDgIIbBYgeZClqUDyIEvQedzMUsmsyuP+03UEEEAAAQQQQCAbAiXl5dr1yCNN+9GjnR322y+V55lsdIs2ECh4gVQ+bOx5EME0IHkQAWKBV2H3PbAJhNUFPk6GhwACCCCAAAIIRCFQUq2a9mrb1rS66CJnv1NPNcZ1o6iWOhBA4EcESB5kaWqQPMgSdJ43YxMICyVjj3LkQgABBBBAAAEEEEhNYKfmzc3hl15q9mzb1rGvNnAhgED0AiQPojfdYo0kD7IEXSDNzJfMhgIZC8NAAAEEEEAAAQSyJWA3U9y/fXtzXJ8+Tp1ddzXb1a8vY1J55MlWD2kHgfwVSOWTxGsLEcSX5EEEiEVWxTzJVBXZmBkuAggggAACCCAQlYBNGjRu3ty06dfP7Ne+PUc0RAVLPUUrQPIgS6EneZAl6AJqxpO0QDL2v1wIIIAAAggggAAC6QuUVlSoZqNGpm6zZtrv9NPN3qee6tRr1iz9CimJQBEKkDzIUtBJHmQJusCasa8u2D0Q/AIbF8NBAAEEEEAAAQRyLVBRu7bqNGtmajdpoho77mjsXgl1mjRRRb16ZvsGDVReu7ZKyspUWr16rrtK+wjEKuCWlZlq22+/zTZIHmyTKJobSB5E41iMtdgEgl2BYDdT5EIAAQQQQAABBBBAAAEEohQ49OKLnQ533bXNV3tIHkSpvpW6SB5kCbpAmyGBUKCBZVgIIIAAAggggAACCORYgORBjgPw/eZJHiQsIHnYnTWSFkupJPzycHR0GQEEEEAAAQQQQAABBHIhQPIgF+pbaZPkQcICkqfdqZTM8jztO91GAAEEEEAAAQQQQACB5AmQPEhYTEgeJCwgedyd5ZKpzOP+03UEEEAAAQQQQAABBBBIjgDJg+TEYmNPSB4kLCB53p2lklmV52Og+wgggAACCCCAAAIIIJB7AZIHuY/Bd3pA8iBhASmA7tgjHNcVwDgYAgIIIIAAAggggAACCOROgORB7uy32DLJg4QFpEC6Y49wXF8gY2EYCCCAAAIIIIAAAgggkH0BkgfZN99qiyQPEhaQAulOIMmuQCCBUCABZRgIIIAAAggggAACCGRZgORBlsG31RzJg20J8e/pCniSFklmQ7oVUA4BBBBAAAEEEEAAAQSKVoDkQcJCT/IgYQEpsO5UbV6BYBMJXAgggAACCCCAAAIIIIBAqgIkD1KVytJ9JA+yBF3EzdgEwnzJ2FcZuBBAAAEEEEAAAQQQQACBVARIHqSilMV7SB5kEbuIm7IrD+aRQCjiGcDQEUAAAQQQQAABBBAIJ0DyIJxX7HeTPIidmAY2C9jNE+0miqxAYEoggAACCCCAAAIIIIDAtgRIHmxLKMv/TvIgy+BF3twaSYslU+QMDB8BBBBAAAEEEEAAAQS2IUDyIGFThORBwgJSBN1ZJWkpCYQiiDRDRAABBBBAAAEEEEAgfYFUkwe2hW39dfLxVq2qFr79dqIXQZsxUqKPuid5kP5kpmT6ApWSlm/7M55+A5REAAEEEEAAAQQQQACBvBYgeZCw8JE8SFhAiqg7dvWBXYXAhQACCCCAAAIIIIAAAgh8X4DkQcLmBMmDhAWkyLpj9z+w+yBwIYAAAggggAACCCCAAALfFiB5kLD5QPIgYQEpsu7Yl45sAmFtkY2b4SKAAAIIIIAAAggggMDWBUgeJGyGkDxIWECKsDs2gWCPcEz05iBFGBeGjAACCCCAAAIIIIBALgVIHuRSfwttkzxIWECKtDu+pPmS8Yp0/AwbAQQQQAABBBBAAAEEvitA8iBhM4LkQcICUsTdsQmEOZzAUMQzgKEjgAACCCCAAAIIIPD/AiQPEjYbSB4kLCBF3h278sCuQLCJBC4EEEAAAQQQQAABBBAoXgGSBwmLPcmDhAWE7sjufbCIBAIzAQEEEEAAAQQQQACBohYgeZCw8JM8SFhA6M5GAXv6gj2FwW6myIUAAggggAACCCCAAALFJ0DyIGExJ3mQsIDQnf8JrNmcQIAEAQQQQAABBBBAAAEEik+A5EHCYk7yIGEBoTvfESCBwIRAAAEEEEAAAQQQQKA4BUgeJCzuJA8SFhC68wOBlZKWcQoDMwMBBBBAAAEEEEAAgaISIHmQsHCTPEhYQOjOFgWWSlpFAoHZgQACCCCAAAIIIIBA0QiQPEhYqEkeJCwgdOdHBZZIZjU+CCCAAAIIIIAAAgggUBQCJA8SFmaSBwkLCN3ZqsBCyazDCAEEEEAAAQQQQAABBApegORBwkJM8iBhAaE7WxWwRzfOl0wVTggggAACCCCAAAIIIFDQAmGSMwnfmgAAIABJREFUBxbCbEXj8Vatqha+/XaiT4I3Y6T1SY4oyYMkR4e+bUnA35xA8OBBAAEEEEAAAQQQQACBghUgeZCw0JI8SFhA6E5KAiQQUmLiJgQQQAABBBBAAAEE8laA5EHCQkfyIGEBoTspC9hXF+weCKxASJmMGxFAAAEEEEAAAQQQyBsBkgcJCxXJg4QFhO6EErDvBNkEQqJfXgo1Im5GAAEEEEAAAQQQQAABK0DyIGHzgORBwgJCd0IL2ATCgq3vjxK6TgoggAACCCCAAAIIIIBAbgVIHuTW/wetkzxIWEDoTloCayUtIoGQlh2FEEAAAQQQQAABBBBIogDJg4RFheRBwgJCd9IWWCVpGa8wpO1HQQQQQAABBBBAAAEEkiRA8iBJ0ZBE8iBhAaE7GQksl0xlRjVQGAEEEEAAAQQQQAABBJIgQPIgCVH4Vh9IHiQsIHQnY4Hlkip5hSFjRypAAAEEEEAAAQQQQCCXAiQPcqm/hbZJHiQsIHQnEoGlklaRQIjEkkoQQAABBBBAAAEEEMiFAMmDXKhvpU2SBwkLCN2JRMAe3bhY0loSCJF4UgkCCCCAAAIIIIAAAtkWIHmQbfFttEfyIGEBoTuRCdgEwkLJ2KMcuRBAAAEEEEAAAQQQQCC/BEgeJCxeJA8SFhC6E6mATSAskMyGSGulMgQQQAABBBBAAAEEEIhbgORB3MIh6yd5EBKM2/NOwCYQ5knGy7ue02EEEEAAAQQQQAABBIpXgORBwmJP8iBhAaE7sQhUSZovGZtI4EIAAQQQQAABBBBAAIHkC5A8SFiMSB4kLCB0JzYB++qCTSDE1gAVI4AAAggggAACCCCAQGQCJA8io4ymIpIH0ThSS34I2M0T7SaKrEDIj3jRSwQQQAABBBBAAIHiFSB5kLDYkzxIWEDoTuwCayQtIYEQuzMNIIAAAggggAACCCCQiQDJg0z0YihL8iAGVKpMvEClZJYnvpd0EAEEEEAAAQQQQACB4hUgeZCw2JM8SFhA6E7WBFZIZkXWWqMhBBBAAAEEEEAAAQQQCCNA8iCMVhbuJXmQBWSaSKzAcslUJrZ3dAwBBBBAAAEEEEAAgeIVIHmQsNiTPEhYQOhOVgXsxolLJbM6q63SGAIIIIAAAggggAACCGxLgOTBtoSy/O8kD7IMTnOJFLAnMKxLZM/oFAIIIIAAAggggAACxSlA8iBhcSd5kLCA0J2cCcyXzIactU7DCCCAAAIIIIAAAggg8G0BkgcJmw8kDxIWELqTMwH7CsMCEgg586dhBBBAAAEEEEAAAQRIHiR4DpA8SHBw6FrWBbzNCQT7Xy4EEEAAAQQQQAABBBDInQArD3Jnv8WWSR4kLCB0J+cCVZsTCH7Oe0IHEEAAAQQQQAABBBAoXgGSBwmLfZTJg1eHDPFmjBjhB4FdAM6FQP4K2JUH8yTDTM7fGNJzBBBAAAEEEEAAgfwVMMbo+GuucU4ZNsxJdRRmKzc+3qpV1cK3307013szRlqf6mBzcV+UyQPb/3kzZgR/bN26ylvH3vW5iCdtRidgVyDYTRQT/RMmuuFSEwIIIIAAAggggAACiRBwy8r0yz/9yd2rTZut5QN+0FeSBzGHL+rkge3uhlWr9OFjj/kv9+rlkUSIOYBUH6vAWkmLpFA/tGLtEJUjgAACCCCAAAIIIFCgAjZp0GbAAOeoLl2cajVqhB4lyYPQZOEKxJE8+KYHK774Injt5pv9d++5h9fHw4WFuxMksErSUhIICYoIXUEAAQQQQAABBBAoNIFWnTubE665xq2/556hh5bKX/p4bSE06w8LxJk8+Ka1edOnB6/07+/NmTQpYD+ECIJGFVkXqJTM8qy3SoMIIIAAAggggAACCBSugN3XoOkhh5h2I0Y4ux17bCo5gB9gpFqI5EEE8ygbyYNvuvnh44/7r1x/vbdy1qwIek4VCGRXwK4+sKsQuBBAAAEEEEAAAQQQQCAzgVqNG6vN9dc7h15yScobIn7TYqoJg2/38LFWraoWsWFiZkFrfccd7v6XXho6YJm0uvFUhhtv9AOftxkycaRs9gXs/gd2HwQuBBBAAAEEEEAAAQQQCC9gHEdHd+1qTh81ypUJnwYIX2JTHx85+OCqJe+/n+i90BN/2kLL3r2do2680Q0f9gxKBIFWfvVVMKlvX/+j8ePJIGRASdHsC5BAyL45LSKAAAIIIIAAAgjkv8AeJ5xgzr33Xqd206YmbOIg3aTBN2rjdt21atWcOSQPMplGTY491pz9r3+VZFJHJmVnT5oUTL7mGm/+668nOpCZjJGyhSVgJ6pNIHAYaWHFldEggAACCCCAAAIIxCOwU/Pm5tSbbnJs8iBsC6ELbKGB1fPmBeOaNasKPC9s81m9P/ErD8rr1dPFX35Z6paWZhXm2435nqf37rvPnz5ypL/qq69IIuQsEjScqoBdLrNQMhtSLcB9CCCAAAIIIIAAAggUmUDNxo11fK9ezuFXXOGk87wZReJAQaAXfv7zqv+OH5/458zEJw/s/G159dXuUcOHO2GXjkQ996vWrtVLV17pffz00/6GVWxNF7Uv9UUrYPOW8yXDezfRulIbAggggAACCCCAQH4LlFWvrn3POMM59+67ndLq1UMPJpKkweZW7evyD+6zT5W3fn3ofmS7QF4kD5zSUl308ccl2zVqFGWc0rZeX1mpZ045pWr+jBmJzw6lPUgKFoSAnaBzSSAURCwZBAIIIIAAAggggEDmAju1bGku+/vf3fKaNUNXFvXDqF9VpYcPOKBq+Sef5MVzZV4kD2xUK+rXV6fp00u2b9Ik6piFnjS2gA303FdfDV644AJv1dy5eRHstAZKobwXqJK0gARC3seRASCAAAIIIIAAAgikL1CjYUPzs0cfdXY54ggT9hWFOB5A7avxz19wgffJ00/nzULhvEke2GlSY+edTevbbnN2adcuq0c3bm2KVq1Zo5mPPupPuf56b+2SJenPZkoiEKOA3TzRbqJIlitGZKpGAAEEEEAAAQQQSJxAea1aajdsmNOyc2entKIiVP/iSBrYDqz47LPgn5de6s2eODGvvp7nVfLAQhvX1X6//KXT6pprnFrNmsUVz1CTyt68ZuFCvTpkiPfBQw/5dm8ELgSSJrBG0mIpMZ+ZpPnQHwQQQAABBBBAAIHCESipVk0tfvYzc/LQoe72DRuGHlgcX5rtvnnv3HuvN23oUH/DypWh+5TrAnmXPPgGzCYRjv/tb929zz/fKUvjfZW44Fd8/nnwfKdO3oI33ggCP29WoMTFQb0JE1gtaQkJhIRFhe4ggAACCCCAAAIIRCVgjFGjAw80nR580Nlhv/1C5wBCF0ih43YzxNmTJgUvdOpUtXbZshRKJPOWvE0efMNZUlGh05580t3l5JMT8yqD7dvCt94Knm7Tpmrd8uXJjDy9KloBe07IUhIIRRt/Bo4AAggggAACCBSqQLUaNXTJc8+5Ox9+eOgcQOgCKSKuXbw4+GPbtt7id9/Nq1cUtjS8vE8e2EHZVQg7NG9u2j32mFtz113jinuK0+P/b7OnMtj9ECb26uXZDRa5EEiKwDLJ5N9CqaTo0Q8EEEAAAQQQQACBJAk4rqt2I0Y4h/zyl05FnTqhuxbHA2TV6tX6+0UXeV+88IJv98krhKsgkgffBMJOmn0uvNA5YsgQd7tGjRITH3t25/Qbb/TfGzfO51WGxISl6DtiX1+wrzFwIYAAAggggAACCCCQjwLGcdTywgud1n37mnq77x4qBxDq5hA49hWFt++803/95pu91QsXhiiZ/FsLKnnwDXe1WrV0+KBB7n6/+pVTWr16YqKw4D//CSZfe+3GXTWDIO9XrSTGlY6kL2A3UCyMPGj6BpREAAEEEEAAAQQQyD+BnQ87zG6G6Oxxwgmh8wChC6TI88U//7nxea8QXlHY0pALMnnwzUCr77ijznj66ZIGBx9snJKSFEMe/23/ffJJf9I11/ir5swhgxA/Ny1sRcBOwAWS2YASAggggAACCCCAAAJ5IFBjxx3Vbvhwp+UvfhF6z7tYkgZBILtp/r8uv9z7asKEgn6+K+jkwTdzv97++5uzXnihpPoOOyTm4+B7nl4bOdKfNmSIxyqExISlKDtif8LNkUxB/6QrysgyaAQQQAABBBBAoHAE7CkKR3fv7pw6YoSTzh+G40gc2Oe4SVdf7b11++1F8Xp6USQP7EfGvr6w5znnOMffcYdrz/xMyrVy9uxgUu/e3kdPP82zW1KCUoT9sIeKzpeMV4RjZ8gIIIAAAggggAACyRbY97TTTPuxY506O+9sZMKlAcLdnbrDu/fe6786dKi3ev781Avl+Z1Fkzz4Jk4VDRuaVr17Owd26eK4ZWWJCd9XEycGdhWCPf8zMZ2iI0UlYM8DWUgCoahizmARQAABBBBAAIEkC+zUooU5ZdgwZ6+2bUPnAEIXSBHiq5dfDqZcd503b8aMQEW2j13RJQ++mRN2H4SjbrjBaXriiY7dpTMJl79hg95/8EF/+ogRvj2hIQl9og/FJbBe0iLJ2JUIXAgggAACCCCAAAII5ELA7mtwTPfuztFdu6b1B984EgfLPv44mH7DDf7MRx8t2q/KRZs8+OZD0OzUU03rO+90t2vcOI45ltZnzb47M6FbN89OzA0rV6ZVB4UQSFdg3eYEAtmrdAUphwACCCCAAAIIIJCOQFn16tr/pz81He+/303nD7xxPNCtr6zUu/fd59vVBn6VXatbvFfRJw9s6B3X1f6XXeYce8stbjqbb8Q1fdYtXRr8rVMnb9aLL/IcFxcy9W5RwK5AsKcwwIMAAggggAACCCCAQDYEGh98sPnVX/7i1GjYMPR30NAFUhzQVy++6P/pjDM8u0KcSyJ58K1ZUL1RI3P4gAHO/pdckoz3GCTZ7NaCN94IXrjggqoVn3/OnEUgawJrJC0mgZA1bxpCAAEEEEAAAQSKUaBGo0b6+WOPuU0PPdS4paWhCOJKGix8883gxS5dvPmvv150+xpsLQAkD7ags+Nhh5kjhgxxm7ZuHdd8DPWhsDd769fr/d//3p82bJi3esGC0OUpgEA6AvalmWUkENKhowwCCCCAAAIIIIDAVgS2q1dPrfv2dQ6//HKnpLw8lFVcD2lrFi4MJvfr5//3D3/wvXX2ZV6ubwuQPPiR+WDfsdnr/POdwwcNcmo1axbX/Aw9G9csWqSpAwd6dmNFls+E5qNAGgLLJVWSQEhDjiIIIIAAAggggAAC3xewr4kffN55pt0NNzg109h3Lo4Hs3UrVuiDBx7wJ/ftW/T7GmxtxpI8SOHzfNSNNzoHXHqpW1azZgp3Z+cWu/rgz2eeWbXorbcC3/Oy0yitFK3AUkmrSCAUbfwZOAIIIIAAAgggkKmA3Weu4X77mYv+/Ge31k47ha4ujqSBfUV89sSJwd87d65aPX9+6D4VWwGSBylGvFrt2mp7773ubu3bJ2Y/hMD3NW/69ODZ9u299UuXsqliirHktvQE7BGOa9MrSikEEEAAAQQQQACBIhaoVrOmfvHkk+7uxx9vwp6iEEfSwIZiXWWlnjziiA3LPvpI9rQ7rm0LkDzYttH/7rATvf4BB5i248a59Q88MK55HKJHm25dv2KF/jt+vP9Sly4eEz80HwVSFLA/Uu0JDOw1myIYtyGAAAIIIIAAAgjozFtucVpceKFTUbt2KI24HrbWLl2qib16eR899RT7GoSKCKcthOTadLt9T2fvn/3MOez6652au+4a17wO3bdVc+cGM266yX9v3DjfbrDIhUDUAiQQohalPgQQQAABBBBAoPAE7PNS806dTNtBg9w6O+8caoBxPVzZVdtv3nqr/5+xY71Vc+aE6hM3bxJg5UEGM6GsVi0dMXiwu99FFzml1atnUFO0RefNmBFM6dfP+2riRNbfREtLbfb40M0rEKrQQAABBBBAAAEEEEDgewI7H3aYOXXECKfZMceEzgOELpCCvt0fbvbLLwcvdu3qLf/oI56PUjD7sVvMLdK1jtRbUrh1JBk0WmhFy2rU0BnPPFPS6IgjjBPybNI4LT5+5plgQrduVRuPduQ9njipi65uu0XnfMnYRAIXAggggAACCCCAAAL26MUzR492D+7UKXQOIHSBFLkrv/wyeOnKK73P//53kgYpmv3IbZVf5wvGbozTHdL266S7jHReZnUWb+lv9kM4889/drdr1Ciu+R8a2L6+8MbYsd7UgQN9u1SHC4GoBOzeBzaBEFV91IMAAggggAACCCCQhwLG6Jhu3cwpw4e7JdWqhR5AXF8mX7zySu/9Bx7gePvQEflBgRfWSRf2lZZ/J1ajpZ8Y6XZJR2XeRnHWUFK9unY74wynzX33pfXhiUut8osvgleHDvU/ePhhMghxIRdhvXZnDbuJYhEOnSEjgAACCCCAAAJFL/CT9u3N6aNGOXWbNQv1fTDUzSGU7R9LbcLg1WHD/FWzZ7PaIITd928NpNcDqUtv6Y1v/u0HcXtScudIZ3/9hDnYSHtm0F5RFy2vU0etrr3WPbBLF6ekvDwRFvYkBnuO6atDhnhzJk/mw5SIqOR/J+zxjYslw4TK/1gyAgQQQAABBBBAIBWBnVq0MKcMHers2aZNYo5enPXSS8Grgwd7c6dO5WtpKkH88XtmGWlIhfT45dJ3Dlr70aTPYKm8ljQwkC42Up3M2i/e0nX33dccc8st7i4nnmhk4sqxhfd9+847/ddGj/ZXfvklH67wfJT4nsAqSctIIDAvEEAAAQQQQACBghao1bixju7Rwzm2Rw8n7EDjehJa/umngV1p8OGjj7LCOmxQvnt/pZEerJCuv1xavaWqthnDh6TtFkuPBdKJRirLrD/FW3qno44yJz/yiLtd48bGJCSJ4G/YoEnXXLPxXaANq+zjHxcC6QvYXVSW8wpD+oCURAABBBBAAAEEEipQWl6ugzp1cs669VYn7L4G23zgTHPM61eu1AcPPuhN7NPHDzy7nTdXmgJ2dcHk6lLHyzd+nf/xK6VYBpK5WdqjVPqbpF3S7FTRF7MnMex74YXO8bfd5rpJOZUhCLR60SL99ayzquZNn84qhKKfpZkBkEDIzI/SCCCAAAIIIIBA0gQaHXigufivf3VrNGyosCupU3rYTGPAnz//fPD8z39etaHSfvvkSlcgkBYFUrtK6Z3Bm05k3+oVKp6DpbLa0kmBdPfXhzQ02Fbl/PuWBexpDC169XKad+8eerlPnKb2/aB/X3GFt+T990kixAldwHXbibNCUiUrEAo4ygwNAQQQQAABBIpBoN7uu5tzfvc7Z7djjw39+nWoh8wQmIvfey94sUsXb960aQEnyYWA++Gt9hWFX/vSX3tJa1KtKa24jpbqGqnb168595BUPdXGuO+7Ag1btTKHDxzo7HLyyU7YLF5cllVr1+oDu0PpkCHemsWL42qGegtYwCYQ7MxZSwKhgKPM0BBAAAEEEECgUAUqatdW6379nMMvvdQp2377UMNM6+EyhRZWzp6tacOGeR889JDvV1WlUIJbfkRgnZHudqSR3aSFYZUyiu8YaVdJYyWdIilRf0UPC5HL+/c87zzniIEDndp77plRPKIcg32H6OUePbyPn3rK37B6i/tlRNkcdRWgwELJrCvAcTEkBBBAAAEEEECgEAXsXgb7n322aT9mjFu9bt3QQ4zjQWbd8uWyCYMpAwZ4VTyThI7JNwUCKTDSBE/q3keamW5FkcR4tHSAIz3pS7t9faxDJHWmO6B8LWccR4f07eu06NPHDZvhi3PMq+bNC54791xv/muvBWxEEqd04dVtVyAskMx3zncpvGEyIgQQQAABBBBAIK8F7HNI44MOMr8YP96pvfPOoZ/lQhdIQcs+d8ybMSP4S4cO3tqFC3mlOgWzLd2yOWnwlSd17iNNTrOa/xWLLNZ3S6VrpbN86QFJJZl2rFjLV6tVS23uucfd/ayzErOSw354506fHjx76qlVnMpQrDMzvXHbXVfmSWabu6+kVz2lEEAAAQQQQAABBDIQsKcoXPTss26zY44xTkm4R7jIHiS/1/+Vc+YEz5x0UtWyjz5SEJA3SDe8mxMHvVzpvm5SJAuCI4/5WKmhpKsC6WpeZUg31NIOLVqY48aMcRsdcUTkMUq3VzZx8OFjj/mTrr7a41WGdBWLr5x9K22+ZPjRX3yxZ8QIIIAAAgggkEyB0ooKnTpihNPyF79wqtWoEaqTcT2cbKisDCb07u1/PH48x8iHish3b7ZJA0e6z5Vu6CrNyaCqHxSNK/ayrzJIGmKk077+b2ztRImRtLps9s/uh3Dk0KFujaZNE9O9lbNnB9NHjPDf//3v2bAkMVFJdkdIICQ7PvQOAQQQQAABBIpDwHFdtbjgAnPiddc5dZs1C/WMFurmEJz+hg16+667/NdGjfJWL1gQoiS3bkFggqRBPaVXv/5v5H+7i2sO/G8cY6UzfWm4kfYhvOkJ2CTC0aNGOftecIFbrU6d9CqJodTCt94KJnTr5s199dVALCmKQbiwqrR7H9g9ECL/KVZYTIwGAQQQQAABBBCIXsAYNW3Vypxxyy3OLocfHvoZMHSBFEbge55mT5wYTOja1Vv63//yFTEFs63c8nEgDe8lPZZZNVsvHcc8+EGLgyWnptTVSAMlhVsXE+fo86zuslq1zKlPPOE2OfZY45SWJqb3X/7jH/7fL77YXzN/Ph/6xEQlmR1Zu+kYRxIIyQwPvUIAAQQQQACBAhTYrn59nXHzzU7zCy4IvadaXA+LqxYs0D87d6768t//5vkhgzkXSKuNdOtyaehgKfYzLOOaD1skGCnVKJNuk/SzDIyKuqjdDbXOPvuYDv/6l1tRv35W47c1+Ko1a/TOPfds3A+hqAPE4LcpsEoyS7d5FzcggAACCCCAAAIIZCpwQr9+zonXXuuUVq8eqqq4HjLsKwovde3qzXz0Ud9bF8kefqHGVWA3/2mddGlfaXm2xhXXvNhq/8dIB0u6WdJx2RpoobVjVx7s3r69c9zYsW71HXZIzPBWfP558NqoUf6748b5vMqQmLAkriMrJbMscb2iQwgggAACCCCAQAEIGKMDO3QwJw0Z4jbYc89QA4rt4TAI9N799/vTb7rJq/zii1B94ubvCgTSdEfq3UOaHse+Blvzjm1+bCvIg6WS2lKHQLpB0s7bup9/37JARYMGatGzp3vQVVc5JeXliWCyR6rMmTw5mDJggDd3yhSWIiUiKsnrxHLJVCavW/QIAQQQQAABBBDIWwG7r0GbAQOcvU8+2dgVy2GuuB4Mv5o4MZhy3XXevGnTeC4IE5Af3mtPThi6k/RIR2l9ZlWlVzquOZJybwLJjJVuMNJFgVQv5YLc+B2BGrvsYtrcc4+7UxpntMZJ+d64cf70G2/0K7/8kh8WcULnad12/4M1edp3uo0AAggggAACCCRFoFbjxjq6e3fn2J49w2UMYjwWz65InjZ0qH1FIbB/XORKW2CFpIcPlq4+IQv7GmytlzlPHnzTuTFSbUmPSGotqSRt2iIv2LBVq42bKtZo2tTIJCO83vr1stnGt3/3O95tKvL5uaXhL5KM3UiRCwEEEEAAAQQQQCCcQElZmQ485xzT4Xe/c8OuQo7rScHuhfbWHXf4r/Tvz15o4cL5/bv9QJrsS+f3kRZlVlU0peOaM2n1zp7KUFdq5kn/krRTWpVQSG55ufbo0ME5adw4N+xypdj4gkBrlyzR8xdcUDXrxRdJPcYGnX8V28lgVyCQQMi/2NFjBBBAAAEEEMidwC5HHqnO48eX2NMUwv7RMK6HwM+eey7492WXVa1euDB3MIXR8kJPOnFn6aOOUmKSMHHNm4xCdrdUukrqYKTfSErOboAZjSr7hSt22ME0797d2D0RnJJkLOYIfF+zJ08OJvbs6S165x2SCNmfFols0dfGdKrJyctbiRShUwgggAACCCCAwJYF6u+5p37629+6u59wgnFcN2WmOB/8Fr/7bvBily7evOnTA/t9nyttgSW+1Leu9MRFUuL+thbnHEpb7JuCo6W6RuojqZuksowrLNIKGhx0kDliyBBn13btnLBZybjIqtau3bjj6rThw/21ixaRRIgLOo/qtSnVhZKJ/YDaPDKhqwgggAACCCCAwDcCFbVqqc311zuHXXppYo5erJw1K5hx003+u/fdx0lrGUxVI3m+dJeRbu4pzc2gqliLJjp58M3Ix0iNAmmc2XS0Y2msIgVc+W7t2ztHDR/u1Nl778TE3Z7vOqF7d++j8eP99ZXsvV/A0y+lodk89TzJkK9OiYubEEAAAQQQQKAIBEqrV9cBP/2pOfvOO137/2GuuL70b1i9WjMfemjjvgbrV64M0yXu/a6A/bvZVE/6VR8p8WdYxjWfYpkUt0qH+9Jjwab9EPKq77GApFGp3QOhRe/ezqH9+rml22+fRg3xFKmcNUt/PeecqkVvvcVSp3iI86ZWEgh5Eyo6igACCCCAAAIxChhj1HC//cwv/vhHt95uu4VuKY6HpcDztOD114On2rSp8tYmblV9aKMcF5gv6aKem/b7y4srjjkV68BvlapVbdoP4YFYGyrwyqvVrq3jx4519/7Zz0If5xIXje95Wvjmm8Gf2rWrWrdsWVzNUG8eCGyQNJ8EYR5Eii4igAACCCCAQBwCZdWr65Lnn3ebtGpl3NJwC6/jesCzRy8+36mTt+CNN/hjX4ZBN9IV9o/ivaS8OrU8rrmVIee2i4+SdnQle5DpVbzKsG2vH7tjh5YtzVHDhjlN27RJTBJhw6pVmvnII/4r113nrV9hjzXlKkYBm8u2mygW49gZMwIIIIAAAggUp4BNGrQZMMA5/LLLnGo1aoRCiOtLk33N+KWuXb2PnnrK38ArCqFi8u2b7b4Gkh4slW64UpqVdkU5LBjXHMvakEZLrYw0UNIpWWu0wBqyJzHscc45jt1UsVazZomZEyu/+iqYPmKkn/XTAAAgAElEQVSE/+64cWzAUmBzLtXhrP56t9QlJBBS5eI+BBBAAAEEEMhjgZY//7mxiYO6aXwfj+MLfNXq1Xr/wQf9KYMG+euXLWOD88zm1suONKi7NCWzanJbOo55lpMRjZbaG+kGSXuyH0J6IbD7IRwxdKj7k4svdirq1UuvkhhKLXn//Y1Hv8ydNi2w71lxFZdApWSWF9eQGS0CCCCAAAIIFImA/f7dpGVLc/YddziNDz449LNZ6AIpuAZBoDmTJvkv9+jhL3r3XZIGKZht5Ra7CeLgntKjmVWTjNJxzLdcjsyMlnp8PajBkipy2ZF8brusZk21e/RRd+c2bRwT4uzYuMf82XPPBf+8+OKqtUuWxN0U9SdMYKlkViWsT3QHAQQQQAABBBDIRKCidm2ddfvt7kEdO4Z+JgtdIJWOBoHWVVbqz6efXjX31VdJGqRi9uP3rJN0Tw+pj5EKxjKWeZeZc+alR0t1HWlEIP0q89qKswabBd1+l13MWX/7m1t7990TM0/sfgjv3X+/P7F3b5YgFNnUtK8v2NcYuBBAAAEEEEAAgXwXOOWGG5wjf/3rRO1rMLlvX89+z65ak1d7+CVxKvzFlX7dTVqYxM5l0qfEPBRmMogtlQ0kc7vUskq6WdJRUddfLPU5paXa4+yznWNGjXK3a9QoMcOu/PLLYNoNN/gfPPigH/j2cD+uYhBYLBl+nRVDpBkjAggggAAChSdgj148sGNHp+2AAabBXnuFeg4LdXNIunfuvtt/bfRov/KzzwrmL+QhCSK53Ujv+lL3FdIrg6WCfECJcx5GEoQIKjFjpQsC6XpJ4Q9IjaADhVBFtVq11KpvX+egq65yS6pVS8yQZk+eHEy9/npvzpQp/LBLTFTi64gNsj2Bwa4D40IAAQQQQAABBPJFoOmhh5q2AwY4e598cujnr9AFUkDZuK/BlCnB1Ouu43t0Cl5buyWQvgqkkb2kewrpFYUtjTmOuZghfzzFB0tltaVBvnSJkerE00rh11per545+cEH3SbHH2/csrJkDDgINh7tOHXIEK/yyy+T0Sd6EZuATeMukExVbC1QMQIIIIAAAgggEI1AjYYNdcK11zpHduni2NeCw1xxPajZFbyvDhu2cQVvmP5w7w8EKiX9obrU53KpKN6ujWtOJnZujZRqlEl/CzYd8egmtqMJ79gOLVqYM55+2t2ucePEzCH7+sLLvXp57913n++tX59wQbqXiYBdgTBPMmx8kYkiZRFAAAEEEEAgLgG3tFT26MWz77rLTUrSwH4/fmPsWH/KgAGeAhbtZhB7m3SZuUY6sb+0OIN68q5oYh78sixnxkj7BNJ4I+2V5bYLpjm3WjU1O/1055RHHnGdBJ3KsHLuXE3o0qXq0+ee46diwcy2Hw7E/tSeTwKhgCPM0BBAAAEEEMhPgT1atzbn3nuvW7tp01ADiPPB7Mt//tP/xyWX+KvnzQtIHIQKy3duDqQvAumcXtLbhf6KwpaU4pyj6UclSyV/L5UvkzpIGi1eZUhbvaJBA9m9EFr27u0k5VWGwPNk90OY0LWrt2TmTJIIaUc32QU3aOM2toY1d8mOE71DAAEEEECgGATqNmtm2v/2t85ebdoYp6Qk5SHH+UC28M03g5d79vTmvPIK34dTjsgPbwykSiNdu1x6YrC0MoOq8rponHM1b2BukmpVkwYG0sVGqp43HU9YR+sfcIA5YsgQx65GSErX7GYwb91xh//6b37jr5ozhx+aSQlMhP2wmyfaTRQJboSoVIUAAggggAACKQtsv8MOOrZXL+fYHj0Ss6/ByjlzNOOmmza+zutXsVNUysH84Y32q+bvPWlon41fOYv7InnwrfiPlXYOpN9JOl5S6unC4p5DPxh909atzfG33urW2XNPI5OMKbZ+5UpN7NPH++gPf/A3rFpFxApMwP5UtysQCmxYDAcBBBBAAAEEEixQWlGh/c86y/z0t791y2vVCtXTuL602O+8nzz1lP9it26et3ZtqD5x8/8LBJJnJHuc2+W9pI+x2SQQ17zNa9/bpFbepk0Va+f1QHLc+QOvuMI5etSoRB3tuGbRIj15zDEbVnz6qeyqBK7CESCBUDixZCQIIIAAAggkWcAYo1pNmuiqyZNLajRqFLqrcTyA2Y3D502fHjx7xhlV65cvD90nCnxHYGUgte8lTcLluwJxzN2CMB4sldeUzjbSXZIqCmJQORhEeb16Ouz6652DrrwyMSdb2B+uC/7zn+Bv559vj3Ykg5CDeRFXk3ZNyVKSonHxUi8CCCCAAAJFL2BfUbjgscfcZkcdZUzIDcPjevBaNXdu8Nx553kLXnst4BWFjKao/VtUz+rSY8Vy9GJYrbjmcNh+JPb+kVLjMqmnpK6SEvMuf2LBttQxY7RD8+bmiKFD3V1OOikxc279ihX68PHH/cl9+3q8ypBXM2qrnV0uGXvoLhcCCCCAAAIIIBCVQGl5uU4aMsQ55KKLnIra4RYnx/Xld+3SpbLfY//7+ON+Fa8oZBLqwEj3u9KortJnmVRU6GXjmssF53ar1LxKGmaktrzukX549zrvPOfQ/v2duvvum5i5t3r+fE0dNMib+eijvrfOJhy58l3Arj5gZ4t8jyL9RwABBBBAIPcC9iSxg887z5w8ZIhrX1UIc8X1ZdcmCj546CF/2tCh3uoFC8J0iXu/J2CkyZL69ZCmgbNtgbjm9LZbzs87zBipfSDdaKTd83MIue+1PbrmkP79nQOvuMKtqFcv9x3a3IOlM2cG/7r8cm/etGmBfbWBK78F7AkMbBOU3zGk9wgggAACCORKwDiOdmre3G6G6DQ99NBQz0yhbg4xQPv9dP5rrwX/vPhib+mHH/LqbQi779/69Sl7sxxpUHfpUSNhmaJlXHM7xebz97bRUn8jXc+pDOnH0K1WTWf++c8lTY47ztgf0Em5vnr55eDPZ55ZVbVmTVK6RD/SFJgnGQ4nShOPYggggAACCBSpQEm1arrgkUec/dq3D/0FNa6HK7vp919++tMquylikYYlqmFXBdKYXtJ1UVVYTPXENb+LwnCUtGOpNEzSL3iVIf2Q191vP3PSuHHuDi1bJmY+rq+s3LgfwsRevTxv/fr0B0fJnArY367zSSDkNAY0jgACCCCAQL4IuKWlOrF/f+eorl2d8po1Q3U7ri+xvudpUp8+nn1NwX4/5cpI4C+u1L2b9FVGtRRx4bjmedGQBpIZLR1mpJuMdGTRDDzigdpVCM3OOMM5fvRop/qOOyZmXi7/7LNgxo03+u8/8ADvMUQc82xVZwO3UDIbstUg7SCAAAIIIIBA3gkcfP75ps311zsN9tor1PfQUDeHUAk8T++OG+e/dvPNfuUXX7DaIITdFm59y0i9l329v8Fgie/0GVjGNd8z6FL+Fh0tXeRIfQJpz/wdRW577paX67DrrnMPuPxyp1rInWzj7PnsV14Jpl5/vTfnlVf44R0ndEx121cX7B4IvMIQEzDVIoAAAgggkKcCTQ85xLS74QZn9+OPD/1cFLpAikZzJk8O7GbesydN4ntnimY/ctssSb9ZLt1N0iAzyG9KxzXno+ldHtYyWqrQplMZfvX1ZN0+D4eQiC5XNGhgTrz7bnfXk082TmlpIvoUBIFmPvKIP3XwYH/lrFn8ME9EVFLvhF15YFcgkG5O3Yw7EUAAAQQQKFSBGjvuqBP79XMOv/xyJ+zeW3E9QK2cPTuY3L+/b49eLFT3bIwrkFYb6Yl6Uu9fSBzAFSF6XHM/wi7mZ1WDpZKa0j8kHWUknNMMY63ddzcdX3mlpKJu3TRriKfYpKuv9t68/XbfLinjyh8Bm0CweyDkT4/pKQIIIIAAAghEKWATBYddcolz1u23J2YzRL+qSv8ZM8abOmCAz4lf6Uc7kAIjvbOTdGRHiU3L0qf80ZJ8iY4B9ZsqB0tOTamFke6XtE+MTRV01fZ83V3btXPa3Huvm6RXGSpnzQomX3ON99Ef/8gqhDyagfY3iV2BQNDyKGh0FQEEEEAAgQgEdj/hBNPhzjvdervtJpnUH4NSvzN8Jz999ll/Qs+e3sqv2MMvvN53Sthlwb9sIk3pKPHXvQwxf6x4nJ+FmLqcf9VufpWho33nxki18m8EyeixfZXhoKuuMi379HHtbrhJuGx2+KuJEzcmERa++SbPo0kISgp9WC1pCSsQUpDiFgQQQAABBPJfoMFee6n92LHuHiecYIzrpjygOB+UFrzxRvBK377erAkTAgV8hUw5KD+8caWR+pVKj14prcygHoqmIBDnZyKF5ovrlpFSjTJpqKTO7IeQfuxr7bmnOebGG51mp53mhPkFkH6L2y5pkwhv33WX/58xY/zKL7/kN8C2yXJ+h/3tsowEQs7jQAcQQAABBBCIS6BGw4Y6pkcP55ju3R2npCRUM3E9JK2eNy+YMXKk/8499/j+Bs6CChWUb91s9zWQ9Hi51L+LtDTdeigXTiCuz0W4XhTZ3WOk3Yx0byAdJSn0+1ZFxvWjw21y3HHm+Ftvdevus48Js/QsTj97/u7LPXt6H40f71etWRNnU9QdgYA9LXk5CYQIJKkCAQQQQACB5AiUVKum/du3Nz+94w63ola4Rb9xPRzZ74j2++GLXbp47GuQ/lyx+xpIek3Sr3tJ76RfEyXTEYjr85FOX4quzG3SPlXSFFYhZBb6fTt3dtrcfbcbdqfczFrdeumqtWs1/thjqxa+9RZL0eKEjqDu5ZIqSSBEIEkVCCCAAAII5F5gh733Nl2nTnXLtg936FmcD0ULXn89ePb006vWLF6ce6D87sEaV2rbTZqe38PI397H+TnJX5Us9tzuh+BK5/vSWG065pErDYGK+vXVondvt0WPHol5lcHunDt36tTgHxdd5PEqQxpBzVIRm75eLJm1WWqPZhBAAAEEEEAgeoFajRubc8eNc3Y79lgTZm+sOB+G7CaIz3XsWGX3xbLfC7nSFlhnpIHrpPuu3fg3H65cCcT5ecnVmPKy3dHSTo7UO5CuyssBJKTT9Q880Bw5dKiz66mnJuZ1kPUrV2rmww/7r/Tr521YbV/P4kqigD2BYV0SO0afEEAAAQQQQOBHBUrKy3Xq8OFOy86dnfIQryjE+RC0euFCTR82zHvvgQd8by1/nshw+t7nSrd0kz7JsB6KRyAQ5+cmgu4VXxWjpINLpRFGOiGQUt8Otviotjri3du3N4cPGuTW23//xMzx9cuXB5Ouvdb/8PHH2Q8hgfPVrkCwCQQOBU5gcOgSAggggAAC3xOw+xoceM455rSRI53td9gh1Pe9UDeHkLerC2Y+9JA/ZfBg326MGKIot35LwO5rYKSpkvr13PRfroQIxPXZScjw8rcbY6SzJY2StHP+jiK3Pbe76rbo1cuxrzOU16mT2858q/VlH30U/L1zZ8++/xZwNE9i4mI74ktaIBkWFiYqLHQGAQQQQACB7wg0Ouggc+7ddzs7tWgR6lkm1M0hzG3SwO5z9dw553grZ88maRDCbgu3zpV0fU/p4cyqoXQcAnF9huLoa1HWOUbqJemmohx8hINu9+ij7p7nnpuYVxns0ObPmBE81bp1lbeOxfIRhjrjqmwCYa5k+M2fMSUVIIAAAgggEKmAW1amS59/3m12zDGhn2FCF0ix5+srK4O/dujgfTVhAl8dUjT7sdsC6cZe0qAMq6F4jAJxfY5i7HLxVT1SalwmDZP0c7ErfFoTwBijuj/5iWl9551uo8MPT8y8t/shvP/732/cD8Fbz4L5tIIbQyG78mAen7UYZKkSAQQQQACB8AJ2NWnbgQOdIy6/3KkIsZo07i98L111lffhE0/461esCD8oSnxb4DlP6tFH+lKbjmLkSqhA3J+phA47P7v1G+loVxoi6Zj8HEHue+2UlqrZGWc4x9x0k1Nz110TM/9XfP55MH3ECP/9Bx6wf/jmSoDAhs17IBCQBASDLiCAAAIIFK1AiwsuMK379nUa7L13qO9toW4OoWtfUfjg4Yf96SNGeJVffBGiJLduQeA/kvr2lCagkx8CcX2u8mP0edjLJyV3ttQ5kK41UrM8HEIiumyTCIf27+/uf9llTvUGDRLRJ9uJedOnB5OvvdazRzwGPo+tuQ6M3R/ZHuNICjzXkaB9BBBAAIGiEjBGTZo3N6cMH+7s2aZNqOeVUDeHRJ3zyivB1IEDvdmTJvHVIKTd9263+xqMWi7dPVhiq6nMLLNaOs7PV1YHUmyNbU4i3CbpPEk1im38UY3XJg7ajhvnNm3TxrFL4pJyfWB36h040Fs1Z05SulS0/bCHay4lgVC08WfgCCCAAALZFajRsKFO7N/fOeKKK0LvVRXXg83qBQuCSddc43/42GP8ZSez6bDKSM8sky4jaZAZZK5Kx/UZy9V4iq7dkVKNMmm8pNZFN/gIB1xer546zZhRWqNJkwhrzawqu/Lg1cGDvRk33cQvqswoMy5tEwhL2AMhY0cqQAABBBBAYGsCR3XpYk6/5RbXccOdVh7bA00Q6PXRo70p113nsyI047n7n7VSu34b/ybDla8CsX3W8hUkH/s9WCqpLbUMpEck7ZKPY0hCn+0Ovru2a2da33VXSUX9+knokhQEqpw1K3i5d2//02efJYmQw6islLSMBEIOI0DTCCCAAAKFKrDniSeas++4w6nbrJmRSf3xJPU7w8t9/Mc/+hOvvdZf+eWXvKIQnu9/JYy00JfOXyFNZbVBBpAJKRrnZy4hQyyebmxOInT2pUFG2rF4Rh7tSCvq1dOBV1zhHHLddaEz39H25Lu1ffnvfwfThgzx5r76Kr/E4oTeSt3LJVWSQMiRPs0igAACCBSaQKMDDzTthg939j7llFDPJKFuDom2+N13g4nXXON/9eKLrDYIafe925dIGlZduudyye5DzVUAAnF+9gqAJz+HMEKqV7HpjNTOkirycxS573X1HXc0J/z2t06z00937AaLSbj8DRv03rhx/oyRI72Vs2cnoUtF14fFktaQQCi6uDNgBBBAAIHoBOy+Bkd16+Yc0727U1JWFqriuB5e7Peq13/zG++tO+5gpWeoiPzg5nVGelzSgB7S/MyqonTSBOL6/CVtnEXZn1ulJp70dCAdYKRwL48VpdiWB73jYYcZu6linb32SsznxR4T9O9f/9r7+Kmn/A2r7Rv5XNkUWCiZddlskLYQQAABBBAoAIHSigrt066d6fTww64b8g8zcX0J27Bqlf77hz/4E7p397x1/HbPYJrZpMvMQDqnl/RxBvVQNMECcX0OEzzkouuaGSMdZKTnAik5ZxLmWRiM42i3M890Tn3iCdf+f1KutUuX6q8dOlTNmTyZVxmyGBSLvUAyrMHLIjpNIYAAAgjktUCjAw4wl/ztb872DRuGev4IdXNIoaUzZwbjjzuuyn6f4spIYEUgdegpTTQS30kzokx24Tg/j8keeZH1bpxUY8WmYx1vlZScMwnzLA72VIYWvXo5LXv1ck3InYDjGqp9lcHug/C3n/3MWzN/Pj+w44L+Xr02vT5fMl6W2qMZBBBAAAEE8lGget26sisNdj/uOGM3p071ivMhZfmnnwb/vOQSb84rrwR2c2qutAXs16G+kh7ouXFfaa5CF4jzc1nodnk5vtHSTpKuMdIlkpLxIn8eStY/4ABz6HXXOXucfXZiliF469fr3fvu86cNG+atXWzfzOeKW8AmDmwCgZcj45amfgQQQACBfBOoqFVLrfv3d4644gqntLw85e7H+XBiVxjY70nv//73vn1dgSttgapAeqxMGnaV9EXatVAw7wTi/HzmHUYxdXi01MpIN0o6Vmz+lnbo7dGORwwZ4jY46KBQRwul3WAKBVcvXKgpAwZ4Hz76qM+7eymAZXgLCYQMASmOAAIIIFBQAnYvg4M6djTtRoxwazZqFGpscT2YVK1ZI7tP1MQ+fTxeUQgVki3d/KojDeouvZRxTVSQdwJxfUbzDqJYO/xbqb0v3SaOdsxoCjTv2dM55Npr3fK6dTOqJ8rCK774IvhL+/bekpkzg8Dnb+NR2n6/Lrv3gd0DgYWPcSpTNwIIIIBAkgXsnlD199hDnZ9+uqTBXnuF6mpcDySB52nBm28GL1x4obf844/5NR0qKj+4eYEv9e8tPZRZNZTOZ4G4Pqv5bFJ0fb9bKl0ldft6L4ThnMqQfvhLyst17C23uPtfemliXmWwSYM5U6YEfz377Kp1y3gVLf3obruk3Z/ZnsKw7Tu5AwEEEEAAgcISqFajhn7+hz+4e7ZubcJsLB3nL027+vJPp522cVNp/oiS0XzzjXSrIw3oJnEcRUaU+V84zs9s/usU2QjGSjsH0jBJnYps6JEN1xijuvvtZ0647Tan8dFHJyaJsH7FCn3w8MP+pKuv9uwxj1zxCKyWzJJ4qqZWBBBAAAEEEidgv/ecPGyYc9gllzh2Y8RUrzgfQKpWr9aka6/d+Prm+pUrU+0S921Z4BlX6t9N+gQgBKxAnJ9dhPNUYLR0nJGGSDoyT4eQiG7v2aGDOWzQILfuPvsk5nNW+eWXwYyRI327URBJhHimyUrJsMYjHltqRQABBBBIhoDjujro3HPNSUOGOHWbNQv1PSfUzSGGa1cXfPDQQ/6Mm2/2l3/0Ea8ohLD7/q2B9MbXcRrcQ3qBoxczgCzAonF9fguQqriG9KTkzpF+5Uv9jNSkuEYf3WjdatXUomdPp3n37q495jEplz3acUr//t5sjiiKJSTLJVMZS81UigACCCCAQG4FmrRqZdoNH+7s0bp1qOeIUDeHGWIQaO706cEr117r2Vc1wxTl3u8KBNI8R7qtQhp7uWS3dOJC4DsCsX2OcS4MgUAyY6SxRrpQ0vaFMarsj8Luh3Da+PFuk+OPd2xCISnXh4895k+65hpv9YIFSelSwfRjqWQ4BKpgwslAEEAAgaIX2K5ePbUbMcI55KKLQr2WGefDxqp58zTluuu8Dx55xFdA3iCDSbo6kJ5eIV02WOL91gwgC71onJ/nQrcrqvHdKjWokh4x0glFNfCIB7t9kybmp88959bdd9/EfPbshkKv/+Y3vj33mA2Fog34EsmsjrZKakMAAQQQQCCrAnZfg8Mvv9w5beRIp7SiIlTbcX7ZmTZ8uP/aTTd53vr1ofrEzd8VMNLrgXR2T2meJDIwTJCtCsT5mYa+wAQ2v8rQKpDGSQp3Bk+BWWQyHLvyYOeTTnJOvv9+p6xWrcR8Bld8/nnwyvXX+x89+STnOmYS4G+Vtb+BF0tmbUT1UQ0CCCCAAALZFPjJmWeaU2+6yam/xx4pf19J+cZ0BhIE+vjpp/1XBg5kX4N0/L5VxkhfVUm/WCm9ymqDDDGLqHisn+8iciyqoQ6WympKv5LU30g7FtXgIxxs6Xbb6eBu3dwWvXs71WrWjLDmzKr68t//DqYNHerNnTqV7HNmlBtL20zMIsnwd5EIMKkCAQQQQCArAjs1b27aDhrk7NuunZFJ/XEh9TvDD2PBf/4TvDp4sPfFP/7B0Yvh+b5dYkkgjawj3XWRxN83MrMsutJxfsaLDrPYBjxasmfy3CTpZ0YqK7bxRzXemrvsoqNvusnd7cwzHae0NKpqM6rHnsTw9u9+57/2m9/4q+fMIYmQkeamNYDzJcNLhBlCUhwBBBBAIFaBGg0b6sirrnKO69XLcUN8J4nzgWLlnDn6z5gx3pu33sq+BplF326A+FS5dPUVEptdZWZZtKXj/KwXLWqxDfxuqf4a6dlAai6ppNjGH9V46x94oDn9qafcGrvsYuz7hUm4As/Ti1dd5f33iSf8DavY/i+TmNgEwjzJeJlUQlkEEEAAAQRiECgtL9cBZ59tzr3vPtcpCfdVLq5vLFVr1mx8ReHFK67wqtbyB/J0wx5InpHerymdcbE0J916KIeAFYjr845ukQkMlpxa0mGSntGmFQlcaQgY19UubduaUx57rKRs+4QcbhEEWr1gQfBcx468ypBGTL9dxL7CYBMIbCqRISTFEUAAAQQiE9ipRQvT+Y9/dGo1bpyYVxTmv/568MzJJ1etX7EisnEWaUUrjdSpsfSvjhJ/vyjSSRDlsEkeRKlJXXYnxRqVUsdAuo1VCOlPiIr69XXA5Zc7hw0Y4Bon1IlI6Te6jZJ2FYI9R/kfF13krfj0U15lSFParhlcIBkA0wSkGAIIIIBAJAK1dtpJ5z/wgLvrUUeZMKsN4nx4WP7pp8FLV17pzZowIbDfO7jSE7CrDST1NdKDPaVl6dVCKQR+KBDn5x/vIhYYKTUpk/pKukhSMl7kz8N41NtvP3No//7OHuec4yQliWCPdnz33nv96SNGeGsWLcpD1dx3eZ2khaz8yn0g6AECCCBQhAIVdero+Kuvdo7s0sUpq149ZYE4HxrWLVumaTfc4L13773+htUccpxyUH54o91e6Q9V0tCrpc8yqIeiCGxRIM6fA5AjoLHSIYH0G0lHwJG+QNPWrY3dVLHBwQcn5jO7dskSTezTx/vvk0/6Pmcshw7ums3HOIYuSAEEEEAAAQTSEHBcVwd06GBOv/lmt2ajRqFqiOvLh91P6ZNnnvEndO/ura+sDNUnbv6uQCDNMNJ1PaUJ2CAQl0BcPwvi6i/15qnALdKpjnSvpPrstZF+EA/89a+dI4YOdavVrp1+JRGXXLNwYfCn007zFr3zDksMQ9qulAxrCUOicTsCCCCAQCgBu3Jxh733Npc8/7xT0+5rEOIKdXOIeoMg0JL33w/+1qmTt3TmTN7kC2H3/VuNtNhIfbtLD2ZQDUURSEkgrp8JKTXOTcUlMFgqryV1C6RhhiXbaQe/dPvtdeTw4c6BV1zhJulUhtmTJwfPdehQtY7NjULFdrlk+FtLKDJuRgABBBBIUaBsu+10wWOPuXu1bZuYfQ3Wr1qlP51yStX8117jjw4pxnErt435OvMyuJdkFzRyIRC7AMmD2Ilp4PsCY6TdAqm/kX6BTu3p0vwAACAASURBVJoCxqju3nubY0ePdndu0yYxn2O7K/LMRx7x7esMfpV97Y4rFYFlklmZyo3cgwACCCCAQAoC9hWFdjfe6Bzyy186FSFWK8b5hcLuZTBt6FDv3fvu8zlFIYUgbv2WPznSdd2ljzKuiQoQCCEQ58+IEN3g1mITCCQzVjru6xMZhks6tNjGH9l4jdHuZ55pDhs40K1/wAGJ+TyvmDVLM264wfvg4Yd9f4M9X4BrWwJLJMMWUdtS4t8RQAABBLYmYE9NOKhjR9N24EC33m67hcKK80vE+w8+6M8YOdJf/vHHvKIQKio/uPltSYOWS88Pljj5OTNLSqchEOfPiTS6Q5FiFBgjXSGpj6SmxTj+KMbslpWpec+eTvPu3V17zGNSrvkzZgQTe/f25r76Kl8WthEUC7RIMvYkBi4EEEAAAQTCCjRp1cqcOmKEs/vxx4f6fh/q5hCdCnxfC15/PXi5Z09v3vTpfA8IYbeFW+dKuq3npk3IuRDImUBcPy9yNiAazk+Bu6XSNdKoQPqVpIr8HEXue21cV6c89JC725lnOm61arnv0OYefPbcc8G/Lr20iqMdtx4S+81qvmR44SMxU5eOIIAAAokXqF6njk4fNcpp2bmzE6azcT4E2BOZJl199cYViGH6xL0/ELB/U/hjIF3BvgbMjiQIxPlzIwnjow95JGBfZbhNqu9Jz/AqQwaBM0Y1mzUzpz3xRKKOdqxas0Zv3nqrP2XgQE8Bf4D4sQiTQMhg7lMUAQQQKDKBY3r0MCcNHuyWVa+e8sjj/vI//YYb/NdGjfLs732u9AWM9HapdHoXab6R+OKUPiUlIxSI++dHhF2lqmIR+NZ+CL+VtG+xjDvqcTqlpWraurU58Z57SrYPeZ5z1H35dn3LP/kkmDZihD+Tv0b8KLMnaSErEOKchtSNAAII5LXA/u3bm1NuuMFpsNdeKX+XT/nGdGSCQJ88+6w/ZcAAf+mHH/Kgm47h/5f51Ejdl0n/ZF+DzCApHb1ArD9Hou8uNRaTwGipwpEuDqSBkmoX09ijHGtp9eo6uHt3p3mPHm55nTpRVp12XfZ8568mTAimDhjAe5A/omi3mbR7INhEAhcCCCCAAAJWoNGBB9qVBs6+p55qjJP6WwpxfuGf//rrwbQhQ7zPX3iBpEFm07TSSDetk353rcQpzplZUjomgTh/lsTUZaotNgGbRJB0l6SfGin1dXnFBrWN8VbfYQedcOutbrMzz3TsbsxJud6+807/9Vtu8SpnzUpKlxLTj/WbVyDwbSwxIaEjCCCAQE4Eauy4o47q2tU54eqrU88YSIrzi/6ahQuD126+2X/z9tv9gOOZM5kXayX9tbp0xeXS8kwqoiwCcQvE+TMl7r5Tf5EJjJV2DqTxkg6SFOqXZ5FRbXW42zVubDr8619urd12C/VXizgN7XGOE6++2nvv/vt9b639Hcr1jYDdPNFuokgCgTmBAAIIFJ/AxtOUOnVyzrr9dqck5EbIcX3J99at00fjx/v/uPhi9jDKYEoGUmCk9wPp3F7SxxlURVEEsiYQ18+VrA2AhopLYLBUUls6PJD+Jqm8uEYf3WjtyoOdTz7Zaffww07p9tsn4+dAEGjVggV6rkOHKo50+m6s7VbLdg+E6GYANSGAAAIIJF2g8UEHmYuefdat0aiRjEn9V0Dqd4YXmDNlSvD8BRdUrZo9O3xhSvxPIJCqXOmMcmni5ZJ9U5ELgbwQiPPnS14A0Mn8FLhZ2q5k07GOQyVtl5+jyH2vy+vW1f6XXuoeOWxYYlZyfLMfwqQ+fbxF77zDH9w3T5NVkpaSQMj9h4YeIIAAAjEL1N1tN511663unm3ahFohGOeX+lVz5tgjl71ZL70U+LyikMkMWBNIw7eT7uEVhUwYKZsrgTh/zuRqTLRbRAK3S7tskK430s8DyS2ioUc61Jq77WaOHDLE2aNDh8Tsh2CPeHr3vvv86f/X3n1AWVGkbQB+q/vOkIacJIgrShJBYVUwMCiioIgKiooZDCwZBgFBYIYsYYagIBgwrLIKiiKCAQQTkhRQMYEIIjnPkGaY6a6fAvZf1wXp2+FO9+23z9mze85WVX/fU01335ququHDDbVfNI8TqydlcgCBlwIFKECBuBQoULQomvTrp13RsaOWWMT630W8fJk/vGsXVmZkGKvGjTOlacaleyySOjlF4XUNGNYdWBeLc/IcFPBCwMv7jRfxsk0KnFJgIlAvD5gsgHpcD8H+RVI5OVk0Sk/Xy150kW/uDbmHD2Nhp07Gr7Nnm7mH1N/fw32owQMuwRzua4DZU4AC8SUQKVgQF7RoIW5/9lldDSBYPbx8UOdlZ2P9rFnmp716Gdl79lgNieX+V0CNuKwB0LUnsIRAFAi6gJf3naDbMP4ACqQDN2vAFABlAhi+b0KufuedosnkyZHEKF5ivA7+wO+/y7m3327s+uYbGfa/fqgtHLmspNdXHNunAAUo4K2A2mqxXK1a4oG33tJKV60a1Tt5VIWjSEM9Xw9s2oQ3mzTJPbh5cxQ1WfQUAvs1oG934EXqUCBeBLy698SLD/MIoMDJ9RA6AxgWwPB9E3JCUhIu7dtX/3ufPlo0CzV5mYCaZ7l92TL5TosWeXmHD3t5Kt+3vRMQaitHHhSgAAUoEDwBLSEB7d99V6/aqJFQOypYPbx8cT+yezc+uOeevM2ffSalYVgNieVOISCBMbnAk31PzDjkQYG4EfDyHhQ3SEwkmAITgfNMoJ8E7uVUBvt9WPqCC0TDQYO081q39s2iimr6wo+vvGJ+OWCAcfRAOJ/LaiVJ9QWC2omBBwUoQAEKBEMgoVAhNB04ULu8QwfNL1MU1HbJXw4aZPwwbZqZvW9fMCB9GKVa10AD5khgYE/gRx+GyJAo4FiAgweOCdmA3wXSgWsFMEQAl/o9Vr/Gpz6t/NsNN6hBBL1svXq+uW8c2LRJLh8xwvzh5ZfNMP6VRE2kVFs4co8nv/7LYVwUoAAFTgio52i9tm3Ftf37a2WqVYvqORpV4SjA1aDB2jfeML9MTTUP/v47dzeKwu4URVcLYFgPYA4AWjqzZG0fC3h1P/JxygwtrALjgQ4A+kqgclgN3Mj77717a/W6dtUKn3WWb+4fO1etkgs7djR2rV4duvUQ1IelagoDPzB14+pmGxSgAAXcFVCDBhXq1BGtnnpKq9KwYVTPzagKRxG22hJ516pV8vM+fYwtn33GH7pR2J2i6PZj62w93QMYIzho4EyStQMh4NV9KRDJM8jwCaQBicWAcQJ4EEBC+ATcyVjNz2zyzDN69Tvv1KKZq+nO2U/fyq/vvmsuePTR0G3tqAYOtgOCb4BeX2FsnwIUoIB1gUIlSuDmjAyt/r33RjXtz8uXczXt7+N//MNQXxxYz4QlTyGQe+yL1rkm8EAKcIRCFAiLgJf3p7AYMs8ACowGzkoEXpJAkwCG74uQ1SKKSVWqiJazZull6tTxzb3k6MGD+G7KFGNx//6hejHiAIIv/lkwCApQgALHBdS6Bo26d9cKFitmWcTLB6lacHhlerrx1ejRZljXCrLcEWcuuPwocFdfgNtRnNmKJeJMwMv7VJxRMZ14E5gB6FuBJhLIAFAj3vKLWT5C4G/Nm4vksWP1ElHO4/QyxswNG+SyYcPMn197zQzL1o5q9wW1BgK/QPDyymLbFKAABU4toAbVL2zVSlyfmqqpLRitOlkuaLXBP5VbN3OmuXz4cHPPDz/w8WDT8GS1XyXQOwt4Pw3Ic9YUa1MgmAJe36+CqcKoQyUwEShgAp1MoI8ASocqeReTTShSBBd16aLVT0nRC5Ys6WLLzpra/Omn8ssnnjC2L18eipcm9e3kXg4gOLtoWJsCFKBAlAKV6tcXTQcM0C5o0UJAWH+9tl4yyoDUejgrV8plQ4caG+bODcXzL3ohyzX2S2B8EWB8ByDc+0RbJmPBeBXw8p4Vr2bMK04FxgBFdOApAbQGUDhO0/Q8rcRixdD0uecianeGSMGCnp/P6gnWPPecuXzkSPPg5s1x/xJ1CMA+gPd3qxcHy1GAAhSwKVC0fHkkp6RoyT16aH4ZNDi0fTtWP/20sTI9PZQ7Ednsyv+pJoFsCcwrBHTsdPyxyoMCFODLJa8BCvxJIAOoBOAjAOcL/gCzfX0UqVxZ3Dpnjl7qgguE+pTTD4dx9Cg+7dnT+OGll0y1RVU8HxxAiOfeZW4UoEB+C2iRCOq0aiXumDZNjxQoEFU4Xj0R1XPt5zfeMBc89JChdlTgYV9AAhslcFMvYK39VliTAvEn4NX9K/6kmFGoBNKASAng7xKYDaBUqJJ3MVm1E0Ol5GTR4s03IwmF/fMxx6Ft2zC/Xbu8TQsXxvXbVSaAAxwAc/GKZlMUoAAFgHMuv1zc89prevHK1nd+9vqFe8fy5eb7999vZm3YIMGBAyeXaZb6ArUQsKQDEN9/ZXCixLqhFfD6XhZaWCYeHwITgWIG0P5YNmmcymC/T9VUhgsfekhrMGiQrtZG8MOhFlHcvHCh+VmfPuaeNWvidhBBrX/ACZp+uOIYAwUoEHSB0uedJ1qOHavVaNZMqC8PrB5evmxn/vqrXNSli/H7okVSGmrfHR42BXIkMDIbmNof2GOzDVajQNwLeHk/i3s8JhgegXTgbA0YIoG7OZXBfr8Xq1pVXJ6aqlW/4w5N6Lr9hlysaeTk4JvJk82vx441juza5WLL/mlqNyCy/RMOI6EABSgQKIHCpUodX9fgqq5dtYRChSzH7uVLtnperRw/3lg9YYKppuTxsCcgAakBbx7rq7TuwDp7rbAWBcIj4OV9LTyKzDQ0AuOAiyXwjADqAdBCk7jLiZa/5BJx7dSpeukLL/TNegi5hw/jk65djV9mzTJzD6kVA+LrUFs45sRXSsyGAhSggKcCarrdBTfdJG575hm9QNGils/l5cu1GvDeMHeuubBTJyN7717LMbHgfwuoQQMBrBFA9x7AF/ShAAWsCXh5f7MWAUtRIIAC6cBtGvA8AH98gx9AQxVy1VattOuee04vUKyYbzJQ6yG8c+ONecf3w46jeaNqXsZ2QPCjVt9cagyEAhTwq4AQKHXuuXhk3jy9VNWqUb0rR1U4ivzVVLvM9evlzOTkvCN7+FV9FHSnKnpEAF17AK84bIfVKRA6Aa/ucaGDZMLhE1DrIeQBnQAM5lQG+/2v1kOo17271mDgQH/MYwBg5uVh1+rV8t1bbsmLp6kMJoBtgIjbBR7sX4asSQEKUOC4QKESJfDArFl6lQYNhJ6QYFnFyxfqnP375YcPPmhumj8/7ncKsgxuo+DJKQpjJTCmJ7DfRhOsQoHQC3h5rws9LgHCITABqGYCqQDaHBtI4L8pm91eqmZNcVn//lq1O+/U/LK149GsLPz4z3+aSwYONI4ePGgzM39VU18e7ACEGkjgQQEKUIACJwQSCxdGk379tIYdOmhqAMHq4eVDX61lsGTQIPP7F14wcjLV/jk8HAh8EAGe6AqsAcAxdAeQrBpuAS/veeGWZfahExgPNDOBQQK4NHTJu5WwEPhbs2aiQWqqXv7vf/fN/enA5s1YOmSI8ePLL5vxMJVB7T2l1kDgAIJbFy7boQAFAisgBOrddZe4LjVVL121quU0vHxAqUGD9bNmmYsHDDAObNpkOSYW/F8BeWKwIDUFmEMfClDAuYCX9z7n0bEFCgRMYAagbwU6mkAfAZwVsPB9FW7djh21S/v104qcdZZv7lP71q6V89u3N3Z89ZVU80+DfKjFE9UuDPzzS5B7kbFTgAJ2BYSmoULdumoxRK1ylIPVXj6Udn/3nfykWzdj6+LFvD3b7dwTn4HuMoGnsoCxaUCeg6ZYlQIU+IOAl/c/QlMg1ALjgBclcJcAfDOXP2gdoiUkIDk9Xb/wkUc0zSdbOyrD3z74wJzXtq0R9F0ZjuD4ZtZ8DgTtHwbjpQAFHAmo7RZvmzJFr9e2bVT3v6gKRxmhep7Mf/DBvF9mz+agQZR2fywuAUMA7/YE7nTQDKtSgAKnEfDyPkh0CoReYBygvoF8GkDT0GPYBRACSZUqiWbTpmmVrr7aN9tjqvUQ1jz/vLm4Xz9DBnhXBg4g2L0wWY8CFAiagFpP57rUVO2Kzp21QsWLWw7fy5dl9RXb12PHml+PHWvk7OcafpY75dQFl5jAI72AtQ7bYXUKUICDB7wGKJA/AouAyGrgOgDjAZybP1EE/6zqE9MqzZppjZ58UitVq5aX73JRYWX++qtcOnSouXb6dDOogwiHAOzjFwhR9TsLU4ACARIQAnVuvVVcP3iwVq5mTcvPD8sFbVL8MmuWuXTwYHPvjz/yawObhqqaADYD6FEIeL8DoJb14UEBCngk4PV90aOw2SwFgidwcj2ExyTQBUD54GXgj4gjBQvioq5dtUsee0wrULKkb+5hmxctMr8cNMjcvmxZIF8C1TreBziA4I+LnFFQgAKuCVSqV080HzpUq3799VE9L6IqHGW0u775Ri4bMsT49b33ZDwswhtl+q4Vl8dn3uGZLGAE1zVwjZUNUeAvBby8N5KeAhQ4hcA4QO0BNQFAawAFiGRPQC9QAE2ffVavevPNWkKRIvYacbmW+vLgh5deMpcNHWoc3Kz+EBKsYy+AwxxACFanMVoKUOCUAklly6LJ448fn6Kgvlyzenj5Ynx4xw6sHD/eWJmeHuwVd61ielcuVwLvG0Cn3sBO707DlilAgT8LeHmPpDYFKPAXAiOBkgWBFQDOPvHVHQ87AkXPPhu3vv9+pGS1agLCP4wLu3Qxvn/hBVMahp208q3ObgDZvB7zzZ8npgAFnAmogYJ699yj3fnCC9ZHDDx+CKt1DX567TXz43/8wzBz+VW9gx5WX/btOAo07AtsddAOq1KAAjYF/POmbTMBVqNAkAXSgEgScI0OTONUBvs9qUUiOKthQ9Fi5sxIodKl7Tfkcs0DmzbJT3r2NDfMmROYvzKpN7NdgDjqsgWbowAFKOC1QNXkZHH71Kla6fPOs/x+a7mgzeC3LlkiP2rXzjiwYYMM6ro4NlN3u9puE3g0CfiQ6xq4Tcv2KGBdwOt7pvVIWJICIRZQUxkE8JAEhgKIhJjCUeoJSUlQ2zpe9sQTeoFixRy15VZl0zCwedEi+VmvXkZQFsVSIx07AcGNsd26CtgOBSjgpUDJc84Rt4wfr9Vo1kyowWQrh9cvwPvWrpVf9O1rbJg3j+saWOmQ05RRWy9KYFgC8Gy342PbPChAgfwU8PremZ+58dwUCJzAaOAsHRirAbcCSAxcAj4JOKlKFXHlkCFa9bZtNbU1lx8O9Ren1RMmmKsmTDAObtnih5D+Mobj34ZyAMH3/cQAKRBmAbWuwZVdu2rX9Onjm3UN1HaLK8eNM1aNH2/mHVGb4fKwKaDmd7wHoG9PYKPNNliNAhRwWcAfb9UuJ8XmKBB0gXFAfQBTAdT1eCpm0Kn+Mv7i1aqJG197TS9Tp44Quu6LXHOysqC+Qlj3xhtmXna2L2I6XRDqCwQ1gBCsVRt8TcrgKEABFwQiBQrggptvFq2fflovVLKk5Ra9fOlV9/PfPvpIfnD33XnGUU78stwppy74owb06A4sctgOq1OAAi4LeHkfdTlUNkeB8AlkAC0FMBNAVAs/hU/qrzP+W7Nm4sYZMyKRQoV8Q5OTmYnXGzbMzVy/3jcxnSoQNXVhOxdQ9HUfMTgKhEmgROXK6LZ8eaRImTJRpe3lC6+aovB28+Zql51AbtUbFaS3hU0TuK/XifceHhSggA8FvLyX+jBdhkSB4Ak8CRQvCHSVQH+uh2C//woUL44LH35Yu3LkSH98ggBA7cSwZfFiOb99+7wDmzbZT87jmupvaGoNBI9Pw+YpQAEKnFagWIUKuGPaNP28xo19s66BmpYwt02bvM2ffiqNnBz2nk0Bta6BBkzIA8Y+BqhNf3hQgAI+FeDLoE87hmFR4M8CY4Gax371pgFoTR37AsXOO09cPnCgVv2uu6KaI2v/jGeuqb5C+PHll83FAwYYhk+nMqgJFrs5gHDmzmQJClDAVQE9IQHXDx6sXda+vVa4VCnLbXv5gnv04EF8NWqU8c3TT5u5hw5ZjokFTykwB8DQnsBq+lCAAv4X8PLe6v/sGSEFAigwFrguAgyRJ9ZF4L9hm3149jXXiCuGD9fLX3KJbwyP7NmDz/v0MdbNmGH68a9YBwGRqb6YsGnOahSgAAWsCuiJiajTqpW4afRorWiFCpbv05YLWg3kD+XU12K/vP22uXjgQDNr/XreCm0Y/qHKj8cA01KAd/hYcQbJ2hSIpYCX99hY5sFzUSBUAhIQ44HuAHoDKBuq5N1MVghc0K6ddkVamlb4rLN8cz9UWzrOf+ghY+fKlVKqGaA+OjIBccBH8TAUClAgzgSEQIU6dUTrSZO0Kg0aRHVfjqpwFGzqPpy5fr384L77jt+Xo6jKov8rsFcCT2cBI9IAfz3g2FsUoMAZBby6z57xxCxAAQo4Fzg5iDAFQDvnrYW7heSMDP3iLl18tTDllk8/Nd+6/noD0l/vqvsBcTDclwuzpwAFPBJoP3u2VuOGG6K6F3v5Mqt2Ufi4Qwfj53/9iz90Hfa5WgB6P3AfBw0cQrI6BfJRwMv7bT6mxVNTIDwCagBhAlDdBJ4WQOPwZO5+psWqVhXJY8boVVuqTS78cRw9cADfP/+8+eXAgYaftv9S0xcOcNqMPy4SRkGBgAuodQ2uefxx7aouXTS/bL2oSFeMHGmumjjRyN6zJ+DC+R7+Sg14eB/wAwcO8r0vGAAFHAn45gXZURasTAEKqHnoahChhTz2KSCAmiSxJyB0Hec0bSqufPJJvXTt2r65R6pPZpePGGH++M9/+uKvX+pbiL2AOGKPmbUoQAEKHBe46I47xLX9+mnlo7jfenljVlMUNsyZYy5JTTX3/PCDvz77Ct418xuAvpnH1jXgoEHwOo8RU+BUAl7efylOAQrkg8BEoEAukKIBXbgegrMOqN+rl3Zx1656UsWKzhpysbbaEmzJoEHGtqVLZX5PZ1Bv1bsAobZy5EEBClDAsoAQqFSvnmiWlqbVaN7c8ruo5YKWA/nvgrtWr5YrRowwfnnnHQ4a2DQ8WW2/BJ4B8GQKwDFmZ5asTQFfCXh9H/ZVsgyGAmESmAgUM4BXAVwDoECYcncz14SkJFw9frxerU0bLVKokJtN229LSqx54QVz2ZAhxqHt2+2341LNHYDIdaktNkMBCsS3QFLZsmjcu7fWqHt3TQjrr6HWS0bvd2T3bqzMyDC+HjvWF192RZ+Bb2qoR8HnRYG7Hz7+cRoPClAg3gS8vBfHmxXzoUAgBcYD5SXwMYDqgUzAJ0EXKFECbZctixQ791zf3DfV57Vqa8fVEyfm6wuv+hPddkAYPukrhkEBCvhT4LL27UXryZN1oVlfD9HrG+66N980P2rXzvDj9rj+7MVTRyWAzSbQKAXYEqS4GSsFKBCdgNf35OiiYWkKUMATATWVwQCaAngBQClPThKCRtULb8WrrtKunzZNK1qlij/un1Iic8MG+VmvXsaGuXPz7VNbNXCgvkDI11GMEFyDTJECQRSo2rjx8a0Xy1arJmDxawOvb7C/f/KJXNi5s5G5bl2+3TeD2Jd/jlkCmQLokAnMSwOy4yEn5kABCpxewOt7M+0pQAEfCUwFimcDHQygvwAK+yi0QIWSWLQoLmjfXrs8NVVX0xr8cEgpsWn+fKl2Zdi1alW+vAyr71V3AiJfTu6HTmAMFKDAfwmUq1ULN44cqde84QZhdYqC1y+m+9evl4v79TN/nTPHlAa/l3JwyWYfe48YbQKTUzhFwQEjq1IgWAJe36ODpcFoKRASgbHAORFghARuBZAQkrRdT7NgqVJonJGhn9e6tRYpWND19u00aObl4dtnnjG/zsgwD23ZEvPf8WoAQX2BYCd21qEABeJDIKlcOVzZpYvWOCVF0xMTLSfl5Y3jyJ49+Obpp42vx4wx/bTtrWUc/xTMA6A+c+uXAvzin7AYCQUoEAsBL+/TsYif56AABRwIPAVckge8xPUQHCCqeSC1aonrpk3Ty9WrJ6KZy+vsrH9dO/fQISzs2NFY/847Zl52bL8kzQGwm18geNm9bJsCvhSIFCiA6tddJ+586SW9YLFilmP08mVU3f82vv+++dGDDxp5R7jwv+VOOXXBXyXwSArwucN2WJ0CFAiogJf364CSMGwKhEsgDdCKAdcLYMaxbZX88efzAHaB+iS3UnKyuHXevIiW4J+POY5mZWHW9dfn7Vy5MqZfIRwCsI9fIATwSmbIFLAnUK5GDdFh4UJd7aZg9fD6JfTApk3yraZN87J++w35vbWtVROflss5tiDiw/uBmWkAl7bxaScxLArEQsDr+3YscuA5KEABFwTGAmUiQCcTeELwR59tUbUeQs377tOuevJJ3TdTGXJzsfmzz+T8hx4yDm3dGrNBhAOAyLQtyYoUoEAQBIqUKyfaTJ2qqS8OrE5R8PrlU01R+Oj++/PUoohmLjeSdXIdmcA4HcjocXxGGg8KUCDsAl7fv8Puy/wpEDiBCcCFJtAfwO2BC95HARc//3xxaZ8+Wq0HHohqL3MvU1BTGb5/4QVz6eDBxtEDB7w81f+3nQmI2JwpJunwJBSgwEmBxMKF0XTgQK3BI49ofpmioO5xX6enm9889ZSRk8mhSycXqwDek8CQnsBqJ+2wLgUoEF8CHDyIr/5kNhRwS0CMA64FMALAxW41GsZ2KjVqJK4YPlyv0KCB5S3KvHbK3rNHft6nj7l2xgwzFnub7wXEYa+TYvsUoEBMBNTXBXVatRItx47VksqXt/weabmgjSykaeLXOXPk5489dmKKAg8nAj8d+/pw8H7gbU5RcMLIuhSITwEv7+XxKcasKBAygXSghwD6CqB0yFJ3L10hUPOeezQ1iJBUoYJ77Tpsad/PP8t5bdsae9asatQiEQAAIABJREFU8Xwqwy5AqIUUeVCAAsEVKFezJu5+9VW9Qt26lt8fLRe0waIGDfatXSs/uOceY/d333l+H7MRYpCq7BdAeg9gVJCCZqwUoEBsBby8p8c2E56NAhTwTCADKKQBY9Uqy56dJAQNa5EIGqSm6pf27av5JV318r19+XL5zg035KlPfr081BaOnH3spTDbpoA3AgmFCqHdO+/oVRs3tryjjNcvmGpb2o/atzfWzZxpSsPwJvGQtCqBNwzgH70Bbx8CIfFkmhSIZwGv7+3xbMfcKBAqAQmIicD5JvAsgCtDlbzLyRarWlVcOWyYVu222zQIf9yGc7Ky8MO0aebiJ54wvFpgTC3RrbZwPOqyJ5ujAAW8ERC6jmv799eu6NRJK1La2sdnXt/R1EDBipEjjdWTJpnZe/Z4k3hIWhXAChN4NAv4kVMUQtLpTJMCDgW8vsc7DI/VKUABHwqo9RBuAZAKoLYP4wtESGprx7OvuUZcOWqUXvaii3xzL8789Ve54sknzR9eesmT7bjU3wfVAAK/QAjEZcogQyxw0R13iOsGDtTK1qhh+f5kuaANVyklNsyZoxZ8NTlFwQbgf1fZIIHUrGNbNHPQwLElG6BAqAS8vM+HCpLJUiBsAmoqgwAeO/ZbsAuAkmHL37V8hcBFnTtr9Xv00ItWqeJas04b2rZkifzi8ceNbUuXSrf3R88DsBMQnoxOOE2c9SkQZgEhUOnii0Xz4cO16k2bWn5HtFzQpu3uNWvklwMHmhvnzuVtw6ahqnbsmX1QApPzgJGcouAAklUpEGIBr+/3IaZl6hQIh0AaECkOzMSJ3RkKhiNr97OMFC6M5PR0vebdd2uRQoXcP4HNFn985RVTDSIc2b3bZgunrqa+QNgOCK5w5iorG6OAbYHCpUrh+tRU7fKOHaNak8XLF8nsffvw9dixxsr0dFOtz8LDtsBRCXyedeyrwTSAM8dsM7IiBSjg5T2fuhSgQHgExGigagR4VwDVwpO2+5kmFi2KW+bOjVRo2NA392e1nePyESOMFSNHuvr2rr5AUIsocgDB/euILVIgGoEGDz+stUxP19TCiFYPr29QP736qvlxx45GLLaTtZpzEMsJYGMecHMv4GcB8HYbxE5kzBTwkYDX934fpcpQKEABrwUmAgUMoCmAlwEU8/p88dq+WqSsUqNGosmkSXqJatX8cZ+WEpkbNsgv+vQx1r/7rmsvoGr7RrWNY7z2JfOigJ8FajRrJtSgQZlq1YRah8XKYa2UlZZOXeb3BQvMz3r3Nvd8/71r9xn70QS65hEJPAjggxTgSKAzYfAUoIBvBLx+BvgmUQZCAQrETmAMUEQHegqgBwcR7LurqQwXPvSQ1mDgQL1AiRL2G3K55sYPP5TLhgwxdqxY4crL/WEAezmA4HIvsTkKnF6gQt26Qk1RuKBlS8vvgZYL2oTfv369XDJggLF+9myptmHkYU9AAuqWOikCjOoGZNlrhbUoQAEKnFrA62cB3SlAgRALPAWcawCjJHAzgKjm0YaY7X9STyxWDI3T0/Xzb79dSyhSxBc0xtGj+PaZZ8yvx4wxDu/c6TimgwD2cwDBsSMboMBfCajtFq/s1k1rnJKiRQoUsIzl5cuiWk/l2ylTjOVDh5pqRwUe9gSO7Z4gBfChAHr3AH621wprUYACFPhrAS+fB7SnAAUocFwgA6gjgLcAqO0EOIhg87oodt55osXrr+tl6tQRQvMP40ft2hm/zJpl5h1x9mVsJiAO2LRhNQpQ4PQCaqCgVosW4p7p0/Vo7h1eviSaubnY+P775kft2xtHs/gHcrvX78lBg80R4M6uwFd222E9ClCAAlYEvHwuWDk/y1CAAiEROLkrw60AXgBgfVWukPhYTVO9+Je9+GLResGCSGJSktVqnpc7tG2bnHfXXYba4tHJyfYAwtkQhJOzsy4F4k9ATVFo9/bbWvHKlQV8sq5B1saNmJmcnHt4xw7wawNH11yuBvQsCLzYAch11BIrU4ACFLAgwMEDC0gsQgEKuCcwBigXAToCeMK9VsPXkho4qPXgg9qVw4bpam0EPxzqL4lbFi+WH957b56TqQy7AZHth4QYAwUCLKC2Xmz7yit61caNhdUpCl6/FB7cuhWfdO9ubJw3z1T3Cx6OBCaoD/t6AtsctcLKFKAABaIQ8Po5EUUoLEoBCoRJIAOoLYCBANTXCP75Bj9gnVD0nHNwWb9+eu327X1jqH4UfDNpkvnV6NGGms8c7aE+XVADCGonBh4UoEB0AoVKlEByr15ao27dfLP1oloj5atRowx1X8jeuze6hFj6jwJqu9wFAAb1BFaShgIUoECsBTh4EGtxno8CFPgvgXTgJg0YCqA2aewLlKtfXyRnZOgVGjb0zXoIh7Zvx+J+/Yx1M2ea6sdDNId6Q1ZbOPJvk9GosWyYBTRdR+1WrbQWTz6playilpexdnj5Iqj+3W/66CPz4w4djMO7dlkLiKVOKSCBnyQwtBcwk0QUoAAF8kvAy2dGfuXE81KAAgEUGAd0VX9NAVA8gOH7JuTqd9yhJY8bpxcuW9Y3MWVt2oTZN96Yp7Zik4ZhOS41gLAdEOq/eVCAAqcWUOuglDr3XLSfMydS5vzzLTN5+gIoJfb/+qv88P77XdvS1XJi8VfwgATG9ARGCcDRmjLxR8OMKECBWAt4+uyIdTI8HwUoEGyBUUDRRGAsgHbBziR/o9cLFMBFnTppV40apedvJP85uxo02PzJJ6ZaVDEnM9NyWGrgYBsg+MZsmYwFQyRQICkJbV96SavRooWmvjywcsTixW/uHXcYG+bO5boGVjrkL8pI4K0I0KEbwO0oHFqyOgUo4I5ALJ4h7kTKVihAgdAInNzacQyAJqFJ2oNEi557rrh84ECtxj33aMLiKusehPFfTWbv348fXnrJWPz446Y0rX1TkAdgJ79A8Lpr2H6ABNS/5+sHD9YaPPKIVqR0aUuRe/3Cp9Y6WTVhgvn12LEG1zWw1CWnLSSBLyXQsxewyllLrE0BClDAXQGvnyXuRsvWKECB0AiorR1LAbcawBAA1r/FDY2Q9USrXHutuGzgQL3iFVf45p6f9dtvctnQoebP06ebZp4aHvjrQy2eqLZxtDbccKbW+P9TIJgCWiSCOq1aiWZDhmilzzvP8r9nywVtsqyfM0cuHzLE2PXNN/xIyKbhyWq/mcDgJOANbr3oDJK1KUABbwS8fp54EzVbpQAFQiOgBhFKAKkSeARAqdAk7nKiQi2m1r69dln//lpSpUq+ufdv/fJL+UXfvsb2ZcvO+KPjCIC9nMLg8pXB5oIiUKlePdF86FCt+vXXW/73a7mgHQQpsfenn47/+934wQdn/Pdr5xQhqpMpgReLAE9w0CBEvc5UKRBAAU+fKwH0YMgUoIBPBV4BiuwGXhbADQASfBqm/8MSAk0mTdJr3n23Filc2Dfxrp050/ykSxcje9++v4xJDSCoLxB8EzgDoYDHAgWLF8eNI0fqDR5+OKrrPqrCUeaQk5WFlWPGGCtGjeLHQFHa/al4ngQWRYC2XNfAGSRrU4ACsRHw8tkSmwx4FgpQIDQCaYBWDKgqgPkAKoUmcQ8SLVS2LJq99JJe5brrNA+at9Vk7uHDWJmRYSwfNuwv10M4fPILBFsnYSUKBERArWvQsEMH7YYRIzS1MKKVIxYvdT++/LL5SY8eRu6hQ1ZCYpnTCEhgZwS4fi/wUxrAQRheKRSgQCAEYvGcCQQEg6QABYIjMBVIyAZuNIBJAigXnMj9Falanb3ilVeKpi+8oBc75xzfPA/2//KLXDxggLl+1qzTvlAfAJDJLxD8dUExGtcEat54o2jx5JNauZo1Lf+7tFzQZpSbP/1Uft6794l1DSRnKdhkVNX2CqDrfmB2GnDUQTusSgEKUCDmAl4/a2KeEE9IAQqER2AkULIg0B0n/lMkPJm7m6n6C2fdTp20v/furSdVrOhu43ZbkxK/zZ8vl6alGTu++uqUv1T2AYJ/+7QLzHp+FDjrwgtx3aBBeu2bbxZCs/ZRkNcvcvvWrpVLBw82182cyb+OO7to1Lqvkw1gzGPAbmdNsTYFKECB/BHw+pmTP1nxrBSgQKgEJgKVTeAZCVwLIBKq5F1MtkDx4rhq1Ci9+l13aQk+WQ9Bbee4+qmnjJXp6eah7dv/J1u1/oFaB4EHBYIskFS2LK7q1k1r/NhjmvoiyMrh9Quc2m7x2ylTzBXDhxtGbq6VkFjmFAISMATwWR7wj97ABiJRgAIUCLKA18+eINswdgpQIGAC6UA9AbwO4G+Cn7Tb7r3C5cvj9oULI8WrVhVqlwY/HKZhYGGnToba2tHIUX/A+8+xExD89tcPvcQYohXQExNRt3Vr0eb553X1v60eXr68mbm5UFMU5rZpk8d1Daz2yP+Wk4AUwOY84N7ewBL7LbEmBShAAf8IePn88U+WjIQCFAiNQBqQWAK4RQIv8ysE+92uPpkuV7++aPHmmxG/TGWQUuLg5s1yXps2xo6VK/9/KoP6H9sBYdhPlzUpEHOB8rVri3Zvv62VOOccoaYOWTmslbLS0qnL7PnhBznn1lvzsjZutN8Ia+LkwEHHTGB6GpBNEgpQgALxIuD1cyhenJgHBSgQMIExQDkd+IcA+nJrR/udl1i0KGq0bas1GjtWjxQsaL8hF2uqqQybP/lELuza1chct+74IIKajL2DAwguKrMprwRKVK6M1lOm6NWuvVb4ZYrCkd275aJu3cwNc+b8z5c9XjnEY7snpyhMyQVG9Tk+psmDAhSgQHwJcPAgvvqT2VCAAn8SGA/UPfZCN1ACN3Mqg/3Lo8hZZ6HBoEF6rfvv16L5vNr+Gc9cM+/IEXw7dar59ejRxpHdu6G+PFBTGPgFwpntWCL2AgWLFUNyr15ao27dtMQi1tZ39folTU1LWD1xovH12LHm0QNqDxMeDgQWCCC1B7DCQRusSgEKUMDXAl4/l3ydPIOjAAXCI5ABtBTAUAAXhCdr9zMtc9FF4urx4/UKl19ueTV496P47xbVwm6LunTJ+3XOHJmdk4NdgOCy8F6rs32rAnpCAmrecINoPXmynlTO+s6yXr6gqXUNNn74oVzUubNxaNs27rtotTNPXe6XYx8/DeoJvOmsGdamAAUo4H8BL59N/s+eEVKAAqESSAO0kkBnExgMIClUybucbJXrr9eav/qqXrBECZdbtt/coS1b5OxbbjG2rVkjd5qm4C8i+5as6VxArRtS5vzzRfv33tNK/U2t4WrtsFzQWnP/U+rgtm2Yc8stebtWr+Y/EZuGqpoEDgN46thKiGkzcfzDJx4UoAAF4l7A62dU3AMyQQpQIHgCU4Hih4HRANoFL3r/RBwpVAi1H3pIazRqlK4lJPgisOMrxX/+uXy7TZu8LQcO8Bnni14JXxAJBQui7auv6jWbNxdWp/l4fbGqKQofPfBA3sYPPpDGUe5P4uSqFMBbR4BO/YB9TtphXQpQgAJBE/D6WRU0D8ZLAQqESGAiUM8EhknguhCl7Xqqxf72N1zWr59+Qbt2muuN22wwJzMT37z6qjm7Xz8zN5uLndtkZLUoBdRAwXWDBmkNHn5YK1yqlKXaXr+IScPAynHjTLW2waHtXMPPUqecvtAyE+jdC1h24uMDHhSgAAXCJeD1MytcmsyWAhQInEAaECkK3KadmMpQNXAJ+CjgSsnJQi2qWLlRIwGLW895Hf7ejRsxf9gwc9X06aaZl+f16dh+SAXUrgl1b79dNB04UCtbvbrldyvLBe24SokNc+eaXw4aZO5Zs4Y/dO0Y/qfOJgkMLQJM7wDkOmuKtSlAAQoEV8DT51ZwWRg5BSgQNgG1HkIJYLAJPCyA0mHL36181Txv9QXCZf36aUWrVPHNM2bj0qVydvfu5pZVq/gjyq3OZjvHBSrWrStapqdrVRs3tny9Wy5ox1hK7Pv5Z/lFv37Ghrlzeb3bMfxPnf0AXssEeqcBHH10ZsnaFKBAHAh4+vyKAx+mQAEKhExgIlDMBF4D0PTYX5r0kKXvarrJGRlanYcf1vWCBV1t125j6lfU97Nny5mPPGIc2a9+E/CggH0BtfXiLRkZWv3777c8Xcfrl668w4exJDXVWDVhAjccsd+1qqbyW2oAtz8G7HbWFGtTgAIUiB8Br59j8SPFTChAgdAIqK8QigNVAMwDcH5oEvcg0SIVK+LqceP081q1svwDy4Mwjjf57z/B5hw4gM/Gjzc/HjbMlJJ/mPXKO57bTU5J0a7t108rWLy4pTQ9f9mSEj+88or5Rd++htq6lIcjATVFoXkW8GvaiUEEHhSgAAUocFLA8+cZpSlAAQoEVWAGkLgZaC1O7MxwVlDzyO+41VSGildcIRqPH6+XqVs3X587fxwq2L1unVwwdKi56vXXOYKQ3xdJQM5f+5ZbRLO0NK187dqWr2PLBW0a/L5woVzcv7+xU03J4WCYTcXj1XaZQL8DwIw0gKusOpFkXQpQIG4FvH6mxS0cE6MABcIjMBkomXNsziuA7gD8sSdhAPnVonK1H35Yu7RvXy2pcuV8e/78caRAfXmwftEi+cHAgebvK1ZwECGA11UsQq5Qp45Quyhc0LKlUINhVg6vL/C9P/0kl48YYa59/XX+ddxKh5y+jFrLYJIOjO4G7HLWFGtTgAIUiG8Br59t8a3H7ChAgVAJPA2UzgVeBnANBxHsd31i0aK4avRovebdd2uRQoXsN+Sg5qlGCb6YONH8LCPDzNy61UHLrBpPAklly+LKbt20Jn37WhsxAOD1i1X2vn1Y8/zzxrIhQ0wjJyeeuGOaiwByJfBFIvBAZ4B7WMZUnyejAAWCKuD1My6oLoybAhSgwGkFxgH1AcxSC62Tyb6AGjhovWBBpHz9+kLosV+b8lQDCHk5OZjdo4f59SuvmEYud2Sz37vBrqlFIqjTurVo89xzekIUA1xevlSprUZ/X7DAfPfWWw1p8mMDJ1eYBHaawF2PAV84aYd1KUABCoRNwMvnXNgsmS8FKBAigReBgplASwCvcFcG+x2vBg0qNGggmk+fridVrBjzZ9KpBhDUVIaDO3bglTZtjE3LlnEqg/3uDWTNihdfjAdnzYoUq1QJQpz5kjxzCecMe9askR/cd5+x94cfJBf5dORpCuBhE3grBTjiqCVWpgAFKBBCgVg880LIypQpQIGwCIwBykWAXgC6AoiEJW+380woXBjV27bVkseO1ROKFHG7+b9s73SjA+qvu2vnz5dz+/Qxd/z4IwcRYtorsT9Z6fPOw01jxui1brzRN+saHNm9G59062b8OmcOpyg4uCQkYAjgOQmMSgG2OGiKVSlAAQqEWoCDB6HufiZPAQq4JZAOXCSAYQJo5labYWynYOnSaJiaql/wwAMxWw/hTKMCRw8dwpfPPGMuGjXKzM7MDGO3xHXOBYoWReNevbSrunXTCiQlWcrV65ennMxMrHn2WXPZ8OFG3uHDlmJiodMKLJTAoBRgOY0oQAEKUMCZgNfPP2fRsTYFKECBgAlkAM0BpAvg/BisnRYwHevhlq5dWzSZPFmv0LChgIVPx623fOqSZxpAULXUeggzHnrI+PG99+RR/qBzSp7v9RMKFkSN5s3FnS+9pCcWLmw5Hi9fnKRhYNOCBebCLl3MA7/9ZuWytBx3yAoqu40C6N8DeCtkuTNdClCAAp4JePkM9CxoNkwBClDA7wLjgD4ABgIo4PdY/RxfxSuuEDe9/XakYIkS8HoQweovtczNm+W0W24xd6xZw/nnfr54ThebEChdtapoP3u2VqZ6dcvvQZYL2jGREod37cKbjRvn7l+/3k4LrPMfgaMAMnoCg4hCAQpQgALuCnj6LHQ3VLZGAQpQIFgCY4EyEWCEBB4MVuT+ijZSuDBq3nuv1jgjQ9cTEz0PzsoggtqJ4fdly+TzLVoYuUe47prnneLSCdT18+CsWfp5V18trF5LXr8o5R48iIWdOxu/zJrFdQ0c9rMEZhpAz97ATodNsToFKEABCpxCwOtnItEpQAEKhFpAAuJp4O+5wGgBXBVqDIfJJ1WpIi7t3Vur06GD5rCpM1a3MoCgGsk5eBDLnnvOXDB0qKn+Nw9/CqhpCVf36aNd2bmzVrB4cUtBxuIF6avRo83VkyaZh7dts3rJWYo9hIVWakDKPmBpGsB9LEN4ATBlClAgNgKxeDbGJhOehQIUoIDPBcYB9wHoC6C6z0P1dXjlL71UXDVihFYxOVmzspWenWSi/SW377ff5PzBg82V06dLtUsDD58ICIGLbr9dXDdokFa2Rg1L7zyWCjlI79/rGnzeu7e596efor3UHJw5LquqdQ1G9QBeiMvsmBQFKEABnwl4/Yz0WboMhwIUoED+CkwECpjAAAl0AFAif6MJ9tlrtG2rXTFsmFb07LM9eZbZ+VW37bvv5Iz27U313xxEyL/rS2gaytWqJW575hntHLXopsXDckGL7f252P5ffpGf9+1rbpgzhyNMNg1VNQFkSWC6BPqmAJw35MCSVSlAAQpEI+D1czKaWFiWAhSgQGgE0oCCxYG5AK4E4Pln+HELKwQu699fu6x/f11LSHA9TTsDCCqI7999V77Rrp2Rc+CA6zGxwb8WSCxSBC0zMvTL2rWz/I5juaBNfDM3F5/17m18O3kyBw1sGp6sZgrg20LA1R0A7mHpzJK1KUABCkQt4PXzMuqAWIECFKBAiATEGKB2BHgJQN0Q5e1uqkKgcPnyonF6ulatTRvXB2LsDiBkZ2Zi8eTJ5kepqfzB6G6Pn7a1Jv36ack9emiFSpa0dEbPX4KkxE+vvmp+/vjjxpFduyzFxEKnFpDA+kTgns7AKgHY/WdJXgpQgAIUcCDg+XPTQWysSgEKUCAUAhlAIR1oZQIZAEqFImmPkqx01VXiiuHD9QqXX+7q883JL5Xd69bJjwYPNr99801OZfCg39W6F7VatBDNhw7VyteubanfLRVyGOumjz+WXw4YYOz8+msnl4/DKIJfXQJZAuiTB7zRGzgU/IyYAQUoQIHgCsTi+RlcHUZOAQpQIIYCk4CkXGCQBB4GkBTDU8fVqdT0hQseeEC7tF8/vejZZ7uWm9NfgGsXLJAfpaWZvy9f7rQp13IKekMV6tYV16emahe0bGn5fcZyQZs4+9etk8uGDzfXvv66yXUvbCLi+KcFhzXg5Wxg0ONApv2WWJMCFKAABdwS8PoZ6lacbIcCFKBAaAQmApUN4FkAVwOIhCZxlxNVi+Y1mTxZr3b77VpisWKutO74V7+UWDp1qvnxk0+aWVu3uhJTGBspUqYMGvfqpSX37KmpfrZyeP3Ck71vH3548UVzcf/+BgcNrPTIqctIwBDAlxrwj+7AOvstsSYFKEABCrgt4PWz1O142R4FKECB0Ag8DdTOBT7nVwjOurxA8eK46a23IhUbNRJubO3oeAABgJmXh7e7djVWvPgipzJE0b1qoKBOq1birlde0XWLC2R6/aKjBgo2fvCBfP+uu/LysrOjyIZF/yygvjaQQPNewFLqUIACFKCA/wS8fqb6L2NGRAEKUCBAAi8CBbOA1iYwCUCRAIXuq1C1SARlL7pItHznHV0trugkODcGD/59/r0bN+Ltzp2NtfPnu9msk/R8W1dtuXjHiy/qZc47z1KMjjrZ0hmAfevWyQ/atjV2r1nDQSCLZqcpdlgAfQsB/+QuCs4gWZsCFKCAlwKxeLZ6GT/bpgAFKBAKgaeAirlADwF049aO9rtcrYdQ8557tCuGDdMLlytnuyE3f+mbhoF18+fL9/r0MXf+9JObTdvOz08VS1apIm5KT9fUooh6xNosHq9fbg5s3ozF/foZ62bO5LoGzi4Wdb1PjQDjugIbnDXF2hSgAAUo4LWA189Xr+Nn+xSgAAVCJZAB1BHASABNOYhgv+sLlS6NywYM0Gs/9JAWKVjQVkNu/8o3cnPxaUaGufipp8yDO3faiimeKhUuVQpXdO6sNenbV9MTEy2l5vVLzdGDB7Hm2WfNFSNHGjmZXMPPUqecupDavlRNyerbE1jpoB1WpQAFKECBGAp4/ZyNYSo8FQUoQIHwCEwAbpRAugSsfcMdHpqoMk06+2zcNGNGpMzFFwtN16Oq++/Cbg8iZGdl4Z1u3cw1b79t5h45YiumIFdSgzm1brxR3D51qlaweHHL7ymWC9rAUWtUbFuyRH5w9915h3bssNECq/xB4DcNeKI7MIMqFKAABSgQLAEvn7XBkmC0FKAABQIoMA5IATCCXyE467zyl14qbp49O1KoTBnbDbk9iHBg2zZMatQob9+mTbZjClrFYhUrovNnn+klqlSx/H5iuaBNDDVF4Z3mzfP2rV3rdhfbjCiw1UwJDEk5cb/iQQEKUIACARTw+pkbQBKGTAEKUCBYApOAs3KBIRJ4AADv6za7LyEpCdXbtNGumTRJVwss2j3c/IWp/uK9cckS+a977jGytm+3G5Lv6xUpXRptX31Vr5qcLPyyi4KRk4OPH300b/3s2TL38GHfG/o4QCmBWRGgdzdgs4/jZGgUoAAFKHAGAb5k8hKhAAUoEB8CYjxwmQRGAbgiPlLKnyyKVKwo6vfsqV3UqZOmFli0e7g5iHBk3z4snzbNXDB0qHk0jn7IqikKTR5/XGvYoYOmBhCsHF6/uBhHj2LVhAmm+s+RnTvd7EYr6cVbmeUCeLwHsBgALeOtd5kPBSgQOgGvn8GhA2XCFKAABfJZQIwD7pXA4wKols+xBPr0airD5YMH62dfe60Qwv7j0s1fTFlbt2Le448b37z5plRfJQT1UOtLXNiqlbhh+HC91LnnWkrDfg9Yah7SNLFp/nzzy4EDzV2rV7vZbdYCiKNSEvhNAqMPAC+kAWpxRB4UoAAFKBAHAl4/i+OAiClQgAIUCJ7ARKCACYw8OZWhaPAy8E/E57durTUaPVorGsU8/D9H7/Yv0W3ffSfYRyc9AAAXQklEQVRnPvKIuXX1aql+9AblUIMw5WvXFq0nTdLOufxyy+8glgvahDjw229yUZcuxsYPP3S7q2xGFMxqAjgI4F/FgV7tgOxgZsGoKUABClDgdAJeP48pTwEKUIAC+SiQBkRKAB9IIDkfwwj8qYWmQU1luHzYMN3urgwKwe1fpj/Omydfue02wzQM3xsrw7b//Kd+UZs2lt89LBe0mb2Zm4vP+/Y1vpk0yYSamc/DicDyTKBJGnDUSSOsSwEKUIAC/hXw+rns38wZGQUoQIGQCKQBWjHgEgFMA1A9JGl7kmZSpUq4fMgQvdZ992lOT+DWT9XszEwsfe4588NBg0w/TmVQgy1N+vYVV3btqhf2yboGqu/WPPecuWzoUONQHC9E6fQatVh/gwm0OxtYdgfg/1Esi0mxGAUoQAEK/K8ABw94VVCAAhQIiYCaypAH3KUBIyRQNiRpe5JmhcsvF5cPHapXTk52/Bx1axBh97p1cv7QoXL1G2/45q/oF956q2g6YIBWoW5dS06WCjns0U0ffyyXDR5sbFu61C16hxEFtvo+AfQ3gekpwJHAZsHAKUABClDAskAsntOWg2FBClCAAhTwXmAUUDQRGALgfgBcD8EmudB11LznHq3hoEGO1kNQp3fzV+zaBQvkR6mp5u8rVrjZbFRKFS++WFyflqbVuvFGy+8ZlgtGFcl/Cu9ft06uGDXK/OnVV80grRNhM10vqx2SwPQiQP8OQKaXJ2LbFKAABSjgLwGvn9X+ypbRUIACFKDA/ws8DZyTC7wCoAEAx5/hh5VWLQJ41ahR+gXt2mkFihd3xODWr33143jZs8+aC4YPNw/s2OEopmgqFylTBsk9e2rJKSma1bUhvH4Ryd6/H9+/8IK5uH9/g+saRNOb/11Wnhjj+urYTgrtegFr7bfEmhSgAAUoEFQBr5/ZQXVh3BSgAAVCI5AOVNeALwCUCE3SHiRaoFgx3DRrll4pOdnxQIxrgwhS4q2OHc0V06Z5viXDxW3bane99JJmdVvLWLyAqK0X5915p3H0oNoEgIcDgQMa0Lg7sMZBG6xKAQpQgAIBF4jFszvgRAyfAhSgQPwLjAGKRIA7JZAhgMLxn7E3GaodBcrUqSOavfKKXqpWLcfPWLcGEfasXy/n9u1rfv/uu241+f+AVZOTRaunn9bK1aghIM6c8plLOO+b3d9/Lz+8915j748/BmorS+eZu9uCBLIF0O8o8Epf4IC7rbM1ClCAAhQImkAsnuFBM2G8FKAABUIr8BRQ0QBSJNAttAguJK4lJqLm3XdrDVNTdbVDg9PDjV/8ajvHdR9/LN/r1cvc+fPPjpssXbWqaDF69PF1DbRIxFKKXr90HNy8WS5JTTV//te/fLnzhCUk/xSaAiCjJ7DRPyExEgpQgAIUyE8Br5/j+Zkbz00BClCAAjYFxgG1Tn6FcA3XQ7CJCKBAiRK4fPDg4+shRAoWtN/QyZqOf/GrxRlNE5+OG2cunjjRzNq2LeqYipQti8s7dNCu7d9f88ugQd7hw1gzbZqpdlHIyeQaflF36n8qqOktiwEM6AkscdAOq1KAAhSgQBwKcPAgDjuVKVGAAhRwS2Ac0EICTwmgsltthrGdgqVLo8WMGZEKDRsKLSHBMYEbgwjZWVl4p0sX49tZs6Rx9OgZY9ITElCjeXPR5tln9cKlS5+xvCrg9UuGilttuTj3ttvyOGhgqUv+qpAaSerfE3jNcUtsgAIUoAAF4lLA6+d6XKIxKQpQgAJhEkgDtGLAowKYEIPfg/FLKwTKXnyxaDVvnl6wdGlXnr9uDCKoxQQnNmyYt2vt6RfQL3n22ei+YkWkUKlSlvrHleTOcKbDO3bI2TffbOxavVpyFwVL3fJXhYZWAkbcARiOW2IDFKAABSgQtwKxeL7HLR4TowAFKBAmgVFAxQRgiADuD1PebueaUKQIzm3ZUrvu+ed1PTHRleadDiIYublY/8kn8s1HHzUyt2z5/5iKli+P1s88o9do1kyoLw/OdMTipcLIycH8hx7K2/DeezL38OEzhcT//y8EBPBWHvD4Y8AmNaOFWBSgAAUoQIG/EojFc549QAEKUIACcSQwAbjCODGIkBxHacU8lUJly+KSPn30uh07an4ZRMjOzMSyF14w56elmU3699caPvqoVtgnXxuoQYNvp0wxvx4zxji8c2fM+yvOTrhMAwZ1BxbFWV5MhwIUoAAFPBTg4IGHuGyaAhSgQLwKzAD0bcDdJjAAwLnxmmcs8ipXv764YsQIvUqTJq48k93487E0DAhdt5S+K0Gf4UybFiyQn/fpY+xZs8aN9CzlFaeF1GclYwsDz3YAcuM0R6ZFAQpQgAIeCcTime9R6GyWAhSgAAX8IJABTBDAvQCK+iGeoMZwznXXiSZTpuhJlSsLIZw/nmPxK9t5lH/RW1Li4JYt8qP27Y3Nn3wSi3SCeulYifsQgBk9gQ5WCrMMBShAAQpQ4FQCnj73SU4BClCAAuEQGAeUkMB0ATQNR8beZKn+2n9xly7aVaNG6ULTXDmJ27+6Y/HioLaTVF8afDtpkmkaXMPP4YWwJAFo3QXY47AdVqcABShAgZALxOIdIOTETJ8CFKBAOATUVIatQH01iADgnHBk7U2WRSpWxCW9e+sXde7szgjCyTCdDiTE4qXhu6lTzeUjR5qHtm51Gq43nROcVrdqwN37gOVpQF5wwmakFKAABSjgV4FYvAf4NXfGRQEKUIACHgiorR2LA+0lMEAAFT04RTiaFAJnXXaZaJiaqle59loBF6YyKDg7v8g9f1mQEps//VQuTUszti5Zwq0XnV3hajXJ4ZnAcxw0cAbJ2hSgAAUo8N8Cnr8PEJwCFKAABcIpkAGUOvaQSQPwAIBC4VRwJ+ta99+vXdq3r1aiWjXXnttWBxFcO+FpKPb/8otcPny4+dNrr5nuaIW2lWwA048AA/sDu0KrwMQpQAEKUMAzAa/fCTwLnA1TgAIUoEAwBJ4BymUD7wG4EEAkGFH7L0otEkGD1FTtok6d9MSi7q1NebpBBK9fEI4eOIDvnnvOWPLEE1zXwMHlJgG1KMSPAFqmAGo3BR4UoAAFKEABTwS8fjfwJGg2SgEKUIACwRKQgBgHXKoBb0ugbLCi91e0CUlJuPGNNyJqdwY3I/v3IIKrjZ4mwE2LFsm5t92Wl3vwoJsphK4tAew1gTY9gS+EvRkpoTNjwhSgAAUoYF8gFu8I9qNjTQpQgAIUiCuBSUBSLnCnBJ7iVwjOurb8JZeIqydO1NV/O2spdrV3rlolF3XpYuxYscLqrInYBRegMwnAkMBjOcCrjwOZAQqdoVKAAhSgQIAFAvPCEWBjhk4BClCAAn8SmASclQM8LoCHABQgkD0BPTER1e+8U7ty5EitcLlyvn2mH96+XS5JSzu+roGRk2MvWdZSArkAXtWBod2AzSShAAUoQAEKxFLAty8asUTguShAAQpQIH8EMgD1Z/ORAJIB8Jlksxu0hAQ0Gj1aq3nvvXqB4sVttuJ+tZysLPz82mvm5717G8bRo+6fIEQtSuBLDRjQA/giRGkzVQpQgAIU8JEAX9R81BkMhQIUoEBYBdKBmzVgEoDyYTVwI+9CZcuKG159Vat41VWaGlDIr8PMy8O2L7+U8+65xziyYwenKDjriF0m0KMXMNNZM6xNAQpQgAIUcCbAwQNnfqxNAQpQgAIuCaQBiSWArhIYyvUQ7KMKTUOpWrVEm88+i7i5K4PViI5mZeHNJk3y9qxZI6XJ3Retuv25nFrXwARGR4AR3QDO9bALyXoUoAAFKOCaAAcPXKNkQxSgAAUo4IbAWOAcDRgogPvdaC+sbaj1EM5v00a7etw4vUCJEp4zZO/bh0979jR+eestrmvgXPtfx6bxDO4J/Oq8KbZAAQpQgAIUcEeAgwfuOLIVClCAAhRwWSADaCyAQQAaudx0qJorXK4c6qek6Bd37erJVAYzNxffTp1qfp2ebh7asoVTFBxcXRJYoQYNUoD54NaLDiRZlQIUoAAFvBDg4IEXqmyTAhSgAAVcEUgDtOLAwwD6AjjblUZD2kiJatVwzdNPRyonJwuh644VpGFgy+LF8pNu3Yy9P/zAQQNnols0YPy+Y1uYpgGc6+HMkrUpQAEKUMAjAQ4eeATLZilAAQpQwD0BNYhQDBgrgHYAirjXcvhaqtSokbh+2jS9aJUqAsLea8DBzZvlws6djY3vv89BA2eX0BEBTN8PdE0D8pw1xdoUoAAFKEABbwXsvTV4GxNbpwAFKEABCpxKQIwByiYA0+WJrR152BRQ6yFUb9tWa/rss7qIcgBhUbduxg8vvsh1DWza/7uaAJZJ4I6ewHZOUXCIyeoUoAAFKBATAQ4exISZJ6EABShAAbcETk5laABgCoBabrUbxnaSKlXCJb176xd26KBpfzGVwTQMfDdlirkyI8M48PvvYaRyLWcJrAfwaBawmFMUXGNlQxSgAAUoEAMBDh7EAJmnoAAFKEAB9wVmAIm/A+00YACA8u6fITwtlrnwQlH9rru0s6+5RpSsUUMkFisGteXi3p9/lpsXLpQ/v/GGqbZeDI+IJ5nuVlsvCmBqCnDEkzOwUQpQgAIUoICHAhw88BCXTVOAAhSggPcCo4CiBYBxEmgDoJD3Z+QZKBCVQI4JzMoBUvoDe6KqycIUoAAFKEABHwlw8MBHncFQKEABClDAvsBUoMxh4B0J/F0AzrcTsB8Ka1IAAjAksCYRaNn5xLoGPChAAQpQgAKBFuDgQaC7j8FTgAIUoMAfBWYA+u9AAw14B0AJ6lAgnwQOArg9E/iMuyjkUw/wtBSgAAUo4LoABw9cJ2WDFKAABSiQ3wJjgCIJwF0SSAdQOL/j4flDI5CtAX2OAP96HMgMTdZMlAIUoAAFQiHAwYNQdDOTpAAFKBBOgQygkgD6AXgQQGI4FZh1DARyAUw3gGGPAb/F4Hw8BQUoQAEKUCDmAhw8iDk5T0gBClCAArEWGAfUl8B4ATSM9bl5vrgXWA6gd09gSdxnygQpQAEKUCDUAhw8CHX3M3kKUIAC4RIYDzSTwAsAygJqTTseFLAtsFsCPVKAGbZbYEUKUIACFKBAgAT44hSgzmKoFKAABSjgXCADKKQBXUxgmOAAgnPQkLUgASmBkUnA6A7A4ZClz3QpQAEKUCDEAhw8CHHnM3UKUIACYRZ4CjjXAPrJE+sh8KCAFYEZEkhLAX6xUphlKEABClCAAvEkwMGDeOpN5kIBClCAAlEJSEA8BSQbQBqAK6OqzMKhEZDA18emuQzOAj5KA8zQJM5EKUABClCAAn8Q4OABLwcKUIACFKAAgHFARwApAM4hCAVOCmxRC22mABMoQgEKUIACFAi7AAcPwn4FMH8KUIACFPh/gTQgsSQw0gQeBVCANOEUkMBRtfViFtAtDcgOpwKzpgAFKEABCvy3AAcPeEVQgAIUoAAF/vRsfBoolQu8DqAxcUInsNQAWvcC9gjg2BIHPChAAQpQgAIUUAIcPOB1QAEKUIACFDiFgFoPYSJwtQmMAVCXSHEv8LMEemUBC7iuQdz3NROkAAUoQAEbAhw8sIHGKhSgAAUoEB6BNKBwCeBhCTwBoGR4Mg9NplkCGJkLTOkNHApN1kyUAhSgAAUoEKUABw+iBGNxClCAAhQIp8AMIHErMFkCtwEoEk6FuMr6CIDZJYBH23Fdg7jqWCZDAQpQgALeCHDwwBtXtkoBClCAAnEqkAFUEsBbAC4GoMVpmnGblgSkANZkA7f1AzbGbaJMjAIUoAAFKOCyAAcPXAZlcxSgAAUoEP8CaUCkFFDfAD7kVwiB6u9sA7ixKLCsA5AbqMgZLAUoQAEKUCCfBTh4kM8dwNNTgAIUoEBwBcYARXSgnQAGAyga3EziPvJDEhhSHHj+IeBA3GfLBClAAQpQgAIeCHDwwANUNkkBClCAAuESGA9UMYEBArifUxl81fdqq8XpEhieAvziq8gYDAUoQAEKUCBgAhw8CFiHMVwKUIACFPCvwATgQgk8J4F6HETI134yAawxgUd6AavyNRKenAIUoAAFKBAnAhw8iJOOZBoUoAAFKOAfgQygJYDnBbd2zI9OyQTQrSfwr/w4Oc9JAQpQgAIUiFcBDh7Ea88yLwpQgAIUyFeBSUBSDtBRAMPzNZAQnVwAQzRgYjcgK0RpM1UKUIACFKBATAQ4eBATZp6EAhSgAAXCKjAROM8A+gO4h1MZ3L8K1NaLAOYIYGBP4Ef3z8AWKUABClCAAhRQAhw84HVAAQpQgAIUiIFAOnCtAFIF0DAGpwvLKVZpwODuwLywJMw8KUABClCAAvklwMGD/JLneSlAAQpQIIwCYhzwCIC+AM4OI4BLOW8DMK4HMOHYgIz68oAHBShAAQpQgAIeC3DwwGNgNk8BClCAAhT4s0AaECkOjAfQDkAChSwL5AngrUJA+w5AruVaLEgBClCAAhSggGMBDh44JmQDFKAABShAAXsCGUAlAFME0MxeC+GpJYHPNKB9D2BTeLJmphSgAAUoQAH/CHDwwD99wUgoQAEKUCCEAjMAfRPQRAfGAqgVQoIzpfwLgN6ZwIdpQN6ZCvP/pwAFKEABClDAGwEOHnjjylYpQAEKUIACUQlMBRIOAd0E0ANA+agqx2fh3RKYWBnIuAM4Gp8pMisKUIACFKBAcAQ4eBCcvmKkFKAABSgQAoEXgKIHgHEmcLsACocg5T+neERtvQigS09gfwjzZ8oUoAAFKEABXwpw8MCX3cKgKEABClAg7AKTgLNygUUSqBqSrZWlBDZpwLVc1yDsVz/zpwAFKEABPwpw8MCPvcKYKEABClCAAgDUegjbgAYm8PqxhRXPimOU3TrQdi+wmOsaxHEvMzUKUIACFAi0AAcPAt19DJ4CFKAABcIgMA4ooQEPmMBgxNFUBglkC2CYBJ5PAfaGoS+ZIwUoQAEKUCCoAhw8CGrPMW4KUIACFAidwESgsgkMkcBdACIBBsiTwFsCGNgT2BjgPBg6BShAAQpQIDQCHDwITVczUQpQgAIUiBeBDKAOgGcFUA+AFpS8JCAF8K0JdO0FLA1K3IyTAhSgAAUoQAGAgwe8CihAAQpQgAIBFZgA3GgCbwAoEIAUjppAu17AzADEyhApQAEKUIACFPiTAAcPeElQgAIUoAAFAizwJFA8EWgvgOF+nMogAUMDRkpgIrdeDPCFxtApQAEKUCD0Ahw8CP0lQAAKUIACFIgHgaeB6keBgQK400f5zE4A0roA3/soJoZCAQpQgAIUoIANAQ4e2EBjFQpQgAIUoIBfBSYA18oTiypemo8xfnPsi4OBKcAH+RgDT00BClCAAhSggIsCHDxwEZNNUYACFKAABfwgkAZoJYGHTWAAgLNiGNNuCaRXBsbfARgxPC9PRQEKUIACFKCAxwIcPPAYmM1TgAIUoAAF8lNgPDBFAg96vCuDCeBfPYF2+Zkrz00BClCAAhSggHcCHDzwzpYtU4ACFKAABXwhMBE4Lw94SgBNPQhoiQAe7QGsBSA9aJ9NUoACFKAABSjgAwEOHvigExgCBShAAQpQwGuBNCBS4sR6COMAnO/C+X7TgO77gI/SgDwX2mMTFKAABShAAQr4WICDBz7uHIZGAQpQgAIUcFtArYdQHHhMAl2EvfUQdgOYlAmM4qCB273D9ihAAQpQgAL+FeDggX/7hpFRgAIUoAAFPBMYCZQsCEwCcDOARAsnygUwLwH4Rxdgj4XyLEIBClCAAhSgQBwJcPAgjjqTqVCAAhSgAAWiFZgEJOUCKyXwt7+ouzUHuOhxIDPa9lmeAhSgAAUoQIH4EODgQXz0I7OgAAUoQAEK2BZYBERWA1cDeB5AxT80tNMEHk0C5ncA1JcHPChAAQpQgAIUCKkABw9C2vFMmwIUoAAFKPBngalA8SNAewkMEcAwE3guBdhLKQpQgAIUoAAFKPB/W8CIKBcpqngAAAAASUVORK5CYII=;verticalAlign=top;perimeterSpacing=3;labelPosition=center;verticalLabelPosition=bottom;align=center;" vertex="1" parent="1">
          <mxGeometry x="495.5" y="502.4100000000001" width="70" height="80.84" as="geometry" />
        </mxCell>
        <mxCell id="AgKKOFiebJRXSR-hWWNA-24" style="rounded=0;orthogonalLoop=1;jettySize=auto;html=1;strokeWidth=2;" edge="1" parent="1" source="AgKKOFiebJRXSR-hWWNA-22">
          <mxGeometry relative="1" as="geometry">
            <mxPoint x="405.5" y="479" as="targetPoint" />
          </mxGeometry>
        </mxCell>
        <mxCell id="AgKKOFiebJRXSR-hWWNA-22" value="InfluxDB" style="shape=image;verticalLabelPosition=bottom;labelBackgroundColor=default;verticalAlign=top;aspect=fixed;imageAspect=0;image=data:image/png,iVBORw0KGgoAAAANSUhEUgAAAPwAAAEACAYAAACXjBuxAAAABGdBTUEAALGPC/xhBQAAACBjSFJNAAB6JgAAgIQAAPoAAACA6AAAdTAAAOpgAAA6mAAAF3CculE8AAAAB3RJTUUH5gwGBRUfUCTJ6AAAAAZiS0dEAAAAAAAA+UO7fwAARPxJREFUeNrtfXeYZFW1fXVPjjCBmaFD1dl7hihJMqKCIqiPIIKAgoCgKBgRRAz4DKiAggFEHz9UTA+1e69b3QwMoOCIAUUHEBAkKKBIzuGsc6sn3N8fdX2iTnX3dNet6u66+/vuH34f9ty656xzdlh77UIht4aZKydtAs4S42IHFp3FuwvCBxX8ksJ/+f8e4xkahdcIuEgiP0vKbM+/Xm65jRegG6cq2KUIewn4GTHeKPBPK5gM8gQBbxDwTAVfr/AvcRYW5l8zt9zGqBURtzsL3WJ8q4I/VPDJIUBe66HC3yjg+WI8XIy7azleXLw8mZR/5dxyGwOm5qeo+QMV/IGCj44Q6P/xiJEK/l7Bbwp4soD7laLQ2V2Oc7c/t9yaYfNXJNPUeLqCf6oX0Gs8zyt4m4J9av7zajzIgR2FJMkXIbfcGmFLo2SWGM9S8ImMwf7vj1fwzwpeJ/AXCvzhAnYsW5G05auSW24ZmCuHjQX8soJPNxjsL37WKRgUfFTAP6nxfxXh6O7etfPyFcottzqYlNnuELoU/pvVBFvTwL6+Z62CA2J8VsHLxXiC6+UyMc51xmkdV4a2PATILbdhWglhkoBbCvz3FBwYY2Cv9TwrxmsFPF0i7qnwzkV+bldP7v7nlltN04iTBNxBjD9UcM04Afu/PuZfUPifCfhJsXCgGLd3UWV+x/Ikz/rnltu/xOwWdlZweeo2J+P8WSfGpxX8hSB8VcB3qIVXuKiySb7SueVxu3FnBa+dAECv9Tyt4CoFf6DG0wTcx5XDokKSu/25tZorD75GwZ+nGfGkBZ5nFPyjgisE/iyBP8CV4wUdy3Pw5zaRLUkKYv4N6c23pkXA/u8lvxcUfEDBm9T8/zj4/1rSk8zJN0duE8a6epLC4isrUwQ8PGXPrW1BsK/vGVDweQH/KuD3HcLhpSjuUHCaQ5g0u3dNvnlyG2eJuXJScKjMFvDt6c2WA33w5ykFlwv47hK4tRiXuHKYufjq3P3PbVzE6wNzBeG9Cj6cg3kDG33gnxKwX8BTBdxH4LcQ83NL8Dn4cxuLt3uYJQinj6KtNX/+Gfs/puDVCn5W4d/iLOwo0cBG+S7LbWyA3SobK/zHFXwuB2zdn8cFvE7BCwU8SYx7OovnFVbmbn9uTTApc5HAn53GozlAs+X5P67gKjX2qvHjAu6zqa2Zle/C3BpiJYQOMZ7f5I63VgX/Mwr+WY3XCfznxPiqrh7Ozndlbhm48KGgEbvVeFHaW56DsLkxP1NNgVvF/AWCsG8JlVkCtklvXCisyjv8chupC29sFwtbCdiTg23Mx/4/FAuHFcssiXG+Ip6meZdfbsM1BdsU3FHBKAfUOHL/zT9UFQYNJyjCHmJ0XWXOzHd0boPf7vC7KriyCZu2ouBNWvUqLlVwRfq/4xzQG+z+/13APgE/LPCvF/itpMyc7pvbf7jye2u1PNSMTrTzBP6VziqzS/DTSuW4W8G9xPgFBR/cgL/1qIK/VfDWMai204znb+nheY6AbxULL3UWz8h3ewvb4quTyQoepOD1TWiCeUKMH3DlgY3XWyXoCXMEPEbBu4b5976s8LsLuLfAv02M50v1AHi+xYG/Oj04fyngt9V4skZh5+LlyfQcAa2UjS8nU8TCYQrenG6KRm7ChwThhGJvmD2E5zFNjG9W8P5h/M1vi/mOQqFQKPWy3fVyEzFuKwhvUITPC/jrPEzg2jTjf0uq6/cxibi7IOQ3/4QGe08yVatAuqsJN/vfBDy6GFVmdUZDl5SK5XimgCcNY4jFC2L+U878v8Ss3VFlkiDMEbDTleOdxMJHFX5V7vJzbcqe/Lua/5UaP+fAl5eifH7fxAG6VQoShVlpx9tjDRauWKvgHQIeopetnrywf3j148VXJwUXrZmeDpsc6p3XiPHjAr9ed7VjedLmLEwSC9OdhWUC/z6Fv1rBh1LXf3ULJ/zWKFgR8/eK+a9qxP00CovFOLtklcldPXm9f/wl5yLOFfC9Cv98E+LI3wl4wEh54t39fpaCn0gpqIONoFqr4LtdbxheaSpJ2sSCCHi8GnsUvF3BR3L3n2vUeK+A33IWjhCE7STipqWeMDVH0jiwEsI8AU8TeDZ844A/F/OvHa3uexHxXAHPUfDZwRVo+bQY3yHRwAbVo4tWaStZvLkgHCfg/0hVvuveHPxcl36H74vxHWLcS0AtgjNyLf8xaBpxUzF+UqwpGesr1fwe9fNSBhamU23WDqo8C94v4NEajawUtaQnmVICl6n5w6qtrCwreHfKG2j1rP+fFTQFPyHwhwr8S4q9A9NypI2JuD0UBTy3CU0w6wQsi/GldfdWerlIwe8PEc+vFfB2Bx7R0cdRbcbFVyeTBVQx7i/GU9NJuHfkNz8H0grKT8R4gYDHCOJtOpYnOfibAvaIywT8RhPAvkbBSwXc1kXMhN8t8JuL8UdDvYeANzuE/TujZPKo/9GepNCFeKoYi2LcQxGOVYT/Ufjb86w/16TSZ78V4w8EfJ+Lwg6lqJKDvyFuPLg0vQVfaPipb/yOGLfQyGdW4nHGdgG3V/DKYYB+VSniyxb213eKjFhlqiAsVPjNHPgGgf966vYnudvPJ1PXf6UgHN3Vk+TJvixsydWVNon85mL+yibMeKOA33BW6XS9IfPOLQHbFdw9pQWvHbzJhDcVLWwzv3cgk/fqBieJ+RklC/MdwsvVeLaavy0t9w20kHb/+sqxXs3f5CIesenl8SzXG/Jafz2sqydpK5XDdmr8bROyuE8J/LnOKvMb7s0Y91HwhqHq6GL+9864WcMyyyuTdkX8UgH/W42/SOPdp1tUyz9RMBbj5WJ8hbO8o290Lm45mSQIuyl4Y5P6sz/X0ce5TfnxPUmbqw7GuGVIrXzjVYKwrOFlURuYLgi7ivnTBOxN1+nhFtX2v1PAdzhwo0JO6NlwWxolU8TC6wT8XRM20BNi/MjSKGnuid2TtIvxSAXvGUZ8eakgLG2eJ8YZAu6oxndJVVnourTBpZVu/gcEfJ8Dc92+DbvZw3RBOFSqN0ajN8xDAp62pG/NmOi8WtifTHbg0UOx8dK4+uvOfKnpOZfla2YowkvFeKSAn1fwijTb3Qrg/5vAHyXweUw/vEx1ZYaCR6Y94I3eIPcKeFIpiueMJZ51Z5RMdeB7hiGr/ZSA56hxyZh48VVJW3e5MlsQtlTjaxU8RUFM9MEfAt4tvfG2OZqHylCXOUMif0xa+mi0G3+PgMeW+sLssSiiWKz2DJymYBgqHFHjGdIbzxtzZVXzMwS+W8zvkjY79Yjx4YmY7Rf4FZ1Rkrv2NW92hGkOPE6MjzdhA9yhxkMFftpY5VFrFBcUfoGAZw5FhRXjM874vlIvZxWtMuZ+S0cf20oRp4pxI7G4JAiHifH7Wl37tRPkAHhewI9oA0q549CND7MUPE2t4S78GgV/I8Y9x8236g0LFDx7GOSjIAjvKmH8SEBN71071Vn4L4H/usDflrYO+3F8ANytFnbPEf7iDRxxkSB8RBrft71OwOuchV3H2zdTY7cYvz601JV/TsAjl0bJlHH1A5OkUIq4sYN/rZg/R8FrUmGTZ8cZ+Cng+aUoV9+pxuygCvjFJmi0rVHjtRpx3CZWHMI/aMZDxfQPq4WDXLkOvPum7ZOwkYCvTrsjLVUAfmqcgP8GQdiltZGeJAWB30LBi9IRRA3lxQsYOYTtx/+BGbZRcPkQ1Yx1Cv5REA7qWJ5MGs+/t6snaSvZwIK0d/09Wm2i+tUYHx32qIDvbO2b3biFgN8dUvQhCxok+AMXcVspc9JE+JZqYQcFfzmMXMUNAr/fRNlDy1YkbQIuEPidFf4wMZ6Tkn3G2kTgNQKeX8JA62npd/UkbQ7cQuCtCR1vQcFLHLhFd1SZNKEOUHBnNf/HYfR5rxxPCcoNS2Zynhq3EvB1inCGGn83VoQ9BLzcRWGL1kvQ9VVUqpNgKo1PnviLHdjdXY4nHANKLLSLhddIVbJpKNBfKeYnLCnEWaVdLJ6lxg6BP3QDB39k9dwmxn1aBuhFxO0O3ELN39WERMvTAp5XumzN7BL8RPWcCtK7drIa/yvl3a8bojpxuYPfUsAJWyN28FPVOF/MXz8GknvPC3ic9rRATd5ZZYqALxfwtiZ86KcU/PQmPa0hTyT9yVSJwltS0A/FVPyxILgJc6n0rpmikV8g8CLG7QU8QY0rx5Bk15nSGyZ2HC9lzhBwf4X/QxOoso8I/CcLq5JJhRayjj5OF/h3pX3q64aILb+pkV807n5kkhS6+irTnIVOhd9BjPsJwgkKflXAn4qNvS49AX/sjG7CbrwSwmwBjxCwGWC/V8EPla4ILSlIULTKHIH/oFS16IfiI5zjesMmY/03LexPpkgUL9XqnL1jBPyEgJco+Is0Th/rNfk/iPmdJuSG04hzFHybGv/YDF68gO90Zc5tZX1xhd+oOoKKfojv9YyAZ0o0MKaabdTi6WJhC0E4QM1/UIxfSzkHN6eU23HVaivG5wR8nRvh0JKx68YjzNTq3LT7mgD2Pyp4pCDk88MLhYL0xvMEPGtY5BDjR5xV5jbrXbt6kikuClspwpFiPEvMl9MJwHen4pFrs3G1/bMC3q7Vrr2M9RLD+0c6U2BsJugitkvED6UncKP1525T8L/UfM5b/pekKTeRKqNxqO/3oAPf09HHhnw/7QnTBNxGwOO02hdwfZpsfCTlaGQVBj6n4G8E/qsO4a0u8ttJdTjHlumY8Wuzm8cXvqUICyfIze6nCfipJmRF1yl4p7N4T404KYf4vwPeFxS+Mx00sXqI7/iQQzi2iIEZrhxG9e8ujZKCRpV2AacqOFPBuS7ibmo8RY19Av/XtIcipO+1rq69EtV96BV8VsBrxfipEsJ+RRvYVI2zHfy0YhRPWrxy4EWhaGgvRaFT4L87jB6FkXgTNwm8G/ehphoXCvyXsvhIw1jY3xfBLXNoD7VGYVk6SmmoA/kJAd/jwA3O3pcwMFXMz1NjscrzD2/QqsTVTzLumaikM+LvV/AWMd8rxtMkCntpFDZYqqyrP14g8H0Z3PRB+sKOndesHp+baPHVSZtE3qnxwiZwmCtifqWzyktyOA/XC+NLU325eIibyAv4dQFfocZNl65nwk3x8qTg+lbPUIQuMe4g4D6C8A4Bv6LGX0g17s7Ko2OqkfcHBa8R+IsV4USH8DKN4vn1+VbhtekhUudbPhzvonj8eaKunLQ7hK0E/FYTwE4FI0XYTqM4FwvckI1s/uUpvXk4Caq/KvhNRXi3gAcq+EqF303M7yXwb1WEMxT8XjUm5hMZxt0hLbX+XMEfiPGzYjxGwN3VBuZrT/0z38XLk+lSnQtQ79/yPwqOr4k1S6OkXautmZc2oZf9eTF+r2Rhm07kMfuGWsfypF2isO8G8iOYAu6mNLl2s2Z3gyepB3KngpenZJqTBTzEGXdQ+IYNBRHwvAx+282CcTSwooi4zSFsK9XFaPRc9ucEvLiEsHlnlOQ3+8hvr8kOPKoJ7cm1Y3DzdwmIlFBzhJh/pYBbiHGeIDTlYBeEQ7PwTktl3zl+NksUb5E2JDR6xtsLCv91Vw7dC/uTXBhw1Ac3Zyr4s2YNZhTjnQr+r4KnqPHVYv4lzkJ3KQpzOpaPjcO8aANdGZFwDhj7sV8UtzlwG4G/pQlU2VCdB+/nuJX5GJ+6Ze7hz8i4XLo2raQMiPEuMX5HI75dMbCVGBeKca6C08QqY9JbK1mYKubvzADwZ4/17O40icK+Yry7Cey5ZwQ8I4dnFgk8nljnEukLKenqfoG/ToznOPBg6Q2Lx+n3mSTGb9V9Txt/PWYptoIwS8A3KfinJrh+f1fzH1LzU3J4ZrG2/pw6ZM//nE65NTH/KbVwcLGvUpoI30cR2rXahVfvG/7J0mWNn0g8pDlwroDHKnh7E8B+j4AnCjg7h2YG7ioGNkoHdY64b0GM5wt4gJRDsXj5+FXFHeSyq8qH1Z89+rxD2G+MnW6co+C7Uz3wRoP9DgHfJghzc2hmtpmPHwV/4qdi/vVLo2TC9y2I+W6pv3cbj6kwtcqL96enxItGD4e4TcAjnPm84y272PR1aS19JMnXP2kUXqFRa4xQchEXSLWaUG9KeP9YStJ9qhkdb2K8zSG8roR8UkcWtklPMtkZD1bw9yPliQvCxxxCywxJLJX9TIl4Wgb7/ZbuqNJctaGunmSKguc0YThEIvB3Owu7ljCQJ+iyuKnKyWQxHpImX0cqHvGsGl9diiotw4NYsjK0uYivF6t7I839Dv5VTflRS6OkzZUriwS8eBgKKfUX6jfe4qIgzio5oabO1l2OCy7iLIE/tg5z2f8o8C9tqQ+YJAUFd0zFVeoqsCrgKc3YEJME8VKt1hsbDfag5n+qqGyxNMoJNZmEZ+V4jlSTr/Xw2u5VcNeW+4bwTsHeDEaefauhFPHuqDLJgdtKVRyBDW+CAXsF8UtcOefFZ+LGGzdS8AMK//wwmlXuT2XJOMQgi4PGKjMuu8RdZa4inJkBBn7qosriBp38bJeIL5WqKEKjJ8E8K+AlAm7d1ZPz4jNZ3yheJOBHh3Gz/13Br6j5Nwv8EQJ+aYiE7ccUnNVK31J7knYF35aBB3yLgK9okJsSdhbwam38XPZnBfyGgMtyWGa0QSN2psnXoVpYH3AWjlLzG/9fVhphnlY1DmqRTXoFXNhyByj8vhlwUh4S4/ENeHnupFWWVaObYLyC5wl8dw7LzA7ykoJfHcYI5fsceGhnlPxHVUTB3RV8tAYt9G4xFlvPY+JLtHpB1lua6yy3MsOQ1pnfQYy/bYZwv0T8lILzc1hmtCmNXQp+fRiiJHeJ8YCuvoGp6/cQ4ikC/rpWa6tDvGNniyVZi33x/GGo/47k+V+xDJqLSlGlrRTFO6aNDo2+2SkIp7tonEn7jBMrXcY2Ma8K/ngInYI1Cv5OwFc646SuntqgVfgvDDI26X0CtlTirqs/blP4j2Qg1PortbBLfd82SQqCsEyMlzUY7Ou0OufrXRpxeg7NDGxl0iYRtxbz1w0jE/8zgX/FcGSSBeGgwQZRKji51T61VrtG/1JnjDwg5t9UXze+HGYp+N9pv3KjwL5Wwbud8bhSC1ExG3rr9CTtJXBHNf5yGG2sfQ5+2DX0UlTZtBYjT8D75LLKtFb73hJxx1TTr67qPwqeWooqdTpAVyYFh/AyBVc1WC/+No14tJSZgz0DW9ifTHIIr5bqMMW1Q2yoS8W4zQhutD/XOsxdX6yt9s27y5yvIDLAy4UOcX0GepYQ5gj48QbW2tcq+AeNeKj2VWbm0Ky/LY2SqWI8IL1tBiurrhXwu87CiEqgavzOIE00R7Zi+KTguRnE8T9RcOv6uCHgVgL+poEdb38QcD9XDtNyaNbfOvo4zYGHKnjjEGBfLcZvaEQZccxq4Z2DyDR9rRW/v4Jvr0NPwn+USAXca/S3e0+YJMY3NGrem5i/UxDvVIKfnEMzk0zxVBfxUBm64y0W8EsOLJYw8r51LYcdBgkXbm7FNRD4PTKQexsQhDd3Rsno5LhdxLkCXtCggY63uHLYxpVzqmwWVrLKVIdwhMA/NASH4nmNeJaWw2Ips210m5ubpnLS6x0xPVG06zYojo/WbJRB4i5R8LMCPzqFJ4VfrPA3Zt7eCn+twC/NYZnZrTJTjCfJ4J7aOgUflYhndPXHdVELEuPGYvxebYp0OKwl16PaWVrvnNgVYuwe7UZZJvBZd8HdKuBeY2V4wMTbXGF+teNtUBd+nYJ/FfgPdff7ulVFigjTXfXfrlHq82e34po48+/JYGrPXwXcujCauQvOuHfGYB8Q8LPFXFk2o5udHQp+Yhgdb/er8d2unNQ1UbqkJ2kXC6+p0TK7VsArO5YnLadQJFHYo1avwWiqWw7ctwth5BenAw/PGPCPCXhsDs0sssHepR1vTwwjw3vcJj3ZAE+N2yl4Ry3vroQgLQf4/niugndnoFf/UWejoJ8LwpEZA/6vAn9YDs+6x4iq4IXDaG+9Q8y/RfsqmfUoOPhiqpmw/vU3HtiSB7LV/CajAXwkNgqimoCHZAz4pwR8ew7RuoK9KMbvDiNG/IOAB4sxU75DqRzmCvjpGu/wtIKntyjgP5iBkOvfBf/UJtjwzVMO+2TNqhOEc0sY2CiHal3AvkCMfcNgcq1S+NcKsu8+LPZV2tT8W2tkpdcq+P3WTNxxt0xYqha2H0UcyFIDFG3uEHBfASflkB2ZdUZJe6k/7pJqv8O6IXjx14pxF4VvGN9Bze89SBz/s1IvW45XP/madZPFhtQd2ODHIbx3FDeGXyLmb8leU55XCLidGvPS3Ia6zPCTncU7Kfyvh6qIKLhCRnMDjHgfhS0VvLzGe90uxv1ace3E+LMM3PofjiaG31jBSxrEo/+hWMjJNxviFpbDVAFfpcbrh6izr1GwVyO/RXPc13jjQRibj4vx3S0Zx4NnZgD4exb2j3AwpyJMV/B9jeqSE+N3FH6THMrDWJu+ynSNuP8wOt4qYry0CDaNxupWJu1iPKWGausaBc9Vi1uxP/51Weg+uqgysotTENoFfE0DB0wMCPyXi1ZZkEN6sGQqZ2jEQ9KOtzWDS4PxImfx0pINNDsrfcggai89DqHlhC1dFGQYpdORTJY9ajRu/XZS/zE5gz3PCPzZHX3Mp7+ubz1642li4c1STYINJlzxgoBfcaBzY2Dwg1THLdVS1rlB4PdoubWE30Tgf15vBRwBzx9F/MVuAXsaqmNXZeB9tDNKch27F9+SEds14pEKPjhUx5tYOE+iyqYdfRwT3YelPj9fa++jh7Xeumzj4Yavist8KQNNiesLI5WuVvOzUz27pMHPow48uTMamFnoyefGKcI0Z+FtMniNfZ2CTwj4aYlWzxlL8/a6+32bgGfV4NWvE4RTl/StbSlevVo8Rats1npLvv/FGbcc2VslSUHAI5owKDJR8GExntBloaVBL+ACRfjoMEREH1Lw9K6esdmQouAx6Wiq9b37NxVh0xZ063cT+CfqfVkq+OaRv5RxLwVvbwLgEwXvFeORWVNAx6QlSUHgOwU8exiTYB4U+PcVViVjlsCk4C4K3lrj/X8h8Nu0HOCNm4vxujpj5gUxjrz12Bm3UHB5kwCfKHiXGg9uqZ2wKmkrRVSB/8owMrl/FvMnFZKxrRbk+gfmKfiz9bmwAj7iwL1H1c89HuN44yIBv1F/yjr7i4hnjCzhgspGinB+RmBepeBlw+jZvs1FfFkrbILFVydtpTKXCvxFw7jZ/yDgMYJxMKgjSdrScUtxjU16rANbKo7vRpgm4PsziON/6xBGRrRy5aRdwQ8OY+bYCIbh+U8K/OZiPElsyJvsOrWw44Q+8ctJm6AiAl6q4HNDfI/fC/hGRRg3ct4CnjTIIXaughu3EuALK5OCgm8YYsT2SJ571MKBo1gof/AggwVGo0H/ka6epL3UyxmKcOIwpmxcVQK3mqjrvzRas0ThrxxGx9vvBdzPwY+r0qWrqr08WKOn4qcCdrZaHK/gbunMxrq2nqv5D40c8FHYXlH35EKi4DdcFDap/vB4ukbhjKH00hXsL0VhqUQDE0bh1lmlzZVDt1YnwQylP3ejs7C72Pibz9ZxxZpZtdRexPzjYn5LVw6tlqkvatWjqzef5aJFfetG1gLd1R9vlLqZ9Y41rlGEbf658f0cMf/JIcKHNQJ+X6JYNIrHfYddyQYmOws7Kfxw2luvKYLLxvUGN/+jWr9TIh4k5dBSXZOdUTJVED6TwaDWK10UNh/NSfT5DOrx9yv8Pv/q4vhNFfzqEKotsYAXSsRid78ftzd9CWG6s/CqdLrP2iH6DK7SvkrX+L/ReHJtLyZ8VqPQesKW4PEZxPG3CvxrRhNrvFXBBzKYfnmss8q/1I/VwrK0NXewm94L+IVSVNmkMxp/5RyN/EwBDxTjb4cAOwW+p1gOE0IoohRxt0Hm0P9U0XqjwRV8tYJ/qDO2nhTw7cMZ710j4cKdByFOjOIJnxOL/1XmKkkKDtwm5fEPpo3/nICf7+5fPa6IOS7iDAHfpMYbh5wEY7y4hLBsrPDiRx3H93F2LW6BgI93R5V5rXfDx6Lgigzq8Wd2X+ZHVo/v6gtzFVyZgdpmnxiL6ylZtEnE7RS8cohE3jNi/FChJxkXMllinCLGo2Vo9uLTCp7vEKQzmliDOgSs1SW2zlm8e6sB3lllWpVeXN84XsBLXcQRth5Xx91eVO/hkmK8p9b8cbcyaXOIt1HzvxuKRy7m3zPW2WZp0upEBf82dJswz5UodCzsn3jz9gT83CCTZT9YaEET44eHQbTa0OcGMe4ymljj3Rm81BqHsHetjb2wP2lTVLaUGvXbF5Uh7lX4t47ZFU2SNjF/8jCGQzyvxnO6y2HjZSsmJtXUId5/EJmmnlYEvIt4YL25LlKN4w8YTaZ+50E6nkYTx39EEWoma5ZGSaEYcQep1nAHi3nvdvCHORs7FM1lK5JCdzlspMazh8Gee1LMf3DuX1a3TWReeak/bFpLtVWMDy/5+eqprQZ46Q2SAQEnUeMHpDeMLBHaGSWzNAMFHAF7hxp3q1E8uSpp7e8cAvSrxPj6UY3dqZMt7E/aJAodAn5xGJ7RAwJ/UktkpY3z1GrG8c86i3dquSt+ZdKuYDmDOP5iZ1w8mvjrh/Um4Aj4F1fmkAKWCj9dwDcrOCjoBfy5gK/UyDftpu+MkjaHICmnYCiw3ynGY8Rao3lEjbPUeG7NMqT5d7VkHA9+Zhi6BxuaI7tejJuNJo4favzwyObERxyWZrrrDbPVeLzaoPHOOjX+RIw7lnobX87q6GNbCWGZGv/fEG78OjXeKMYjnI2fJphRu/RWmSwW3lLj0F6txm+2ZBxfHe/2WJ0B/5SAu7iRhogO8WDEidHc8icM+9CJ/EZSldB+cIjmnBUlixsu0VwsBxH4Hw/BTFwrxhsEPEgjP7OVNvbC/qTNGXcVW28Cc52Cv6nnrPrxYkXErso+rTevPhypUWVkvRelqDIzg4H2iRgv2bCDJ2ws4MeGeJc1Cm9FxAsb5q72Vbqk2vE2MDgpwt8g4L4lhJYU61RwMwVrTcy5R8DtW+2bdEbJZDX+qv49K+FLijCKybLmV2Zww981AhdorhrPGyLRERT87tIomZP9Cc1lKT109eAnrl8lCDtLmVMKLWoahUUpr2N93+gRMR7dmnG8/2r9E3f+FwI/bxSnc/h0Bq2ylc4yN7g5RI1TFP5bQ9yoXs1/Q6KBeS6DcpeLOEks7JxOghlq7NMNEoWSs0pboYXNlcM0Bd9b4zbzCn+eW9l64qUO/rAMhri+4C4LXaM4hcJ+GbTKrnbgiPTJi5dzYzF/6RDCEc8J+AVXDgvqWeMWC9ME3Detoa4btMPP+FMH31HI7R+32QECPlUjxFteWj7QenG8VbqHIYCy4bd8FI9CAacv7sqAcbdWwHNH9EI9SaFowQn44yGabR4T8OOlKCwYcRfRvx58MwXhYBmaMPFClWsQqysnbTnU//H9uLNWW4PXSwt1CNu34nfJQF0qUfCs0SzUPKm/As46Ba9zK0fWBNOxPGlzUdhWquSFwfj+Dyp4siKMKqYv9XO6gEcrONRI7WcU/LaUw2aLr87B/m8bu1vBH9SSKFfjm1ryuxi/mwHgrxuFG8tZUk2W1ful7nOIu0ceFybtrtpvffUQMf39Cr5dMUJiTpK0pfHnPUNqi4EXSMSly1bkYP+P9er30wX8dI0k1fMKfrQ1PZ/wrgyw9WR3v589wsRCZbIgHJHFiCmxcMBoPlZ3v58s4J7DSKDd68wftMH/wKpkksC/N530MlTH23lSZnc9wocJaUlSEONxNRqK1in4/7qjSssNFpVy2D4DyasBAUc2tLMzSgpiYRetkXAZxfOcmj9j1IkPxJMdwp4K3jUEBfceNe423L+7+OpkqoIfHoLwk2aZw3+L+YU52IfyFv0+g4RFVzr4LVvum0RhkdQerz1iNuuoWo/FuEyqJIH6vhQY1aNkVbRKuzPuKcZHh8gb3Cq98U6lqDYFtwRfcNHq2WI8M72NBjtEKmLhXdqihJoNzoWU46UKXl7je94u8Pu1YG5jrlYT0PXNkRl7R0Gx9ZsIeGEGbv1vncXFen08Z/Frh+AnrxPwtw7cXSM/9T+9BU5yYJcYvzSMYRyPCcI7BK2lvDqq9SknU7U6bmnt+j0+nrA0aq38h4DTpDr8pd5s1ntKlw+MLEQSq0xThPdmEGvcLeBr63dahinp5NIHhigJ/lrhj1LzW4pxE9cb5juwU4z7Cfi9Icp9axX8i4DHyjgbDjE2bjR/Su0ZeuFzElVmt9L36IySNkF4VXU6U12x9ZBDePloygf7D0PBZUOfxxX+A3WOE2enWfWhpKWerWrl83wxnifgd4eh1Lu2OuMtHOGiMDOH74gO5f1rDahQsEdAab3cBrcRq/lNRvo8LeB7R+N67Kzgb+ueTTR+rd5zzhVhgVabbR6uM1noRge+sWQDM3LojtCtj8JmgxBwbhZw1xYEfLeAUf3nOY6i9dghFAX83wzi+H5Bpe5zxgRcLODn6+iV3CvGQ0pRJXfjR2Hd5Xiawkc1wsMXNOJBbmWLxfFR2EjBMzMgt60csRR4EZXpWlXpqDfgf+fg98woIbJIzF9QB2WRWOEvci04OCGjG+2ztZKiAn6wGLGlPKjiTwYmacS3ZqA9cauDH5nH1NWTFBT++NoJlxE/fxfwqMw+Zl+8iRqvHmXC8TlpUUnlTOJ442EKPlID8N9y4KKW+iBJUhD4V2XAq/+7gMeO5mTeW8Gb6i55ZTxD4TMrbyn8ZqOM5ytq/Jbk9fb6xPFGrUVVlmocv6zVvokgbKngFXXGVlDwC50jLXU6UBVcnoFbf4nAb5rxrfKlUb7j3wR8lxhLYn5aDttRu/W/qEFqohh30yhuqTi+VA7zBTw/A2z9uBQNjCyO7+rhdKkSJ+oqbCngz51xh4xP0O3rECM9qWCkxvcJuK9Y2Fx71k3N4TsiwH+5tvhDOF4RJrfS93Ark/Z02m69++N/peCOo0mEfSiD/vi/Cfj6bAHvZ+rQM942ZBLuvQr2K/gpBQ91xq1yl39DPK7w5kFam78hYMuVPhX+jem+qie27hXjoaN4KR44jFbRDa7HK3iC9mR3qgv8tEH6sUfbE3Bvqm93gZg/ThC2KdnAlBzWg7iwUaVUq3oixlVinNuCXs9OCv6yzvuTCp7qVo5wSKlDvEUGBJxEwC864/wMP+ZUAb+QAeD/nezwoII3qvHHAp6ovWHLwsok59v/my3sTyaJ8a5am7Q7qnS03iHIhVod/lLvffk1sTCyOH7Ta1ZPFeNlGUykuUJAzc6F9FPU/JkZA/7f3f6nqrx7v0LA97m+sNniq8fHqOvGZKZ9bY8r8ge22vfo7vft6VzCuM578Qq1sNXI3ipJCikr6Pn6vpT/q8Lv1LE8yWhzhamCcOEwGUoDqSv0Qp2aGtalB0As8L8X42eKVtlWwI0FYYb2VVrSA9AonDDIYMRzW/KbGI/NYIjr3WJ+n9HclofWmaeeqm2Gg7r7BjK5ARWcoeDKIUD5vIKrFLxIjacJ/EkC/2UFb06lsp6ro2ezVsAbBOGzGoX91LhMwPkahUmts7nDNrUqPgJe36LVi90V/EMGObJjS9EILxbXW1mWhdqmIPx3Vl1oDnHHENWFJ9X4ZbXwH6ornb2r56pxv9Sz6U8X5Ik6tgt7BX+n4JfU/BHO/C4Cv2jZiokd+6v5jdX8fTUSd08740YtF8f3DyxIuzjrja0zHeKRfc+F/ckUMf4yA736Ps0ocScIbx607dX8551VNh70j/QkbcUozBfjK9T4fgEvTkco1XMoIKXqZXxDjCcJuLdE8ZLi5RMv9hdwloC9tVhiYtyn1QBfSJI2Ab+ZQX88FCyN4nTm+RlMzfibgh0Z3SaXDvLv3qLwGzyTrjuqbKwWdlXwaEU4R8GfKPhonW7+f4QYNwv4QwHPUOMBgrB4wtxm4FRX1Q1cvxtq/FiLJjNPyYDrcocYtxvNjfnWDLKJaxzCHvX+gK4c5g8miCEIHxrN3+9YnrS5cmWuglsLuJ8inKZgn8DXUzDkuVSo8xqF/4KYP1DNj2vwd5RDu4v46hoH5FqBX96agA9HpRdHXXn1grBvZzTCMLGEePMhRiSPUIsrvL/+2WAeVLOqYJ4lC5vX699atiJpU8SzBL5TIr+Dwp8o8OU6u/0+zeSuUuNFgnBIZ39lfmHVOOsjX5kUBNxqEHbZ7UXEC1rwhj8pg67URMAPumiELd5FxO0Cf3/969f+x/X8eFXNMF40CI/+GgXnZbFwXdeEgsJPEfhZxYhdDjxU4L+rxr+nnOnVo8yD/KOE+IKaf1DAHmc8vKt3YKHATxfzk0rwYz0r3SnGvhq/7wFBeFUrgb0Itgt4XhaXqRq/r8aNR7NY383gFHqgM6pfgqqI1YsEvK12KZCnuogN7X6bvyKZ4cDXKvg1gb8pZec9X7esv/FpgS8L/DsEfnsBN9VyPFP7KmNug7vIz5FqP8J6ddnUwimtAvbOKGlz4E4K3pgFGUyMfxLjyLtS1XhiFi9WQsXVbUMhvLEWkUHAZ0pR2HN+s0ZDrUwKnX3xxgLuJ+BnpdoP/cc6u3OPKbhco3BqqmewmSuHOWNlaEZnlExKJxtV1p+485cs7J/41GQpc4ogbKvGHwyhmjyai6CiFo9ca0CM29e7VTZ9sbfUBewrk/Z0Lp5fP+D9TwR+zKikdkeVeYLwSjGeKuD3U7HHeib+HlXwcgE/JZE/TMAdSghzOpY3N/ZX4ysG4XWs7EZlk4kK9BLCJAduJvDHKnhVBonwf7vlK3uOBvAbiw0pBz0S1+P8+mTn2SHVUtm6Gjf8pxz8mOvKWtKTFDp712wkxt0UfIeCX0lzDY/WifuwNpWY+pkYLxDz7xKEXTqWJ01pSVVwSwWvrKXLJuDLJwrAi32VWS4KWwj4WgHfqeA5UiVzPdyIHg+HsP8o3GU/Kx3ZXG/A31CfjeRfr+CfamniC3hwKUNprbok/nqStirn3m8r8PsL+FE1XlnHss3a9G/doFVV4pMduJtaPKtx7mxYoLXVXh4U+OPHK8C1J5nhymFnhX+rwH9Wqt1wK1Nthke1cc1cVcBHPGjkCxX5aQr/sQxe7AFnHF0cXxUG/PggTT7XKcL2484FjDhbjaLm91DwJK3qmT9Wx5v/CQXvVONVavyEgLt3XRUy7e2X/niSVsctrY/IVRHwnEIyDkqOPUlbZ5nzSuBeAp4i8JemTMw/1T0xO2LAj6Lq0dG3us1F4dVZzLfWiG8cXfY3bJr2Ftdy579aKsfzxuvNIQhtCk5TcJ5aLIrwFgEvVfNPp5tqXR3A7xV8XMzfLOY/VbR457m9q6eIsU2sUtCe+iX+FP4QBf9a411+VMLAmIjjl0ZJQaO4IGCbwrd39a+doYj3VPiPC/zlarwvPTSfz4CJOuqniLDF6DaecUuxusvyUMCzRwV44z4C3lrrQBFw3LqJg9nCq1fPVIT/EvDr6e9/LAVuPTyANWr8sxgvUAuvVYSii7hxVw8njR7wYceq17Xef/f6pk2kSZJC0SpTHPwcARcpwjKNwv4CnqXwvxCrd5t4hgm7qpRcxyhvGt+VJh3q+XJrBf4qwchcSbHKZKnOl3uh5gbagFnx49YLsMrGgrCvgJ+XatLvLgWfqWPsf5eA/0+MB4tV6/0lDIxI1FOisMkgEmR/FfCwhn233jBFLSxS4xYKv7tUvadzpXogPTVeAL4ewC8XcHTMRYcwV+o/JidR8CZnIxssKIiXKPj/anfG8TulXs4rtJBJfzJbLLxKzZ+hoCn4+zq2+K5W+NsV/JYgvFvAVyuCKOJhaxS6lUm7ViXI1ucGxwJ+uKs/ziSXULw8mSzmNxXjzgIepOB71HihGn+u5h9rdtxdR8B/XIyjaz9XiycreFQGY3LuFeOISghaHXy5qnbfuz+l0KLWsTxpK0bxPIHfU+BPFPACBa+tY8a4kiapegT+DAEPkoi6+Opk8tBJVn62VluogD900SjaO19k3eV4cikKnQK+XOCPFvATCl6SSjo/MhHAvZ7nKQH3LSIefVVKqlnJ++v+guY3uIutq4eTBDx8EHf+NgFfWcitUEiSQsm4sYLbC/yhqeT2VXUE/0AaRlyp4FcE/qiSxUuX9Pwn+F3kuxTsGSTX8JCAb3LlkSkbK/wSBfcS43sF/mupkMnv0+z5QMZgW5OGJX/NmlgzmK6dWJ00I121LfSnGXykb3b1bBivXszPE/CLtZpNxLhCEc/O0f5v5b6eUHAW5gi4mSDsLeD71BhJ1e2vR8IvTluUfyfgJYLwdu2rSEcfJ5fK3ErALw1BKV4n4G/E4p1cz+BU2016krbu3oEFYtxHwQ9Jla76SwXvSJOYAw0A2CMKXiPgF5yFg9X8btVQp6bgR5YPBXyXINRnaIpEYZGCX8/gRa/U3lDcsBCDqsYbavy958X46RzeQ8a0bQ5huho3KfaFzQThmHR++ZN1dPufTHUC704PgueHdwn42xX+7YWV/3oRuJ5kjlh4uYAfFvNXiPGelL32bCMALvCPKHiZIHzcVROlyxRc4iLOXZJeWgK/jYJXNwHwKzWq42QnjUKbgh/IILnxB7HhEwW0d027WrzPIDfS3xTh5TmkN8BWJQVncbuAk51V5juLD0zbje9MVVlCBlJnw5EAf1DN9wr8BQL+PM2eD6SeYRbvszb9rc+myc7bFPy2ILzTWbydwE9V+CkOYVIxitterL4sCG1iQbXaH9HoBOBTajxJI9aXuCTgYMSJETd7CPw7hu/Oh+liNYdNrBPjb+evSPJxUPUIAeBnq/l9BP6cdDDJvSkY1k6QJNfq9ED7m4J/FPhrBP5sZ+Fwh8qyhf3JsCsGakEF/F4TfkNFwe87izvrX/YBd0mznPWO4z/XHVWGFXt0W9hYrKbE74CCZ+VQrb91XzYwR42vEfj/Tl3/mxR8fJyBf3Uad9+Sxt7fUfMfFfAgF8VLl/x8ZPLpar6k4PelOV7QzxTcM5NFL0bxYgEvzeDF/9dheCdU0eKdBqEz0hlzdz7jrL+Lwjwx7ingexT8nzRZ9tgYBHglvb1/reCP1Pw5An+Cmt/bRZVu7UmmjP4S9Lso6i8SM0wlpKsEfHWhJ6MehI7lyWQFz85AXvdXYtxlmF7GGYNN3+jq4cwclQ10+6PKRq7q+R0lCJ9X8Co1PtKkm38gDTtWKMJXBeH9Ar5RzO8qFjrFKvWTAV+VtAm4d5qgG2jCb+1T40szX2CBf0cGfb0Pqg2jpS9J2gR+1SAtt9/IIdgc6+pJ2kq9lbli3NIZXyMIpyhCpMbHM77B70zLYJ8UhMMVfIWY30IRL+jqSSZn9FvbpSpf9ssMLr8hb3Yx/kiML2nIwjr4vbR2w8qI43hBeHdnNPgClXq5RSrlXAPw8ety6I0B60naiuV4plroEHAHMX5BbPREHwEHBPyTGr8v4EmCeA8FNxNwU0GY0xmtnlToyVbWy5WTSYLwulSTrtGdcmur1GZu7iw0RuOh2Bcv0foTcBIBL3CR32TwDD1PGYSW+cComwZyq3+yb0UoiHGawL86LXOt28AN/nB1k/s3qXkRcI4aZwj8lM6ocf3zHX0sSDQwVS0ckNb/Gx2yBDFe6BC6NPKN1Q0Q+G9mELdcq+CWg8SKU6T636yr4c5f5IwzcoiNWZe/XcFDB9Gn//fnBYHvV4Rdx8L7O4unO/DNag1XsFlXbfX2X5Aym6MXoOZPzkBE/+8K1pxI46Kw7SCbZY2Ab3ItNJV1PJogLNDqrL6hXOEnFfxK8fJkTCRgFX62gMcI/DNNSM49qvBnDjkTMds4Puyj9W+kqYIW6xdaSHvfn6pBefyLwG+ZQ2rsm5p/b1q/rzluS4yfdzY2qi0lhPlifJ/AN6Ps+LggnO7KYU5TP0Ixipek2ur1/oGflYhz/vOj++mplNXqGvH7dwR+cQ6n8XDL87Ah3PofFMGurJNvw3Pj/eK0rbYZ7bSPiIWTl0ZjgDXasTxpV+NlGSQulgu4aD0fftu0zbFWwu/EUjlMy+E0Dm746tCQWvr09yjC66U/bnpoJlHoUPBzTSIU/U3Ad7po9djhlKjxk/Xu+xX4vwu8W0+S8Li0p3l9/78/q3GvFzcy5DaWAe8/MEj+538VcbHZ7+iMm6az35ohdXWPgG8tleNZXT1jaE+L8fXDbHfcMJ07416lnvB/ZYeFV6yb6owXDjL9pkejIDmUxr65cpiTypKtr9Ky2oEfWWCrJzfr/YpXsCDwiwX+4sxGQQ2ejf+TwL+p1B+mFlaNsQusu9/Pz8TdicLHNPonqcCB26YNAuttHhCE0zqjZEoOp3ERv++m4PU11vJPYnx9015uZVKQiEUxf2WTmnquV/DVY30Bf5XBj79Mweop35MUFDwibYBYv/tjPCCH0ti3zihpF/DYQTL0lwma46ktW5G0lcCt1OpPKBtmt+g140JhWa2mzNRoGHcPyvLK9EKhUChaPFONnxmkbrtcjctyOI0Dd94qGwnCF2uyyMBz5q9IGu7OL+xPJmkUdtPqfMI1jabKivFyZ2GHcbGIAh6cSXNAOd6y+vfD5lpbDz9W8Asuz86Pj71i3CZlU65vLe8T+MOb4HVMdsZXpe/V6CaY1WKERn6rcRSTxV1qWXyocHw1o8vBCD5/FfgjcyiNfUuHZe6fqsusby1/7eC1oWAHp4jxdWpN6XiriPESZ2HrEkLbOAK8nynwt2bg1l/hquSecwdx53/tEOfsunFgGnG21tYxqCj8Nzv/kbdpxL7tj6cKeECqnNTojreg4EUOYVnJBtrH1UI6C9PEeHEGH8Wr8aZBWmEHFPxOCQOTcziNi9CvW6pa+Otby8fEwrGNepcSBiY5hP0F/t4mdLxRwK9LxC5nlfbxt5BRPEkQjmtGQ4EYj8uhNPZtkVXanHFXNe9rrOWd2ldpCNlGeuOprkrtfa4JNfanxMI5S6O1c1w5jM/FXNifFEoIO4oxNPgD3q6IN8vhNA68QISpAn6o9kBR9jTkPSLOFQvHZEAWG6YyMz/pyhNATVngnaCmimw2dUvzUWbCfbnVd38Y50ht4lTsjMdm/w5hoYAnN4kX/7CCH+7qmSDkMAE3abBqJxV8Vw6l8ZLniTcbZAbgk64cujPOM3WmHW8PNQHs96nxA/OuWT1xmKAShZkKntKwj2h8wiHnzo+jG/6dgzRL/bSQZMQZT1KqbHUG4aNNAPvtany7K/uZmf3Gppzg5dAu8Ael5YYGAN7/rGuIQYO5jamQ74raoqP+/ZmBvZ+dWh2X1YyOtxvV+CY1zpqgi8pdJBtBjPXdCqfmMBo3l8GidEbb+jy11Q5h8yz+XS3HC8T8jxT0jQa7GG8SC68X48Qdd6agNGJEroBrihhwOZTGzb44upZmgoA/F7Cu0k2dUdLWfdnAAgVXNoEXv0aNN2jkd3U2wbUVFX6Ogp/JfsKov1Hh88ky48DSYQ0/rgm8KJymUZ1mmRcKhe5+P6mEeCu12srGWYJdjD8rIbQO8zNtfXw+4xu+V8B8Muw4sBIq3elc+PUKVboo3qNjeX1Kq1398RSJuIfAX9sEquwagb+mZAPFllpgBfdV8I6MP+4KRcgBPz72w1G1suMCrhRjqS7/Tl9lmkR8jVbnxzca7AMKXiHWgj0dLuLWCmatFnKfs3ijHE7jwuP7xiDx+6edce6ovYheThfj/ul02GY0wfxYorC99lVabx5CV9/AXKmODs60h9hFfEMOp7F++PuSgtfViKWfVuMbSj2jm40mvfFU6Q0Hi/HmJiToqOB3FNxaLW7N4ScL+5M2Nf+R7ON4/8tST9gkh9WYTuIeMoj2/C8FfvtRexDGw1KthEYn6F5Q48XOYinBtzYfRMwPNWSgPuIBYOSiuKjgZGehbUlPLlE9dlz50CbwZw/izn+lVPbzR/H32x38YQo+2wRCzQtivLC7t7KgK+/lKBSche3SeKoRH/9pBXsE4QhnYTNFWFgqV3K5q+YDXhW8vNaaCfzbRpEXmCMIH2wS2J9R8JP5Cr84ju+P5woYNdrNEvABBX8kUThBjbsKWHIIE4vDPG4OfR4g4F011uq3irDHBv/RJCkI/CIBP1mTuZe5/oL/RCHJb/X1nML+3CaI+L9YaOCvCvYoeJrC7y/wW5UQz+jK3f4GhHSVqQKeXqOvYq0aL3G98YIN+qOrkrZSmd0Cf1aT2lv/LOCpgnwUeY2EDd+W9gAnTX5Wp0mdK8R4joBvVQvbdPUkuduf2WEfdyv4g5ohmPlTN0THoCp+GYoCfjWD8eTD8RxvE/B4V2cK8MRa9CjeQcE/jQHA/7vY/99TcsbFAp7ojNuXenIST10Pe+OeCt5WYw1ukw2YrOLKSUFQ6RTjN9P4udF75lZnPNxZmJ2v7KCAH5iuxquaIBC4ITf/IwreIvCRgz/FGXfI47PRWQl+slbp1XGNLrIru/oqw87OL43WzhdjXxM63taJ8Q8C7l8C876N4cVy/oODqJyMtZv/2epkWv8rhf9IyeKt8hUc0ZpvouDXa3zn5wX+s/NXDO9QdeWwSMArUupqg8Hu/yjwLysh5PMKN+C0X6BWs3FiLD9rFYzVeKuAZ6nFL1OExc44q6uHuehGDZu/IikIuM0godz9an6fIfeNDUxyFrZW+F82o71V4Fc5qziFz729DY/nwilj2K3fkAPgj2L8ojO+TsxvJZHfpFj2+en/4uRa/8AkF4WDxda73usU/E0Jfs7gyd54qrN4D6nmWRoN9liN13RHdPlqjtC6e7hQjLeMc8D/2yw7f5OCFwr4NjHuqQhd81asafmbX8DZCl44CDPyvEHBHvnpCu6nxl804ZJ4QcCeosWbL8nZc6PK2Lap8fAmaYo1onniVgW/L+CpYnytQ+jepCdpyUYKMS4Uq0m2ed4h7Fsb7GG6RnxDOh99XRPYc99yUdhiYX8O9jpk7P1GAv/FhglcNu3m5+0KRmL8nJg/RKO4W/pbB/wKv3ctN1zAvxT7KnNrHBST0iaYZniCTyv4NYm4zK3MwV4X6+hjm0NQMX6nCXFZM1h+XsG/KPhLhb/IWThKooGuFsjQnzuIqOO3a2bjLbxFwXuasFbPCvx5ErGrkIO93hn7gXZn8XZivGwCJPE29OZ/VME7BPyxWjhGeuPOCXrD312brRbesH6w89iUBt3odQmC8HExPz/vtcgK9Ba3lSzuSgUynmlCrDYW6v2xgk8K+FNFOLm7r7JMwdkScWpHH8ftLePAHWvNVxf4J0r9/BeFotJlYZoz//5m0K8F9GLhnZLX2Bu0OcrJdDGenMa8a1oM9OsLAa7TiB9zEfdUeCfwGzvjuIr9Ffx07bX031P4af9M5PqNxHh6EybBrFPwIYl4nIs4KUdi47O6O6t5KHhfE7TIxuLzvML/SsCzFf5Qgd9RIz/mVX3U4ulSJcms12NzCG8rIUxafHXS5hA2UePHmwD2tWL8k7NwVMnivOOtaW5+3+p5YjwiHQe0qgkzu8dyye/3Cl4g4PFi3NtZ3NE1Bkt+grBL2pS0/t8Sxbt29SdtxSheLODnFHy8CcMhbhLjYaXenBc/Rkp3YSMFX6HgSQp+TcFfNbGffqy5/M8reLOCP1TwDAEPKEZxsTuqtI0NwPPDg6nPCPyREoU9BPxyE/gYqwX8jYAHSjSQ3+xjzbp6knYX+YUK/1KJ/JsUPFvAXzZJzmiMuv28S8FrBTxPjIdIOXQ2q8uvM0qmC1geIhdzu4I3Zi1sWmMSzPUO3Lu7HE/N0TXGreO6SrsibCzGpRJxLwE/qsaVYvnN/yK3/4EqmPy3Bf5IV443rdckl2G68zs1iTAzjIGO/neCeLsSfJ6gG3cuf3/c7iJOV+PGxfLAMrXwATH+TKox/+oWq+2vz+0fSPMfD6v5fgd/nPStWSLgFEGYJFZ/979jeVJQ+Pc0SXJqqGan3xT74m5Xzgk1E8aWrUjaJAqbCvyxAv9jBe9ME0JxfvszEZACXisIpwrCLgJ2KMIcRVwXEJTKAzPV+N0xxqegGq27P2xaWJUTaiZ2xr+X3Qq+Rc3/j4K/Sct9Pgd/dXCjgNcpwmfU/GvUuFUpCvPnr0hG3OWnxt2rCrRj5jc+rcaLxXwxR0MrAb8ntDkL3QK+SYxnC9ifJo5y8IOJmn9BwesEPFfAYwR+DxdxsWD488xd5GcJeMYYKqM+ruCX1PJe9lbP+k8WxF1ifJ0znprOArslL/n9s4FEwd8peImY/5DA76fmFw8KduM0MR6o4B/GSOjymIKf0Yhd+Y7P7Z/Wk7Qr4g4x/woxf5yAFyr8qvzm/6fbn6rNlgU8U4z7lyxe/K9xu18i8Cemh8RYSJQ+K8bTnIVF+QbPrbbbH3Gyg18k5l8i4AECniXgDTno/4Xs8xcxXq/gdwX8msD3avUbPTwWwC5gLOAJznw+Ojy34VsR8SSJOFvAxVKOdxPwMylRZCAH//+V/OKx1Ogk8M85hGNKCPlAkdxGcfP3rykIQttGP1s9qbs/XioI7xXw6pQr/lze5NP8GrvA31eKeEBXXzw537G5ZWJqXgX+JDXfkyb9Hsrr/U0YHmK82YEHdvQx72XPLXvr6OPkIriZVKerXKjgNQr+uZb4Q/7U7ako+Gsx7t8ZJfnNnlsTbv2eZIoiXibGQwT+M1ptIrkzv/nr/gwoeK0ivGZhf5Lz4nNrvs3/yerJYmGpgPsp+H4FL1Hzf8xv/rokDa8S+N2WjYIVmFtu2SX+MDBVjJ1ifmcxHp6WtO5Qa3k5r5GU3lZIxK1yocncxoV19XCyGOc5cKmLwmsF/LKavyPP9g/r6RFwWQ723Mafy78iKXT1xe0CTunqC7ME8c4CfkKqMlbPpEM61uYg/4eENL8mFjoEIW9vzW3imEQDbYLK9mL8sMKvUPBuBZ9oUQ9gXSqBdZZGXJzvjtwmeOzvpwn8tgL/bjV+L52z9mCLgH+dgg+L8VPSG+e8+NxayzbpSaaI8SUCHi/wX9Eq2+++CZz1f1DA06TM+fnq59a61pMUOhFPF+PWYnyjgh9XsEfBe2TiTO55VOHf5awyJ1/w3HJ7kWlfZYYgiICvlCi8U8AfpIMrx2XJT4yPCsIxrhxyCencchs04de3ZqrALxFwGwEPV/BiMX/fOMr2/00QjlCsnp6vZm65DdMWX50UJAqTBZxVuowLXBT2EeMF6c0fp0m/dWMsQXenIBxQwsBUV87r7LnlNmorWmWaQ7yHGM+U6iSfv6WSVmubzIu/XsBXF1blEtK55ZaJLelJZjiLd1P408W4XMFbUz35Rsb+QcGrxPxeOXsut9waZF39a6Y7cA+Ff5+C31TwF6lsVZbgf0qM31YLL81XILfcmmQahdkCvlTAowU8R8ErU3GPeqriXiPgidobOvIvnltuY8S6o8psRdi6KuoZPqxgpOAjIyXSKHiJgMco/LYKn7e25pbbWLSO5UlbsTwwU8CSgrsL+E6Bv1SM9w8x4OIZMX+1Gk9XhJcpuKkg5Oo0ueU2buL9nqTNRZzqzM8TY4davLUibCWIj5DqrPrTHfhmAfdQ891ifqFYmKE9eQZ+LNj/B8d/scJSChMGAAAAJXRFWHRkYXRlOmNyZWF0ZQAyMDIyLTEyLTA2VDA1OjIxOjMxKzAwOjAw4veWmgAAACV0RVh0ZGF0ZTptb2RpZnkAMjAyMi0xMi0wNlQwNToyMTozMSswMDowMJOqLiYAAAAASUVORK5CYII=;" vertex="1" parent="1">
          <mxGeometry x="390.5" y="601.25" width="78.75" height="80" as="geometry" />
        </mxCell>
        <mxCell id="AgKKOFiebJRXSR-hWWNA-35" style="edgeStyle=orthogonalEdgeStyle;rounded=0;orthogonalLoop=1;jettySize=auto;html=1;strokeWidth=2;" edge="1" parent="1" source="AgKKOFiebJRXSR-hWWNA-25">
          <mxGeometry relative="1" as="geometry">
            <mxPoint x="882" y="385" as="targetPoint" />
          </mxGeometry>
        </mxCell>
        <mxCell id="AgKKOFiebJRXSR-hWWNA-25" value="Sensor&lt;div&gt;Umidade&lt;/div&gt;" style="sketch=0;outlineConnect=0;fontColor=#232F3E;gradientColor=none;fillColor=#7AA116;strokeColor=none;dashed=0;verticalLabelPosition=top;verticalAlign=bottom;align=center;html=1;fontSize=12;fontStyle=0;aspect=fixed;pointerEvents=1;shape=mxgraph.aws4.iot_thing_humidity_sensor;labelPosition=center;" vertex="1" parent="1">
          <mxGeometry x="858" y="255" width="48" height="48" as="geometry" />
        </mxCell>
        <mxCell id="AgKKOFiebJRXSR-hWWNA-34" style="rounded=0;orthogonalLoop=1;jettySize=auto;html=1;strokeWidth=2;" edge="1" parent="1" source="AgKKOFiebJRXSR-hWWNA-26" target="AgKKOFiebJRXSR-hWWNA-3">
          <mxGeometry relative="1" as="geometry" />
        </mxCell>
        <mxCell id="AgKKOFiebJRXSR-hWWNA-26" value="Sensor&amp;nbsp;&lt;div&gt;Temperatura&lt;div&gt;&lt;br&gt;&lt;/div&gt;&lt;/div&gt;" style="sketch=0;outlineConnect=0;fontColor=#232F3E;gradientColor=none;fillColor=#7AA116;strokeColor=none;dashed=0;verticalLabelPosition=top;verticalAlign=bottom;align=center;html=1;fontSize=12;fontStyle=0;aspect=fixed;pointerEvents=1;shape=mxgraph.aws4.iot_thing_temperature_sensor;labelPosition=center;" vertex="1" parent="1">
          <mxGeometry x="783" y="265" width="48" height="48" as="geometry" />
        </mxCell>
        <mxCell id="AgKKOFiebJRXSR-hWWNA-36" style="rounded=0;orthogonalLoop=1;jettySize=auto;html=1;strokeWidth=2;" edge="1" parent="1" source="AgKKOFiebJRXSR-hWWNA-27" target="AgKKOFiebJRXSR-hWWNA-3">
          <mxGeometry relative="1" as="geometry" />
        </mxCell>
        <mxCell id="AgKKOFiebJRXSR-hWWNA-27" value="Medidor&amp;nbsp;&lt;div&gt;de Vazão&lt;/div&gt;" style="sketch=0;outlineConnect=0;fontColor=#232F3E;gradientColor=none;fillColor=#7AA116;strokeColor=none;dashed=0;verticalLabelPosition=top;verticalAlign=bottom;align=center;html=1;fontSize=12;fontStyle=0;aspect=fixed;pointerEvents=1;shape=mxgraph.aws4.sensor;labelPosition=center;" vertex="1" parent="1">
          <mxGeometry x="933" y="255" width="44.87" height="50" as="geometry" />
        </mxCell>
        <mxCell id="AgKKOFiebJRXSR-hWWNA-38" style="rounded=0;orthogonalLoop=1;jettySize=auto;html=1;strokeWidth=2;" edge="1" parent="1">
          <mxGeometry relative="1" as="geometry">
            <mxPoint x="933" y="495" as="sourcePoint" />
            <mxPoint x="903" y="425" as="targetPoint" />
          </mxGeometry>
        </mxCell>
        <mxCell id="AgKKOFiebJRXSR-hWWNA-29" value="Bomba" style="shape=mxgraph.pid.pumps_-_din.centrifugal;html=1;pointerEvents=1;align=center;verticalLabelPosition=bottom;verticalAlign=top;dashed=0;" vertex="1" parent="1">
          <mxGeometry x="915.7" y="502.41" width="40" height="40" as="geometry" />
        </mxCell>
        <mxCell id="AgKKOFiebJRXSR-hWWNA-30" value="Válvula" style="verticalLabelPosition=bottom;align=center;html=1;verticalAlign=top;pointerEvents=1;dashed=0;shape=mxgraph.pid2valves.valve;valveType=gate;actuator=powered" vertex="1" parent="1">
          <mxGeometry x="823" y="502.41" width="40" height="40" as="geometry" />
        </mxCell>
        <mxCell id="AgKKOFiebJRXSR-hWWNA-31" value="" style="part=1;strokeColor=none;fillColor=none;fontStyle=1;fontSize=14;" vertex="1" parent="AgKKOFiebJRXSR-hWWNA-30">
          <mxGeometry x="13" width="14" height="14" as="geometry" />
        </mxCell>
        <mxCell id="AgKKOFiebJRXSR-hWWNA-37" style="rounded=0;orthogonalLoop=1;jettySize=auto;html=1;strokeWidth=2;" edge="1" parent="1">
          <mxGeometry relative="1" as="geometry">
            <mxPoint x="863" y="425" as="targetPoint" />
            <mxPoint x="843" y="495" as="sourcePoint" />
          </mxGeometry>
        </mxCell>
      </root>
    </mxGraphModel>
  </diagram>
</mxfile>
